<svg viewBox="0 0 2097 400" xmlns="http://www.w3.org/2000/svg"><g><g><g><g><g><line x1="53.1875" y1="376" x2="48.1875" y2="376" style="visibility: inherit;" fill="rgb(0, 0, 0)" stroke="rgb(204, 204, 204)" stroke-width="1px"></line><line x1="53.1875" y1="334.2222222222222" x2="48.1875" y2="334.2222222222222" style="visibility: inherit;" fill="rgb(0, 0, 0)" stroke="rgb(204, 204, 204)" stroke-width="1px"></line><line x1="53.1875" y1="292.44444444444457" x2="48.1875" y2="292.44444444444457" style="visibility: inherit;" fill="rgb(0, 0, 0)" stroke="rgb(204, 204, 204)" stroke-width="1px"></line><line x1="53.1875" y1="250.66666666666674" x2="48.1875" y2="250.66666666666674" style="visibility: inherit;" fill="rgb(0, 0, 0)" stroke="rgb(204, 204, 204)" stroke-width="1px"></line><line x1="53.1875" y1="208.88888888888889" x2="48.1875" y2="208.88888888888889" style="visibility: inherit;" fill="rgb(0, 0, 0)" stroke="rgb(204, 204, 204)" stroke-width="1px"></line><line x1="53.1875" y1="167.11111111111111" x2="48.1875" y2="167.11111111111111" style="visibility: inherit;" fill="rgb(0, 0, 0)" stroke="rgb(204, 204, 204)" stroke-width="1px"></line><line x1="53.1875" y1="125.33333333333326" x2="48.1875" y2="125.33333333333326" style="visibility: inherit;" fill="rgb(0, 0, 0)" stroke="rgb(204, 204, 204)" stroke-width="1px"></line><line x1="53.1875" y1="83.55555555555543" x2="48.1875" y2="83.55555555555543" style="visibility: inherit;" fill="rgb(0, 0, 0)" stroke="rgb(204, 204, 204)" stroke-width="1px"></line><line x1="53.1875" y1="41.777777777777835" x2="48.1875" y2="41.777777777777835" style="visibility: inherit;" fill="rgb(0, 0, 0)" stroke="rgb(204, 204, 204)" stroke-width="1px"></line><line x1="53.1875" y1="0" x2="48.1875" y2="0" style="visibility: inherit;" fill="rgb(0, 0, 0)" stroke="rgb(204, 204, 204)" stroke-width="1px"></line></g><g transform="translate(43.1875, 0)"><text x="0" y="376" dx="0em" dy="0.3em" style="text-anchor: end; visibility: hidden; font-family: Roboto, sans-serif; font-size: 12px; font-weight: 200;" fill="rgb(33, 33, 33)" stroke="none" stroke-width="1px">0.54</text><text x="0" y="334.2222222222222" dx="0em" dy="0.3em" style="text-anchor: end; visibility: inherit; font-family: Roboto, sans-serif; font-size: 12px; font-weight: 200;" fill="rgb(33, 33, 33)" stroke="none" stroke-width="1px">0.56</text><text x="0" y="292.44444444444457" dx="0em" dy="0.3em" style="text-anchor: end; visibility: inherit; font-family: Roboto, sans-serif; font-size: 12px; font-weight: 200;" fill="rgb(33, 33, 33)" stroke="none" stroke-width="1px">0.58</text><text x="0" y="250.66666666666674" dx="0em" dy="0.3em" style="text-anchor: end; visibility: inherit; font-family: Roboto, sans-serif; font-size: 12px; font-weight: 200;" fill="rgb(33, 33, 33)" stroke="none" stroke-width="1px">0.6</text><text x="0" y="208.88888888888889" dx="0em" dy="0.3em" style="text-anchor: end; visibility: inherit; font-family: Roboto, sans-serif; font-size: 12px; font-weight: 200;" fill="rgb(33, 33, 33)" stroke="none" stroke-width="1px">0.62</text><text x="0" y="167.11111111111111" dx="0em" dy="0.3em" style="text-anchor: end; visibility: inherit; font-family: Roboto, sans-serif; font-size: 12px; font-weight: 200;" fill="rgb(33, 33, 33)" stroke="none" stroke-width="1px">0.64</text><text x="0" y="125.33333333333326" dx="0em" dy="0.3em" style="text-anchor: end; visibility: inherit; font-family: Roboto, sans-serif; font-size: 12px; font-weight: 200;" fill="rgb(33, 33, 33)" stroke="none" stroke-width="1px">0.66</text><text x="0" y="83.55555555555543" dx="0em" dy="0.3em" style="text-anchor: end; visibility: inherit; font-family: Roboto, sans-serif; font-size: 12px; font-weight: 200;" fill="rgb(33, 33, 33)" stroke="none" stroke-width="1px">0.68</text><text x="0" y="41.777777777777835" dx="0em" dy="0.3em" style="text-anchor: end; visibility: inherit; font-family: Roboto, sans-serif; font-size: 12px; font-weight: 200;" fill="rgb(33, 33, 33)" stroke="none" stroke-width="1px">0.7</text><text x="0" y="0" dx="0em" dy="0.3em" style="text-anchor: end; visibility: hidden; font-family: Roboto, sans-serif; font-size: 12px; font-weight: 200;" fill="rgb(33, 33, 33)" stroke="none" stroke-width="1px">0.72</text></g><line x1="53.1875" y1="0" x2="53.1875" y2="376" fill="rgb(0, 0, 0)" stroke="rgb(204, 204, 204)" stroke-width="1px"></line></g></g><g transform="translate(53, 0)" clip-path="url(#clip_0)"><clipPath id="clip_0"><rect width="2043" height="376"></rect></clipPath><g><g><g><line x1="0" y1="0" x2="0" y2="376" fill="rgb(0, 0, 0)" stroke="rgb(66, 66, 66)" stroke-width="1px" opacity="0.25"></line><line x1="204.38125000000002" y1="0" x2="204.38125000000002" y2="376" fill="rgb(0, 0, 0)" stroke="rgb(66, 66, 66)" stroke-width="1px" opacity="0.25"></line><line x1="408.76250000000005" y1="0" x2="408.76250000000005" y2="376" fill="rgb(0, 0, 0)" stroke="rgb(66, 66, 66)" stroke-width="1px" opacity="0.25"></line><line x1="613.14375" y1="0" x2="613.14375" y2="376" fill="rgb(0, 0, 0)" stroke="rgb(66, 66, 66)" stroke-width="1px" opacity="0.25"></line><line x1="817.5250000000001" y1="0" x2="817.5250000000001" y2="376" fill="rgb(0, 0, 0)" stroke="rgb(66, 66, 66)" stroke-width="1px" opacity="0.25"></line><line x1="1021.90625" y1="0" x2="1021.90625" y2="376" fill="rgb(0, 0, 0)" stroke="rgb(66, 66, 66)" stroke-width="1px" opacity="0.25"></line><line x1="1226.2875" y1="0" x2="1226.2875" y2="376" fill="rgb(0, 0, 0)" stroke="rgb(66, 66, 66)" stroke-width="1px" opacity="0.25"></line><line x1="1430.6687499999998" y1="0" x2="1430.6687499999998" y2="376" fill="rgb(0, 0, 0)" stroke="rgb(66, 66, 66)" stroke-width="1px" opacity="0.25"></line><line x1="1635.0500000000002" y1="0" x2="1635.0500000000002" y2="376" fill="rgb(0, 0, 0)" stroke="rgb(66, 66, 66)" stroke-width="1px" opacity="0.25"></line><line x1="1839.43125" y1="0" x2="1839.43125" y2="376" fill="rgb(0, 0, 0)" stroke="rgb(66, 66, 66)" stroke-width="1px" opacity="0.25"></line><line x1="2043.8125" y1="0" x2="2043.8125" y2="376" fill="rgb(0, 0, 0)" stroke="rgb(66, 66, 66)" stroke-width="1px" opacity="0.25"></line></g><g><line x1="0" y1="376" x2="2043.8125" y2="376" fill="rgb(0, 0, 0)" stroke="rgb(66, 66, 66)" stroke-width="1px" opacity="0.25"></line><line x1="0" y1="334.2222222222222" x2="2043.8125" y2="334.2222222222222" fill="rgb(0, 0, 0)" stroke="rgb(66, 66, 66)" stroke-width="1px" opacity="0.25"></line><line x1="0" y1="292.44444444444457" x2="2043.8125" y2="292.44444444444457" fill="rgb(0, 0, 0)" stroke="rgb(66, 66, 66)" stroke-width="1px" opacity="0.25"></line><line x1="0" y1="250.66666666666674" x2="2043.8125" y2="250.66666666666674" fill="rgb(0, 0, 0)" stroke="rgb(66, 66, 66)" stroke-width="1px" opacity="0.25"></line><line x1="0" y1="208.88888888888889" x2="2043.8125" y2="208.88888888888889" fill="rgb(0, 0, 0)" stroke="rgb(66, 66, 66)" stroke-width="1px" opacity="0.25"></line><line x1="0" y1="167.11111111111111" x2="2043.8125" y2="167.11111111111111" fill="rgb(0, 0, 0)" stroke="rgb(66, 66, 66)" stroke-width="1px" opacity="0.25"></line><line x1="0" y1="125.33333333333326" x2="2043.8125" y2="125.33333333333326" fill="rgb(0, 0, 0)" stroke="rgb(66, 66, 66)" stroke-width="1px" opacity="0.25"></line><line x1="0" y1="83.55555555555543" x2="2043.8125" y2="83.55555555555543" fill="rgb(0, 0, 0)" stroke="rgb(66, 66, 66)" stroke-width="1px" opacity="0.25"></line><line x1="0" y1="41.777777777777835" x2="2043.8125" y2="41.777777777777835" fill="rgb(0, 0, 0)" stroke="rgb(66, 66, 66)" stroke-width="1px" opacity="0.25"></line><line x1="0" y1="0" x2="2043.8125" y2="0" fill="rgb(0, 0, 0)" stroke="rgb(66, 66, 66)" stroke-width="1px" opacity="0.25"></line></g></g></g><g><g><line x1="0" y1="1504.0000000000007" x2="2043.8125" y2="1504.0000000000007" fill="rgb(0, 0, 0)" stroke="rgb(153, 153, 153)" stroke-width="1.5px"></line></g></g><g><g><line x1="204.38125000000002" y1="0" x2="204.38125000000002" y2="376" fill="rgb(0, 0, 0)" stroke="rgb(153, 153, 153)" stroke-width="1.5px"></line></g></g><g><g><g><g><g><path stroke="rgb(255, 112, 67)" stroke-width="2px" d="M261.608,396.19189343829265L265.695625,372.7160339830508L269.78325,374.4863465379348L273.870875,361.9169247969736L277.9585,352.7910617890515L282.046125,346.04796896714475L286.13375,341.05131186998165L290.22137499999997,329.4948301379155L294.30899999999997,311.4666869088693L298.396625,304.13671569437275L302.48425,292.44822386568734L306.571875,284.8011568655304L310.6595,272.605460384699L314.747125,268.77480990443996L318.83475,261.08778519637576L322.922375,240.62661310216578L327.01,227.0820280001113L331.097625,219.2722243555268L335.18525,213.31845793368046L339.272875,204.99150647251838L343.3605,201.26327014564612L347.448125,195.22257502828236L351.53574999999995,188.7453429878159L355.62337499999995,185.17599983495072L359.71099999999996,181.44946352826113L363.79862499999996,176.67772279848495L367.88624999999996,174.13167440953882L371.97387499999996,171.97010309099906L376.06149999999997,168.7712836384796L380.14912499999997,167.16893820920447L384.23675000000003,164.62265033472255L388.32437500000003,163.09487761020276L392.41200000000003,163.7630945925409L396.49962500000004,162.57914416496254L400.58725000000004,157.11408225458683L404.67487500000004,156.05391781452204L408.76250000000005,153.19894644438267L412.85012500000005,154.33877861458467L416.93775,152.16986292442994L421.025375,146.4308179011364L425.113,141.71950631481624L429.200625,137.94178103226926L433.28825,134.09026524581213L437.375875,131.4623597293554L441.4635,135.59124640401993L445.551125,130.14407571818498L449.63875,133.21534557739542L453.726375,130.93740792830556L457.814,126.4008343019999L461.901625,124.94682450155561L465.98925,129.78004860582726L470.07687500000003,127.60829537002553L474.16450000000003,129.47505446539645L478.25212500000004,125.84041826883754L482.33975,128.0973321601007L486.427375,124.06284655490386L490.515,125.44590851481077L494.602625,124.69086507382487L498.69025,123.92084296465062L502.777875,123.45882969914649L506.8655,121.27974507833123L510.953125,121.55717492277181L515.04075,126.16132843863485L519.128375,122.90124432202437L523.216,121.89613218281421L527.303625,119.07419219319257L531.39125,117.38102819941966L535.478875,116.99912189232155L539.5665,113.91716311579387L543.654125,113.0189261806334L547.74175,111.21204964419815L551.829375,110.44491976691965L555.917,108.39976122362273L560.004625,106.22172776688848L564.09225,105.2318539344386L568.179875,103.3700450626217L572.2675,101.93596369494884L576.3551249999999,101.07551487434485L580.4427499999999,100.24224953739983L584.5303749999999,99.7422903352327L588.6179999999999,98.80837252775916L592.7056249999999,95.71220289558879L596.79325,95.12243549162582L600.880875,95.40251733542148L604.9685,94.3026320663596L609.056125,92.69176257416653L613.14375,93.31017129877237L617.231375,93.04722444437022L621.319,91.93851800097268L625.406625,93.80916288561241L629.49425,91.76173877954456L633.581875,93.0691032635899L637.6695,91.00070696174812L641.757125,88.49178460829617L645.84475,86.3524889100514L649.932375,86.6537921080344L654.02,84.9326973653117L658.107625,82.94910218892177L662.19525,81.44194903850502L666.282875,80.53765714825481L670.3705,79.67813577251415L674.458125,77.57749252714777L678.54575,75.68316429375444L682.633375,74.22957130913586L686.721,76.8442225997991L690.808625,81.89977065263932L694.89625,78.27653116904949L698.983875,76.7365297650691L703.0714999999999,80.88421662104507L707.1591249999999,80.20301769777893L711.2467499999999,75.99054502079409L715.3343749999999,74.09705350376892L719.4219999999999,72.01002026279738L723.5096249999999,72.34268093514426L727.5972499999999,71.90833505237886L731.6848749999999,68.7949125304506L735.7724999999999,67.24385506187667L739.8601249999999,67.89810119766202L743.9477499999999,68.29064887913326L748.0353749999999,68.52617748801599L752.1229999999999,66.44862194725036L756.2106249999999,66.47002299812983L760.2982499999999,68.06774424558739L764.3858749999999,65.85661576020247L768.4735000000001,64.2129426243885L772.5611250000001,62.909742698317466L776.6487500000001,64.6636914933528L780.7363750000001,64.13113035045235L784.8240000000001,66.03046637080745L788.9116250000001,64.63424903533452L792.9992500000001,63.162526544885154L797.0868750000001,65.13230804288423L801.1745000000001,64.09535403858054L805.2621250000001,63.47318163599828L809.3497500000001,64.68475881137876L813.4373750000001,64.14377074126791L817.5250000000001,63.18523561302784L821.6126250000001,63.87804891142302L825.7002500000001,62.391860228947266L829.7878750000001,62.768031591808985L833.8755,63.6277264986916L837.963125,62.55861302289935L842.05075,62.86808326818024L846.138375,61.15188875383621L850.226,60.122172045229895L854.313625,60.138334109231636L858.40125,59.51403925846684L862.488875,59.45645839259093L866.5765,56.56909488079654L870.664125,56.42155739064985L874.75175,55.382096565805455L878.839375,54.441473829307974L882.927,52.92616185665332L887.014625,52.333970717643204L891.10225,53.24654060658417L895.189875,51.57525963684556L899.2775,50.57249105500226L903.365125,49.9708299058964L907.45275,50.24377550260648L911.540375,48.822662243702624L915.628,48.60393657453367L919.715625,46.57082451151968L923.80325,45.66795331829406L927.890875,45.126230602358895L931.9785,43.5332625974585L936.066125,43.52842012527477L940.1537500000001,46.37832963423342L944.2413750000001,46.18639867809602L948.3290000000001,42.58448282597101L952.4166250000001,41.69121788704317L956.5042500000001,41.47225496826928L960.591875,40.072942841665956L964.6795,39.86734765486953L968.767125,45.44957072433712L972.85475,49.11590061060059L976.942375,51.31569854235867L981.03,49.78276230914457L985.117625,49.179996613798906L989.20525,45.01458387356641L993.292875,43.46627456018319L997.3805,39.0505316937107L1001.468125,43.37460053071207L1005.55575,45.65209559132226L1009.643375,47.65253491386172L1013.731,53.29049411658405L1017.818625,59.526084630486466L1021.90625,69.29001516495626L1025.9938750000001,75.78231577181178L1030.0815,74.28906219597022L1034.1691250000001,68.32147215509306L1038.25675,67.91072916741845L1042.3443750000001,71.151040653256L1046.432,72.14428921400217L1050.5196250000001,78.12887229040497L1054.60725,84.25544108393254L1058.6948750000001,78.73899509706912L1062.7825,82.40264206183556L1066.8701250000001,83.96688795452219L1070.95775,87.12430819622932L1075.0453750000001,86.79988763515841L1079.133,86.28823925393306L1083.2206250000002,87.88312688671054L1087.30825,87.5721748940299L1091.3958750000002,90.55536493228117L1095.4835,92.34527895523198L1099.5711250000002,89.61547404597722L1103.65875,89.87946776193685L1107.7463750000002,89.08692566075635L1111.834,89.56233873080433L1115.9216250000002,88.26270595590336L1120.00925,84.63011129869403L1124.0968750000002,85.62036554122011L1128.1845,89.06733307900451L1132.2721250000002,89.86757922633609L1136.35975,93.83448419317723L1140.4473750000002,98.75044612096833L1144.535,102.01701932222572L1148.6226250000002,126.1654412889735L1152.7102499999999,120.68488912912397L1156.797875,114.54374284094546L1160.8854999999999,109.27412464811658L1164.973125,107.69728415234115L1169.0607499999999,108.97000275797896L1173.148375,107.19781497367566L1177.2359999999999,101.37981064931212L1181.323625,105.4965147007445L1185.4112499999999,105.11372213933512L1189.498875,103.9331082717333L1193.5865,104.17567828192823L1197.674125,100.20052072342929L1201.76175,101.30218346677232L1205.849375,114.32532960961778L1209.937,110.0940150400761L1214.024625,115.16273294440147L1218.11225,109.01157642401665L1222.199875,107.53975521788105L1226.2875,102.53591312659184L1230.375125,106.19017618711226L1234.46275,130.57121206941795L1238.550375,135.37350404964778L1242.638,129.37948801938813L1246.725625,134.65846961962993L1250.81325,117.53925719529411L1254.900875,114.2412442975775L1258.9885,117.01712821272893L1263.076125,126.60711144946096L1267.16375,120.94989122541652L1271.251375,110.26504848952237L1275.339,110.5106613602878L1279.426625,114.77877845035516L1283.51425,118.29058703515187L1287.601875,120.08067614144686L1291.6895,109.10952734997507L1295.777125,105.062657022778L1299.86475,107.07228023865059L1303.952375,112.08175768820723L1308.04,106.52904898412655L1312.127625,116.1935145446913L1316.21525,102.02258854113227L1320.302875,108.73499642810552L1324.3905,102.61911556655285L1328.478125,97.99864871886497L1332.56575,103.1508214978934L1336.653375,99.26861060842563L1340.741,97.57322636091871L1344.828625,93.70318082014542L1348.91625,96.76978743563653L1353.003875,92.58717517880257L1357.0915,94.5153034339011L1361.179125,93.77030372544748L1365.26675,97.12705722340066L1369.3543750000001,96.28829432990348L1373.442,96.73597492456148L1377.5296250000001,95.10270661984376L1381.61725,99.19443333537733L1385.7048750000001,101.96641560628842L1389.7925,96.02214812577657L1393.8801250000001,94.04046825439931L1397.96775,95.70427532384186L1402.0553750000001,91.63087186714323L1406.1429999999998,83.79819585316893L1410.230625,82.90234356780957L1414.3182499999998,90.92327717340063L1418.405875,81.47181217840281L1422.4934999999998,71.99717985837896L1426.581125,77.40661458786545L1430.6687499999998,75.26364148560235L1434.756375,83.8042369763903L1438.8439999999998,75.29851139868413L1442.931625,90.48167743654115L1447.0192499999998,93.569000833127L1451.106875,90.9836992618799L1455.1944999999998,87.21364561303625L1459.282125,75.4422799191591L1463.3697499999998,66.16058779673757L1467.457375,62.810445229379866L1471.5449999999998,61.43430197513866L1475.632625,60.92561206717673L1479.7202499999999,59.352463747060675L1483.807875,70.77072325183065L1487.8954999999999,52.897381961013174L1491.983125,47.245015081895005L1496.0707499999999,52.09504388664787L1500.158375,60.710691154037434L1504.2459999999999,68.73289450673998L1508.333625,73.54621651836133L1512.4212499999999,61.21919643323347L1516.508875,57.62673770518196L1520.5964999999999,54.52032413759484L1524.684125,49.48671476318293L1528.7717499999999,46.466549138535754L1532.859375,51.31096827604941L1536.9470000000001,46.29316687091681L1541.034625,37.893852087881925L1545.1222500000001,30.952386556548653L1549.209875,40.73458615451034L1553.2975000000001,33.92476137186488L1557.385125,38.39726167609192L1561.4727500000001,40.763815617037494L1565.560375,40.59881756168299L1569.6480000000001,34.7942385469244L1573.735625,26.8737955288706L1577.8232500000001,33.532739884121824L1581.910875,48.939316663356166L1585.9985000000001,47.08904860939598L1590.086125,45.978887777019864L1594.1737500000002,36.43735025620477L1598.261375,50.04814060043238L1602.3490000000002,49.33922358857159L1606.436625,37.5026632153716L1610.5242500000002,29.766734902286096L1614.611875,33.68362289124162L1618.6995000000002,37.93563234612716L1622.787125,40.80378426064954L1626.8747500000002,46.64542477697068L1630.962375,43.493840771469394L1635.0500000000002,35.26331809745756L1639.137625,29.69106220687685L1643.2252500000002,37.75891883861178L1647.312875,37.844941163871255L1651.4005000000002,30.923040002142002L1655.488125,31.20759491430321L1659.5757500000002,25.672747680054407L1663.6633749999999,23.936719956434764L1667.751,22.578107277680193L1671.8386249999999,25.566692993452836L1675.92625,22.922148813717545L1680.0138749999999,28.942879148934725L1684.1015,29.06856007162255L1688.1891249999999,24.389326774445983L1692.27675,28.238305308442037L1696.3643749999999,27.06093515039713L1700.452,30.1582663785954L1704.539625,31.38272282934092L1708.62725,43.52860686587173L1712.714875,47.329380009347915L1716.8025,48.341909520094525L1720.890125,37.85516330204973L1724.97775,31.56311557122269L1729.065375,24.61812569886684L1733.153,21.719066150792635L1737.240625,19.97963042194817L1741.32825,29.396240819968387L1745.415875,26.48776208197416L1749.5035,23.157794222247695L1753.591125,29.084266394052896L1757.67875,32.64014969713592L1761.766375,26.215284505171226L1765.854,26.481064954608307L1769.941625,22.519833659654715L1774.02925,20.143094882682444L1778.116875,27.909438879479445L1782.2045,30.033426329871325L1786.292125,25.91918486015148L1790.37975,22.816647889154005L1794.467375,20.321183420382084L1798.555,23.261600348317554L1802.642625,24.39190821890532L1806.73025,24.753096896675125L1810.817875,24.6528140587542L1814.9055,24.275698114411036L1818.993125,21.513609600119075L1823.08075,20.80729482230022L1827.168375,27.673966754084354L1831.256,23.869517025513744L1835.343625,28.560411548248215" style="fill: none;" fill="none"></path></g></g></g></g><g opacity="0.2"><g><g><g><path stroke="rgb(255, 112, 67)" stroke-width="2px" d="M261.608,378.7260464562311L265.695625,337.5188017951118L269.78325,377.1410662333172L273.870875,343.0659835603503L277.9585,339.1036575105456L282.046125,335.9339460796781L286.13375,333.55660025278735L290.22137499999997,312.1604878107707L294.30899999999997,284.4248279995389L298.396625,293.14184570312506L302.48425,274.9155691994562L306.571875,273.3305889765422L310.6595,254.3119468688965L314.747125,263.0288400650025L318.83475,249.55725521511505L322.922375,209.93486626942953L327.01,206.765154838562L331.097625,207.5575204425388L335.18525,204.38780901167132L339.272875,192.50107987721762L343.3605,195.67091581556537L347.448125,186.1615325080024L351.53574999999995,179.0294950273302L355.62337499999995,179.8219851387872L359.71099999999996,175.8596590889825L363.79862499999996,169.52011171976724L367.88624999999996,170.31260183122424L371.97387499999996,168.7277461157905L376.06149999999997,163.973054462009L380.14912499999997,164.7654200659858L384.23675000000003,160.8032185236613L388.32437500000003,160.8032185236613L392.41200000000003,164.7654200659858L396.49962500000004,160.8032185236613L400.58725000000004,148.91648938920764L404.67487500000004,154.46367115444608L408.76250000000005,148.91648938920764L412.85012500000005,156.04852686987985L416.93775,148.91648938920764L421.025375,137.82225036621094L425.113,134.65253893534342L429.200625,132.27519310845267L433.28825,128.3129915661282L437.375875,127.52050145467119L441.4635,141.78457641601562L445.551125,121.97331968943277L449.63875,137.82225036621094L453.726375,127.52050145467119L457.814,119.59597386254202L461.901625,122.76580980088976L465.98925,137.02988476223416L470.07687500000003,124.3506655163235L474.16450000000003,132.27519310845267L478.25212500000004,120.38846397399902L482.33975,131.48270299699573L486.427375,118.01111814710829L490.515,127.52050145467119L494.602625,123.55829991234671L498.69025,122.76580980088976L502.777875,122.76580980088976L506.8655,118.01111814710829L510.953125,121.97331968943277L515.04075,133.06755871242947L519.128375,118.01111814710829L523.216,120.38846397399902L527.303625,114.84128220876055L531.39125,114.84128220876055L535.478875,116.4262624316745L539.5665,109.29422495100233L543.654125,111.67157077789307L547.74175,108.50173483954534L551.829375,109.29422495100233L555.917,105.3320234086778L560.004625,102.95467758178711L564.09225,103.74704318576386L568.179875,100.57733175489638L572.2675,99.78484164343938L576.3551249999999,99.78484164343938L580.4427499999999,98.99235153198238L584.5303749999999,98.99235153198238L588.6179999999999,97.40749581654863L592.7056249999999,91.06794844733342L596.79325,94.23778438568111L600.880875,95.8226401011149L604.9685,92.65280416276715L609.056125,90.27545833587642L613.14375,94.23778438568111L617.231375,92.65280416276715L621.319,90.27545833587642L625.406625,96.61513021257184L629.49425,88.69060262044268L633.581875,95.0301499896579L637.6695,87.89811250898573L641.757125,84.7284010781182L645.84475,83.14354536268442L649.932375,87.10574690500894L654.02,82.35105525122746L658.107625,79.97370942433672L662.19525,79.18121931287973L666.282875,79.18121931287973L670.3705,78.38885370890299L674.458125,74.4265276590983L678.54575,72.84167194366451L682.633375,72.04918183220755L686.721,80.76619953579372L690.808625,89.48309273189967L694.89625,72.84167194366451L698.983875,74.4265276590983L703.0714999999999,87.10574690500894L707.1591249999999,79.18121931287973L711.2467499999999,69.67183600531682L715.3343749999999,71.25681622823076L719.4219999999999,68.87947040134003L723.5096249999999,72.84167194366451L727.5972499999999,71.25681622823076L731.6848749999999,64.12477874755855L735.7724999999999,64.91726885901555L739.8601249999999,68.87947040134003L743.9477499999999,68.87947040134003L748.0353749999999,68.87947040134003L752.1229999999999,63.332288636101595L756.2106249999999,66.50212457444928L760.2982499999999,70.46432611677378L764.3858749999999,62.53992303212481L768.4735000000001,61.74743292066781L772.5611250000001,60.95494280921086L776.6487500000001,67.29461468590628L780.7363750000001,63.332288636101595L784.8240000000001,68.87947040134003L788.9116250000001,62.53992303212481L792.9992500000001,60.95494280921086L797.0868750000001,68.08698028988303L801.1745000000001,62.53992303212481L805.2621250000001,62.53992303212481L809.3497500000001,66.50212457444928L813.4373750000001,63.332288636101595L817.5250000000001,61.74743292066781L821.6126250000001,64.91726885901555L825.7002500000001,60.16257720523407L829.7878750000001,63.332288636101595L833.8755,64.91726885901555L837.963125,60.95494280921086L842.05075,63.332288636101595L846.138375,58.577596982320124L850.226,58.577596982320124L854.313625,60.16257720523407L858.40125,58.577596982320124L862.488875,59.37008709377707L866.5765,52.238049613104906L870.664125,56.200251155429385L874.75175,53.822905328538646L878.839375,53.030539724561855L882.927,50.653193897671116L887.014625,51.445684009128115L891.10225,54.61539543999564L895.189875,49.068338182237376L899.2775,49.068338182237376L903.365125,49.068338182237376L907.45275,50.653193897671116L911.540375,46.69099235534664L915.628,48.275848070780384L919.715625,43.52115641699895L923.80325,44.3136465284559L927.890875,44.3136465284559L931.9785,41.14381059010821L936.066125,43.52115641699895L940.1537500000001,50.653193897671116L944.2413750000001,45.898502243889645L948.3290000000001,37.18160904778369L952.4166250000001,40.35132047865121L956.5042500000001,41.14381059010821L960.591875,37.97397465176047L964.6795,39.55895487467443L968.767125,53.822905328538646L972.85475,54.61539543999564L976.942375,54.61539543999564L981.03,47.48335795932343L985.117625,48.275848070780384L989.20525,38.76646476321747L993.292875,41.14381059010821L997.3805,32.42691739400225L1001.468125,49.86070378621417L1005.55575,49.068338182237376L1009.643375,50.653193897671116L1013.731,61.74743292066781L1017.818625,68.87947040134003L1021.90625,83.9359109666612L1025.9938750000001,85.52076668209499L1030.0815,72.04918183220755L1034.1691250000001,59.37008709377707L1038.25675,67.29461468590628L1042.3443750000001,76.01150788201224L1046.432,73.63416205512151L1050.5196250000001,87.10574690500894L1054.60725,93.44529427422415L1058.6948750000001,70.46432611677378L1062.7825,87.89811250898573L1066.8701250000001,86.31325679355194L1070.95775,91.86043855879042L1075.0453750000001,86.31325679355194L1079.133,85.52076668209499L1083.2206250000002,90.27545833587642L1087.30825,87.10574690500894L1091.3958750000002,95.0301499896579L1095.4835,95.0301499896579L1099.5711250000002,85.52076668209499L1103.65875,90.27545833587642L1107.7463750000002,87.89811250898573L1111.834,90.27545833587642L1115.9216250000002,86.31325679355194L1120.00925,79.18121931287973L1124.0968750000002,87.10574690500894L1128.1845,94.23778438568111L1132.2721250000002,91.06794844733342L1136.35975,99.78484164343938L1140.4473750000002,106.12438901265459L1144.535,106.91687912411159L1148.6226250000002,162.38807423909506L1152.7102499999999,112.46406088935002L1156.797875,105.3320234086778L1160.8854999999999,101.36969735887311L1164.973125,105.3320234086778L1169.0607499999999,110.87908066643607L1173.148375,104.53953329722086L1177.2359999999999,92.65280416276715L1181.323625,111.67157077789307L1185.4112499999999,104.53953329722086L1189.498875,102.16218747033011L1193.5865,104.53953329722086L1197.674125,94.23778438568111L1201.76175,102.95467758178711L1205.849375,133.86004882388644L1209.937,103.74704318576386L1214.024625,122.76580980088976L1218.11225,99.78484164343938L1222.199875,105.3320234086778L1226.2875,95.0301499896579L1230.375125,111.67157077789307L1234.46275,167.1427658928765L1238.550375,142.5769420199924L1242.638,120.38846397399902L1246.725625,142.5769420199924L1250.81325,91.86043855879042L1254.900875,109.29422495100233L1258.9885,121.18095408545598L1263.076125,140.99208630455863L1267.16375,112.46406088935002L1271.251375,94.23778438568111L1275.339,110.87908066643607L1279.426625,121.18095408545598L1283.51425,123.55829991234671L1287.601875,122.76580980088976L1291.6895,92.65280416276715L1295.777125,98.99235153198238L1299.86475,110.08671506245928L1303.952375,119.59597386254202L1308.04,98.19998592800563L1312.127625,130.69021288553873L1316.21525,80.76619953579372L1320.302875,118.80360825856523L1324.3905,93.44529427422415L1328.478125,91.06794844733342L1332.56575,110.87908066643607L1336.653375,93.44529427422415L1340.741,95.0301499896579L1344.828625,87.89811250898573L1348.91625,101.36969735887311L1353.003875,86.31325679355194L1357.0915,97.40749581654863L1361.179125,92.65280416276715L1365.26675,102.16218747033011L1369.3543750000001,95.0301499896579L1373.442,97.40749581654863L1377.5296250000001,92.65280416276715L1381.61725,105.3320234086778L1385.7048750000001,106.12438901265459L1389.7925,87.10574690500894L1393.8801250000001,91.06794844733342L1397.96775,98.19998592800563L1402.0553750000001,85.52076668209499L1406.1429999999998,72.04918183220755L1410.230625,81.55856513977047L1414.3182499999998,102.95467758178711L1418.405875,67.29461468590628L1422.4934999999998,57.78523137834333L1426.581125,85.52076668209499L1430.6687499999998,72.04918183220755L1434.756375,96.61513021257184L1438.8439999999998,62.53992303212481L1442.931625,113.25642649332681L1447.0192499999998,98.19998592800563L1451.106875,87.10574690500894L1455.1944999999998,81.55856513977047L1459.282125,57.78523137834333L1463.3697499999998,52.238049613104906L1467.457375,57.78523137834333L1471.5449999999998,59.37008709377707L1475.632625,60.16257720523407L1479.7202499999999,56.99274126688634L1483.807875,87.89811250898573L1487.8954999999999,26.087370024786992L1491.983125,38.76646476321747L1496.0707499999999,59.37008709377707L1500.158375,73.63416205512151L1504.2459999999999,80.76619953579372L1508.333625,80.76619953579372L1512.4212499999999,42.72866630554195L1516.508875,52.238049613104906L1520.5964999999999,49.86070378621417L1524.684125,41.93630070156516L1528.7717499999999,41.93630070156516L1532.859375,58.577596982320124L1536.9470000000001,38.76646476321747L1541.034625,25.294879913330035L1545.1222500000001,20.54018825954856L1549.209875,55.407885551452594L1553.2975000000001,23.710024197896296L1557.385125,45.10601213243269L1561.4727500000001,44.3136465284559L1565.560375,40.35132047865121L1569.6480000000001,26.087370024786992L1573.735625,14.993131001790296L1577.8232500000001,43.52115641699895L1581.910875,72.04918183220755L1585.9985000000001,44.3136465284559L1590.086125,44.3136465284559L1594.1737500000002,22.125043974982304L1598.261375,70.46432611677378L1602.3490000000002,48.275848070780384L1606.436625,19.74782265557177L1610.5242500000002,18.162842432657822L1614.611875,39.55895487467443L1618.6995000000002,44.3136465284559L1622.787125,45.10601213243269L1626.8747500000002,55.407885551452594L1630.962375,38.76646476321747L1635.0500000000002,22.917534086439296L1639.137625,21.332678371005557L1643.2252500000002,49.86070378621417L1647.312875,37.97397465176047L1651.4005000000002,20.54018825954856L1655.488125,31.634427282545253L1659.5757500000002,17.370476828681035L1663.6633749999999,21.332678371005557L1667.751,20.54018825954856L1671.8386249999999,30.049571567111514L1675.92625,18.955332544114817L1680.0138749999999,37.97397465176047L1684.1015,29.257081455654518L1688.1891249999999,17.370476828681035L1692.27675,34.01177310943599L1696.3643749999999,25.294879913330035L1700.452,34.80426322089299L1704.539625,33.2194075054592L1708.62725,61.74743292066781L1712.714875,53.030539724561855L1716.8025,49.86070378621417L1720.890125,22.125043974982304L1724.97775,22.125043974982304L1729.065375,14.200640890333341L1733.153,17.370476828681035L1737.240625,17.370476828681035L1741.32825,43.52115641699895L1745.415875,22.125043974982304L1749.5035,18.162842432657822L1753.591125,37.97397465176047L1757.67875,37.97397465176047L1761.766375,16.57798671722408L1765.854,26.87973562876378L1769.941625,16.57798671722408L1774.02925,16.57798671722408L1778.116875,39.55895487467443L1782.2045,33.2194075054592L1786.292125,19.74782265557177L1790.37975,18.162842432657822L1794.467375,16.57798671722408L1798.555,27.672225740220775L1802.642625,26.087370024786992L1806.73025,25.294879913330035L1810.817875,24.50238980187304L1814.9055,23.710024197896296L1818.993125,17.370476828681035L1823.08075,19.74782265557177L1827.168375,37.97397465176047L1831.256,18.162842432657822L1835.343625,35.59675333234994" style="fill: none;" fill="none"></path></g></g></g></g></g></g><g transform="translate(53, 376)" clip-path="url(#clip_1)"><clipPath id="clip_1"><rect width="2043" height="24"></rect></clipPath><g><g><line x1="0" y1="0" x2="0" y2="5" style="visibility: inherit;" fill="rgb(0, 0, 0)" stroke="rgb(204, 204, 204)" stroke-width="1px"></line><line x1="204.38125000000002" y1="0" x2="204.38125000000002" y2="5" style="visibility: inherit;" fill="rgb(0, 0, 0)" stroke="rgb(204, 204, 204)" stroke-width="1px"></line><line x1="408.76250000000005" y1="0" x2="408.76250000000005" y2="5" style="visibility: inherit;" fill="rgb(0, 0, 0)" stroke="rgb(204, 204, 204)" stroke-width="1px"></line><line x1="613.14375" y1="0" x2="613.14375" y2="5" style="visibility: inherit;" fill="rgb(0, 0, 0)" stroke="rgb(204, 204, 204)" stroke-width="1px"></line><line x1="817.5250000000001" y1="0" x2="817.5250000000001" y2="5" style="visibility: inherit;" fill="rgb(0, 0, 0)" stroke="rgb(204, 204, 204)" stroke-width="1px"></line><line x1="1021.90625" y1="0" x2="1021.90625" y2="5" style="visibility: inherit;" fill="rgb(0, 0, 0)" stroke="rgb(204, 204, 204)" stroke-width="1px"></line><line x1="1226.2875" y1="0" x2="1226.2875" y2="5" style="visibility: inherit;" fill="rgb(0, 0, 0)" stroke="rgb(204, 204, 204)" stroke-width="1px"></line><line x1="1430.6687499999998" y1="0" x2="1430.6687499999998" y2="5" style="visibility: inherit;" fill="rgb(0, 0, 0)" stroke="rgb(204, 204, 204)" stroke-width="1px"></line><line x1="1635.0500000000002" y1="0" x2="1635.0500000000002" y2="5" style="visibility: inherit;" fill="rgb(0, 0, 0)" stroke="rgb(204, 204, 204)" stroke-width="1px"></line><line x1="1839.43125" y1="0" x2="1839.43125" y2="5" style="visibility: inherit;" fill="rgb(0, 0, 0)" stroke="rgb(204, 204, 204)" stroke-width="1px"></line><line x1="2043.8125" y1="0" x2="2043.8125" y2="5" style="visibility: inherit;" fill="rgb(0, 0, 0)" stroke="rgb(204, 204, 204)" stroke-width="1px"></line></g><g transform="translate(0, 8)"><text x="0" y="0" dx="0em" dy="0.95em" style="text-anchor: middle; visibility: hidden; font-family: Roboto, sans-serif; font-size: 12px; font-weight: 200;" fill="rgb(33, 33, 33)" stroke="none" stroke-width="1px">-50</text><text x="204.38125000000002" y="0" dx="0em" dy="0.95em" style="text-anchor: middle; visibility: inherit; font-family: Roboto, sans-serif; font-size: 12px; font-weight: 200;" fill="rgb(33, 33, 33)" stroke="none" stroke-width="1px">0</text><text x="408.76250000000005" y="0" dx="0em" dy="0.95em" style="text-anchor: middle; visibility: inherit; font-family: Roboto, sans-serif; font-size: 12px; font-weight: 200;" fill="rgb(33, 33, 33)" stroke="none" stroke-width="1px">50</text><text x="613.14375" y="0" dx="0em" dy="0.95em" style="text-anchor: middle; visibility: inherit; font-family: Roboto, sans-serif; font-size: 12px; font-weight: 200;" fill="rgb(33, 33, 33)" stroke="none" stroke-width="1px">100</text><text x="817.5250000000001" y="0" dx="0em" dy="0.95em" style="text-anchor: middle; visibility: inherit; font-family: Roboto, sans-serif; font-size: 12px; font-weight: 200;" fill="rgb(33, 33, 33)" stroke="none" stroke-width="1px">150</text><text x="1021.90625" y="0" dx="0em" dy="0.95em" style="text-anchor: middle; visibility: inherit; font-family: Roboto, sans-serif; font-size: 12px; font-weight: 200;" fill="rgb(33, 33, 33)" stroke="none" stroke-width="1px">200</text><text x="1226.2875" y="0" dx="0em" dy="0.95em" style="text-anchor: middle; visibility: inherit; font-family: Roboto, sans-serif; font-size: 12px; font-weight: 200;" fill="rgb(33, 33, 33)" stroke="none" stroke-width="1px">250</text><text x="1430.6687499999998" y="0" dx="0em" dy="0.95em" style="text-anchor: middle; visibility: inherit; font-family: Roboto, sans-serif; font-size: 12px; font-weight: 200;" fill="rgb(33, 33, 33)" stroke="none" stroke-width="1px">300</text><text x="1635.0500000000002" y="0" dx="0em" dy="0.95em" style="text-anchor: middle; visibility: inherit; font-family: Roboto, sans-serif; font-size: 12px; font-weight: 200;" fill="rgb(33, 33, 33)" stroke="none" stroke-width="1px">350</text><text x="1839.43125" y="0" dx="0em" dy="0.95em" style="text-anchor: middle; visibility: inherit; font-family: Roboto, sans-serif; font-size: 12px; font-weight: 200;" fill="rgb(33, 33, 33)" stroke="none" stroke-width="1px">400</text><text x="2043.8125" y="0" dx="0em" dy="0.95em" style="text-anchor: middle; visibility: hidden; font-family: Roboto, sans-serif; font-size: 12px; font-weight: 200;" fill="rgb(33, 33, 33)" stroke="none" stroke-width="1px">450</text></g><line x1="0" y1="0" x2="2043.8125" y2="0" fill="rgb(0, 0, 0)" stroke="rgb(204, 204, 204)" stroke-width="1px"></line></g></g></g></g></svg>