<svg viewBox="0 0 2097 400" xmlns="http://www.w3.org/2000/svg"><g><g><g><g><g><line x1="31.59375" y1="376" x2="26.59375" y2="376" style="visibility: inherit;" fill="rgb(0, 0, 0)" stroke="rgb(204, 204, 204)" stroke-width="1px"></line><line x1="31.59375" y1="347.0769230769231" x2="26.59375" y2="347.0769230769231" style="visibility: inherit;" fill="rgb(0, 0, 0)" stroke="rgb(204, 204, 204)" stroke-width="1px"></line><line x1="31.59375" y1="318.15384615384613" x2="26.59375" y2="318.15384615384613" style="visibility: inherit;" fill="rgb(0, 0, 0)" stroke="rgb(204, 204, 204)" stroke-width="1px"></line><line x1="31.59375" y1="289.2307692307692" x2="26.59375" y2="289.2307692307692" style="visibility: inherit;" fill="rgb(0, 0, 0)" stroke="rgb(204, 204, 204)" stroke-width="1px"></line><line x1="31.59375" y1="260.3076923076923" x2="26.59375" y2="260.3076923076923" style="visibility: inherit;" fill="rgb(0, 0, 0)" stroke="rgb(204, 204, 204)" stroke-width="1px"></line><line x1="31.59375" y1="231.3846153846154" x2="26.59375" y2="231.3846153846154" style="visibility: inherit;" fill="rgb(0, 0, 0)" stroke="rgb(204, 204, 204)" stroke-width="1px"></line><line x1="31.59375" y1="202.46153846153845" x2="26.59375" y2="202.46153846153845" style="visibility: inherit;" fill="rgb(0, 0, 0)" stroke="rgb(204, 204, 204)" stroke-width="1px"></line><line x1="31.59375" y1="173.53846153846155" x2="26.59375" y2="173.53846153846155" style="visibility: inherit;" fill="rgb(0, 0, 0)" stroke="rgb(204, 204, 204)" stroke-width="1px"></line><line x1="31.59375" y1="144.6153846153846" x2="26.59375" y2="144.6153846153846" style="visibility: inherit;" fill="rgb(0, 0, 0)" stroke="rgb(204, 204, 204)" stroke-width="1px"></line><line x1="31.59375" y1="115.6923076923077" x2="26.59375" y2="115.6923076923077" style="visibility: inherit;" fill="rgb(0, 0, 0)" stroke="rgb(204, 204, 204)" stroke-width="1px"></line><line x1="31.59375" y1="86.76923076923076" x2="26.59375" y2="86.76923076923076" style="visibility: inherit;" fill="rgb(0, 0, 0)" stroke="rgb(204, 204, 204)" stroke-width="1px"></line><line x1="31.59375" y1="57.84615384615385" x2="26.59375" y2="57.84615384615385" style="visibility: inherit;" fill="rgb(0, 0, 0)" stroke="rgb(204, 204, 204)" stroke-width="1px"></line><line x1="31.59375" y1="28.923076923076906" x2="26.59375" y2="28.923076923076906" style="visibility: inherit;" fill="rgb(0, 0, 0)" stroke="rgb(204, 204, 204)" stroke-width="1px"></line><line x1="31.59375" y1="0" x2="26.59375" y2="0" style="visibility: inherit;" fill="rgb(0, 0, 0)" stroke="rgb(204, 204, 204)" stroke-width="1px"></line></g><g transform="translate(21.59375, 0)"><text x="0" y="376" dx="0em" dy="0.3em" style="text-anchor: end; visibility: hidden; font-family: Roboto, sans-serif; font-size: 12px; font-weight: 200;" fill="rgb(33, 33, 33)" stroke="none" stroke-width="1px">5</text><text x="0" y="347.0769230769231" dx="0em" dy="0.3em" style="text-anchor: end; visibility: inherit; font-family: Roboto, sans-serif; font-size: 12px; font-weight: 200;" fill="rgb(33, 33, 33)" stroke="none" stroke-width="1px">10</text><text x="0" y="318.15384615384613" dx="0em" dy="0.3em" style="text-anchor: end; visibility: inherit; font-family: Roboto, sans-serif; font-size: 12px; font-weight: 200;" fill="rgb(33, 33, 33)" stroke="none" stroke-width="1px">15</text><text x="0" y="289.2307692307692" dx="0em" dy="0.3em" style="text-anchor: end; visibility: inherit; font-family: Roboto, sans-serif; font-size: 12px; font-weight: 200;" fill="rgb(33, 33, 33)" stroke="none" stroke-width="1px">20</text><text x="0" y="260.3076923076923" dx="0em" dy="0.3em" style="text-anchor: end; visibility: inherit; font-family: Roboto, sans-serif; font-size: 12px; font-weight: 200;" fill="rgb(33, 33, 33)" stroke="none" stroke-width="1px">25</text><text x="0" y="231.3846153846154" dx="0em" dy="0.3em" style="text-anchor: end; visibility: inherit; font-family: Roboto, sans-serif; font-size: 12px; font-weight: 200;" fill="rgb(33, 33, 33)" stroke="none" stroke-width="1px">30</text><text x="0" y="202.46153846153845" dx="0em" dy="0.3em" style="text-anchor: end; visibility: inherit; font-family: Roboto, sans-serif; font-size: 12px; font-weight: 200;" fill="rgb(33, 33, 33)" stroke="none" stroke-width="1px">35</text><text x="0" y="173.53846153846155" dx="0em" dy="0.3em" style="text-anchor: end; visibility: inherit; font-family: Roboto, sans-serif; font-size: 12px; font-weight: 200;" fill="rgb(33, 33, 33)" stroke="none" stroke-width="1px">40</text><text x="0" y="144.6153846153846" dx="0em" dy="0.3em" style="text-anchor: end; visibility: inherit; font-family: Roboto, sans-serif; font-size: 12px; font-weight: 200;" fill="rgb(33, 33, 33)" stroke="none" stroke-width="1px">45</text><text x="0" y="115.6923076923077" dx="0em" dy="0.3em" style="text-anchor: end; visibility: inherit; font-family: Roboto, sans-serif; font-size: 12px; font-weight: 200;" fill="rgb(33, 33, 33)" stroke="none" stroke-width="1px">50</text><text x="0" y="86.76923076923076" dx="0em" dy="0.3em" style="text-anchor: end; visibility: inherit; font-family: Roboto, sans-serif; font-size: 12px; font-weight: 200;" fill="rgb(33, 33, 33)" stroke="none" stroke-width="1px">55</text><text x="0" y="57.84615384615385" dx="0em" dy="0.3em" style="text-anchor: end; visibility: inherit; font-family: Roboto, sans-serif; font-size: 12px; font-weight: 200;" fill="rgb(33, 33, 33)" stroke="none" stroke-width="1px">60</text><text x="0" y="28.923076923076906" dx="0em" dy="0.3em" style="text-anchor: end; visibility: inherit; font-family: Roboto, sans-serif; font-size: 12px; font-weight: 200;" fill="rgb(33, 33, 33)" stroke="none" stroke-width="1px">65</text><text x="0" y="0" dx="0em" dy="0.3em" style="text-anchor: end; visibility: hidden; font-family: Roboto, sans-serif; font-size: 12px; font-weight: 200;" fill="rgb(33, 33, 33)" stroke="none" stroke-width="1px">70</text></g><line x1="31.59375" y1="0" x2="31.59375" y2="376" fill="rgb(0, 0, 0)" stroke="rgb(204, 204, 204)" stroke-width="1px"></line></g></g><g transform="translate(31, 0)" clip-path="url(#clip_0)"><clipPath id="clip_0"><rect width="2065" height="376"></rect></clipPath><g><g><g><line x1="0" y1="0" x2="0" y2="376" fill="rgb(0, 0, 0)" stroke="rgb(66, 66, 66)" stroke-width="1px" opacity="0.25"></line><line x1="206.540625" y1="0" x2="206.540625" y2="376" fill="rgb(0, 0, 0)" stroke="rgb(66, 66, 66)" stroke-width="1px" opacity="0.25"></line><line x1="413.08125" y1="0" x2="413.08125" y2="376" fill="rgb(0, 0, 0)" stroke="rgb(66, 66, 66)" stroke-width="1px" opacity="0.25"></line><line x1="619.6218749999999" y1="0" x2="619.6218749999999" y2="376" fill="rgb(0, 0, 0)" stroke="rgb(66, 66, 66)" stroke-width="1px" opacity="0.25"></line><line x1="826.1625" y1="0" x2="826.1625" y2="376" fill="rgb(0, 0, 0)" stroke="rgb(66, 66, 66)" stroke-width="1px" opacity="0.25"></line><line x1="1032.703125" y1="0" x2="1032.703125" y2="376" fill="rgb(0, 0, 0)" stroke="rgb(66, 66, 66)" stroke-width="1px" opacity="0.25"></line><line x1="1239.2437499999999" y1="0" x2="1239.2437499999999" y2="376" fill="rgb(0, 0, 0)" stroke="rgb(66, 66, 66)" stroke-width="1px" opacity="0.25"></line><line x1="1445.784375" y1="0" x2="1445.784375" y2="376" fill="rgb(0, 0, 0)" stroke="rgb(66, 66, 66)" stroke-width="1px" opacity="0.25"></line><line x1="1652.325" y1="0" x2="1652.325" y2="376" fill="rgb(0, 0, 0)" stroke="rgb(66, 66, 66)" stroke-width="1px" opacity="0.25"></line><line x1="1858.8656250000001" y1="0" x2="1858.8656250000001" y2="376" fill="rgb(0, 0, 0)" stroke="rgb(66, 66, 66)" stroke-width="1px" opacity="0.25"></line><line x1="2065.40625" y1="0" x2="2065.40625" y2="376" fill="rgb(0, 0, 0)" stroke="rgb(66, 66, 66)" stroke-width="1px" opacity="0.25"></line></g><g><line x1="0" y1="376" x2="2065.40625" y2="376" fill="rgb(0, 0, 0)" stroke="rgb(66, 66, 66)" stroke-width="1px" opacity="0.25"></line><line x1="0" y1="347.0769230769231" x2="2065.40625" y2="347.0769230769231" fill="rgb(0, 0, 0)" stroke="rgb(66, 66, 66)" stroke-width="1px" opacity="0.25"></line><line x1="0" y1="318.15384615384613" x2="2065.40625" y2="318.15384615384613" fill="rgb(0, 0, 0)" stroke="rgb(66, 66, 66)" stroke-width="1px" opacity="0.25"></line><line x1="0" y1="289.2307692307692" x2="2065.40625" y2="289.2307692307692" fill="rgb(0, 0, 0)" stroke="rgb(66, 66, 66)" stroke-width="1px" opacity="0.25"></line><line x1="0" y1="260.3076923076923" x2="2065.40625" y2="260.3076923076923" fill="rgb(0, 0, 0)" stroke="rgb(66, 66, 66)" stroke-width="1px" opacity="0.25"></line><line x1="0" y1="231.3846153846154" x2="2065.40625" y2="231.3846153846154" fill="rgb(0, 0, 0)" stroke="rgb(66, 66, 66)" stroke-width="1px" opacity="0.25"></line><line x1="0" y1="202.46153846153845" x2="2065.40625" y2="202.46153846153845" fill="rgb(0, 0, 0)" stroke="rgb(66, 66, 66)" stroke-width="1px" opacity="0.25"></line><line x1="0" y1="173.53846153846155" x2="2065.40625" y2="173.53846153846155" fill="rgb(0, 0, 0)" stroke="rgb(66, 66, 66)" stroke-width="1px" opacity="0.25"></line><line x1="0" y1="144.6153846153846" x2="2065.40625" y2="144.6153846153846" fill="rgb(0, 0, 0)" stroke="rgb(66, 66, 66)" stroke-width="1px" opacity="0.25"></line><line x1="0" y1="115.6923076923077" x2="2065.40625" y2="115.6923076923077" fill="rgb(0, 0, 0)" stroke="rgb(66, 66, 66)" stroke-width="1px" opacity="0.25"></line><line x1="0" y1="86.76923076923076" x2="2065.40625" y2="86.76923076923076" fill="rgb(0, 0, 0)" stroke="rgb(66, 66, 66)" stroke-width="1px" opacity="0.25"></line><line x1="0" y1="57.84615384615385" x2="2065.40625" y2="57.84615384615385" fill="rgb(0, 0, 0)" stroke="rgb(66, 66, 66)" stroke-width="1px" opacity="0.25"></line><line x1="0" y1="28.923076923076906" x2="2065.40625" y2="28.923076923076906" fill="rgb(0, 0, 0)" stroke="rgb(66, 66, 66)" stroke-width="1px" opacity="0.25"></line><line x1="0" y1="0" x2="2065.40625" y2="0" fill="rgb(0, 0, 0)" stroke="rgb(66, 66, 66)" stroke-width="1px" opacity="0.25"></line></g></g></g><g><g><line x1="0" y1="404.9230769230769" x2="2065.40625" y2="404.9230769230769" fill="rgb(0, 0, 0)" stroke="rgb(153, 153, 153)" stroke-width="1.5px"></line></g></g><g><g><line x1="206.540625" y1="0" x2="206.540625" y2="376" fill="rgb(0, 0, 0)" stroke="rgb(153, 153, 153)" stroke-width="1.5px"></line></g></g><g><g><g><g><g><path stroke="rgb(255, 112, 67)" stroke-width="2px" d="M210.6714375,378.7640013548044L214.80225,373.9668320684268L218.9330625,371.6229396733763L223.063875,367.9487572704346L227.19468750000001,365.54042301233136L231.3255,363.5833770563551L235.4563125,361.4585402504573L239.58712500000001,358.83946533616967L243.71793749999998,356.7402501068158L247.84875,355.52728797227354L251.9795625,354.15790656776903L256.110375,353.1592438264212L260.2411875,352.4457672621541L264.372,351.7972699549392L268.5028125,350.7042802943578L272.633625,350.50104320294844L276.76443750000004,349.7806458603345L280.89525000000003,349.46385616491125L285.0260625,350.27753754961424L289.156875,349.28880679518403L293.28768749999995,348.506802555271L297.4185,348.91466205283024L301.5493125,346.94167184100104L305.680125,347.1275366859044L309.81093749999997,346.7493842909128L313.94175,345.432031335249L318.0725625,345.3229147415033L322.203375,344.9343020558317L326.3341875,345.80835293927396L330.46500000000003,344.7928817366653L334.5958125,343.3977846889309L338.726625,343.3833236634793L342.8574375,342.3338955352077L346.98825,342.3067726327828L351.11906250000004,341.9556190335297L355.249875,342.26474875075684L359.38068749999996,342.1682689466103L363.51149999999996,341.96134133482786L367.6423125,341.80615256961954L371.773125,341.3892236271495L375.9039375,341.096638893697L380.03475,340.66002524376944L384.1655625,341.34831579617054L388.296375,341.3662502198917L392.4271875,341.2507129380426L396.558,340.46001718399486L400.68881250000004,340.325894719198L404.81962500000003,340.44962294743095L408.9504375,340.33025453768835L413.08125,340.5022835819889L417.2120625,340.7655034030252L421.342875,340.5297922010695L425.4736875,340.03038194060815L429.6045,340.4094809954198L433.73531249999996,340.79651914487823L437.866125,340.1472382691534L441.9969375,339.605183218403L446.12775,338.3301901500171L450.2585625,337.56230138342966L454.38937500000003,338.19950729490154L458.5201875,338.72577540308276L462.651,339.24533636376975L466.7818125,337.90833265885675L470.912625,337.22982672497153L475.04343750000004,337.0325518436518L479.17425000000003,336.98691387174097L483.3050625,336.70884397358543L487.43587499999995,336.192394960248L491.5666875,335.99092751100454L495.6975,337.40617947835756L499.8283125,336.63588593784084L503.959125,335.8557859008956L508.0899375,335.93376723239436L512.22075,334.9094365526277L516.3515625,334.0236225122557L520.482375,332.4356778361545L524.6131875,333.4689695209535L528.744,332.37528223465745L532.8748125,332.9777219718792L537.005625,334.39604809072966L541.1364375,334.4779536553693L545.26725,334.0905410671699L549.3980625,333.87667355481517L553.5288750000001,332.75893278748646L557.6596875,332.37704907866674L561.7905000000001,332.7764163086784L565.9213125,332.5365016876259L570.052125,332.0438902891681L574.1829375000001,331.9926046437532L578.31375,330.9953732486168L582.4445625,330.9948924531514L586.5753749999999,331.76722252492567L590.7061874999999,331.18106673498244L594.837,331.0301458252443L598.9678124999999,331.173218532932L603.098625,330.8680361565681L607.2294375,329.2414076314409L611.36025,329.53080630512653L615.4910625,329.1623474493169L619.6218749999999,330.2688712005847L623.7526875,331.03801644593676L627.8835,329.9170335942748L632.0143125,328.6872015455373L636.145125,328.3224588198254L640.2759374999999,328.48019883080747L644.40675,327.3903586314172L648.5375625,328.5416621252145L652.668375,329.1003339544406L656.7991875,329.2305210889354L660.9300000000001,329.03750379669054L665.0608125,327.4711086106465L669.191625,327.7768204867756L673.3224375,327.58991562815305L677.45325,328.09077723897116L681.5840625000001,327.2494756864566L685.714875,326.30389322249596L689.8456875,326.4756939469441L693.9765,326.0343041667692L698.1073125,324.9618122645597L702.2381250000001,323.29879808026527L706.3689375,322.77819209372706L710.49975,323.7549876251515L714.6305625,324.69256532899715L718.7613749999999,324.41606644724806L722.8921875,323.82511669376953L727.0229999999999,323.7100925523194L731.1538125,323.3720801238646L735.284625,322.07918036285537L739.4154374999999,321.7986427204176L743.54625,321.7823476758954L747.6770624999999,321.7701256747229L751.807875,321.51797064972556L755.9386875,321.38118860227524L760.0695,321.97195516106467L764.2003125,321.8929860004098L768.331125,321.09691713547727L772.4619375,318.5791167495105L776.59275,318.0478738676901L780.7235625,317.6141194528256L784.854375,318.6797821904003L788.9851875,318.63079594998237L793.116,319.6241515859149L797.2468125,319.53795972032896L801.3776250000001,318.28530315716733L805.5084375,317.8280285364278L809.6392500000001,315.40593023408627L813.7700625,316.0003506021405L817.900875,315.7673976734838L822.0316875000001,316.09665498780424L826.1625,316.05520429639347L830.2933125000001,315.67758894276994L834.424125,314.69795656390414L838.5549375,314.57228834263935L842.68575,314.1586777118637L846.8165624999999,312.36464313177567L850.947375,312.734883760676L855.0781875,311.4164029502157L859.209,311.4679656433265L863.3398125,311.94799740357405L867.4706249999999,311.5715968571084L871.6014375,310.5955642215367L875.73225,310.2402753568403L879.8630625,310.63271868090106L883.993875,311.226466113138L888.1246874999999,309.37146466638035L892.2555,308.8399837615169L896.3863125,307.7199203387912L900.517125,307.4978326119286L904.6479375,307.2618027823014L908.7787500000001,307.2902694886416L912.9095625,306.6886871213701L917.040375,306.1106248516982L921.1711875,306.092314382924L925.302,304.8334113723926L929.4328125000001,304.6417112051964L933.563625,303.15179899625485L937.6944375,301.9541275873563L941.82525,299.6902788172876L945.9560625,299.9197598008894L950.0868750000001,298.9204690678834L954.2176875,297.2577632428634L958.3485000000001,297.98697577925174L962.4793125000001,296.2785086158383L966.610125,296.07584446487556L970.7409375,296.4153840452114L974.8717499999999,294.26777056008956L979.0025625,293.9086458283915L983.133375,292.75727536887985L987.2641874999999,292.2053135198555L991.395,289.72727230286887L995.5258124999999,288.64522324500257L999.656625,287.12082093994024L1003.7874375,286.9670344246913L1007.91825,285.81687414414773L1012.0490625,284.80899749580357L1016.179875,282.9347516187261L1020.3106875,282.17690612823685L1024.4415,280.5322553618881L1028.5723125,278.8253316576376L1032.703125,277.7636951822328L1036.8339375,275.42295888367863L1040.96475,272.543235403825L1045.0955625,272.3800658103539L1049.226375,270.59191437353206L1053.3571875,268.89472532183555L1057.488,266.2003554192131L1061.6188125,263.720626600386L1065.749625,261.5741776241439L1069.8804375,259.6437874864455L1074.01125,257.2210029042771L1078.1420625,254.84941195140038L1082.272875,250.25046645043759L1086.4036875000002,248.3506047650943L1090.5345,247.62216724607578L1094.6653125,245.38770426891952L1098.796125,242.65076070738536L1102.9269375000001,237.79278674669683L1107.0577500000002,233.96721849107706L1111.1885625,229.97400165504285L1115.319375,224.07671807535743L1119.4501875,220.16414326258223L1123.5810000000001,217.6619912535229L1127.7118125000002,215.3057798632916L1131.842625,211.50765568089565L1135.9734375,207.4696794211576L1140.10425,202.58329503250224L1144.2350625000001,198.64142514900854L1148.3658750000002,193.56793351488585L1152.4966875,190.79686362455655L1156.6275,186.1485901173421L1160.7583125,181.59132692196775L1164.889125,177.10681744975517L1169.0199375,170.98863711949255L1173.1507499999998,168.8353431040272L1177.2815624999998,165.45271934649085L1181.4123749999999,160.36401423259406L1185.5431875,156.23587623787373L1189.674,151.51971459488772L1193.8048125,150.64167213133163L1197.9356249999998,146.93348472411148L1202.0664375,143.45600392040438L1206.19725,139.54959825819213L1210.3280625,135.97129873105712L1214.458875,133.05853006495636L1218.5896874999999,129.19845506571656L1222.7205,125.75868391683379L1226.8513125,122.03946759919882L1230.982125,117.36704124912265L1235.1129375,115.09932612417309L1239.2437499999999,112.58250658195578L1243.3745625,108.85926281335612L1247.505375,104.31024349780935L1251.6361875,101.96915916959902L1255.767,95.8352747986344L1259.8978124999999,92.20626215982965L1264.028625,91.51959169343385L1268.1594375,89.2369103270579L1272.29025,86.93850249130683L1276.4210625,81.90319708522881L1280.5518749999999,77.27338835330077L1284.6826875,74.85167498914394L1288.8135,69.6709965424647L1292.9443125,66.56940362710142L1297.075125,62.82897747523918L1301.2059375000001,61.648859404314194L1305.33675,60.38458776548516L1309.4675625,58.33307462443536L1313.598375,56.34094115386793L1317.7291875,53.39723953456833L1321.8600000000001,52.20383988961122L1325.9908125,51.65607083580997L1330.121625,50.73125931338504L1334.2524375,50.13096825329542L1338.38325,47.99403862174888L1342.5140625000001,46.7805872731094L1346.644875,46.08296831188249L1350.7756875,46.22240718905258L1354.9065,44.513533518659955L1359.0373125,42.197924798695965L1363.1681250000001,43.45377478606856L1367.2989375,40.93621788396088L1371.42975,41.09891128175871L1375.5605625,39.397917607396614L1379.691375,39.18010272789949L1383.8221875000002,38.62707756222045L1387.953,39.98591375488034L1392.0838125,38.74139068832483L1396.214625,36.73616817200935L1400.3454375000001,36.530036990945995L1404.4762500000002,37.59466000256039L1408.6070625000002,37.04767415658429L1412.737875,37.19177757087362L1416.8686875,36.37855080484391L1420.9995,37.13665140387987L1425.1303125,37.746454296354365L1429.261125,37.795010122884726L1433.3919374999998,38.36330903346638L1437.5227499999999,35.76601163702697L1441.6535625,34.16429448221623L1445.784375,35.660790105796046L1449.9151875,35.00092981768435L1454.0459999999998,35.705393377389456L1458.1768124999999,36.31209776771974L1462.307625,32.378711485151115L1466.4384375,33.14326880815801L1470.56925,33.78734462323609L1474.7000624999998,35.42970376162194L1478.8308749999999,33.811609817069254L1482.9616875,32.93221491367907L1487.0925,32.40491338330361L1491.2233125,32.3019778526985L1495.3541249999998,33.94976562538111L1499.4849375,33.29907850082957L1503.61575,34.21835166029342L1507.7465625,32.944949547858776L1511.877375,33.557949671623916L1516.0081875,32.65321556619554L1520.139,33.0416543998135L1524.2698125,31.873685548542L1528.400625,33.00569946013483L1532.5314375,33.53157171935013L1536.66225,31.61591906826875L1540.7930625,30.465079911514113L1544.923875,31.08411179907188L1549.0546875,33.03433126213546L1553.1855,34.03924621821881L1557.3163125,32.44900896891202L1561.447125,31.47987901415977L1565.5779375,30.652791440947794L1569.70875,28.65269424557826L1573.8395625,28.79747780035175L1577.970375,29.928678612302427L1582.1011875,29.147899399953545L1586.232,29.402685328073108L1590.3628125,27.782588510545807L1594.493625,27.756567829885142L1598.6244375,28.178861821729214L1602.7552500000002,28.327501513109603L1606.8860625,25.895413543082185L1611.016875,26.666895436546344L1615.1476875,27.101768872504763L1619.2785000000001,26.184815455113412L1623.4093125000002,26.35434855792382L1627.540125,25.908164648576438L1631.6709375,26.97932937808817L1635.80175,28.416335983223092L1639.9325625000001,29.045693642217444L1644.0633750000002,29.06538869134005L1648.1941875,30.4186405164867L1652.325,29.073912299675634L1656.4558125,26.54489538160833L1660.5866250000001,26.500083638219817L1664.7174375000002,26.9024175957924L1668.84825,26.977912772018687L1672.9790625,27.677598023788157L1677.109875,28.09970409672485L1681.2406875,29.102153813203152L1685.3715,27.953163156311348L1689.5023124999998,26.20409741301756L1693.6331249999998,25.6413932434836L1697.7639374999999,26.094918578301744L1701.89475,27.465930639168565L1706.0255625,26.43923686907805L1710.156375,25.47704046880254L1714.2871874999998,25.47396504149787L1718.418,28.137159598816933L1722.5488125,27.941930299554635L1726.679625,25.92570956194433L1730.8104375,26.368550361565546L1734.9412499999999,28.139600018622012L1739.0720625,28.63338929302419L1743.202875,26.821212211631853L1747.3336875,26.402840382868508L1751.4645,26.91396084029803L1755.5953124999999,26.96421972833744L1759.726125,28.034663147098634L1763.8569375,27.237006947754388L1767.98775,25.251090887402675L1772.1185625,25.156814012609804L1776.2493749999999,25.98220401754181L1780.3801875,25.540280192977033L1784.511,25.67380678766126L1788.6418125,25.4066834115391L1792.772625,26.389050987428277L1796.9034374999999,26.04309668320214L1801.03425,25.677086225065523L1805.1650625,23.917375533116214L1809.295875,23.98298917203318L1813.4266875,23.70405169132089L1817.5575000000001,25.019685371763718L1821.6883125,26.150302809596717L1825.819125,24.80665291472441L1829.9499375,25.21528869895491L1834.08075,23.875032218771995L1838.2115625000001,23.366287735710316L1842.342375,25.32275716666654L1846.4731875,26.104930967668217L1850.604,25.540161104639395L1854.7348125,24.990025148360505" style="fill: none;" fill="none"></path></g></g></g></g><g opacity="0.2"><g><g><g><path stroke="rgb(255, 112, 67)" stroke-width="2px" d="M210.6714375,377.87117779071514L214.80225,369.36154955350435L218.9330625,368.8665222167969L223.063875,363.151744725154L227.19468750000001,362.2088297330416L231.3255,360.78477002657377L235.4563125,358.36050778902495L239.58712500000001,354.9768385667067L243.71793749999998,353.623160142165L247.84875,353.7188462477464L251.9795625,352.1112865741436L256.110375,351.66451052152195L260.2411875,351.3769501906175L264.372,350.82528627835785L268.5028125,349.0655666644757L272.633625,350.1962735689603L276.76443750000004,348.70023275522084L280.89525000000003,348.9887198814979L285.0260625,351.4979852529672L289.156875,347.80576488788313L293.28768749999995,347.33382192758415L297.4185,349.52644324669467L301.5493125,343.98220989520735L305.680125,347.4063326322115L309.81093749999997,346.18215731107273L313.94175,343.4560052724985L318.0725625,345.15924001840443L322.203375,344.35138338529146L326.3341875,347.11942878136267L330.46500000000003,343.2696752694937L334.5958125,341.30513939490686L338.726625,343.36163212702826L342.8574375,340.75975341796874L346.98825,342.266088280311L351.11906250000004,341.4288886437049L355.249875,342.7284433218149L359.38068749999996,342.02354924128605L363.51149999999996,341.6509499183068L367.6423125,341.5733694223257L371.773125,340.76383021428035L375.9039375,340.6577617938702L380.03475,340.0051047691932L384.1655625,342.38075162447416L388.296375,341.3931518554687L392.4271875,341.077407015287L396.558,339.2739735529973L400.68881250000004,340.1247110220102L404.81962500000003,340.63521528977617L408.9504375,340.15120192307694L413.08125,340.7603271484375L417.2120625,341.1603331345778L421.342875,340.17622539813703L425.4736875,339.2812665499174L429.6045,340.9781295776367L433.73531249999996,341.3770763690655L437.866125,339.1733169555664L441.9969375,338.79210064227766L446.12775,336.4177005474384L450.2585625,336.4104682335487L454.38937500000003,339.1553161621094L458.5201875,339.5151775653546L462.651,340.0246778048002L466.7818125,335.9028271014874L470.912625,336.2120678241436L475.04343750000004,336.7366395216722L479.17425000000003,336.9184569138747L483.3050625,336.2917391263521L487.43587499999995,335.4177214402419L491.5666875,335.6887263371394L495.6975,339.529057429387L499.8283125,335.48044562706576L503.959125,334.68563584547775L508.0899375,336.05073922964243L512.22075,333.37294053297774L516.3515625,332.6949014516977L520.482375,330.0537608220027L524.6131875,335.018907048152L528.744,330.73475130521336L532.8748125,333.88138157771186L537.005625,336.52353726900543L541.1364375,334.6008120023287L545.26725,333.5094221848708L549.3980625,333.55587228628303L553.5288750000001,331.08232163649336L557.6596875,331.8042235154372L561.7905000000001,333.3754671536959L565.9213125,332.1766297560472L570.052125,331.3049731914814L574.1829375000001,331.915676175631L578.31375,329.499526155912L582.4445625,330.9941712599534L586.5753749999999,332.9257176325871L590.7061874999999,330.3018330500676L594.837,330.803764460637L598.9678124999999,331.38782759446366L603.098625,330.41026259202226L607.2294375,326.80146484375L611.36025,329.9649043156551L615.4910625,328.60965916560247L619.6218749999999,331.92865682748646L623.7526875,332.19173431396484L627.8835,328.23555931678186L632.0143125,326.84245347243086L636.145125,327.7753447312575L640.2759374999999,328.7168088472807L644.40675,325.7555983323317L648.5375625,330.2686173659105L652.668375,329.93834169827977L656.7991875,329.42580179067755L660.9300000000001,328.74797785832334L665.0608125,325.12151583158055L669.191625,328.235388300969L673.3224375,327.3095583402193L677.45325,328.8420696551983L681.5840625000001,325.9875233576848L685.714875,324.88551952655496L689.8456875,326.73339503361626L693.9765,325.3722194965069L698.1073125,323.35307441124553L702.2381250000001,320.80427680382365L706.3689375,321.9972831139198L710.49975,325.22018092228814L714.6305625,326.0989318847656L718.7613749999999,324.0013181246244L722.8921875,322.9386920635517L727.0229999999999,323.53755634014425L731.1538125,322.8650614811824L735.284625,320.1398307213417L739.4154374999999,321.3778362567608L743.54625,321.7579051091121L747.6770624999999,321.7517926729642L751.807875,321.13973811222957L755.9386875,321.1760155310998L760.0695,322.8581049992488L764.2003125,321.7745322594276L768.331125,319.90281383807843L772.4619375,314.8024161705604L776.59275,317.25100954495946L780.7235625,316.96348783052883L784.854375,320.27827629676233L788.9851875,318.5573165893555L793.116,321.1141850398137L797.2468125,319.40867192195014L801.3776250000001,316.4063183124249L805.5084375,317.1421166053185L809.6392500000001,311.77278278057395L813.7700625,316.89198115422175L817.900875,315.4179682804988L822.0316875000001,316.59054095928485L826.1625,315.9930282592773L830.2933125000001,315.11116591233474L834.424125,313.22850799560547L838.5549375,314.3837860107422L842.68575,313.5382617657001L846.8165624999999,309.67359126164365L850.947375,313.29024470402646L855.0781875,309.4386817345253L859.209,311.54530968299275L863.3398125,312.6680450439453L867.4706249999999,311.00699603740986L871.6014375,309.13151526817904L875.73225,309.7073420597957L879.8630625,311.22138366699215L883.993875,312.1170872614934L888.1246874999999,306.588962496244L892.2555,308.0427624042218L896.3863125,306.0398252047025L900.517125,307.1647010216346L904.6479375,306.90775803786056L908.7787500000001,307.33296954815205L912.9095625,305.7863135704627L917.040375,305.2435314471905L921.1711875,306.06484867976263L925.302,302.94505685659556L929.4328125000001,304.35416095440206L933.563625,300.9169306828426L937.6944375,300.1576204740084L941.82525,296.2945056621845L945.9560625,300.26398127629204L950.0868750000001,297.42153296837444L954.2176875,294.7637045053335L958.3485000000001,299.0807945838341L962.4793125000001,293.71580787071815L966.610125,295.77184823843146L970.7409375,296.9246934157151L974.8717499999999,291.04635033240686L979.0025625,293.36995873084436L983.133375,291.0302196796124L987.2641874999999,291.3773707463191L991.395,286.01021047738885L995.5258124999999,287.0221496582031L999.656625,284.83421748234673L1003.7874375,286.7363546518179L1007.91825,284.09163372333234L1012.0490625,283.2971825232873L1016.179875,280.12338280311L1020.3106875,281.04013789250297L1024.4415,278.06527921236477L1028.5723125,276.264946101262L1032.703125,276.17124046912556L1036.8339375,271.9118544358474L1040.96475,268.22365018404446L1045.0955625,272.1353114201472L1049.226375,267.90968721829927L1053.3571875,266.34894174429087L1057.488,262.1588005652795L1061.6188125,260.00103337214546L1065.749625,258.3545041597807L1069.8804375,256.74820227989784L1074.01125,253.58682603102466L1078.1420625,251.29202552208534L1082.272875,243.35204819899337L1086.4036875000002,245.50081223707934L1090.5345,246.52951096754808L1094.6653125,242.0360098031851L1098.796125,238.54534536508413L1102.9269375000001,230.50582580566407L1107.0577500000002,228.22886610764724L1111.1885625,223.98417640099157L1115.319375,215.23079270582934L1119.4501875,214.29528104341946L1123.5810000000001,213.90876323993388L1127.7118125000002,211.77146277794472L1131.842625,205.81046940730167L1135.9734375,201.41271503155045L1140.10425,195.2537184495192L1144.2350625000001,192.72862032376804L1148.3658750000002,185.95769606370192L1152.4966875,186.6402587890625L1156.6275,179.17617985652046L1160.7583125,174.75543212890625L1164.889125,170.3800532414363L1169.0199375,161.81136662409858L1173.1507499999998,165.60540208082932L1177.2815624999998,160.3787837101863L1181.4123749999999,152.7309565617488L1185.5431875,150.0436692457933L1189.674,144.44547213040866L1193.8048125,149.3246084359976L1197.9356249999998,141.37120361328124L1202.0664375,138.23978271484376L1206.19725,133.6899897648738L1210.3280625,130.60384944035454L1214.458875,128.6893770658053L1218.5896874999999,123.40834256685696L1222.7205,120.5990271935096L1226.8513125,116.46064312274639L1230.982125,110.35840172400842L1235.1129375,111.6977534367488L1239.2437499999999,108.80727726862982L1243.3745625,103.27439716045673L1247.505375,97.48671452448919L1251.6361875,98.45753267728367L1255.767,86.63444824218749L1259.8978124999999,86.76274320162258L1264.028625,90.48958599384015L1268.1594375,85.81288827749401L1272.29025,83.4908907376803L1276.4210625,74.3502389761118L1280.5518749999999,70.32867525540864L1284.6826875,71.21910494290867L1288.8135,61.89997887244593L1292.9443125,61.91701425405651L1297.075125,57.21833824744593L1301.2059375000001,59.87868229792669L1305.33675,58.48818030724158L1309.4675625,55.25580491286058L1313.598375,53.352740948016844L1317.7291875,48.981687105618974L1321.8600000000001,50.41374042217548L1325.9908125,50.834417255108185L1330.121625,49.34404202974759L1334.2524375,49.230531663161074L1338.38325,44.7886441744291L1342.5140625000001,44.96041025015026L1346.644875,45.03653987004206L1350.7756875,46.4315655048077L1354.9065,41.950223013070904L1359.0373125,38.724511718749994L1363.1681250000001,45.337549767127385L1367.2989375,37.159882530799266L1371.42975,41.34295137845551L1375.5605625,36.846427095853386L1379.691375,38.85338040865384L1383.8221875000002,37.79753981370192L1387.953,42.024168043870176L1392.0838125,36.874606088491596L1396.214625,33.728334397536074L1400.3454375000001,36.22084021935095L1404.4762500000002,39.19159451998199L1408.6070625000002,36.227195387620206L1412.737875,37.40793269230768L1416.8686875,35.15871065579929L1420.9995,38.273802302433914L1425.1303125,38.66115863506612L1429.261125,37.8678438626803L1433.3919374999998,39.215757399338926L1437.5227499999999,31.870065542367797L1441.6535625,31.76171875L1445.784375,37.90553354116588L1449.9151875,34.01113938551682L1454.0459999999998,36.76208871694711L1458.1768124999999,37.222154353215146L1462.307625,26.478632061298065L1466.4384375,34.29010479266825L1470.56925,34.75345834585337L1474.7000624999998,37.89324246920072L1478.8308749999999,31.384468900240364L1482.9616875,31.61312255859374L1487.0925,31.613961087740364L1491.2233125,32.147574556790886L1495.3541249999998,36.421447284405055L1499.4849375,32.323047814002415L1503.61575,35.5972613994892L1507.7465625,31.034846379206748L1511.877375,34.47744985727165L1516.0081875,31.296114408052897L1520.139,33.62431265024037L1524.2698125,30.121732271634603L1528.400625,34.70372032752405L1532.5314375,34.32038010817308L1536.66225,28.742440091646614L1540.7930625,28.738821176382203L1544.923875,32.012659630408635L1549.0546875,35.95966045673075L1553.1855,35.54661865234373L1557.3163125,30.06365309495192L1561.447125,30.02618408203125L1565.5779375,29.41216008112981L1569.70875,25.652548452524023L1573.8395625,29.014653132512002L1577.970375,31.625479830228386L1582.1011875,27.976730581430306L1586.232,29.78486422025241L1590.3628125,25.352443284254818L1594.493625,27.717536808894224L1598.6244375,28.8123028094952L1602.7552500000002,28.550461050180306L1606.8860625,22.247281588040853L1611.016875,27.824118276742773L1615.1476875,27.75407902644231L1619.2785000000001,24.809385329026423L1623.4093125000002,26.608648212139435L1627.540125,25.238888784555282L1631.6709375,28.58607647235577L1635.80175,30.571845890925474L1639.9325625000001,29.989730130709123L1644.0633750000002,29.094931265024023L1648.1941875,32.44851825420671L1652.325,27.056819974459138L1656.4558125,22.75137000450721L1660.5866250000001,26.432866023137002L1664.7174375000002,27.505918532151423L1668.84825,27.09115553635818L1672.9790625,28.7271259014423L1677.109875,28.7328632061298L1681.2406875,30.60582838792067L1685.3715,26.229677170973577L1689.5023124999998,23.58049879807692L1693.6331249999998,24.797336989182682L1697.7639374999999,26.77520658052886L1701.89475,29.52244873046873L1706.0255625,24.899196213942318L1710.156375,24.03374586838942L1714.2871874999998,25.469351900540886L1718.418,32.13195143479567L1722.5488125,27.649086350661044L1726.679625,22.901378455528832L1730.8104375,27.032811560997615L1734.9412499999999,30.796174504206714L1739.0720625,29.374073204627418L1743.202875,24.10294658954326L1747.3336875,25.77528263972355L1751.4645,27.680641526442294L1755.5953124999999,27.039608060396638L1759.726125,29.640328275240364L1763.8569375,26.040522648737998L1767.98775,22.272216796875L1772.1185625,25.01539870042066L1776.2493749999999,27.22028902493991L1780.3801875,24.8773944561298L1784.511,25.87409667968752L1788.6418125,25.00599834735577L1792.772625,27.862602351262026L1796.9034374999999,25.524165226862998L1801.03425,25.128070537860594L1805.1650625,21.277809495192294L1809.295875,24.081409630408668L1813.4266875,23.28564547025239L1817.5575000000001,26.993135892427897L1821.6883125,27.84622896634615L1825.819125,22.791178072415867L1829.9499375,25.828242375300498L1834.08075,21.8646474984976L1838.2115625000001,22.603171011117773L1842.342375,28.257461313100944L1846.4731875,27.27819166917067L1850.604,24.69300631009616L1854.7348125,24.164821213942318" style="fill: none;" fill="none"></path></g></g></g></g></g></g><g transform="translate(31, 376)" clip-path="url(#clip_1)"><clipPath id="clip_1"><rect width="2065" height="24"></rect></clipPath><g><g><line x1="0" y1="0" x2="0" y2="5" style="visibility: inherit;" fill="rgb(0, 0, 0)" stroke="rgb(204, 204, 204)" stroke-width="1px"></line><line x1="206.540625" y1="0" x2="206.540625" y2="5" style="visibility: inherit;" fill="rgb(0, 0, 0)" stroke="rgb(204, 204, 204)" stroke-width="1px"></line><line x1="413.08125" y1="0" x2="413.08125" y2="5" style="visibility: inherit;" fill="rgb(0, 0, 0)" stroke="rgb(204, 204, 204)" stroke-width="1px"></line><line x1="619.6218749999999" y1="0" x2="619.6218749999999" y2="5" style="visibility: inherit;" fill="rgb(0, 0, 0)" stroke="rgb(204, 204, 204)" stroke-width="1px"></line><line x1="826.1625" y1="0" x2="826.1625" y2="5" style="visibility: inherit;" fill="rgb(0, 0, 0)" stroke="rgb(204, 204, 204)" stroke-width="1px"></line><line x1="1032.703125" y1="0" x2="1032.703125" y2="5" style="visibility: inherit;" fill="rgb(0, 0, 0)" stroke="rgb(204, 204, 204)" stroke-width="1px"></line><line x1="1239.2437499999999" y1="0" x2="1239.2437499999999" y2="5" style="visibility: inherit;" fill="rgb(0, 0, 0)" stroke="rgb(204, 204, 204)" stroke-width="1px"></line><line x1="1445.784375" y1="0" x2="1445.784375" y2="5" style="visibility: inherit;" fill="rgb(0, 0, 0)" stroke="rgb(204, 204, 204)" stroke-width="1px"></line><line x1="1652.325" y1="0" x2="1652.325" y2="5" style="visibility: inherit;" fill="rgb(0, 0, 0)" stroke="rgb(204, 204, 204)" stroke-width="1px"></line><line x1="1858.8656250000001" y1="0" x2="1858.8656250000001" y2="5" style="visibility: inherit;" fill="rgb(0, 0, 0)" stroke="rgb(204, 204, 204)" stroke-width="1px"></line><line x1="2065.40625" y1="0" x2="2065.40625" y2="5" style="visibility: inherit;" fill="rgb(0, 0, 0)" stroke="rgb(204, 204, 204)" stroke-width="1px"></line></g><g transform="translate(0, 8)"><text x="0" y="0" dx="0em" dy="0.95em" style="text-anchor: middle; visibility: hidden; font-family: Roboto, sans-serif; font-size: 12px; font-weight: 200;" fill="rgb(33, 33, 33)" stroke="none" stroke-width="1px">-50</text><text x="206.540625" y="0" dx="0em" dy="0.95em" style="text-anchor: middle; visibility: inherit; font-family: Roboto, sans-serif; font-size: 12px; font-weight: 200;" fill="rgb(33, 33, 33)" stroke="none" stroke-width="1px">0</text><text x="413.08125" y="0" dx="0em" dy="0.95em" style="text-anchor: middle; visibility: inherit; font-family: Roboto, sans-serif; font-size: 12px; font-weight: 200;" fill="rgb(33, 33, 33)" stroke="none" stroke-width="1px">50</text><text x="619.6218749999999" y="0" dx="0em" dy="0.95em" style="text-anchor: middle; visibility: inherit; font-family: Roboto, sans-serif; font-size: 12px; font-weight: 200;" fill="rgb(33, 33, 33)" stroke="none" stroke-width="1px">100</text><text x="826.1625" y="0" dx="0em" dy="0.95em" style="text-anchor: middle; visibility: inherit; font-family: Roboto, sans-serif; font-size: 12px; font-weight: 200;" fill="rgb(33, 33, 33)" stroke="none" stroke-width="1px">150</text><text x="1032.703125" y="0" dx="0em" dy="0.95em" style="text-anchor: middle; visibility: inherit; font-family: Roboto, sans-serif; font-size: 12px; font-weight: 200;" fill="rgb(33, 33, 33)" stroke="none" stroke-width="1px">200</text><text x="1239.2437499999999" y="0" dx="0em" dy="0.95em" style="text-anchor: middle; visibility: inherit; font-family: Roboto, sans-serif; font-size: 12px; font-weight: 200;" fill="rgb(33, 33, 33)" stroke="none" stroke-width="1px">250</text><text x="1445.784375" y="0" dx="0em" dy="0.95em" style="text-anchor: middle; visibility: inherit; font-family: Roboto, sans-serif; font-size: 12px; font-weight: 200;" fill="rgb(33, 33, 33)" stroke="none" stroke-width="1px">300</text><text x="1652.325" y="0" dx="0em" dy="0.95em" style="text-anchor: middle; visibility: inherit; font-family: Roboto, sans-serif; font-size: 12px; font-weight: 200;" fill="rgb(33, 33, 33)" stroke="none" stroke-width="1px">350</text><text x="1858.8656250000001" y="0" dx="0em" dy="0.95em" style="text-anchor: middle; visibility: inherit; font-family: Roboto, sans-serif; font-size: 12px; font-weight: 200;" fill="rgb(33, 33, 33)" stroke="none" stroke-width="1px">400</text><text x="2065.40625" y="0" dx="0em" dy="0.95em" style="text-anchor: middle; visibility: hidden; font-family: Roboto, sans-serif; font-size: 12px; font-weight: 200;" fill="rgb(33, 33, 33)" stroke="none" stroke-width="1px">450</text></g><line x1="0" y1="0" x2="2065.40625" y2="0" fill="rgb(0, 0, 0)" stroke="rgb(204, 204, 204)" stroke-width="1px"></line></g></g></g></g></svg>