<svg viewBox="0 0 2097 400" xmlns="http://www.w3.org/2000/svg"><g><g><g><g><g><line x1="42.390625" y1="376" x2="37.390625" y2="376" style="visibility: inherit;" fill="rgb(0, 0, 0)" stroke="rgb(204, 204, 204)" stroke-width="1px"></line><line x1="42.390625" y1="334.22222222222223" x2="37.390625" y2="334.22222222222223" style="visibility: inherit;" fill="rgb(0, 0, 0)" stroke="rgb(204, 204, 204)" stroke-width="1px"></line><line x1="42.390625" y1="292.44444444444446" x2="37.390625" y2="292.44444444444446" style="visibility: inherit;" fill="rgb(0, 0, 0)" stroke="rgb(204, 204, 204)" stroke-width="1px"></line><line x1="42.390625" y1="250.66666666666669" x2="37.390625" y2="250.66666666666669" style="visibility: inherit;" fill="rgb(0, 0, 0)" stroke="rgb(204, 204, 204)" stroke-width="1px"></line><line x1="42.390625" y1="208.88888888888889" x2="37.390625" y2="208.88888888888889" style="visibility: inherit;" fill="rgb(0, 0, 0)" stroke="rgb(204, 204, 204)" stroke-width="1px"></line><line x1="42.390625" y1="167.11111111111111" x2="37.390625" y2="167.11111111111111" style="visibility: inherit;" fill="rgb(0, 0, 0)" stroke="rgb(204, 204, 204)" stroke-width="1px"></line><line x1="42.390625" y1="125.33333333333334" x2="37.390625" y2="125.33333333333334" style="visibility: inherit;" fill="rgb(0, 0, 0)" stroke="rgb(204, 204, 204)" stroke-width="1px"></line><line x1="42.390625" y1="83.55555555555556" x2="37.390625" y2="83.55555555555556" style="visibility: inherit;" fill="rgb(0, 0, 0)" stroke="rgb(204, 204, 204)" stroke-width="1px"></line><line x1="42.390625" y1="41.7777777777778" x2="37.390625" y2="41.7777777777778" style="visibility: inherit;" fill="rgb(0, 0, 0)" stroke="rgb(204, 204, 204)" stroke-width="1px"></line><line x1="42.390625" y1="0" x2="37.390625" y2="0" style="visibility: inherit;" fill="rgb(0, 0, 0)" stroke="rgb(204, 204, 204)" stroke-width="1px"></line></g><g transform="translate(32.390625, 0)"><text x="0" y="376" dx="0em" dy="0.3em" style="text-anchor: end; visibility: hidden; font-family: Roboto, sans-serif; font-size: 12px; font-weight: 200;" fill="rgb(33, 33, 33)" stroke="none" stroke-width="1px">10</text><text x="0" y="334.22222222222223" dx="0em" dy="0.3em" style="text-anchor: end; visibility: inherit; font-family: Roboto, sans-serif; font-size: 12px; font-weight: 200;" fill="rgb(33, 33, 33)" stroke="none" stroke-width="1px">20</text><text x="0" y="292.44444444444446" dx="0em" dy="0.3em" style="text-anchor: end; visibility: inherit; font-family: Roboto, sans-serif; font-size: 12px; font-weight: 200;" fill="rgb(33, 33, 33)" stroke="none" stroke-width="1px">30</text><text x="0" y="250.66666666666669" dx="0em" dy="0.3em" style="text-anchor: end; visibility: inherit; font-family: Roboto, sans-serif; font-size: 12px; font-weight: 200;" fill="rgb(33, 33, 33)" stroke="none" stroke-width="1px">40</text><text x="0" y="208.88888888888889" dx="0em" dy="0.3em" style="text-anchor: end; visibility: inherit; font-family: Roboto, sans-serif; font-size: 12px; font-weight: 200;" fill="rgb(33, 33, 33)" stroke="none" stroke-width="1px">50</text><text x="0" y="167.11111111111111" dx="0em" dy="0.3em" style="text-anchor: end; visibility: inherit; font-family: Roboto, sans-serif; font-size: 12px; font-weight: 200;" fill="rgb(33, 33, 33)" stroke="none" stroke-width="1px">60</text><text x="0" y="125.33333333333334" dx="0em" dy="0.3em" style="text-anchor: end; visibility: inherit; font-family: Roboto, sans-serif; font-size: 12px; font-weight: 200;" fill="rgb(33, 33, 33)" stroke="none" stroke-width="1px">70</text><text x="0" y="83.55555555555556" dx="0em" dy="0.3em" style="text-anchor: end; visibility: inherit; font-family: Roboto, sans-serif; font-size: 12px; font-weight: 200;" fill="rgb(33, 33, 33)" stroke="none" stroke-width="1px">80</text><text x="0" y="41.7777777777778" dx="0em" dy="0.3em" style="text-anchor: end; visibility: inherit; font-family: Roboto, sans-serif; font-size: 12px; font-weight: 200;" fill="rgb(33, 33, 33)" stroke="none" stroke-width="1px">90</text><text x="0" y="0" dx="0em" dy="0.3em" style="text-anchor: end; visibility: hidden; font-family: Roboto, sans-serif; font-size: 12px; font-weight: 200;" fill="rgb(33, 33, 33)" stroke="none" stroke-width="1px">100</text></g><line x1="42.390625" y1="0" x2="42.390625" y2="376" fill="rgb(0, 0, 0)" stroke="rgb(204, 204, 204)" stroke-width="1px"></line></g></g><g transform="translate(42, 0)" clip-path="url(#clip_0)"><clipPath id="clip_0"><rect width="2054" height="376"></rect></clipPath><g><g><g><line x1="0" y1="0" x2="0" y2="376" fill="rgb(0, 0, 0)" stroke="rgb(66, 66, 66)" stroke-width="1px" opacity="0.25"></line><line x1="205.4609375" y1="0" x2="205.4609375" y2="376" fill="rgb(0, 0, 0)" stroke="rgb(66, 66, 66)" stroke-width="1px" opacity="0.25"></line><line x1="410.921875" y1="0" x2="410.921875" y2="376" fill="rgb(0, 0, 0)" stroke="rgb(66, 66, 66)" stroke-width="1px" opacity="0.25"></line><line x1="616.3828125" y1="0" x2="616.3828125" y2="376" fill="rgb(0, 0, 0)" stroke="rgb(66, 66, 66)" stroke-width="1px" opacity="0.25"></line><line x1="821.84375" y1="0" x2="821.84375" y2="376" fill="rgb(0, 0, 0)" stroke="rgb(66, 66, 66)" stroke-width="1px" opacity="0.25"></line><line x1="1027.3046875" y1="0" x2="1027.3046875" y2="376" fill="rgb(0, 0, 0)" stroke="rgb(66, 66, 66)" stroke-width="1px" opacity="0.25"></line><line x1="1232.765625" y1="0" x2="1232.765625" y2="376" fill="rgb(0, 0, 0)" stroke="rgb(66, 66, 66)" stroke-width="1px" opacity="0.25"></line><line x1="1438.2265625" y1="0" x2="1438.2265625" y2="376" fill="rgb(0, 0, 0)" stroke="rgb(66, 66, 66)" stroke-width="1px" opacity="0.25"></line><line x1="1643.6875" y1="0" x2="1643.6875" y2="376" fill="rgb(0, 0, 0)" stroke="rgb(66, 66, 66)" stroke-width="1px" opacity="0.25"></line><line x1="1849.1484375" y1="0" x2="1849.1484375" y2="376" fill="rgb(0, 0, 0)" stroke="rgb(66, 66, 66)" stroke-width="1px" opacity="0.25"></line><line x1="2054.609375" y1="0" x2="2054.609375" y2="376" fill="rgb(0, 0, 0)" stroke="rgb(66, 66, 66)" stroke-width="1px" opacity="0.25"></line></g><g><line x1="0" y1="376" x2="2054.609375" y2="376" fill="rgb(0, 0, 0)" stroke="rgb(66, 66, 66)" stroke-width="1px" opacity="0.25"></line><line x1="0" y1="334.22222222222223" x2="2054.609375" y2="334.22222222222223" fill="rgb(0, 0, 0)" stroke="rgb(66, 66, 66)" stroke-width="1px" opacity="0.25"></line><line x1="0" y1="292.44444444444446" x2="2054.609375" y2="292.44444444444446" fill="rgb(0, 0, 0)" stroke="rgb(66, 66, 66)" stroke-width="1px" opacity="0.25"></line><line x1="0" y1="250.66666666666669" x2="2054.609375" y2="250.66666666666669" fill="rgb(0, 0, 0)" stroke="rgb(66, 66, 66)" stroke-width="1px" opacity="0.25"></line><line x1="0" y1="208.88888888888889" x2="2054.609375" y2="208.88888888888889" fill="rgb(0, 0, 0)" stroke="rgb(66, 66, 66)" stroke-width="1px" opacity="0.25"></line><line x1="0" y1="167.11111111111111" x2="2054.609375" y2="167.11111111111111" fill="rgb(0, 0, 0)" stroke="rgb(66, 66, 66)" stroke-width="1px" opacity="0.25"></line><line x1="0" y1="125.33333333333334" x2="2054.609375" y2="125.33333333333334" fill="rgb(0, 0, 0)" stroke="rgb(66, 66, 66)" stroke-width="1px" opacity="0.25"></line><line x1="0" y1="83.55555555555556" x2="2054.609375" y2="83.55555555555556" fill="rgb(0, 0, 0)" stroke="rgb(66, 66, 66)" stroke-width="1px" opacity="0.25"></line><line x1="0" y1="41.7777777777778" x2="2054.609375" y2="41.7777777777778" fill="rgb(0, 0, 0)" stroke="rgb(66, 66, 66)" stroke-width="1px" opacity="0.25"></line><line x1="0" y1="0" x2="2054.609375" y2="0" fill="rgb(0, 0, 0)" stroke="rgb(66, 66, 66)" stroke-width="1px" opacity="0.25"></line></g></g></g><g><g><line x1="0" y1="417.77777777777777" x2="2054.609375" y2="417.77777777777777" fill="rgb(0, 0, 0)" stroke="rgb(153, 153, 153)" stroke-width="1.5px"></line></g></g><g><g><line x1="205.4609375" y1="0" x2="205.4609375" y2="376" fill="rgb(0, 0, 0)" stroke="rgb(153, 153, 153)" stroke-width="1.5px"></line></g></g><g><g><g><g><g><path stroke="rgb(255, 112, 67)" stroke-width="2px" d="M221.8978125,376.33311699731877L226.00703125,372.9123229915479L230.11625,369.84231915307595L234.22546875,367.28043044689053L238.3346875,363.95146917730045L242.44390625,361.25672063896855L246.553125,359.79777630935587L250.66234375,358.58707469716177L254.7715625,356.99157815759764L258.88078125,355.24497008648194L262.99,354.1470236074521L267.09921875000003,353.38021938462606L271.2084375,353.01323539263643L275.31765625,351.6805434498374L279.426875,351.3442189328453L283.53609375,351.7552692277127L287.64531250000005,350.27304418226277L291.75453124999996,349.54765329247687L295.86375,350.0560946344642L299.97296875,348.34265833244535L304.0821875,348.3393319013599L308.19140625,347.9503127513089L312.30062499999997,346.4554774619816L316.40984375,346.2998247388084L320.5190625,346.1472655959929L324.62828125,346.97726897847934L328.7375,345.7802764301362L332.84671875000004,344.5508233665705L336.9559375,344.8275836056408L341.06515625000003,343.56838484410383L345.174375,343.24561138593964L349.28359375,342.58121102230206L353.3928125,343.09872912580704L357.50203124999996,342.7829908651538L361.61125,342.07637770165434L365.72046875,342.1896956396988L369.8296875,341.99199500952875L373.93890625,341.6267820885493L378.04812499999997,341.5436890176455L382.15734375,342.4910978508556L386.2665625,342.19465403112054L390.37578125,342.24422724669193L394.485,341.29542605067064L398.59421875000004,340.5214064279111L402.7034375,340.5862896982188L406.81265625000003,340.9488928917424L410.921875,340.87769945032284L415.03109375,340.7278360330405L419.1403125,340.8361609839738L423.24953124999996,340.30142593337416L427.35875,340.5069379846123L431.46796875,340.56149955563285L435.5771875,340.00673012346203L439.68640625,339.3957239329096L443.795625,338.6703251203794L447.90484375,338.10843801927626L452.0140625,338.5471009110666L456.12328125,338.55826522600194L460.2325,338.92724591945534L464.34171875000004,337.87265458563587L468.4509375,337.24507610912895L472.56015625000003,338.0800150936457L476.669375,337.7138836899765L480.77859375,337.699597168196L484.8878125,336.4569214546719L488.99703124999996,335.69096134448284L493.10625,337.48229565163325L497.21546875,336.4663873464921L501.3246875,335.93050616820346L505.43390625,336.0670279305228L509.543125,334.80280037647776L513.65234375,334.5132821274708L517.7615625,333.3490765220337L521.87078125,334.0249468084025L525.98,333.06617298684273L530.08921875,333.5904025768279L534.1984375000001,334.4383757963137L538.30765625,334.0618394290686L542.416875,334.16011357226324L546.52609375,334.1746936316392L550.6353125,333.5235846929809L554.74453125,332.89676549406545L558.85375,333.56246650943837L562.9629687500001,333.48194883198687L567.0721875,333.3619442286626L571.18140625,332.54097458841284L575.2906250000001,330.83115349219696L579.39984375,330.6213478027835L583.5090624999999,331.78485986982116L587.61828125,330.7917435586114L591.7275,331.1918475538952L595.8367187499999,331.554857203127L599.9459375,331.05610232372084L604.05515625,329.1507228227264L608.164375,328.9245650277287L612.2735937499999,329.04106314044367L616.3828125,330.12595176772976L620.49203125,330.8689113112889L624.6012499999999,330.5719865708445L628.71046875,328.8457507397072L632.8196875,328.07431093102053L636.92890625,328.12159861644653L641.038125,327.14200966628715L645.14734375,327.7125989882489L649.2565625,328.2197375342254L653.36578125,329.16175713913333L657.475,328.6267227947647L661.58421875,327.4325322255785L665.6934375000001,327.2292707866274L669.80265625,326.54016223054856L673.911875,327.0022002300392L678.02109375,326.8527396801242L682.1303125000001,325.5978199555355L686.23953125,326.03944507933255L690.34875,324.95723089037295L694.4579687500001,324.46077286039565L698.5671875,323.1595454490933L702.67640625,323.2471819406799L706.785625,323.2041739647552L710.89484375,323.3096610221908L715.0040624999999,323.61891788338824L719.11328125,323.4510380943992L723.2225,323.0830665686621L727.3317187499999,322.4930243487494L731.4409375,321.8766033869189L735.55015625,321.34958372268954L739.659375,319.92435730284114L743.7685937499999,320.2489802264313L747.8778125,320.354624952265L751.98703125,320.0167446979215L756.0962499999999,320.9093094462486L760.20546875,319.8102519410781L764.3146875,319.51700728443853L768.42390625,317.2982549077725L772.533125,317.0785552667121L776.64234375,316.59532875735795L780.7515625,316.39951970992695L784.8607812500001,316.92098196755774L788.97,317.3886900513029L793.07921875,317.66206039851176L797.1884375000001,316.297715636351L801.29765625,315.59820247480104L805.406875,314.7922496641341L809.51609375,315.3396238192053L813.6253125000001,315.43582134284696L817.73453125,315.2020242184686L821.84375,315.3977161315586L825.9529687500001,315.490154879673L830.0621875,314.6807290090755L834.17140625,314.50943953489406L838.280625,313.45769653072375L842.38984375,310.98617119534396L846.4990624999999,312.03154911206315L850.60828125,310.8051834006147L854.7175,310.86563492914917L858.8267187499999,311.09190306577943L862.9359375,310.6509851418765L867.04515625,309.45936882221355L871.154375,309.9901782459106L875.2635937499999,308.9971192359578L879.3728125,309.26288993621444L883.48203125,307.23032266615576L887.59125,305.7730730213515L891.70046875,305.061359885402L895.8096875,304.368513115486L899.91890625,304.13490391692613L904.028125,304.9872697969873L908.13734375,304.0295185893469L912.2465625,303.2058433421932L916.3557812500001,303.8104818489574L920.465,302.40783892762533L924.57421875,302.2473126773217L928.6834375000001,300.35353442985223L932.79265625,298.86940832338445L936.901875,297.49538624565827L941.01109375,297.0524814490009L945.1203125000001,296.99548402727817L949.22953125,296.26457597951793L953.33875,295.8196021822203L957.4479687500001,294.0569185087679L961.5571875,292.922906530608L965.6664062499999,292.8778006539334L969.775625,291.7305283876942L973.88484375,291.635038970008L977.9940624999999,290.65461299517756L982.10328125,289.54315665886867L986.2125,287.1747959050434L990.32171875,286.1823624876875L994.4309375,284.67044451084166L998.54015625,283.956596269222L1002.649375,281.84255883575196L1006.7585937499999,280.9278220853053L1010.8678125,279.17748006216414L1014.97703125,278.6977796768384L1019.08625,278.07877034516554L1023.19546875,276.5273796658667L1027.3046875,274.08024575199397L1031.41390625,272.42129564455576L1035.523125,269.9025373151189L1039.63234375,270.9552901570835L1043.7415625,269.2144898765851L1047.85078125,267.06005161909343L1051.96,265.2878137405533L1056.0692187500001,262.2062019704605L1060.1784375,260.38355001257145L1064.28765625,257.84198425558975L1068.3968750000001,256.2112999012271L1072.50609375,254.53623387953837L1076.6153125,249.92290135202853L1080.7245312500002,247.6579805844376L1084.83375,245.80454895721638L1088.94296875,243.17219986044097L1093.0521875,239.3380615341031L1097.16140625,235.05713745757126L1101.270625,232.26515324277193L1105.37984375,228.82276449883156L1109.4890625,225.6262662568076L1113.5982812500001,221.71133904553423L1117.7075,218.50222687567123L1121.81671875,216.15239027036796L1125.9259375000001,212.77798418392217L1130.03515625,209.71286757741058L1134.144375,206.39357937891165L1138.2535937500002,202.7596647443175L1142.3628125,200.274543963778L1146.47203125,196.43087695877898L1150.5812500000002,193.19278547973784L1154.69046875,189.7064235122351L1158.7996875,186.36619433086537L1162.90890625,180.98419956292892L1167.0181249999998,178.69203842807852L1171.12734375,175.30313267056238L1175.2365625,172.00225286622634L1179.3457812499998,169.32789360341633L1183.455,166.75898374777032L1187.56421875,164.02686662127508L1191.6734374999999,161.51057282649768L1195.78265625,158.63802731677532L1199.891875,154.61196027027353L1204.0010937499999,152.0756708995773L1208.1103125,149.47649520467698L1212.21953125,147.93941627428185L1216.32875,145.5224990484233L1220.43796875,143.07247675110258L1224.5471874999998,139.0617043666338L1228.65640625,135.1321267866469L1232.765625,131.42110305766522L1236.8748437499999,130.40620757027625L1240.9840625,128.03642772141916L1245.09328125,125.14204869014318L1249.2024999999999,122.72500243457202L1253.31171875,121.63254025197581L1257.4209375,118.06993240856397L1261.53015625,115.01666837525988L1265.639375,110.70342767446148L1269.74859375,107.79494641587483L1273.8578125,105.58834887166034L1277.96703125,104.3883288759476L1282.07625,104.01792272704427L1286.18546875,102.04084152685157L1290.2946875,99.66030271342001L1294.40390625,96.83101886763535L1298.513125,94.49662048941802L1302.62234375,91.65406929885917L1306.7315625,89.02283084797868L1310.84078125,87.0938826993254L1314.95,85.17421726065426L1319.0592187500001,83.75642380257317L1323.1684375,82.5507615623599L1327.27765625,82.0558491900201L1331.3868750000001,81.93572549708497L1335.49609375,81.12225127047319L1339.6053125,79.18021898059988L1343.7145312500002,78.19234606934953L1347.82375,77.0050080647868L1351.93296875,76.40512018175401L1356.0421875,74.98771295106634L1360.15140625,74.85374322202868L1364.2606250000001,74.09962332037001L1368.36984375,74.60974361027752L1372.4790625,74.78412551729498L1376.5882812500001,74.19141715065479L1380.6975,72.70862850219844L1384.80671875,72.90242617901006L1388.9159375000002,73.6213895181699L1393.02515625,73.54915966576301L1397.134375,73.40308575171477L1401.2435937500002,72.49306889894552L1405.3528125,70.9204764847666L1409.46203125,71.43972973851619L1413.57125,70.17790875239795L1417.6804687499998,68.8616711954492L1421.7896875,68.8971188197001L1425.89890625,68.61428474668115L1430.0081249999998,69.48515287925865L1434.11734375,69.78984742416976L1438.2265625,68.73418406214077L1442.3357812499999,68.2630497710518L1446.445,68.30464165733595L1450.55421875,67.3581563594189L1454.6634374999999,68.88776002658885L1458.77265625,68.35209720518941L1462.881875,67.78918448413792L1466.99109375,66.3065385767675L1471.1003125,66.55296285960218L1475.20953125,66.96302500308771L1479.31875,66.79902349794637L1483.42796875,67.24213491039978L1487.5371874999998,66.57257885205587L1491.64640625,65.813066896737L1495.755625,65.43964542233036L1499.8648437499999,65.74955711016905L1503.9740625,64.68141856514654L1508.08328125,63.71339432485187L1512.1924999999999,63.27960777546663L1516.30171875,63.47620379288415L1520.4109375,63.130268445435405L1524.52015625,62.76220295094176L1528.629375,63.13388698323874L1532.73859375,62.91805734185295L1536.8478125,63.00688312472976L1540.95703125,62.95517316910875L1545.06625,62.051809142350685L1549.17546875,62.100439869090906L1553.2846875,61.74746281468374L1557.39390625,61.61158749783796L1561.503125,61.595263588112566L1565.61234375,61.48745057908285L1569.7215625000001,60.85024351368234L1573.83078125,61.292420956299665L1577.94,59.96639034504711L1582.0492187500001,59.95990636414633L1586.1584375,59.71742059800173L1590.26765625,59.363346239009374L1594.3768750000002,59.03086445998551L1598.48609375,59.85321485654687L1602.5953125,58.8590949838066L1606.70453125,58.35704634575272L1610.81375,58.3386662840141L1614.92296875,57.83601498308211L1619.0321875,58.41099511181103L1623.14140625,58.12329872724281L1627.2506250000001,57.0272553322658L1631.35984375,57.32288884389069L1635.4690625,57.55041299383441L1639.5782812500001,56.99205063918265L1643.6875,57.86422588047142L1647.79671875,58.095247225331434L1651.9059375000002,57.28598080047668L1656.01515625,56.57887173766446L1660.124375,56.25486888678269L1664.2335937500002,55.52003857382311L1668.3428125,54.93500654273139L1672.45203125,54.14793941826033L1676.56125,54.295200554168005L1680.6704687499998,55.40373925611189L1684.7796875,55.686655988562954L1688.88890625,56.227762636106526L1692.9981249999998,55.76934828261882L1697.10734375,56.251751384935865L1701.2165625,55.857867508478925L1705.3257812499999,55.56846073946237L1709.435,54.96660975530935L1713.54421875,55.22857045388012L1717.6534374999999,55.989948804446094L1721.76265625,55.9879699337093L1725.871875,55.286142962829764L1729.98109375,54.46777030460759L1734.0903125,54.63211264934443L1738.1995312499998,54.9770524203358L1742.30875,54.335060933538344L1746.41796875,53.758048821407776L1750.5271874999999,53.89336716176825L1754.63640625,54.15891688994289L1758.745625,54.16043259924355L1762.8548437499999,54.58645080303566L1766.9640625,54.51972719840124L1771.07328125,55.032450468346276L1775.1825,54.040380925539054L1779.29171875,53.98736549108734L1783.4009375,53.65086710281214L1787.51015625,53.84278941316299L1791.619375,54.30355803374848L1795.72859375,54.02383214012755L1799.8378125,53.244654915586956L1803.94703125,52.10990004570634L1808.05625,52.48174053740641L1812.16546875,52.57986083720078L1816.2746875,52.99934174103573L1820.38390625,52.04539307630547L1824.493125,52.07382167477634L1828.60234375,51.98999151832064L1832.7115625000001,51.75834359805838L1836.82078125,51.40233173392182L1840.93,51.07098237368644L1845.0392187500001,51.179042060930605" style="fill: none;" fill="none"></path></g></g></g></g><g opacity="0.2"><g><g><g><path stroke="rgb(255, 112, 67)" stroke-width="2px" d="M217.78859375,376.3700123257107L221.8978125,371.2076572842068L226.00703125,368.18013339572485L230.11625,365.4521645439996L234.22546875,363.54517211914066L238.3346875,359.041897922092L242.44390625,357.25533311631943L246.553125,357.622592332628L250.66234375,356.77761086357964L254.7715625,354.60354292127823L258.88078125,352.6284797668457L262.99,352.5013944837782L267.09921875000003,352.23055386013453L271.2084375,352.4629146999783L275.31765625,349.6818439059787L279.426875,350.83978339301217L283.53609375,352.3718070983887L287.64531250000005,348.04978790283207L291.75453124999996,348.4595908270942L295.86375,350.818746609158L299.97296875,345.77252417670354L304.0821875,348.33434227837455L308.19140625,347.3667856852213L312.30062499999997,344.2132283528646L316.40984375,346.06634589301217L320.5190625,345.91842702229815L324.62828125,348.22227359347875L328.7375,343.9847880045573L332.84671875000004,342.706644015842L336.9559375,345.2427239312066L341.06515625000003,341.6795867919922L345.174375,342.76145121256513L349.28359375,341.58461049397783L353.3928125,343.8750062730577L357.50203124999996,342.30938347710503L361.61125,341.01645796034074L365.72046875,342.3596725463867L369.8296875,341.69544406467014L373.93890625,341.07896270751957L378.04812499999997,341.4190494113498L382.15734375,343.9122111002604L386.2665625,341.74998830159507L390.37578125,342.31858707004125L394.485,339.87222425672746L398.59421875000004,339.36037699381507L402.7034375,340.6836146036784L406.81265625000003,341.4927976820204L410.921875,340.77090928819445L415.03109375,340.5030409071181L419.1403125,340.9986484103733L423.24953124999996,339.49932335747616L427.35875,340.81520606146915L431.46796875,340.64334191216363L435.5771875,339.17457597520615L439.68640625,338.47921464708116L443.795625,337.5822269015842L447.90484375,337.2656073676215L452.0140625,339.2050952487522L456.12328125,338.575011698405L460.2325,339.4807169596354L464.34171875000004,336.2907675849067L468.4509375,336.3037083943685L472.56015625000003,339.332423570421L476.669375,337.1646865844727L480.77859375,337.67816738552517L484.8878125,334.59290788438585L488.99703124999996,334.54202117919925L493.10625,340.16929711235895L497.21546875,334.9425248887804L501.3246875,335.1266844007704L505.43390625,336.27181057400173L509.543125,332.90645904541014L513.65234375,334.07900475396053L517.7615625,331.602768113878L521.87078125,335.0387522379557L525.98,331.628012254503L530.08921875,334.37674696180557L534.1984375000001,335.71033562554254L538.30765625,333.49703487820096L542.416875,334.3075247870551L546.52609375,334.1965637207031L550.6353125,332.54692128499346L554.74453125,331.9565366956923L558.85375,334.5610180324978L562.9629687500001,333.3611723158095L567.0721875,333.1819373236762L571.18140625,331.3095201280382L575.2906250000001,328.2664218478733L579.39984375,330.30663926866316L583.5090624999999,333.53012797037763L587.61828125,329.3020690917969L591.7275,331.79200354682075L595.8367187499999,332.09937167697484L599.9459375,330.30797000461155L604.05515625,326.2926535712348L608.164375,328.5853283352322L612.2735937499999,329.21581030951603L616.3828125,331.75328470865884L620.49203125,331.9833506266276L624.6012499999999,330.12659946017794L628.71046875,326.2563969930013L632.8196875,326.91715121799047L636.92890625,328.19253014458553L641.038125,325.6726262410482L645.14734375,328.5684829711914L649.2565625,328.98044535319013L653.36578125,330.5747865464952L657.475,327.8241712782118L661.58421875,325.64124637179907L665.6934375000001,326.92437862820094L669.80265625,325.5064993964301L673.911875,327.69525722927517L678.02109375,326.6285488552517L682.1303125000001,323.7154403686523L686.23953125,326.70188276502824L690.34875,323.33390960693356L694.4579687500001,323.7160858154297L698.5671875,321.20770433213977L702.67640625,323.37863667805993L706.785625,323.13966200086804L710.89484375,323.4678916083442L715.0040624999999,324.0828031751845L719.11328125,323.19921841091576L723.2225,322.5311092800564L727.3317187499999,321.60796101888025L731.4409375,320.9519719441732L735.55015625,320.5590542263455L739.659375,317.7865176730686L743.7685937499999,320.73591461181644L747.8778125,320.5130920410156L751.98703125,319.5099243164063L756.0962499999999,322.24815656873915L760.20546875,318.1616656833225L764.3146875,319.0771402994792L768.42390625,313.9701263427734L772.533125,316.7490058051215L776.64234375,315.87048899332683L780.7515625,316.1058061387804L784.8607812500001,317.7031753540039L788.97,318.09025217692056L793.07921875,318.0721159193251L797.1884375000001,314.2511984931098L801.29765625,314.54893273247615L805.406875,313.5833204481337L809.51609375,316.1606850518121L813.6253125000001,315.5801176283095L817.73453125,314.851328531901L821.84375,315.6912540011936L825.9529687500001,315.6288130018446L830.0621875,313.46659020317924L834.17140625,314.25250532362196L838.280625,311.8800820244683L842.38984375,307.2788831922743L846.4990624999999,313.59961598714193L850.60828125,308.9656348334418L854.7175,310.95631222195095L858.8267187499999,311.43130527072486L862.9359375,309.98960825602217L867.04515625,307.6719443427192L871.154375,310.78639238145615L875.2635937499999,307.5075307210286L879.3728125,309.6615459865994L883.48203125,304.1814717610677L887.59125,303.58719855414495L891.70046875,303.99379018147783L895.8096875,303.32924296061196L899.91890625,303.78449011908634L904.028125,306.265818617079L908.13734375,302.5928917778863L912.2465625,301.97033047146266L916.3557812500001,304.71743960910374L920.465,300.3038745456272L924.57421875,302.0065233018663L928.6834375000001,297.512867058648L932.79265625,296.6432191636827L936.901875,295.434353129069L941.01109375,296.38812425401477L945.1203125000001,296.90998789469404L949.22953125,295.1682139078776L953.33875,295.1521414862739L957.4479687500001,291.4128929985894L961.5571875,291.22188856336805L965.6664062499999,292.8101418389214L969.775625,290.0096199883355L973.88484375,291.49180484347875L977.9940624999999,289.18397403293187L982.10328125,287.87597215440536L986.2125,283.6222547743056L990.32171875,284.69371236165364L994.4309375,282.4025675455729L998.54015625,282.88582390679255L1002.649375,278.67150268554684L1006.7585937499999,279.55571695963545L1010.8678125,276.55196702745224L1014.97703125,277.97822909884985L1019.08625,277.15025634765624L1023.19546875,274.2002936469184L1027.3046875,270.4095448811849L1031.41390625,269.9328704833984L1035.523125,266.12439982096356L1039.63234375,272.53441942003036L1043.7415625,266.6032894558377L1047.85078125,263.8283942328559L1051.96,262.6294569227431L1056.0692187500001,257.58378431532117L1060.1784375,257.64957207573786L1064.28765625,254.02963562011718L1068.3968750000001,253.76527336968314L1072.50609375,252.0236348470052L1076.6153125,243.00290256076389L1080.7245312500002,244.26059943305123L1084.83375,243.02440151638456L1088.94296875,239.22367621527775L1093.0521875,233.58685404459635L1097.16140625,228.63575134277343L1101.270625,228.07717692057292L1105.37984375,223.65918138292102L1109.4890625,220.8315188937717L1113.5982812500001,215.83894822862416L1117.7075,213.68855862087676L1121.81671875,212.6276353624132L1125.9259375000001,207.71637505425346L1130.03515625,205.1151926676432L1134.144375,201.41464708116322L1138.2535937500002,197.30879279242623L1142.3628125,196.54686279296874L1146.47203125,190.6653764512804L1150.5812500000002,188.33564826117623L1154.69046875,184.47688056098087L1158.7996875,181.35585055881074L1162.90890625,172.9112074110243L1167.0181249999998,175.25379672580294L1171.12734375,170.2197740342882L1175.2365625,167.0509331597222L1179.3457812499998,165.31635470920142L1183.455,162.90561896430123L1187.56421875,159.92869093153212L1191.6734374999999,157.73613213433163L1195.78265625,154.32920905219186L1199.891875,148.57285970052084L1204.0010937499999,148.271236843533L1208.1103125,145.57773166232639L1212.21953125,145.63379787868925L1216.32875,141.89712320963542L1220.43796875,139.3974433051215L1224.5471874999998,133.04554578993054L1228.65640625,129.23776041666667L1232.765625,125.85456746419271L1236.8748437499999,128.8838643391927L1240.9840625,124.48175794813366L1245.09328125,120.80048014322918L1249.2024999999999,119.0994330512153L1253.31171875,119.9938469780816L1257.4209375,112.72602064344616L1261.53015625,110.4367723253038L1265.639375,104.23356662326387L1269.74859375,103.4322245279948L1273.8578125,102.27845255533853L1277.96703125,102.58829888237848L1282.07625,103.46231350368923L1286.18546875,99.0752197265625L1290.2946875,96.08949449327257L1294.40390625,92.58709309895832L1298.513125,90.99502292209202L1302.62234375,87.39024251302084L1306.7315625,85.075973171658L1310.84078125,84.20046047634547L1314.95,82.29471910264756L1319.0592187500001,81.6297336154514L1323.1684375,80.74226820203994L1327.27765625,81.31348063151043L1331.3868750000001,81.75553995768229L1335.49609375,79.90203993055557L1339.6053125,76.26717054578994L1343.7145312500002,76.71053670247395L1347.82375,75.2240010579427L1351.93296875,75.50528835720488L1356.0421875,72.8616021050347L1360.15140625,74.65278862847224L1364.2606250000001,72.96844346788193L1368.36984375,75.37492404513887L1372.4790625,75.04569837782118L1376.5882812500001,73.30235460069444L1380.6975,70.4844455295139L1384.80671875,73.19312269422741L1388.9159375000002,74.69983452690973L1393.02515625,73.44081488715277L1397.134375,73.18397488064238L1401.2435937500002,71.12804361979167L1405.3528125,68.56158786349827L1409.46203125,72.21860961914064L1413.57125,68.28517727322047L1417.6804687499998,66.88731486002604L1421.7896875,68.9502902560764L1425.89890625,68.1900336371528L1430.0081249999998,70.79145507812501L1434.11734375,70.24688924153645L1438.2265625,67.1506890190972L1442.3357812499999,67.55634833441839L1446.445,68.36702948676215L1450.55421875,65.93842841254339L1454.6634374999999,71.18216552734376L1458.77265625,67.54860297309027L1462.881875,66.94481540256075L1466.99109375,64.08256971571181L1471.1003125,66.92259928385417L1475.20953125,67.57811821831595L1479.31875,66.55302124023439L1483.42796875,67.90680202907986L1487.5371874999998,65.56824476453991L1491.64640625,64.6737989637587L1495.755625,64.87951321072048L1499.8648437499999,66.21442464192708L1503.9740625,63.07921074761286L1508.08328125,62.26135796440972L1512.1924999999999,62.62892795138888L1516.30171875,63.7710978190104L1520.4109375,62.611365424262175L1524.52015625,62.21010470920138L1528.629375,63.69141303168405L1532.73859375,62.5943128797743L1536.8478125,63.140121799045126L1540.95703125,62.87760823567709L1545.06625,60.69676310221354L1549.17546875,62.173385959201376L1553.2846875,61.2179972330729L1557.39390625,61.407774522569426L1561.503125,61.570777723524294L1565.61234375,61.3257310655382L1569.7215625000001,59.894432915581575L1573.83078125,61.955687120225676L1577.94,57.977344428168394L1582.0492187500001,59.950180392795126L1586.1584375,59.3536919487847L1590.26765625,58.83223470052085L1594.3768750000002,58.532141791449675L1598.48609375,61.086740451388906L1602.5953125,57.36791517469619L1606.70453125,57.603973388671875L1610.81375,58.31109619140625L1614.92296875,57.08203803168405L1619.0321875,59.27346530490451L1623.14140625,57.69175415039064L1627.2506250000001,55.383190239800356L1631.35984375,57.76633911132814L1635.4690625,57.891699218750006L1639.5782812500001,56.15450710720485L1643.6875,59.172488742404525L1647.79671875,58.44177924262155L1651.9059375000002,56.072081163194426L1656.01515625,55.51820814344619L1660.124375,55.76886461046006L1664.2335937500002,54.41779310438367L1668.3428125,54.057458496093744L1672.45203125,52.96733873155383L1676.56125,54.51609225802953L1680.6704687499998,57.06654730902777L1684.7796875,56.11103108723958L1688.88890625,57.03942260742187L1692.9981249999998,55.08172675238716L1697.10734375,56.97535603841146L1701.2165625,55.26704169379339L1705.3257812499999,55.13435058593752L1709.435,54.063833279079844L1713.54421875,55.621511501736094L1717.6534374999999,57.13201633029514L1721.76265625,55.98500162760416L1725.871875,54.23340250651044L1729.98109375,53.240211317274294L1734.0903125,54.878626166449656L1738.1995312499998,55.49446207682291L1742.30875,53.372073703342025L1746.41796875,52.8925306532118L1750.5271874999999,54.09634467230904L1754.63640625,54.557241482204844L1758.745625,54.16270616319445L1762.8548437499999,55.22547810872396L1766.9640625,54.419641791449656L1771.07328125,55.80153537326388L1775.1825,52.552276611328125L1779.29171875,53.90784233940972L1783.4009375,53.146119520399324L1787.51015625,54.130672878689225L1791.619375,54.99471096462672L1795.72859375,53.60424329969619L1799.8378125,52.075889078776044L1803.94703125,50.40776774088542L1808.05625,53.039501274956606L1812.16546875,52.727041286892344L1816.2746875,53.628563096788206L1820.38390625,50.61447007921005L1824.493125,52.116464572482656L1828.60234375,51.864246283637144L1832.7115625000001,51.410871717664925L1836.82078125,50.86831393771701L1840.93,50.57395833333334L1845.0392187500001,51.34113159179688" style="fill: none;" fill="none"></path></g></g></g></g></g><g><g opacity="0.878115"><span fill="rgb(0, 0, 0)" stroke="none" stroke-width="1px">Alt + Scroll to Zoom</span></g></g></g><g transform="translate(42, 376)" clip-path="url(#clip_1)"><clipPath id="clip_1"><rect width="2054" height="24"></rect></clipPath><g><g><line x1="0" y1="0" x2="0" y2="5" style="visibility: inherit;" fill="rgb(0, 0, 0)" stroke="rgb(204, 204, 204)" stroke-width="1px"></line><line x1="205.4609375" y1="0" x2="205.4609375" y2="5" style="visibility: inherit;" fill="rgb(0, 0, 0)" stroke="rgb(204, 204, 204)" stroke-width="1px"></line><line x1="410.921875" y1="0" x2="410.921875" y2="5" style="visibility: inherit;" fill="rgb(0, 0, 0)" stroke="rgb(204, 204, 204)" stroke-width="1px"></line><line x1="616.3828125" y1="0" x2="616.3828125" y2="5" style="visibility: inherit;" fill="rgb(0, 0, 0)" stroke="rgb(204, 204, 204)" stroke-width="1px"></line><line x1="821.84375" y1="0" x2="821.84375" y2="5" style="visibility: inherit;" fill="rgb(0, 0, 0)" stroke="rgb(204, 204, 204)" stroke-width="1px"></line><line x1="1027.3046875" y1="0" x2="1027.3046875" y2="5" style="visibility: inherit;" fill="rgb(0, 0, 0)" stroke="rgb(204, 204, 204)" stroke-width="1px"></line><line x1="1232.765625" y1="0" x2="1232.765625" y2="5" style="visibility: inherit;" fill="rgb(0, 0, 0)" stroke="rgb(204, 204, 204)" stroke-width="1px"></line><line x1="1438.2265625" y1="0" x2="1438.2265625" y2="5" style="visibility: inherit;" fill="rgb(0, 0, 0)" stroke="rgb(204, 204, 204)" stroke-width="1px"></line><line x1="1643.6875" y1="0" x2="1643.6875" y2="5" style="visibility: inherit;" fill="rgb(0, 0, 0)" stroke="rgb(204, 204, 204)" stroke-width="1px"></line><line x1="1849.1484375" y1="0" x2="1849.1484375" y2="5" style="visibility: inherit;" fill="rgb(0, 0, 0)" stroke="rgb(204, 204, 204)" stroke-width="1px"></line><line x1="2054.609375" y1="0" x2="2054.609375" y2="5" style="visibility: inherit;" fill="rgb(0, 0, 0)" stroke="rgb(204, 204, 204)" stroke-width="1px"></line></g><g transform="translate(0, 8)"><text x="0" y="0" dx="0em" dy="0.95em" style="text-anchor: middle; visibility: hidden; font-family: Roboto, sans-serif; font-size: 12px; font-weight: 200;" fill="rgb(33, 33, 33)" stroke="none" stroke-width="1px">-50</text><text x="205.4609375" y="0" dx="0em" dy="0.95em" style="text-anchor: middle; visibility: inherit; font-family: Roboto, sans-serif; font-size: 12px; font-weight: 200;" fill="rgb(33, 33, 33)" stroke="none" stroke-width="1px">0</text><text x="410.921875" y="0" dx="0em" dy="0.95em" style="text-anchor: middle; visibility: inherit; font-family: Roboto, sans-serif; font-size: 12px; font-weight: 200;" fill="rgb(33, 33, 33)" stroke="none" stroke-width="1px">50</text><text x="616.3828125" y="0" dx="0em" dy="0.95em" style="text-anchor: middle; visibility: inherit; font-family: Roboto, sans-serif; font-size: 12px; font-weight: 200;" fill="rgb(33, 33, 33)" stroke="none" stroke-width="1px">100</text><text x="821.84375" y="0" dx="0em" dy="0.95em" style="text-anchor: middle; visibility: inherit; font-family: Roboto, sans-serif; font-size: 12px; font-weight: 200;" fill="rgb(33, 33, 33)" stroke="none" stroke-width="1px">150</text><text x="1027.3046875" y="0" dx="0em" dy="0.95em" style="text-anchor: middle; visibility: inherit; font-family: Roboto, sans-serif; font-size: 12px; font-weight: 200;" fill="rgb(33, 33, 33)" stroke="none" stroke-width="1px">200</text><text x="1232.765625" y="0" dx="0em" dy="0.95em" style="text-anchor: middle; visibility: inherit; font-family: Roboto, sans-serif; font-size: 12px; font-weight: 200;" fill="rgb(33, 33, 33)" stroke="none" stroke-width="1px">250</text><text x="1438.2265625" y="0" dx="0em" dy="0.95em" style="text-anchor: middle; visibility: inherit; font-family: Roboto, sans-serif; font-size: 12px; font-weight: 200;" fill="rgb(33, 33, 33)" stroke="none" stroke-width="1px">300</text><text x="1643.6875" y="0" dx="0em" dy="0.95em" style="text-anchor: middle; visibility: inherit; font-family: Roboto, sans-serif; font-size: 12px; font-weight: 200;" fill="rgb(33, 33, 33)" stroke="none" stroke-width="1px">350</text><text x="1849.1484375" y="0" dx="0em" dy="0.95em" style="text-anchor: middle; visibility: inherit; font-family: Roboto, sans-serif; font-size: 12px; font-weight: 200;" fill="rgb(33, 33, 33)" stroke="none" stroke-width="1px">400</text><text x="2054.609375" y="0" dx="0em" dy="0.95em" style="text-anchor: middle; visibility: hidden; font-family: Roboto, sans-serif; font-size: 12px; font-weight: 200;" fill="rgb(33, 33, 33)" stroke="none" stroke-width="1px">450</text></g><line x1="0" y1="0" x2="2054.609375" y2="0" fill="rgb(0, 0, 0)" stroke="rgb(204, 204, 204)" stroke-width="1px"></line></g></g></g></g></svg>