<svg viewBox="0 0 2097 400" xmlns="http://www.w3.org/2000/svg"><g><g><g><g><g><line x1="31.59375" y1="376" x2="26.59375" y2="376" style="visibility: inherit;" fill="rgb(0, 0, 0)" stroke="rgb(204, 204, 204)" stroke-width="1px"></line><line x1="31.59375" y1="341.8181818181818" x2="26.59375" y2="341.8181818181818" style="visibility: inherit;" fill="rgb(0, 0, 0)" stroke="rgb(204, 204, 204)" stroke-width="1px"></line><line x1="31.59375" y1="307.6363636363636" x2="26.59375" y2="307.6363636363636" style="visibility: inherit;" fill="rgb(0, 0, 0)" stroke="rgb(204, 204, 204)" stroke-width="1px"></line><line x1="31.59375" y1="273.45454545454544" x2="26.59375" y2="273.45454545454544" style="visibility: inherit;" fill="rgb(0, 0, 0)" stroke="rgb(204, 204, 204)" stroke-width="1px"></line><line x1="31.59375" y1="239.27272727272728" x2="26.59375" y2="239.27272727272728" style="visibility: inherit;" fill="rgb(0, 0, 0)" stroke="rgb(204, 204, 204)" stroke-width="1px"></line><line x1="31.59375" y1="205.09090909090907" x2="26.59375" y2="205.09090909090907" style="visibility: inherit;" fill="rgb(0, 0, 0)" stroke="rgb(204, 204, 204)" stroke-width="1px"></line><line x1="31.59375" y1="170.90909090909093" x2="26.59375" y2="170.90909090909093" style="visibility: inherit;" fill="rgb(0, 0, 0)" stroke="rgb(204, 204, 204)" stroke-width="1px"></line><line x1="31.59375" y1="136.72727272727272" x2="26.59375" y2="136.72727272727272" style="visibility: inherit;" fill="rgb(0, 0, 0)" stroke="rgb(204, 204, 204)" stroke-width="1px"></line><line x1="31.59375" y1="102.54545454545453" x2="26.59375" y2="102.54545454545453" style="visibility: inherit;" fill="rgb(0, 0, 0)" stroke="rgb(204, 204, 204)" stroke-width="1px"></line><line x1="31.59375" y1="68.36363636363635" x2="26.59375" y2="68.36363636363635" style="visibility: inherit;" fill="rgb(0, 0, 0)" stroke="rgb(204, 204, 204)" stroke-width="1px"></line><line x1="31.59375" y1="34.181818181818194" x2="26.59375" y2="34.181818181818194" style="visibility: inherit;" fill="rgb(0, 0, 0)" stroke="rgb(204, 204, 204)" stroke-width="1px"></line><line x1="31.59375" y1="0" x2="26.59375" y2="0" style="visibility: inherit;" fill="rgb(0, 0, 0)" stroke="rgb(204, 204, 204)" stroke-width="1px"></line></g><g transform="translate(21.59375, 0)"><text x="0" y="376" dx="0em" dy="0.3em" style="text-anchor: end; visibility: hidden; font-family: Roboto, sans-serif; font-size: 12px; font-weight: 200;" fill="rgb(33, 33, 33)" stroke="none" stroke-width="1px">0</text><text x="0" y="341.8181818181818" dx="0em" dy="0.3em" style="text-anchor: end; visibility: inherit; font-family: Roboto, sans-serif; font-size: 12px; font-weight: 200;" fill="rgb(33, 33, 33)" stroke="none" stroke-width="1px">5</text><text x="0" y="307.6363636363636" dx="0em" dy="0.3em" style="text-anchor: end; visibility: inherit; font-family: Roboto, sans-serif; font-size: 12px; font-weight: 200;" fill="rgb(33, 33, 33)" stroke="none" stroke-width="1px">10</text><text x="0" y="273.45454545454544" dx="0em" dy="0.3em" style="text-anchor: end; visibility: inherit; font-family: Roboto, sans-serif; font-size: 12px; font-weight: 200;" fill="rgb(33, 33, 33)" stroke="none" stroke-width="1px">15</text><text x="0" y="239.27272727272728" dx="0em" dy="0.3em" style="text-anchor: end; visibility: inherit; font-family: Roboto, sans-serif; font-size: 12px; font-weight: 200;" fill="rgb(33, 33, 33)" stroke="none" stroke-width="1px">20</text><text x="0" y="205.09090909090907" dx="0em" dy="0.3em" style="text-anchor: end; visibility: inherit; font-family: Roboto, sans-serif; font-size: 12px; font-weight: 200;" fill="rgb(33, 33, 33)" stroke="none" stroke-width="1px">25</text><text x="0" y="170.90909090909093" dx="0em" dy="0.3em" style="text-anchor: end; visibility: inherit; font-family: Roboto, sans-serif; font-size: 12px; font-weight: 200;" fill="rgb(33, 33, 33)" stroke="none" stroke-width="1px">30</text><text x="0" y="136.72727272727272" dx="0em" dy="0.3em" style="text-anchor: end; visibility: inherit; font-family: Roboto, sans-serif; font-size: 12px; font-weight: 200;" fill="rgb(33, 33, 33)" stroke="none" stroke-width="1px">35</text><text x="0" y="102.54545454545453" dx="0em" dy="0.3em" style="text-anchor: end; visibility: inherit; font-family: Roboto, sans-serif; font-size: 12px; font-weight: 200;" fill="rgb(33, 33, 33)" stroke="none" stroke-width="1px">40</text><text x="0" y="68.36363636363635" dx="0em" dy="0.3em" style="text-anchor: end; visibility: inherit; font-family: Roboto, sans-serif; font-size: 12px; font-weight: 200;" fill="rgb(33, 33, 33)" stroke="none" stroke-width="1px">45</text><text x="0" y="34.181818181818194" dx="0em" dy="0.3em" style="text-anchor: end; visibility: inherit; font-family: Roboto, sans-serif; font-size: 12px; font-weight: 200;" fill="rgb(33, 33, 33)" stroke="none" stroke-width="1px">50</text><text x="0" y="0" dx="0em" dy="0.3em" style="text-anchor: end; visibility: hidden; font-family: Roboto, sans-serif; font-size: 12px; font-weight: 200;" fill="rgb(33, 33, 33)" stroke="none" stroke-width="1px">55</text></g><line x1="31.59375" y1="0" x2="31.59375" y2="376" fill="rgb(0, 0, 0)" stroke="rgb(204, 204, 204)" stroke-width="1px"></line></g></g><g transform="translate(31, 0)" clip-path="url(#clip_0)"><clipPath id="clip_0"><rect width="2065" height="376"></rect></clipPath><g><g><g><line x1="0" y1="0" x2="0" y2="376" fill="rgb(0, 0, 0)" stroke="rgb(66, 66, 66)" stroke-width="1px" opacity="0.25"></line><line x1="206.540625" y1="0" x2="206.540625" y2="376" fill="rgb(0, 0, 0)" stroke="rgb(66, 66, 66)" stroke-width="1px" opacity="0.25"></line><line x1="413.08125" y1="0" x2="413.08125" y2="376" fill="rgb(0, 0, 0)" stroke="rgb(66, 66, 66)" stroke-width="1px" opacity="0.25"></line><line x1="619.6218749999999" y1="0" x2="619.6218749999999" y2="376" fill="rgb(0, 0, 0)" stroke="rgb(66, 66, 66)" stroke-width="1px" opacity="0.25"></line><line x1="826.1625" y1="0" x2="826.1625" y2="376" fill="rgb(0, 0, 0)" stroke="rgb(66, 66, 66)" stroke-width="1px" opacity="0.25"></line><line x1="1032.703125" y1="0" x2="1032.703125" y2="376" fill="rgb(0, 0, 0)" stroke="rgb(66, 66, 66)" stroke-width="1px" opacity="0.25"></line><line x1="1239.2437499999999" y1="0" x2="1239.2437499999999" y2="376" fill="rgb(0, 0, 0)" stroke="rgb(66, 66, 66)" stroke-width="1px" opacity="0.25"></line><line x1="1445.784375" y1="0" x2="1445.784375" y2="376" fill="rgb(0, 0, 0)" stroke="rgb(66, 66, 66)" stroke-width="1px" opacity="0.25"></line><line x1="1652.325" y1="0" x2="1652.325" y2="376" fill="rgb(0, 0, 0)" stroke="rgb(66, 66, 66)" stroke-width="1px" opacity="0.25"></line><line x1="1858.8656250000001" y1="0" x2="1858.8656250000001" y2="376" fill="rgb(0, 0, 0)" stroke="rgb(66, 66, 66)" stroke-width="1px" opacity="0.25"></line><line x1="2065.40625" y1="0" x2="2065.40625" y2="376" fill="rgb(0, 0, 0)" stroke="rgb(66, 66, 66)" stroke-width="1px" opacity="0.25"></line></g><g><line x1="0" y1="376" x2="2065.40625" y2="376" fill="rgb(0, 0, 0)" stroke="rgb(66, 66, 66)" stroke-width="1px" opacity="0.25"></line><line x1="0" y1="341.8181818181818" x2="2065.40625" y2="341.8181818181818" fill="rgb(0, 0, 0)" stroke="rgb(66, 66, 66)" stroke-width="1px" opacity="0.25"></line><line x1="0" y1="307.6363636363636" x2="2065.40625" y2="307.6363636363636" fill="rgb(0, 0, 0)" stroke="rgb(66, 66, 66)" stroke-width="1px" opacity="0.25"></line><line x1="0" y1="273.45454545454544" x2="2065.40625" y2="273.45454545454544" fill="rgb(0, 0, 0)" stroke="rgb(66, 66, 66)" stroke-width="1px" opacity="0.25"></line><line x1="0" y1="239.27272727272728" x2="2065.40625" y2="239.27272727272728" fill="rgb(0, 0, 0)" stroke="rgb(66, 66, 66)" stroke-width="1px" opacity="0.25"></line><line x1="0" y1="205.09090909090907" x2="2065.40625" y2="205.09090909090907" fill="rgb(0, 0, 0)" stroke="rgb(66, 66, 66)" stroke-width="1px" opacity="0.25"></line><line x1="0" y1="170.90909090909093" x2="2065.40625" y2="170.90909090909093" fill="rgb(0, 0, 0)" stroke="rgb(66, 66, 66)" stroke-width="1px" opacity="0.25"></line><line x1="0" y1="136.72727272727272" x2="2065.40625" y2="136.72727272727272" fill="rgb(0, 0, 0)" stroke="rgb(66, 66, 66)" stroke-width="1px" opacity="0.25"></line><line x1="0" y1="102.54545454545453" x2="2065.40625" y2="102.54545454545453" fill="rgb(0, 0, 0)" stroke="rgb(66, 66, 66)" stroke-width="1px" opacity="0.25"></line><line x1="0" y1="68.36363636363635" x2="2065.40625" y2="68.36363636363635" fill="rgb(0, 0, 0)" stroke="rgb(66, 66, 66)" stroke-width="1px" opacity="0.25"></line><line x1="0" y1="34.181818181818194" x2="2065.40625" y2="34.181818181818194" fill="rgb(0, 0, 0)" stroke="rgb(66, 66, 66)" stroke-width="1px" opacity="0.25"></line><line x1="0" y1="0" x2="2065.40625" y2="0" fill="rgb(0, 0, 0)" stroke="rgb(66, 66, 66)" stroke-width="1px" opacity="0.25"></line></g></g></g><g><g><line x1="0" y1="376" x2="2065.40625" y2="376" fill="rgb(0, 0, 0)" stroke="rgb(153, 153, 153)" stroke-width="1.5px"></line></g></g><g><g><line x1="206.540625" y1="0" x2="206.540625" y2="376" fill="rgb(0, 0, 0)" stroke="rgb(153, 153, 153)" stroke-width="1.5px"></line></g></g><g><g><g><g><g><path stroke="rgb(255, 112, 67)" stroke-width="2px" d="M206.540625,354.2199917879972L210.6714375,353.03036084608596L214.80225,348.8294371157276L218.9330625,347.03344857450475L223.063875,343.76250694519894L227.19468750000001,341.91832316816465L231.3255,340.50892214423294L235.4563125,338.7241723980425L239.58712500000001,336.5757697485612L243.71793749999998,334.86116272428L247.84875,333.8390579165698L251.9795625,332.54020084343773L256.110375,331.8251876035161L260.2411875,331.4967060691576L264.372,331.0500370241857L268.5028125,329.95816625097353L272.633625,329.82754723565284L276.76443750000004,329.36222815391847L280.89525000000003,329.0830669517038L285.0260625,329.9390924103863L289.156875,329.192039854963L293.28768749999995,328.4692251857447L297.4185,328.8093936328208L301.5493125,326.94157553815364L305.680125,327.1688817379513L309.81093749999997,326.8309716881264L313.94175,325.692122524432L318.0725625,325.6079204467048L322.203375,325.18295781656514L326.3341875,325.9888968773885L330.46500000000003,325.12447115719095L334.5958125,323.8070081953748L338.726625,323.703005543695L342.8574375,322.8168325977021L346.98825,322.8842351632512L351.11906250000004,322.66256793448713L355.249875,322.8790463883637L359.38068749999996,322.85915851254305L363.51149999999996,322.8222606880544L367.6423125,322.6004207602368L371.773125,322.15528175266L375.9039375,321.9131621434096L380.03475,321.4059303447593L384.1655625,321.9503237875607L388.296375,322.0647773746879L392.4271875,321.90878449897735L396.558,321.24104495806176L400.68881250000004,321.31469378059154L404.81962500000003,321.44625309696994L408.9504375,321.1881911448454L413.08125,321.4202778016989L417.2120625,321.78419351984314L421.342875,321.4658428719373L425.4736875,321.02520496410654L429.6045,321.4223360577433L433.73531249999996,321.8727984963294L437.866125,321.256897093181L441.9969375,320.7875062868034L446.12775,319.45743674438313L450.2585625,318.6968387556142L454.38937500000003,319.33884000319097L458.5201875,319.97367087869014L462.651,320.49186310516154L466.7818125,319.1926795086047L470.912625,318.56294690526937L475.04343750000004,318.0478136420963L479.17425000000003,318.1131736588906L483.3050625,317.777949694269L487.43587499999995,317.53936897094707L491.5666875,317.5335168459915L495.6975,318.7032556930885L499.8283125,318.0820713246777L503.959125,317.29747438438403L508.0899375,317.3509337495047L512.22075,316.4968331101432L516.3515625,315.49759893391257L520.482375,313.9120295973859L524.6131875,314.9701893937298L528.744,313.93258011129114L532.8748125,314.50822715502045L537.005625,315.976940521084L541.1364375,316.1966547023876L545.26725,315.69193447182323L549.3980625,315.426543462302L553.5288750000001,314.2563175346788L557.6596875,313.9910307884742L561.7905000000001,314.26870755112077L565.9213125,313.99846479833934L570.052125,313.4244354352891L574.1829375000001,313.62919783787805L578.31375,312.95324773992496L582.4445625,313.0219676203399L586.5753749999999,313.5999009313126L590.7061874999999,313.1977783606342L594.837,312.88161473699483L598.9678124999999,312.9415440818986L603.098625,312.72787416975353L607.2294375,311.3390533814686L611.36025,311.76637974949546L615.4910625,311.27389301304953L619.6218749999999,312.2889447944242L623.7526875,312.9978284356034L627.8835,311.7007258699558L632.0143125,310.7477268927121L636.145125,310.5503700889298L640.2759374999999,310.73150850799215L644.40675,309.70438517404244L648.5375625,310.9353563796385L652.668375,311.4617553205921L656.7991875,311.3157833836727L660.9300000000001,311.25316271264325L665.0608125,309.70534394994036L669.191625,310.1496027433662L673.3224375,310.14156800921216L677.45325,310.6110423236381L681.5840625000001,309.61962421786893L685.714875,308.8625171621134L689.8456875,308.932470457957L693.9765,308.7372935540711L698.1073125,307.57175235314577L702.2381250000001,305.9363237840465L706.3689375,305.25462175178444L710.49975,306.480661955989L714.6305625,307.60320729877094L718.7613749999999,307.1658906101752L722.8921875,306.4916168856364L727.0229999999999,306.4739738711723L731.1538125,306.2512068879555L735.284625,304.8444466114665L739.4154374999999,304.6743829216029L743.54625,305.1090434825427L747.6770624999999,304.9953972365427L751.807875,304.6526194787332L755.9386875,304.5967303786461L760.0695,305.0374920735122L764.2003125,305.28946523700506L768.331125,304.40469532206816L772.4619375,302.0141095294447L776.59275,301.4284879677556L780.7235625,301.05215253961995L784.854375,302.42396896961714L788.9851875,302.1986237690217L793.116,303.27411050741796L797.2468125,303.0831486664004L801.3776250000001,301.98254273100144L805.5084375,301.64669416221597L809.6392500000001,298.87402235670453L813.7700625,299.44458569962285L817.900875,299.12541247490515L822.0316875000001,299.62038486953116L826.1625,299.50548198705957L830.2933125000001,298.99969144720734L834.424125,298.04718453052254L838.5549375,297.94997292756426L842.68575,297.7917933934349L846.8165624999999,296.386341849715L850.947375,296.49165601758824L855.0781875,295.2567819406311L859.209,295.3021837884021L863.3398125,295.8286799352394L867.4706249999999,295.5080288839952L871.6014375,294.6915681515974L875.73225,294.05191676542574L879.8630625,294.87881979247635L883.993875,295.53721780100074L888.1246874999999,293.9102739622943L892.2555,293.73291519857685L896.3863125,292.57806488175265L900.517125,292.5341872844316L904.6479375,292.3206394347569L908.7787500000001,292.06769566147557L912.9095625,291.6413393872973L917.040375,291.1983043315083L921.1711875,290.96992703471824L925.302,289.87183692484376L929.4328125000001,289.6872754059716L933.563625,288.4656919925176L937.6944375,287.47063578766256L941.82525,285.088763086589L945.9560625,285.5318471630329L950.0868750000001,284.28744864094836L954.2176875,282.4299682412984L958.3485000000001,283.5122052989161L962.4793125000001,281.97730348164015L966.610125,282.1172786954294L970.7409375,282.56322516070577L974.8717499999999,280.24714652220473L979.0025625,279.8310495321971L983.133375,278.720174963015L987.2641874999999,278.41561155850854L991.395,276.1110382996293L995.5258124999999,275.0902556813046L999.656625,273.69145720849866L1003.7874375,273.75083562881014L1007.91825,273.0375827316007L1012.0490625,272.08541346397817L1016.179875,270.3283805357733L1020.3106875,269.53626954349875L1024.4415,267.6506039446717L1028.5723125,266.03243079276183L1032.703125,265.5607819397906L1036.8339375,263.1684412652593L1040.96475,260.3975279383104L1045.0955625,259.7834150007348L1049.226375,258.1293685139352L1053.3571875,256.7500167937304L1057.488,253.9129043633476L1061.6188125,251.87363805923727L1065.749625,249.77638587176392L1069.8804375,248.24344194120465L1074.01125,245.70109801273415L1078.1420625,243.2395825913763L1082.272875,239.0167732364664L1086.4036875000002,237.41919147206448L1090.5345,237.1970411172586L1094.6653125,235.30387963306825L1098.796125,233.21939764844888L1102.9269375000001,228.52384817269856L1107.0577500000002,224.58319073955664L1111.1885625,220.6835926441957L1115.319375,214.06271440221343L1119.4501875,210.47711128514908L1123.5810000000001,208.48801082293605L1127.7118125000002,206.32100296038095L1131.842625,202.636854262024L1135.9734375,198.47926987255528L1140.10425,193.25128995087692L1144.2350625000001,189.47795847425485L1148.3658750000002,183.54443166747197L1152.4966875,181.50704840478005L1156.6275,176.54020305298874L1160.7583125,171.81270060043673L1164.889125,167.10399143181743L1169.0199375,161.08353055688877L1173.1507499999998,159.1687242911645L1177.2815624999998,156.04778287015318L1181.4123749999999,150.41832659354077L1185.5431875,145.84243239078356L1189.674,140.32602806018036L1193.8048125,140.49849991494347L1197.9356249999998,136.445681314378L1202.0664375,132.91563011320068L1206.19725,129.37471653560507L1210.3280625,125.50278357903345L1214.458875,122.64292503023259L1218.5896874999999,117.76921826387816L1222.7205,114.02121113410817L1226.8513125,109.86276063820641L1230.982125,105.1709702589892L1235.1129375,104.01591733827703L1239.2437499999999,102.3618244619151L1243.3745625,97.36284196940761L1247.505375,91.8921449898832L1251.6361875,90.07003774854637L1255.767,82.14946427732386L1259.8978124999999,77.24734524785737L1264.028625,78.36252557911217L1268.1594375,76.74753976152978L1272.29025,75.81598679193209L1276.4210625,69.9150297527161L1280.5518749999999,64.17772501604726L1284.6826875,61.20963993683005L1288.8135,53.312915975592325L1292.9443125,49.773091604176386L1297.075125,45.46495292948023L1301.2059375000001,45.463713634463716L1305.33675,45.00116918742535L1309.4675625,43.62527204690123L1313.598375,42.200633975654924L1317.7291875,38.84958115776507L1321.8600000000001,38.211886478749946L1325.9908125,38.25364245188061L1330.121625,37.57974628433856L1334.2524375,36.96321176208042L1338.38325,33.71009724545844L1342.5140625000001,32.344852292587554L1346.644875,32.486776876262766L1350.7756875,33.32080636013264L1354.9065,31.42481447126423L1359.0373125,28.202814819122196L1363.1681250000001,31.01254049836255L1367.2989375,27.19407880896074L1371.42975,27.935980976782687L1375.5605625,24.961240130813927L1379.691375,24.524380575292298L1383.8221875000002,24.05007845170951L1387.953,27.07306376136659L1392.0838125,25.03011355866652L1396.214625,21.420389024759594L1400.3454375000001,21.1642109539182L1404.4762500000002,22.932636790745818L1408.6070625000002,22.670659400441846L1412.737875,23.886430840904318L1416.8686875,22.294350736431785L1420.9995,24.259755860893172L1425.1303125,26.01313623137966L1429.261125,26.07913040715166L1433.3919374999998,27.129723450256893L1437.5227499999999,22.542866474273474L1441.6535625,19.86562933058677L1445.784375,22.85244799963045L1449.9151875,22.148248362988483L1454.0459999999998,23.223498911259L1458.1768124999999,24.742346860959955L1462.307625,17.565714624033347L1466.4384375,19.150956206948393L1470.56925,20.538949967066795L1474.7000624999998,23.980342192597995L1478.8308749999999,21.352197902561656L1482.9616875,19.750338405954587L1487.0925,19.051334080504578L1491.2233125,18.619445023941932L1495.3541249999998,21.580514670615198L1499.4849375,21.06057598099127L1503.61575,22.708194398964086L1507.7465625,20.551449842503438L1511.877375,22.15310423611288L1516.0081875,21.366691199338174L1520.139,22.230352299503487L1524.2698125,20.31466956507138L1528.400625,22.26065054941219L1532.5314375,23.290940223113207L1536.66225,20.114784082376445L1540.7930625,18.483677800278087L1544.923875,19.389708189399794L1549.0546875,22.404633906892677L1553.1855,24.475700709902622L1557.3163125,22.023850379776846L1561.447125,20.76492657197119L1565.5779375,19.585209938211165L1569.70875,16.50591200696083L1573.8395625,16.80512834764242L1577.970375,18.931753322505916L1582.1011875,17.461833421060373L1586.232,18.664265136087938L1590.3628125,16.17799711432323L1594.493625,16.29635348876438L1598.6244375,17.166167029338197L1602.7552500000002,17.600681219023357L1606.8860625,13.305688161456604L1611.016875,15.122132490268834L1615.1476875,16.112149123067496L1619.2785000000001,14.721625411340483L1623.4093125000002,15.297707579900868L1627.540125,14.257933408025757L1631.6709375,16.080403466335348L1635.80175,18.921291174261405L1639.9325625000001,19.714677225863653L1644.0633750000002,19.616561129552302L1648.1941875,21.991560434833644L1652.325,19.422519712604725L1656.4558125,15.397290902491802L1660.5866250000001,15.840395360032009L1664.7174375000002,16.89259215209875L1668.84825,17.211863441117217L1672.9790625,18.713983077099357L1677.109875,19.702628793347667L1681.2406875,21.668763666278515L1685.3715,19.85291436098869L1689.5023124999998,16.516749282431267L1693.6331249999998,15.501084281816716L1697.7639374999999,15.87771932796781L1701.89475,18.23800899379769L1706.0255625,16.384065161903628L1710.156375,15.159362436985868L1714.2871874999998,15.335687375188675L1718.418,19.710110045851845L1722.5488125,19.276832407127614L1726.679625,15.734251299745294L1730.8104375,16.429495426509117L1734.9412499999999,19.530135776857172L1739.0720625,20.766457709012023L1743.202875,17.92608645069132L1747.3336875,17.095561316437493L1751.4645,18.257267542703403L1755.5953124999999,18.679703876119174L1759.726125,20.218760047617526L1763.8569375,18.858099734181337L1767.98775,15.832497003150817L1772.1185625,15.440018221421722L1776.2493749999999,16.73972937212858L1780.3801875,15.75968479124591L1784.511,16.557091947190713L1788.6418125,16.186801111141094L1792.772625,17.874272827551156L1796.9034374999999,17.239221011871635L1801.03425,16.408854650801963L1805.1650625,13.888662621802187L1809.295875,14.46093106029723L1813.4266875,14.716928620198196L1817.5575000000001,16.493109942005322L1821.6883125,18.145442492191805L1825.819125,15.854237929619009L1829.9499375,17.038186179291316L1834.08075,14.990173781438397L1838.2115625000001,14.273102626462475L1842.342375,17.362612907553594L1846.4731875,18.754507774716796L1850.604,18.104360826051675L1854.7348125,17.215012402946382" style="fill: none;" fill="none"></path></g></g></g></g><g opacity="0.2"><g><g><g><path stroke="rgb(255, 112, 67)" stroke-width="2px" d="M206.540625,354.2199917879972L210.6714375,352.3165822809393L214.80225,344.7965503345836L218.9330625,344.9213660500266L223.063875,339.49196555397725L227.19468750000001,339.3671530983665L231.3255,338.4934561295943L235.4563125,336.1219901344993L239.58712500000001,333.4072931463068L243.71793749999998,332.3151711203835L247.84875,332.3151711203835L251.9795625,330.59898355657407L256.110375,330.75500238591974L260.2411875,331.0046272971413L264.372,330.38055849942293L268.5028125,328.32113016301935L272.633625,329.63167398626155L276.76443750000004,328.66436767578125L280.89525000000003,328.66436767578125L285.0260625,331.22305235429246L289.156875,328.07150199196553L293.28768749999995,327.3850269664417L297.4185,329.3196395874024L301.5493125,324.139870522239L305.680125,327.50983942205255L309.81093749999997,326.3241080544212L313.94175,323.98385169289327L318.0725625,325.48161745938387L322.203375,324.5455142628063L326.3341875,327.1978050231933L330.46500000000003,323.8278328635476L334.5958125,321.8308140147816L338.726625,323.5470015785911L342.8574375,321.48757324218747L346.98825,322.98533900867807L351.11906250000004,322.330067097057L355.249875,323.2037640658292L359.38068749999996,322.8293266989968L363.51149999999996,322.766913951527L367.6423125,322.2676608692516L371.773125,321.48757324218747L375.9039375,321.5499827298251L380.03475,320.6450826471502L384.1655625,322.766913951527L388.296375,322.2364577553489L392.4271875,321.67479518543587L396.558,320.23943564675074L400.68881250000004,321.4251670143821L404.81962500000003,321.6435920715332L408.9504375,320.8010982166637L413.08125,321.76840778697624L417.2120625,322.330067097057L421.342875,320.9883169000799L425.4736875,320.3642481023615L429.6045,322.01803269819777L433.73531249999996,322.5484921542081L437.866125,320.33304498845877L441.9969375,320.08342007723724L446.12775,317.46233243075284L450.2585625,317.5559417724609L454.38937500000003,320.30184187455615L458.5201875,320.92591719193894L462.651,321.2691514448686L466.7818125,317.24390411376953L470.912625,317.61834800026634L475.04343750000004,317.27511374733666L479.17425000000003,318.211213684082L483.3050625,317.27511374733666L487.43587499999995,317.1814978859641L491.5666875,317.52473865855825L495.6975,320.45786396373404L499.8283125,317.15029477206144L503.959125,316.1205789739435L508.0899375,317.43112279718576L512.22075,315.21568215110085L516.3515625,313.99874766956674L520.482375,311.53367559259584L524.6131875,316.5574290882457L528.744,312.37616618763315L532.8748125,315.37169772061435L537.005625,318.1800105701793L541.1364375,316.52622597434305L545.26725,314.9348541259765L549.3980625,315.0284569480202L553.5288750000001,312.50097864324397L557.6596875,313.59310066916726L561.7905000000001,314.68522269509054L565.9213125,313.59310066916726L570.052125,312.5633913907138L574.1829375000001,313.9363414417614L578.31375,311.9393225929954L582.4445625,313.12504744096236L586.5753749999999,314.46680089777163L590.7061874999999,312.59459450461645L594.837,312.4073693015359L598.9678124999999,313.0314380992543L603.098625,312.4073693015359L607.2294375,309.25582219904123L611.36025,312.4073693015359L615.4910625,310.53516290838064L619.6218749999999,313.8115224664861L623.7526875,314.06115389737215L627.8835,309.7550720214844L632.0143125,309.3182284268466L636.145125,310.2543348832564L640.2759374999999,311.0032161365856L644.40675,308.1637001731179L648.5375625,312.7818131880327L652.668375,312.2513537320224L656.7991875,311.0968254782937L660.9300000000001,311.1592317060991L665.0608125,307.383615805886L669.191625,310.81599093350496L673.3224375,310.12951590798116L677.45325,311.315253795277L681.5840625000001,308.1324970592152L685.714875,307.7268565784801L689.8456875,309.0374004017223L693.9765,308.44452819824215L698.1073125,305.8234405517578L702.2381250000001,303.48318093039774L706.3689375,304.23206870339135L710.49975,308.3197222622958L714.6305625,309.28702531294385L718.7613749999999,306.5099155772816L722.8921875,305.48020629882814L727.0229999999999,306.4475093494762L731.1538125,305.91705641313035L735.284625,302.7343061967329L739.4154374999999,304.4192873868075L743.54625,305.7610343239524L747.6770624999999,304.8249278675426L751.807875,304.1384528420188L755.9386875,304.5128967285156L760.0695,305.69863461581144L764.2003125,305.6674249822443L768.331125,303.07754044966265L772.4619375,298.4282308405096L776.59275,300.55005562522194L780.7235625,300.48764939741653L784.854375,304.48169361461294L788.9851875,301.86060596812854L793.116,304.8873406150124L797.2468125,302.79670590487393L801.3776250000001,300.33163382790303L805.5084375,301.1429213090376L809.6392500000001,294.7150146484375L813.7700625,300.30043071400036L817.900875,298.6466526378285L822.0316875000001,300.36284346147016L826.1625,299.3331276633523L830.2933125000001,298.241005637429L834.424125,296.6184241554954L838.5549375,297.8041555231268L842.68575,297.55452409224074L846.8165624999999,294.27816453413527L850.947375,296.6496272693981L855.0781875,293.40447082519535L859.209,295.37028656005856L863.3398125,296.6184241554954L867.4706249999999,295.02705230712894L871.6014375,293.4668770530007L875.73225,293.0924396861683L879.8630625,296.11917433305223L883.993875,296.52481481378726L888.1246874999999,291.4698582042347L892.2555,293.4668770530007L896.3863125,290.84578940651636L900.517125,292.46837088844995L904.6479375,292.000317660245L908.7787500000001,291.6882800015536L912.9095625,291.0018049760298L917.040375,290.5337517478249L921.1711875,290.62736108953305L925.302,288.22470176003196L929.4328125000001,289.41043312766334L933.563625,286.63331687233665L937.6944375,285.97805148038L941.82525,281.51595403497873L945.9560625,286.1964732776989L950.0868750000001,282.4208508578214L954.2176875,279.6437476418235L958.3485000000001,285.13556088534267L962.4793125000001,279.67495075572623L966.610125,282.32724151611325L970.7409375,283.23214485862036L974.8717499999999,276.7730285644531L979.0025625,279.20690404718573L983.133375,277.05386310924183L987.2641874999999,277.95876645174894L991.395,272.6541784113104L995.5258124999999,273.55908175381745L999.656625,271.5932594992898L1003.7874375,273.8399032592774L1007.91825,271.9677033857866L1012.0490625,270.6571595625444L1016.179875,267.6928311434659L1020.3106875,268.348103055087L1024.4415,264.82210554643115L1028.5723125,263.605171064897L1032.703125,264.85330866033377L1036.8339375,259.57993025346235L1040.96475,256.2411579478871L1045.0955625,258.8622455943715L1049.226375,255.64829878373578L1053.3571875,254.6809892134233L1057.488,249.65723571777343L1061.6188125,248.81473860307173L1065.749625,246.63050759055398L1069.8804375,245.94402604536577L1074.01125,241.88758212002838L1078.1420625,239.5473094593395L1082.272875,232.68255920410155L1086.4036875000002,235.02281882546166L1090.5345,236.86381558504974L1094.6653125,232.46413740678267L1098.796125,230.0926746715199L1102.9269375000001,221.48052395907317L1107.0577500000002,218.67220458984374L1111.1885625,214.8341955011541L1115.319375,204.13139703924006L1119.4501875,205.09870660955255L1123.5810000000001,205.50436012961651L1127.7118125000002,203.0704911665483L1131.842625,197.11063121448865L1135.9734375,192.24289328835224L1140.10425,185.40932006835936L1144.2350625000001,183.81796125932172L1148.3658750000002,174.6441414572976L1152.4966875,178.4509735107422L1156.6275,169.08993502530183L1160.7583125,164.72144692160865L1164.889125,160.0409276788885L1169.0199375,152.05283924449574L1173.1507499999998,156.29651489257813L1177.2815624999998,151.36637073863636L1181.4123749999999,141.97414217862215L1185.5431875,138.97859108664773L1189.674,132.05142156427556L1193.8048125,140.75720769708806L1197.9356249999998,130.36645341352983L1202.0664375,127.62055331143463L1206.19725,124.06334616921164L1210.3280625,119.69488414417614L1214.458875,118.35313720703124L1218.5896874999999,110.45865811434659L1222.7205,108.39920043945312L1226.8513125,103.6250848943537L1230.982125,98.13328469016336L1235.1129375,102.2833379572088L1239.2437499999999,99.88068514737213L1243.3745625,89.8643682306463L1247.505375,83.68609952059658L1251.6361875,87.3368768865412L1255.767,70.26860407049006L1259.8978124999999,69.89416670365769L1264.028625,80.03529607599432L1268.1594375,74.32506103515624L1272.29025,74.41865733753549L1276.4210625,61.06359419389206L1280.5518749999999,55.571767911044034L1284.6826875,56.757512318004274L1288.8135,41.46783003373581L1292.9443125,44.463355047052545L1297.075125,39.00274491743606L1301.2059375000001,45.46185469193894L1305.33675,44.30735251686788L1309.4675625,41.56142633611507L1313.598375,40.0636768687855L1317.7291875,33.82300193093041L1321.8600000000001,37.255344460227285L1325.9908125,38.31627641157672L1330.121625,36.56890203302558L1334.2524375,36.03840997869318L1338.38325,28.830425470525565L1342.5140625000001,30.29698486328123L1346.644875,32.699663751775574L1350.7756875,34.57185058593752L1354.9065,28.580826637961636L1359.0373125,23.369815340909085L1363.1681250000001,35.227129017223L1367.2989375,21.46638627485796L1371.42975,29.048834228515634L1375.5605625,20.49912886186079L1379.691375,23.86909124200994L1383.8221875000002,23.33862526633522L1387.953,31.60754172585228L1392.0838125,21.9656882546165L1396.214625,16.00580222389916L1400.3454375000001,20.77994384765626L1404.4762500000002,25.585275545987216L1408.6070625000002,22.27769331498579L1412.737875,25.710088001598024L1416.8686875,19.90623057972303L1420.9995,27.20786354758523L1425.1303125,28.643206787109357L1429.261125,26.17812167080966L1433.3919374999998,28.70561301491476L1437.5227499999999,15.662581010298288L1441.6535625,15.849773615056815L1445.784375,27.332676003196035L1449.9151875,21.09194890802555L1454.0459999999998,24.83637473366475L1458.1768124999999,27.020618785511346L1462.307625,6.800766268643476L1466.4384375,21.528818581321L1470.56925,22.6209406072443L1474.7000624999998,29.1424305308949L1478.8308749999999,17.409981467507105L1482.9616875,17.347549161044025L1487.0925,18.002827592329545L1491.2233125,17.971611439098005L1495.3541249999998,26.02211914062499L1499.4849375,20.280667946555404L1503.61575,25.179622025923305L1507.7465625,17.31633300781248L1511.877375,24.555585826527004L1516.0081875,20.18707164417614L1520.139,23.52584394975143L1524.2698125,17.44114546342329L1528.400625,25.179622025923305L1532.5314375,24.83637473366475L1536.66225,15.350549871271319L1540.7930625,16.0370183771307L1544.923875,20.7487537730824L1549.0546875,26.927022483132124L1553.1855,27.5823009144176L1557.3163125,18.346074884588056L1561.447125,18.876540860262775L1565.5779375,17.81563498757102L1569.70875,11.886965110085223L1573.8395625,17.25395285866476L1577.970375,22.12169078480112L1582.1011875,15.256953568892055L1586.232,20.467912708629246L1590.3628125,12.448595081676121L1594.493625,16.473888050426154L1598.6244375,18.47088734019886L1602.7552500000002,18.252452503551154L1606.8860625,6.863198575106516L1611.016875,17.8467989834872L1615.1476875,17.597174072265634L1619.2785000000001,12.63583984375001L1623.4093125000002,16.161830832741465L1627.540125,12.698272150213048L1631.6709375,18.814108553799734L1635.80175,23.182622736150556L1639.9325625000001,20.904756303267064L1644.0633750000002,19.469386985085215L1648.1941875,25.554059392755676L1652.325,15.568958629261346L1656.4558125,9.35944768732244L1660.5866250000001,16.505052046342335L1664.7174375000002,18.47088734019886L1668.84825,17.6907703746449L1672.9790625,20.967162531072425L1677.109875,21.18559736772017L1681.2406875,24.617965975674725L1685.3715,17.129140403054L1689.5023124999998,11.51250166459517L1693.6331249999998,13.977586780894871L1697.7639374999999,16.442671897194614L1701.89475,21.77844349254261L1706.0255625,13.6031494140625L1710.156375,13.322308349609392L1714.2871874999998,15.600174782492886L1718.418,26.2717440518466L1722.5488125,18.626915949041205L1726.679625,10.420379638671875L1730.8104375,17.47236161665483L1734.9412499999999,24.181096302379274L1739.0720625,22.6209406072443L1743.202875,13.665529563210223L1747.3336875,15.849773615056815L1751.4645,19.99982688210225L1755.5953124999999,19.31335837624291L1759.726125,22.527344304865075L1763.8569375,16.817109264026985L1767.98775,11.294092906605103L1772.1185625,14.851300048828142L1776.2493749999999,18.68929609818893L1780.3801875,14.289617919921884L1784.511,17.753202681107936L1788.6418125,15.631364857066746L1792.772625,20.405480402166205L1796.9034374999999,16.28664328835227L1801.03425,15.163305109197431L1805.1650625,10.108374578302543L1809.295875,15.319333718039777L1813.4266875,15.10092496004971L1817.5575000000001,19.157381924715924L1821.6883125,20.62394131747159L1825.819125,12.41743108575994L1829.9499375,18.814108553799734L1834.08075,11.918155184659085L1838.2115625000001,13.197495893998587L1842.342375,21.99687832919036L1846.4731875,20.84235007546166L1850.604,17.129140403054L1854.7348125,15.880989768288355" style="fill: none;" fill="none"></path></g></g></g></g></g></g><g transform="translate(31, 376)" clip-path="url(#clip_1)"><clipPath id="clip_1"><rect width="2065" height="24"></rect></clipPath><g><g><line x1="0" y1="0" x2="0" y2="5" style="visibility: inherit;" fill="rgb(0, 0, 0)" stroke="rgb(204, 204, 204)" stroke-width="1px"></line><line x1="206.540625" y1="0" x2="206.540625" y2="5" style="visibility: inherit;" fill="rgb(0, 0, 0)" stroke="rgb(204, 204, 204)" stroke-width="1px"></line><line x1="413.08125" y1="0" x2="413.08125" y2="5" style="visibility: inherit;" fill="rgb(0, 0, 0)" stroke="rgb(204, 204, 204)" stroke-width="1px"></line><line x1="619.6218749999999" y1="0" x2="619.6218749999999" y2="5" style="visibility: inherit;" fill="rgb(0, 0, 0)" stroke="rgb(204, 204, 204)" stroke-width="1px"></line><line x1="826.1625" y1="0" x2="826.1625" y2="5" style="visibility: inherit;" fill="rgb(0, 0, 0)" stroke="rgb(204, 204, 204)" stroke-width="1px"></line><line x1="1032.703125" y1="0" x2="1032.703125" y2="5" style="visibility: inherit;" fill="rgb(0, 0, 0)" stroke="rgb(204, 204, 204)" stroke-width="1px"></line><line x1="1239.2437499999999" y1="0" x2="1239.2437499999999" y2="5" style="visibility: inherit;" fill="rgb(0, 0, 0)" stroke="rgb(204, 204, 204)" stroke-width="1px"></line><line x1="1445.784375" y1="0" x2="1445.784375" y2="5" style="visibility: inherit;" fill="rgb(0, 0, 0)" stroke="rgb(204, 204, 204)" stroke-width="1px"></line><line x1="1652.325" y1="0" x2="1652.325" y2="5" style="visibility: inherit;" fill="rgb(0, 0, 0)" stroke="rgb(204, 204, 204)" stroke-width="1px"></line><line x1="1858.8656250000001" y1="0" x2="1858.8656250000001" y2="5" style="visibility: inherit;" fill="rgb(0, 0, 0)" stroke="rgb(204, 204, 204)" stroke-width="1px"></line><line x1="2065.40625" y1="0" x2="2065.40625" y2="5" style="visibility: inherit;" fill="rgb(0, 0, 0)" stroke="rgb(204, 204, 204)" stroke-width="1px"></line></g><g transform="translate(0, 8)"><text x="0" y="0" dx="0em" dy="0.95em" style="text-anchor: middle; visibility: hidden; font-family: Roboto, sans-serif; font-size: 12px; font-weight: 200;" fill="rgb(33, 33, 33)" stroke="none" stroke-width="1px">-50</text><text x="206.540625" y="0" dx="0em" dy="0.95em" style="text-anchor: middle; visibility: inherit; font-family: Roboto, sans-serif; font-size: 12px; font-weight: 200;" fill="rgb(33, 33, 33)" stroke="none" stroke-width="1px">0</text><text x="413.08125" y="0" dx="0em" dy="0.95em" style="text-anchor: middle; visibility: inherit; font-family: Roboto, sans-serif; font-size: 12px; font-weight: 200;" fill="rgb(33, 33, 33)" stroke="none" stroke-width="1px">50</text><text x="619.6218749999999" y="0" dx="0em" dy="0.95em" style="text-anchor: middle; visibility: inherit; font-family: Roboto, sans-serif; font-size: 12px; font-weight: 200;" fill="rgb(33, 33, 33)" stroke="none" stroke-width="1px">100</text><text x="826.1625" y="0" dx="0em" dy="0.95em" style="text-anchor: middle; visibility: inherit; font-family: Roboto, sans-serif; font-size: 12px; font-weight: 200;" fill="rgb(33, 33, 33)" stroke="none" stroke-width="1px">150</text><text x="1032.703125" y="0" dx="0em" dy="0.95em" style="text-anchor: middle; visibility: inherit; font-family: Roboto, sans-serif; font-size: 12px; font-weight: 200;" fill="rgb(33, 33, 33)" stroke="none" stroke-width="1px">200</text><text x="1239.2437499999999" y="0" dx="0em" dy="0.95em" style="text-anchor: middle; visibility: inherit; font-family: Roboto, sans-serif; font-size: 12px; font-weight: 200;" fill="rgb(33, 33, 33)" stroke="none" stroke-width="1px">250</text><text x="1445.784375" y="0" dx="0em" dy="0.95em" style="text-anchor: middle; visibility: inherit; font-family: Roboto, sans-serif; font-size: 12px; font-weight: 200;" fill="rgb(33, 33, 33)" stroke="none" stroke-width="1px">300</text><text x="1652.325" y="0" dx="0em" dy="0.95em" style="text-anchor: middle; visibility: inherit; font-family: Roboto, sans-serif; font-size: 12px; font-weight: 200;" fill="rgb(33, 33, 33)" stroke="none" stroke-width="1px">350</text><text x="1858.8656250000001" y="0" dx="0em" dy="0.95em" style="text-anchor: middle; visibility: inherit; font-family: Roboto, sans-serif; font-size: 12px; font-weight: 200;" fill="rgb(33, 33, 33)" stroke="none" stroke-width="1px">400</text><text x="2065.40625" y="0" dx="0em" dy="0.95em" style="text-anchor: middle; visibility: hidden; font-family: Roboto, sans-serif; font-size: 12px; font-weight: 200;" fill="rgb(33, 33, 33)" stroke="none" stroke-width="1px">450</text></g><line x1="0" y1="0" x2="2065.40625" y2="0" fill="rgb(0, 0, 0)" stroke="rgb(204, 204, 204)" stroke-width="1px"></line></g></g></g></g></svg>