<svg viewBox="0 0 2097 400" xmlns="http://www.w3.org/2000/svg"><g><g><g><g><g><line x1="53.1875" y1="376" x2="48.1875" y2="376" style="visibility: inherit;" fill="rgb(0, 0, 0)" stroke="rgb(204, 204, 204)" stroke-width="1px"></line><line x1="53.1875" y1="329" x2="48.1875" y2="329" style="visibility: inherit;" fill="rgb(0, 0, 0)" stroke="rgb(204, 204, 204)" stroke-width="1px"></line><line x1="53.1875" y1="282" x2="48.1875" y2="282" style="visibility: inherit;" fill="rgb(0, 0, 0)" stroke="rgb(204, 204, 204)" stroke-width="1px"></line><line x1="53.1875" y1="235" x2="48.1875" y2="235" style="visibility: inherit;" fill="rgb(0, 0, 0)" stroke="rgb(204, 204, 204)" stroke-width="1px"></line><line x1="53.1875" y1="188" x2="48.1875" y2="188" style="visibility: inherit;" fill="rgb(0, 0, 0)" stroke="rgb(204, 204, 204)" stroke-width="1px"></line><line x1="53.1875" y1="141" x2="48.1875" y2="141" style="visibility: inherit;" fill="rgb(0, 0, 0)" stroke="rgb(204, 204, 204)" stroke-width="1px"></line><line x1="53.1875" y1="94" x2="48.1875" y2="94" style="visibility: inherit;" fill="rgb(0, 0, 0)" stroke="rgb(204, 204, 204)" stroke-width="1px"></line><line x1="53.1875" y1="47" x2="48.1875" y2="47" style="visibility: inherit;" fill="rgb(0, 0, 0)" stroke="rgb(204, 204, 204)" stroke-width="1px"></line><line x1="53.1875" y1="0" x2="48.1875" y2="0" style="visibility: inherit;" fill="rgb(0, 0, 0)" stroke="rgb(204, 204, 204)" stroke-width="1px"></line></g><g transform="translate(43.1875, 0)"><text x="0" y="376" dx="0em" dy="0.3em" style="text-anchor: end; visibility: hidden; font-family: Roboto, sans-serif; font-size: 12px; font-weight: 200;" fill="rgb(33, 33, 33)" stroke="none" stroke-width="1px">0.83</text><text x="0" y="329" dx="0em" dy="0.3em" style="text-anchor: end; visibility: inherit; font-family: Roboto, sans-serif; font-size: 12px; font-weight: 200;" fill="rgb(33, 33, 33)" stroke="none" stroke-width="1px">0.84</text><text x="0" y="282" dx="0em" dy="0.3em" style="text-anchor: end; visibility: inherit; font-family: Roboto, sans-serif; font-size: 12px; font-weight: 200;" fill="rgb(33, 33, 33)" stroke="none" stroke-width="1px">0.85</text><text x="0" y="235" dx="0em" dy="0.3em" style="text-anchor: end; visibility: inherit; font-family: Roboto, sans-serif; font-size: 12px; font-weight: 200;" fill="rgb(33, 33, 33)" stroke="none" stroke-width="1px">0.86</text><text x="0" y="188" dx="0em" dy="0.3em" style="text-anchor: end; visibility: inherit; font-family: Roboto, sans-serif; font-size: 12px; font-weight: 200;" fill="rgb(33, 33, 33)" stroke="none" stroke-width="1px">0.87</text><text x="0" y="141" dx="0em" dy="0.3em" style="text-anchor: end; visibility: inherit; font-family: Roboto, sans-serif; font-size: 12px; font-weight: 200;" fill="rgb(33, 33, 33)" stroke="none" stroke-width="1px">0.88</text><text x="0" y="94" dx="0em" dy="0.3em" style="text-anchor: end; visibility: inherit; font-family: Roboto, sans-serif; font-size: 12px; font-weight: 200;" fill="rgb(33, 33, 33)" stroke="none" stroke-width="1px">0.89</text><text x="0" y="47" dx="0em" dy="0.3em" style="text-anchor: end; visibility: inherit; font-family: Roboto, sans-serif; font-size: 12px; font-weight: 200;" fill="rgb(33, 33, 33)" stroke="none" stroke-width="1px">0.9</text><text x="0" y="0" dx="0em" dy="0.3em" style="text-anchor: end; visibility: hidden; font-family: Roboto, sans-serif; font-size: 12px; font-weight: 200;" fill="rgb(33, 33, 33)" stroke="none" stroke-width="1px">0.91</text></g><line x1="53.1875" y1="0" x2="53.1875" y2="376" fill="rgb(0, 0, 0)" stroke="rgb(204, 204, 204)" stroke-width="1px"></line></g></g><g transform="translate(53, 0)" clip-path="url(#clip_0)"><clipPath id="clip_0"><rect width="2043" height="376"></rect></clipPath><g><g><g><line x1="0" y1="0" x2="0" y2="376" fill="rgb(0, 0, 0)" stroke="rgb(66, 66, 66)" stroke-width="1px" opacity="0.25"></line><line x1="204.38125000000002" y1="0" x2="204.38125000000002" y2="376" fill="rgb(0, 0, 0)" stroke="rgb(66, 66, 66)" stroke-width="1px" opacity="0.25"></line><line x1="408.76250000000005" y1="0" x2="408.76250000000005" y2="376" fill="rgb(0, 0, 0)" stroke="rgb(66, 66, 66)" stroke-width="1px" opacity="0.25"></line><line x1="613.14375" y1="0" x2="613.14375" y2="376" fill="rgb(0, 0, 0)" stroke="rgb(66, 66, 66)" stroke-width="1px" opacity="0.25"></line><line x1="817.5250000000001" y1="0" x2="817.5250000000001" y2="376" fill="rgb(0, 0, 0)" stroke="rgb(66, 66, 66)" stroke-width="1px" opacity="0.25"></line><line x1="1021.90625" y1="0" x2="1021.90625" y2="376" fill="rgb(0, 0, 0)" stroke="rgb(66, 66, 66)" stroke-width="1px" opacity="0.25"></line><line x1="1226.2875" y1="0" x2="1226.2875" y2="376" fill="rgb(0, 0, 0)" stroke="rgb(66, 66, 66)" stroke-width="1px" opacity="0.25"></line><line x1="1430.6687499999998" y1="0" x2="1430.6687499999998" y2="376" fill="rgb(0, 0, 0)" stroke="rgb(66, 66, 66)" stroke-width="1px" opacity="0.25"></line><line x1="1635.0500000000002" y1="0" x2="1635.0500000000002" y2="376" fill="rgb(0, 0, 0)" stroke="rgb(66, 66, 66)" stroke-width="1px" opacity="0.25"></line><line x1="1839.43125" y1="0" x2="1839.43125" y2="376" fill="rgb(0, 0, 0)" stroke="rgb(66, 66, 66)" stroke-width="1px" opacity="0.25"></line><line x1="2043.8125" y1="0" x2="2043.8125" y2="376" fill="rgb(0, 0, 0)" stroke="rgb(66, 66, 66)" stroke-width="1px" opacity="0.25"></line></g><g><line x1="0" y1="376" x2="2043.8125" y2="376" fill="rgb(0, 0, 0)" stroke="rgb(66, 66, 66)" stroke-width="1px" opacity="0.25"></line><line x1="0" y1="329" x2="2043.8125" y2="329" fill="rgb(0, 0, 0)" stroke="rgb(66, 66, 66)" stroke-width="1px" opacity="0.25"></line><line x1="0" y1="282" x2="2043.8125" y2="282" fill="rgb(0, 0, 0)" stroke="rgb(66, 66, 66)" stroke-width="1px" opacity="0.25"></line><line x1="0" y1="235" x2="2043.8125" y2="235" fill="rgb(0, 0, 0)" stroke="rgb(66, 66, 66)" stroke-width="1px" opacity="0.25"></line><line x1="0" y1="188" x2="2043.8125" y2="188" fill="rgb(0, 0, 0)" stroke="rgb(66, 66, 66)" stroke-width="1px" opacity="0.25"></line><line x1="0" y1="141" x2="2043.8125" y2="141" fill="rgb(0, 0, 0)" stroke="rgb(66, 66, 66)" stroke-width="1px" opacity="0.25"></line><line x1="0" y1="94" x2="2043.8125" y2="94" fill="rgb(0, 0, 0)" stroke="rgb(66, 66, 66)" stroke-width="1px" opacity="0.25"></line><line x1="0" y1="47" x2="2043.8125" y2="47" fill="rgb(0, 0, 0)" stroke="rgb(66, 66, 66)" stroke-width="1px" opacity="0.25"></line><line x1="0" y1="0" x2="2043.8125" y2="0" fill="rgb(0, 0, 0)" stroke="rgb(66, 66, 66)" stroke-width="1px" opacity="0.25"></line></g></g></g><g><g><line x1="0" y1="4276.999999999996" x2="2043.8125" y2="4276.999999999996" fill="rgb(0, 0, 0)" stroke="rgb(153, 153, 153)" stroke-width="1.5px"></line></g></g><g><g><line x1="204.38125000000002" y1="0" x2="204.38125000000002" y2="376" fill="rgb(0, 0, 0)" stroke="rgb(153, 153, 153)" stroke-width="1.5px"></line></g></g><g><g><g><g><g><path stroke="rgb(255, 112, 67)" stroke-width="2px" d="M204.38125000000002,74.11531996726998L208.468875,-136.15441057086016L249.345125,-2.2648827050685174L253.43275,14.249008465486414L257.520375,30.173880932444654L261.608,43.739713205173345L265.695625,118.17595076568838L269.78325,72.42432579515953L273.870875,101.22327671362343L277.9585,116.49214800048513L282.046125,123.64429697540263L286.13375,125.92675801240436L290.22137499999997,133.3219085599942L294.30899999999997,155.83607138837803L298.396625,151.26737760113454L302.48425,172.62886240262318L306.571875,175.40294883305233L310.6595,189.1186633159127L314.747125,179.27119194227222L318.83475,179.38834186792138L322.922375,207.57826644161597L327.01,212.44096227999816L331.097625,209.33295223126936L335.18525,203.45102437667438L339.272875,224.0244872285507L343.3605,218.2915722167579L347.448125,232.9288154941216L351.53574999999995,235.68553466723208L355.62337499999995,251.39932439872692L359.71099999999996,268.86184180185984L363.79862499999996,283.35647401604894L367.88624999999996,275.9848782086487L371.97387499999996,281.60455712732573L376.06149999999997,282.96785960866794L380.14912499999997,303.8713380031666L384.23675000000003,314.40480811305343L388.32437500000003,312.69075865083653L392.41200000000003,301.6195805219663L396.49962500000004,333.1392505264116L400.58725000000004,352.05105252862603L404.67487500000004,333.27000043258147L408.76250000000005,370.2064945071643L412.85012500000005,342.1546486954888L416.93775,313.272287889728L421.025375,344.1479967382331L425.113,360.66491717976027L429.200625,360.5323209934335L433.28825,358.4441463573513L437.375875,351.16561491630745L441.4635,308.6361191710328L445.551125,331.3235470557521L449.63875,373.0556322159966L453.726375,343.86413132086943L457.814,344.4262228187056L461.901625,318.65235415554787L465.98925,369.47003826771237L470.07687500000003,359.78976698681066L474.16450000000003,384.10973751523716L478.25212500000004,354.51371629225395L482.33975,378.9356022309495L486.427375,353.4177399892344L490.515,358.1925195466719L494.602625,355.03176062174066L498.69025,365.18655858556855L502.777875,345.16831380200676L506.8655,331.14886206431567L510.953125,334.78844434048773L515.04075,399.2371892811418L519.128375,369.6158140111898L523.216,357.8686155086121L527.303625,342.78616488011795L531.39125,323.693946051789L535.478875,328.3069898654181L539.5665,310.98931925112925L543.654125,308.6329604662352L547.74175,343.3729051516585L551.829375,344.13148711717923L555.917,334.5438878452583L560.004625,324.7742064902662L564.09225,304.85252743419926L568.179875,308.9678951111848L572.2675,305.4114890579827L576.3551249999999,307.2947672179011L580.4427499999999,292.35635900322586L584.5303749999999,299.46168918504674L588.6179999999999,277.6137637322799L592.7056249999999,272.5392520442998L596.79325,277.5286765584585L600.880875,286.5479579263471L604.9685,295.9766485389197L609.056125,285.5654877958371L613.14375,309.44703670368636L617.231375,273.5622237922311L621.319,292.2023298502899L625.406625,317.4461516714656L629.49425,310.4984429941514L633.581875,328.4238195577826L637.6695,327.1277921771748L641.757125,308.2732957706294L645.84475,268.84085744055767L649.932375,233.1301411237279L654.02,245.84907847916813L658.107625,235.40344885752046L662.19525,249.2215679869975L666.282875,271.5723097077565L670.3705,280.9656329483721L674.458125,298.6528802115284L678.54575,309.2652285694223L682.633375,319.6497593759977L686.721,327.88898272749697L690.808625,352.918013640862L694.89625,347.8499352864155L698.983875,316.68945984433446L703.0714999999999,354.2324314379118L707.1591249999999,354.66421262403856L711.2467499999999,326.80365290630175L715.3343749999999,296.0274468325871L719.4219999999999,295.63871522327054L723.5096249999999,293.39685933339484L727.5972499999999,306.1116160425415L731.6848749999999,307.71484340863645L735.7724999999999,308.67677982829326L739.8601249999999,269.0829478751558L743.9477499999999,245.3266487032733L748.0353749999999,239.10711278382294L752.1229999999999,269.5206463209586L756.2106249999999,287.7687664432404L760.2982499999999,266.58088829535683L764.3858749999999,292.030538287273L768.4735000000001,297.2576918879214L772.5611250000001,304.41099378341835L776.6487500000001,266.52347624823096L780.7363750000001,247.8080875189582L784.8240000000001,228.5447227544471L788.9116250000001,239.08070566576046L792.9992500000001,253.4364269394955L797.0868750000001,231.92172640676984L801.1745000000001,235.08128119776077L805.2621250000001,228.9427704886758L809.3497500000001,211.19990587688474L813.4373750000001,232.6909373310626L817.5250000000001,251.61118286296204L821.6126250000001,224.8009533014563L825.7002500000001,228.80020041028627L829.7878750000001,221.1570002243517L833.8755,216.57108011279107L837.963125,229.88790315648095L842.05075,221.80962187206882L846.138375,241.06527179572637L850.226,226.50753818806183L854.313625,217.7728980234629L858.40125,198.47224368163157L862.488875,202.96022618715904L866.5765,179.54189212861624L870.664125,163.48238682593686L874.75175,179.95780720618802L878.839375,161.7234310049262L882.927,144.75717862477558L887.014625,132.56881027239913L891.10225,163.4181661416193L895.189875,177.9107699280444L899.2775,180.58070554050605L903.365125,158.08004821367783L907.45275,156.6309071363675L911.540375,149.73579583058773L915.628,143.5902241795661L919.715625,157.9797611671329L923.80325,138.49385493026034L927.890875,126.80231118813677L931.9785,121.79588981041637L936.066125,110.75790545683721L940.1537500000001,96.10087126101072L944.2413750000001,93.33227740290785L948.3290000000001,119.7908615741909L952.4166250000001,117.58902004204832L956.5042500000001,114.25941025520926L960.591875,112.26164438310583L964.6795,119.09711638679101L968.767125,97.08727602714278L972.85475,81.87286694380046L976.942375,74.75272636134845L981.03,88.55763404678956L985.117625,92.82345686621463L989.20525,109.44282080094239L993.292875,123.43144889688593L997.3805,137.85036447057766L1001.468125,116.37346846109375L1005.55575,105.49583572295786L1009.643375,100.97787300436178L1013.731,96.2584784489187L1017.818625,75.34996173747207L1021.90625,48.74498146753231L1025.9938750000001,32.78199330556829L1030.0815,51.32394089453504L1034.1691250000001,82.53449429364876L1038.25675,85.19245122249076L1042.3443750000001,76.74447692856273L1046.432,85.73556259527854L1050.5196250000001,65.01909043344922L1054.60725,46.563580476957824L1058.6948750000001,71.64414651615526L1062.7825,64.59848436965437L1066.8701250000001,68.4052186087005L1070.95775,32.52688227148266L1075.0453750000001,27.06825557977786L1079.133,23.793079564755185L1083.2206250000002,37.89634906636801L1087.30825,42.3411889754961L1091.3958750000002,28.939717810346867L1095.4835,22.90745203554289L1099.5711250000002,49.41622586762701L1103.65875,49.25311505625129L1107.7463750000002,57.189492153104766L1111.834,49.90006509243103L1115.9216250000002,59.58616704236702L1120.00925,123.64570199543961L1124.0968750000002,101.82504431661786L1128.1845,88.73264970932478L1132.2721250000002,88.9113444718965L1136.35975,78.97581287820628L1140.4473750000002,68.99748418688495L1144.535,67.02749670719916L1148.6226250000002,39.73449271426119L1152.7102499999999,43.4440751642321L1156.797875,63.74681666912675L1160.8854999999999,81.95408823145642L1164.973125,92.87845116885414L1169.0607499999999,73.32194536943376L1173.148375,97.74191390287363L1177.2359999999999,136.4964016605104L1181.323625,105.51834232382103L1185.4112499999999,107.0170036242732L1189.498875,113.94182706393771L1193.5865,112.07109446834303L1197.674125,145.0939099997929L1201.76175,136.78797088924978L1205.849375,101.67616206922493L1209.937,128.81420210908868L1214.024625,114.96889283604038L1218.11225,134.78133570162467L1222.199875,142.65167962913537L1226.2875,169.46788775566137L1230.375125,167.4807326533968L1234.46275,112.05768760076587L1238.550375,92.86361875552761L1242.638,109.46691793452986L1246.725625,97.33489567191229L1250.81325,152.32056583255977L1254.900875,161.2094612913758L1258.9885,142.44017987235975L1263.076125,131.17861102095006L1267.16375,150.53279327196353L1271.251375,174.19655594135804L1275.339,166.30081177297544L1279.426625,151.5206168207129L1283.51425,146.6696216411947L1287.601875,139.74190274164422L1291.6895,175.75626520684554L1295.777125,187.32213423473377L1299.86475,176.18477567328696L1303.952375,163.47662182029268L1308.04,177.94584333524864L1312.127625,156.49913089052254L1316.21525,211.92172565803205L1320.302875,186.92740873542564L1324.3905,198.04194214372149L1328.478125,216.7619155074852L1332.56575,193.8486444369378L1336.653375,204.203188432182L1340.741,198.364661510542L1344.828625,220.97266891941723L1348.91625,196.37509648409716L1353.003875,229.821678354783L1357.0915,207.71012880470937L1361.179125,202.4773306016118L1365.26675,179.2521547772877L1369.3543750000001,171.34278799881912L1373.442,170.61417766684528L1377.5296250000001,184.2368817107333L1381.61725,168.30788544276044L1385.7048750000001,160.75910460626278L1389.7925,218.4948316793157L1393.8801250000001,204.9311425912688L1397.96775,182.7330588953677L1402.0553750000001,217.61933400970605L1406.1429999999998,250.60235239709564L1410.230625,258.3409101107427L1414.3182499999998,202.72766608826612L1418.405875,241.66735164423184L1422.4934999999998,271.0567896372043L1426.581125,238.4768222335554L1430.6687499999998,259.09972353956545L1434.756375,213.22559054005987L1438.8439999999998,247.96610631530805L1442.931625,182.44291356793224L1447.0192499999998,155.1802512382933L1451.106875,174.97652585360242L1455.1944999999998,188.86279549034168L1459.282125,225.31429775853044L1463.3697499999998,245.1765821951575L1467.457375,243.03419467079343L1471.5449999999998,239.74014523188848L1475.632625,245.7979591522252L1479.7202499999999,259.47539595566053L1483.807875,205.4168624627701L1487.8954999999999,255.33212278772046L1491.983125,277.24714745574363L1496.0707499999999,258.259412035305L1500.158375,236.8240223318094L1504.2459999999999,197.85166494785256L1508.333625,184.51099896871133L1512.4212499999999,212.66047139431913L1516.508875,211.4731628147716L1520.5964999999999,212.769394591329L1524.684125,215.55563852481671L1528.7717499999999,231.2872551279821L1532.859375,212.60659666046834L1536.9470000000001,225.5007082175329L1541.034625,259.34829871363104L1545.1222500000001,271.6226094276113L1549.209875,238.81631410779934L1553.2975000000001,247.25216534532552L1557.385125,228.2111694502676L1561.4727500000001,212.76945012139316L1565.560375,213.54716697530193L1569.6480000000001,302.3898041677253L1573.735625,295.4390078325136L1577.8232500000001,267.16602339381376L1581.910875,224.09110916873456L1585.9985000000001,208.28890908492014L1590.086125,210.85884235341774L1594.1737500000002,236.5033089520894L1598.261375,191.63361026062782L1602.3490000000002,186.8057928157701L1606.436625,238.13985434012758L1610.5242500000002,244.8377846171687L1614.611875,226.76254101337403L1618.6995000000002,203.86602947557844L1622.787125,192.13673947718686L1626.8747500000002,183.09054855386594L1630.962375,189.71419937539224L1635.0500000000002,233.8592716165073L1639.137625,232.22668653176316L1643.2252500000002,205.13601191905738L1647.312875,198.92435560266702L1651.4005000000002,225.3256071665316L1655.488125,215.05523454299137L1659.5757500000002,222.95276915520742L1663.6633749999999,243.75966503316306L1667.751,234.14980078991724L1671.8386249999999,242.44375248704247L1675.92625,237.3773750540846L1680.0138749999999,218.26917348368332L1684.1015,204.79574767388908L1688.1891249999999,212.78006729863884L1692.27675,203.5107888304161L1696.3643749999999,201.96634354132226L1700.452,199.0310594435798L1704.539625,195.26138411738077L1708.62725,156.84570690856927L1712.714875,149.86467569390865L1716.8025,145.67605696511217L1720.890125,191.36801105971327L1724.97775,198.69768661400775L1729.065375,205.10410887087076L1733.153,210.95646709254186L1737.240625,208.44225536615122L1741.32825,176.80548297661812L1745.415875,222.09691998540353L1749.5035,217.13503196942204L1753.591125,198.0895240492071L1757.67875,184.6537144295247L1761.766375,188.64348197650182L1765.854,215.1399611989932L1769.941625,206.93523003818305L1774.02925,204.02100826598232L1778.116875,188.21260495958938L1782.2045,190.77881629454023L1786.292125,202.36129154674356L1790.37975,201.27664517111853L1794.467375,198.6172404214573L1798.555,205.0558411553404L1802.642625,241.05575181692276L1806.73025,248.59582797079935L1810.817875,261.1541172468046L1814.9055,238.56084545870897L1818.993125,220.9877605940116L1823.08075,216.469536334587L1827.168375,189.65609514135866L1831.256,225.7902775491402L1835.343625,201.27416652948392" style="fill: none;" fill="none"></path></g></g></g></g><g opacity="0.2"><g><g><g><path stroke="rgb(255, 112, 67)" stroke-width="2px" d="M204.38125000000002,74.11531996726998L208.468875,-262.3162488937374L245.2575,-16.269360065460038L249.345125,79.1368622779847L253.43275,38.965924501419195L257.520375,54.02999114990243L261.608,64.07251548767098L265.695625,229.77780890464774L269.78325,3.816248893737918L273.870875,144.414391040802L277.9585,139.39312887191775L282.046125,134.37186670303348L286.13375,129.35032439231875L290.22137499999997,144.414391040802L294.30899999999997,189.60687112808228L298.396625,144.414391040802L302.48425,204.67093777656552L306.571875,179.56406664848328L310.6595,209.6921999454498L314.747125,164.5L318.83475,179.56406664848328L322.922375,249.8631377220153L327.01,219.7350044250488L331.097625,204.67093777656552L335.18525,194.62813329696655L339.272875,254.88468003273002L343.3605,209.6921999454498L347.448125,254.88468003273002L351.53574999999995,239.82061338424674L355.62337499999995,274.9700088500976L359.71099999999996,295.05561780929554L363.79862499999996,305.09842228889454L367.88624999999996,264.92748451232904L371.97387499999996,290.0340754985808L376.06149999999997,285.0128133296966L380.14912499999997,335.22655558586104L384.23675000000003,330.2050132751463L388.32437500000003,310.1196844577788L392.41200000000003,285.0128133296966L396.49962500000004,380.41875553131086L400.58725000000004,380.41875553131086L404.67487500000004,305.09842228889454L408.76250000000005,425.6112356185911L412.85012500000005,300.0768799781798L416.93775,269.9487466812133L421.025375,390.46156001090986L425.113,385.4402978420256L429.200625,360.3334267139433L433.28825,355.3118844032286L437.375875,340.2478177547453L441.4635,244.84187555313102L445.551125,365.3546888828276L449.63875,435.65375995635964L453.726375,300.0768799781798L457.814,345.26936006546003L461.901625,279.9915511608123L465.98925,445.69656443595863L470.07687500000003,345.26936006546003L474.16450000000003,420.58969330787636L478.25212500000004,310.1196844577788L482.33975,415.5684311389921L486.427375,315.1409466266631L490.515,365.3546888828276L494.602625,350.2906222343443L498.69025,380.41875553131086L502.777875,315.1409466266631L506.8655,310.1196844577788L510.953125,340.2478177547453L515.04075,495.9103066921231L519.128375,325.18375110626204L523.216,340.2478177547453L527.303625,320.1624889373778L531.39125,295.05561780929554L535.478875,335.22655558586104L539.5665,285.0128133296966L543.654125,305.09842228889454L547.74175,395.48282217979414L551.829375,345.26936006546003L555.917,320.1624889373778L560.004625,310.1196844577788L564.09225,274.9700088500976L568.179875,315.1409466266631L572.2675,300.0768799781798L576.3551249999999,310.1196844577788L580.4427499999999,269.9487466812133L584.5303749999999,310.1196844577788L588.6179999999999,244.84187555313102L592.7056249999999,264.92748451232904L596.79325,285.0128133296966L600.880875,300.0768799781798L604.9685,310.1196844577788L609.056125,269.9487466812133L613.14375,345.26936006546003L617.231375,219.7350044250488L621.319,320.1624889373778L625.406625,355.3118844032286L629.49425,300.0768799781798L633.581875,355.3118844032286L637.6695,325.18375110626204L641.757125,279.9915511608123L645.84475,209.6921999454498L649.932375,179.56406664848328L654.02,264.92748451232904L658.107625,219.7350044250488L662.19525,269.9487466812133L666.282875,305.09842228889454L670.3705,295.05561780929554L674.458125,325.18375110626204L678.54575,325.18375110626204L682.633375,335.22655558586104L686.721,340.2478177547453L690.808625,390.46156001090986L694.89625,340.2478177547453L698.983875,269.9487466812133L703.0714999999999,410.54688882827736L707.1591249999999,355.3118844032286L711.2467499999999,285.0128133296966L715.3343749999999,249.8631377220153L719.4219999999999,295.05561780929554L723.5096249999999,290.0340754985808L727.5972499999999,325.18375110626204L731.6848749999999,310.1196844577788L735.7724999999999,310.1196844577788L739.8601249999999,209.6921999454498L743.9477499999999,209.6921999454498L748.0353749999999,229.77780890464774L752.1229999999999,315.1409466266631L756.2106249999999,315.1409466266631L760.2982499999999,234.79907107353202L764.3858749999999,330.2050132751463L768.4735000000001,305.09842228889454L772.5611250000001,315.1409466266631L776.6487500000001,209.6921999454498L780.7363750000001,219.7350044250488L784.8240000000001,199.64967560768127L788.9116250000001,254.88468003273002L792.9992500000001,274.9700088500976L797.0868750000001,199.64967560768127L801.1745000000001,239.82061338424674L805.2621250000001,219.7350044250488L809.3497500000001,184.585608959198L813.4373750000001,264.92748451232904L817.5250000000001,279.9915511608123L821.6126250000001,184.585608959198L825.7002500000001,234.79907107353202L829.7878750000001,209.6921999454498L833.8755,209.6921999454498L837.963125,249.8631377220153L842.05075,209.6921999454498L846.138375,269.9487466812133L850.226,204.67093777656552L854.313625,204.67093777656552L858.40125,169.52126216888428L862.488875,209.6921999454498L866.5765,144.414391040802L870.664125,139.39312887191775L874.75175,204.67093777656552L878.839375,134.37186670303348L882.927,119.30780005455021L887.014625,114.28625774383549L891.10225,209.6921999454498L895.189875,199.64967560768127L899.2775,184.585608959198L903.365125,124.32906222343449L907.45275,154.457195520401L911.540375,139.39312887191775L915.628,134.37186670303348L919.715625,179.56406664848328L923.80325,109.26499557495121L927.890875,109.26499557495121L931.9785,114.28625774383549L936.066125,94.20092892646794L940.1537500000001,74.11531996726998L944.2413750000001,89.17938661575326L948.3290000000001,159.47873783111572L952.4166250000001,114.28625774383549L956.5042500000001,109.26499557495121L960.591875,109.26499557495121L964.6795,129.35032439231875L968.767125,64.07251548767098L972.85475,59.051253318786706L976.942375,64.07251548767098L981.03,109.26499557495121L985.117625,99.22219109535222L989.20525,134.37186670303348L993.292875,144.414391040802L997.3805,159.47873783111572L1001.468125,84.15812444686898L1005.55575,89.17938661575326L1009.643375,94.20092892646794L1013.731,89.17938661575326L1017.818625,43.98718667030347L1021.90625,8.837511062622195L1025.9938750000001,8.837511062622195L1030.0815,79.1368622779847L1034.1691250000001,129.35032439231875L1038.25675,89.17938661575326L1042.3443750000001,64.07251548767098L1046.432,99.22219109535222L1050.5196250000001,33.944382190704474L1054.60725,18.880315542221194L1058.6948750000001,109.26499557495121L1062.7825,54.02999114990243L1066.8701250000001,74.11531996726998L1070.95775,-21.290622234344315L1075.0453750000001,18.880315542221194L1079.133,18.880315542221194L1083.2206250000002,59.051253318786706L1087.30825,49.00844883918771L1091.3958750000002,8.837511062622195L1095.4835,13.859053373336916L1099.5711250000002,89.17938661575326L1103.65875,49.00844883918771L1107.7463750000002,69.0940577983857L1111.834,38.965924501419195L1115.9216250000002,74.11531996726998L1120.00925,219.7350044250488L1124.0968750000002,69.0940577983857L1128.1845,69.0940577983857L1132.2721250000002,89.17938661575326L1136.35975,64.07251548767098L1140.4473750000002,54.02999114990243L1144.535,64.07251548767098L1148.6226250000002,-1.2050132751463174L1152.7102499999999,49.00844883918771L1156.797875,94.20092892646794L1160.8854999999999,109.26499557495121L1164.973125,109.26499557495121L1169.0607499999999,43.98718667030347L1173.148375,134.37186670303348L1177.2359999999999,194.62813329696655L1181.323625,59.051253318786706L1185.4112499999999,109.26499557495121L1189.498875,124.32906222343449L1193.5865,109.26499557495121L1197.674125,194.62813329696655L1201.76175,124.32906222343449L1205.849375,49.00844883918771L1209.937,169.52126216888428L1214.024625,94.20092892646794L1218.11225,164.5L1222.199875,154.457195520401L1226.2875,209.6921999454498L1230.375125,164.5L1234.46275,28.923120021820193L1238.550375,64.07251548767098L1242.638,134.37186670303348L1246.725625,79.1368622779847L1250.81325,234.79907107353202L1254.900875,174.542804479599L1258.9885,114.28625774383549L1263.076125,114.28625774383549L1267.16375,179.56406664848328L1271.251375,209.6921999454498L1275.339,154.457195520401L1279.426625,129.35032439231875L1283.51425,139.39312887191775L1287.601875,129.35032439231875L1291.6895,229.77780890464774L1295.777125,204.67093777656552L1299.86475,159.47873783111572L1303.952375,144.414391040802L1308.04,199.64967560768127L1312.127625,124.32906222343449L1316.21525,295.05561780929554L1320.302875,149.43593335151672L1324.3905,214.71374225616452L1328.478125,244.84187555313102L1332.56575,159.47873783111572L1336.653375,219.7350044250488L1340.741,189.60687112808228L1344.828625,254.88468003273002L1348.91625,159.47873783111572L1353.003875,279.9915511608123L1357.0915,174.542804479599L1361.179125,194.62813329696655L1365.26675,144.414391040802L1369.3543750000001,159.47873783111572L1373.442,169.52126216888428L1377.5296250000001,204.67093777656552L1381.61725,144.414391040802L1385.7048750000001,149.43593335151672L1389.7925,305.09842228889454L1393.8801250000001,184.585608959198L1397.96775,149.43593335151672L1402.0553750000001,269.9487466812133L1406.1429999999998,300.0768799781798L1410.230625,269.9487466812133L1414.3182499999998,119.30780005455021L1418.405875,300.0768799781798L1422.4934999999998,315.1409466266631L1426.581125,189.60687112808228L1430.6687499999998,290.0340754985808L1434.756375,144.414391040802L1438.8439999999998,300.0768799781798L1442.931625,84.15812444686898L1447.0192499999998,114.28625774383549L1451.106875,204.67093777656552L1455.1944999999998,209.6921999454498L1459.282125,279.9915511608123L1463.3697499999998,274.9700088500976L1467.457375,239.82061338424674L1471.5449999999998,234.79907107353202L1475.632625,254.88468003273002L1479.7202499999999,279.9915511608123L1483.807875,124.32906222343449L1487.8954999999999,330.2050132751463L1491.983125,310.1196844577788L1496.0707499999999,229.77780890464774L1500.158375,204.67093777656552L1504.2459999999999,139.39312887191775L1508.333625,164.5L1512.4212499999999,254.88468003273002L1516.508875,209.6921999454498L1520.5964999999999,214.71374225616452L1524.684125,219.7350044250488L1528.7717499999999,254.88468003273002L1532.859375,184.585608959198L1536.9470000000001,244.84187555313102L1541.034625,310.1196844577788L1545.1222500000001,290.0340754985808L1549.209875,189.60687112808228L1553.2975000000001,259.9059422016143L1557.385125,199.64967560768127L1561.4727500000001,189.60687112808228L1565.560375,214.71374225616452L1569.6480000000001,435.65375995635964L1573.735625,285.0128133296966L1577.8232500000001,224.75654673576346L1581.910875,159.47873783111572L1585.9985000000001,184.585608959198L1590.086125,214.71374225616452L1594.1737500000002,274.9700088500976L1598.261375,124.32906222343449L1602.3490000000002,179.56406664848328L1606.436625,315.1409466266631L1610.5242500000002,254.88468003273002L1614.611875,199.64967560768127L1618.6995000000002,169.52126216888428L1622.787125,174.542804479599L1626.8747500000002,169.52126216888428L1630.962375,199.64967560768127L1635.0500000000002,300.0768799781798L1639.137625,229.77780890464774L1643.2252500000002,164.5L1647.312875,189.60687112808228L1651.4005000000002,264.92748451232904L1655.488125,199.64967560768127L1659.5757500000002,234.79907107353202L1663.6633749999999,274.9700088500976L1667.751,219.7350044250488L1671.8386249999999,254.88468003273002L1675.92625,229.77780890464774L1680.0138749999999,189.60687112808228L1684.1015,184.585608959198L1688.1891249999999,224.75654673576346L1692.27675,189.60687112808228L1696.3643749999999,199.64967560768127L1700.452,194.62813329696655L1704.539625,189.60687112808228L1708.62725,99.22219109535222L1712.714875,139.39312887191775L1716.8025,139.39312887191775L1720.890125,259.9059422016143L1724.97775,209.6921999454498L1729.065375,214.71374225616452L1733.153,219.7350044250488L1737.240625,204.67093777656552L1741.32825,129.35032439231875L1745.415875,290.0340754985808L1749.5035,209.6921999454498L1753.591125,169.52126216888428L1757.67875,164.5L1761.766375,194.62813329696655L1765.854,254.88468003273002L1769.941625,194.62813329696655L1774.02925,199.64967560768127L1778.116875,164.5L1782.2045,194.62813329696655L1786.292125,219.7350044250488L1790.37975,199.64967560768127L1794.467375,194.62813329696655L1798.555,214.71374225616452L1802.642625,295.05561780929554L1806.73025,259.9059422016143L1810.817875,279.9915511608123L1814.9055,204.67093777656552L1818.993125,194.62813329696655L1823.08075,209.6921999454498L1827.168375,149.43593335151672L1831.256,279.9915511608123L1835.343625,164.5" style="fill: none;" fill="none"></path></g></g></g></g></g></g><g transform="translate(53, 376)" clip-path="url(#clip_1)"><clipPath id="clip_1"><rect width="2043" height="24"></rect></clipPath><g><g><line x1="0" y1="0" x2="0" y2="5" style="visibility: inherit;" fill="rgb(0, 0, 0)" stroke="rgb(204, 204, 204)" stroke-width="1px"></line><line x1="204.38125000000002" y1="0" x2="204.38125000000002" y2="5" style="visibility: inherit;" fill="rgb(0, 0, 0)" stroke="rgb(204, 204, 204)" stroke-width="1px"></line><line x1="408.76250000000005" y1="0" x2="408.76250000000005" y2="5" style="visibility: inherit;" fill="rgb(0, 0, 0)" stroke="rgb(204, 204, 204)" stroke-width="1px"></line><line x1="613.14375" y1="0" x2="613.14375" y2="5" style="visibility: inherit;" fill="rgb(0, 0, 0)" stroke="rgb(204, 204, 204)" stroke-width="1px"></line><line x1="817.5250000000001" y1="0" x2="817.5250000000001" y2="5" style="visibility: inherit;" fill="rgb(0, 0, 0)" stroke="rgb(204, 204, 204)" stroke-width="1px"></line><line x1="1021.90625" y1="0" x2="1021.90625" y2="5" style="visibility: inherit;" fill="rgb(0, 0, 0)" stroke="rgb(204, 204, 204)" stroke-width="1px"></line><line x1="1226.2875" y1="0" x2="1226.2875" y2="5" style="visibility: inherit;" fill="rgb(0, 0, 0)" stroke="rgb(204, 204, 204)" stroke-width="1px"></line><line x1="1430.6687499999998" y1="0" x2="1430.6687499999998" y2="5" style="visibility: inherit;" fill="rgb(0, 0, 0)" stroke="rgb(204, 204, 204)" stroke-width="1px"></line><line x1="1635.0500000000002" y1="0" x2="1635.0500000000002" y2="5" style="visibility: inherit;" fill="rgb(0, 0, 0)" stroke="rgb(204, 204, 204)" stroke-width="1px"></line><line x1="1839.43125" y1="0" x2="1839.43125" y2="5" style="visibility: inherit;" fill="rgb(0, 0, 0)" stroke="rgb(204, 204, 204)" stroke-width="1px"></line><line x1="2043.8125" y1="0" x2="2043.8125" y2="5" style="visibility: inherit;" fill="rgb(0, 0, 0)" stroke="rgb(204, 204, 204)" stroke-width="1px"></line></g><g transform="translate(0, 8)"><text x="0" y="0" dx="0em" dy="0.95em" style="text-anchor: middle; visibility: hidden; font-family: Roboto, sans-serif; font-size: 12px; font-weight: 200;" fill="rgb(33, 33, 33)" stroke="none" stroke-width="1px">-50</text><text x="204.38125000000002" y="0" dx="0em" dy="0.95em" style="text-anchor: middle; visibility: inherit; font-family: Roboto, sans-serif; font-size: 12px; font-weight: 200;" fill="rgb(33, 33, 33)" stroke="none" stroke-width="1px">0</text><text x="408.76250000000005" y="0" dx="0em" dy="0.95em" style="text-anchor: middle; visibility: inherit; font-family: Roboto, sans-serif; font-size: 12px; font-weight: 200;" fill="rgb(33, 33, 33)" stroke="none" stroke-width="1px">50</text><text x="613.14375" y="0" dx="0em" dy="0.95em" style="text-anchor: middle; visibility: inherit; font-family: Roboto, sans-serif; font-size: 12px; font-weight: 200;" fill="rgb(33, 33, 33)" stroke="none" stroke-width="1px">100</text><text x="817.5250000000001" y="0" dx="0em" dy="0.95em" style="text-anchor: middle; visibility: inherit; font-family: Roboto, sans-serif; font-size: 12px; font-weight: 200;" fill="rgb(33, 33, 33)" stroke="none" stroke-width="1px">150</text><text x="1021.90625" y="0" dx="0em" dy="0.95em" style="text-anchor: middle; visibility: inherit; font-family: Roboto, sans-serif; font-size: 12px; font-weight: 200;" fill="rgb(33, 33, 33)" stroke="none" stroke-width="1px">200</text><text x="1226.2875" y="0" dx="0em" dy="0.95em" style="text-anchor: middle; visibility: inherit; font-family: Roboto, sans-serif; font-size: 12px; font-weight: 200;" fill="rgb(33, 33, 33)" stroke="none" stroke-width="1px">250</text><text x="1430.6687499999998" y="0" dx="0em" dy="0.95em" style="text-anchor: middle; visibility: inherit; font-family: Roboto, sans-serif; font-size: 12px; font-weight: 200;" fill="rgb(33, 33, 33)" stroke="none" stroke-width="1px">300</text><text x="1635.0500000000002" y="0" dx="0em" dy="0.95em" style="text-anchor: middle; visibility: inherit; font-family: Roboto, sans-serif; font-size: 12px; font-weight: 200;" fill="rgb(33, 33, 33)" stroke="none" stroke-width="1px">350</text><text x="1839.43125" y="0" dx="0em" dy="0.95em" style="text-anchor: middle; visibility: inherit; font-family: Roboto, sans-serif; font-size: 12px; font-weight: 200;" fill="rgb(33, 33, 33)" stroke="none" stroke-width="1px">400</text><text x="2043.8125" y="0" dx="0em" dy="0.95em" style="text-anchor: middle; visibility: hidden; font-family: Roboto, sans-serif; font-size: 12px; font-weight: 200;" fill="rgb(33, 33, 33)" stroke="none" stroke-width="1px">450</text></g><line x1="0" y1="0" x2="2043.8125" y2="0" fill="rgb(0, 0, 0)" stroke="rgb(204, 204, 204)" stroke-width="1px"></line></g></g></g></g></svg>