<svg viewBox="0 0 2097 400" xmlns="http://www.w3.org/2000/svg"><g><g><g><g><g><line x1="53.1875" y1="376" x2="48.1875" y2="376" style="visibility: inherit;" fill="rgb(0, 0, 0)" stroke="rgb(204, 204, 204)" stroke-width="1px"></line><line x1="53.1875" y1="334.22222222222223" x2="48.1875" y2="334.22222222222223" style="visibility: inherit;" fill="rgb(0, 0, 0)" stroke="rgb(204, 204, 204)" stroke-width="1px"></line><line x1="53.1875" y1="292.44444444444446" x2="48.1875" y2="292.44444444444446" style="visibility: inherit;" fill="rgb(0, 0, 0)" stroke="rgb(204, 204, 204)" stroke-width="1px"></line><line x1="53.1875" y1="250.66666666666669" x2="48.1875" y2="250.66666666666669" style="visibility: inherit;" fill="rgb(0, 0, 0)" stroke="rgb(204, 204, 204)" stroke-width="1px"></line><line x1="53.1875" y1="208.88888888888889" x2="48.1875" y2="208.88888888888889" style="visibility: inherit;" fill="rgb(0, 0, 0)" stroke="rgb(204, 204, 204)" stroke-width="1px"></line><line x1="53.1875" y1="167.11111111111111" x2="48.1875" y2="167.11111111111111" style="visibility: inherit;" fill="rgb(0, 0, 0)" stroke="rgb(204, 204, 204)" stroke-width="1px"></line><line x1="53.1875" y1="125.33333333333334" x2="48.1875" y2="125.33333333333334" style="visibility: inherit;" fill="rgb(0, 0, 0)" stroke="rgb(204, 204, 204)" stroke-width="1px"></line><line x1="53.1875" y1="83.55555555555556" x2="48.1875" y2="83.55555555555556" style="visibility: inherit;" fill="rgb(0, 0, 0)" stroke="rgb(204, 204, 204)" stroke-width="1px"></line><line x1="53.1875" y1="41.7777777777778" x2="48.1875" y2="41.7777777777778" style="visibility: inherit;" fill="rgb(0, 0, 0)" stroke="rgb(204, 204, 204)" stroke-width="1px"></line><line x1="53.1875" y1="0" x2="48.1875" y2="0" style="visibility: inherit;" fill="rgb(0, 0, 0)" stroke="rgb(204, 204, 204)" stroke-width="1px"></line></g><g transform="translate(43.1875, 0)"><text x="0" y="376" dx="0em" dy="0.3em" style="text-anchor: end; visibility: hidden; font-family: Roboto, sans-serif; font-size: 12px; font-weight: 200;" fill="rgb(33, 33, 33)" stroke="none" stroke-width="1px">7.5</text><text x="0" y="334.22222222222223" dx="0em" dy="0.3em" style="text-anchor: end; visibility: inherit; font-family: Roboto, sans-serif; font-size: 12px; font-weight: 200;" fill="rgb(33, 33, 33)" stroke="none" stroke-width="1px">8</text><text x="0" y="292.44444444444446" dx="0em" dy="0.3em" style="text-anchor: end; visibility: inherit; font-family: Roboto, sans-serif; font-size: 12px; font-weight: 200;" fill="rgb(33, 33, 33)" stroke="none" stroke-width="1px">8.5</text><text x="0" y="250.66666666666669" dx="0em" dy="0.3em" style="text-anchor: end; visibility: inherit; font-family: Roboto, sans-serif; font-size: 12px; font-weight: 200;" fill="rgb(33, 33, 33)" stroke="none" stroke-width="1px">9</text><text x="0" y="208.88888888888889" dx="0em" dy="0.3em" style="text-anchor: end; visibility: inherit; font-family: Roboto, sans-serif; font-size: 12px; font-weight: 200;" fill="rgb(33, 33, 33)" stroke="none" stroke-width="1px">9.5</text><text x="0" y="167.11111111111111" dx="0em" dy="0.3em" style="text-anchor: end; visibility: inherit; font-family: Roboto, sans-serif; font-size: 12px; font-weight: 200;" fill="rgb(33, 33, 33)" stroke="none" stroke-width="1px">10</text><text x="0" y="125.33333333333334" dx="0em" dy="0.3em" style="text-anchor: end; visibility: inherit; font-family: Roboto, sans-serif; font-size: 12px; font-weight: 200;" fill="rgb(33, 33, 33)" stroke="none" stroke-width="1px">10.5</text><text x="0" y="83.55555555555556" dx="0em" dy="0.3em" style="text-anchor: end; visibility: inherit; font-family: Roboto, sans-serif; font-size: 12px; font-weight: 200;" fill="rgb(33, 33, 33)" stroke="none" stroke-width="1px">11</text><text x="0" y="41.7777777777778" dx="0em" dy="0.3em" style="text-anchor: end; visibility: inherit; font-family: Roboto, sans-serif; font-size: 12px; font-weight: 200;" fill="rgb(33, 33, 33)" stroke="none" stroke-width="1px">11.5</text><text x="0" y="0" dx="0em" dy="0.3em" style="text-anchor: end; visibility: hidden; font-family: Roboto, sans-serif; font-size: 12px; font-weight: 200;" fill="rgb(33, 33, 33)" stroke="none" stroke-width="1px">12</text></g><line x1="53.1875" y1="0" x2="53.1875" y2="376" fill="rgb(0, 0, 0)" stroke="rgb(204, 204, 204)" stroke-width="1px"></line></g></g><g transform="translate(53, 0)" clip-path="url(#clip_0)"><clipPath id="clip_0"><rect width="2043" height="376"></rect></clipPath><g><g><g><line x1="0" y1="0" x2="0" y2="376" fill="rgb(0, 0, 0)" stroke="rgb(66, 66, 66)" stroke-width="1px" opacity="0.25"></line><line x1="204.38125000000002" y1="0" x2="204.38125000000002" y2="376" fill="rgb(0, 0, 0)" stroke="rgb(66, 66, 66)" stroke-width="1px" opacity="0.25"></line><line x1="408.76250000000005" y1="0" x2="408.76250000000005" y2="376" fill="rgb(0, 0, 0)" stroke="rgb(66, 66, 66)" stroke-width="1px" opacity="0.25"></line><line x1="613.14375" y1="0" x2="613.14375" y2="376" fill="rgb(0, 0, 0)" stroke="rgb(66, 66, 66)" stroke-width="1px" opacity="0.25"></line><line x1="817.5250000000001" y1="0" x2="817.5250000000001" y2="376" fill="rgb(0, 0, 0)" stroke="rgb(66, 66, 66)" stroke-width="1px" opacity="0.25"></line><line x1="1021.90625" y1="0" x2="1021.90625" y2="376" fill="rgb(0, 0, 0)" stroke="rgb(66, 66, 66)" stroke-width="1px" opacity="0.25"></line><line x1="1226.2875" y1="0" x2="1226.2875" y2="376" fill="rgb(0, 0, 0)" stroke="rgb(66, 66, 66)" stroke-width="1px" opacity="0.25"></line><line x1="1430.6687499999998" y1="0" x2="1430.6687499999998" y2="376" fill="rgb(0, 0, 0)" stroke="rgb(66, 66, 66)" stroke-width="1px" opacity="0.25"></line><line x1="1635.0500000000002" y1="0" x2="1635.0500000000002" y2="376" fill="rgb(0, 0, 0)" stroke="rgb(66, 66, 66)" stroke-width="1px" opacity="0.25"></line><line x1="1839.43125" y1="0" x2="1839.43125" y2="376" fill="rgb(0, 0, 0)" stroke="rgb(66, 66, 66)" stroke-width="1px" opacity="0.25"></line><line x1="2043.8125" y1="0" x2="2043.8125" y2="376" fill="rgb(0, 0, 0)" stroke="rgb(66, 66, 66)" stroke-width="1px" opacity="0.25"></line></g><g><line x1="0" y1="376" x2="2043.8125" y2="376" fill="rgb(0, 0, 0)" stroke="rgb(66, 66, 66)" stroke-width="1px" opacity="0.25"></line><line x1="0" y1="334.22222222222223" x2="2043.8125" y2="334.22222222222223" fill="rgb(0, 0, 0)" stroke="rgb(66, 66, 66)" stroke-width="1px" opacity="0.25"></line><line x1="0" y1="292.44444444444446" x2="2043.8125" y2="292.44444444444446" fill="rgb(0, 0, 0)" stroke="rgb(66, 66, 66)" stroke-width="1px" opacity="0.25"></line><line x1="0" y1="250.66666666666669" x2="2043.8125" y2="250.66666666666669" fill="rgb(0, 0, 0)" stroke="rgb(66, 66, 66)" stroke-width="1px" opacity="0.25"></line><line x1="0" y1="208.88888888888889" x2="2043.8125" y2="208.88888888888889" fill="rgb(0, 0, 0)" stroke="rgb(66, 66, 66)" stroke-width="1px" opacity="0.25"></line><line x1="0" y1="167.11111111111111" x2="2043.8125" y2="167.11111111111111" fill="rgb(0, 0, 0)" stroke="rgb(66, 66, 66)" stroke-width="1px" opacity="0.25"></line><line x1="0" y1="125.33333333333334" x2="2043.8125" y2="125.33333333333334" fill="rgb(0, 0, 0)" stroke="rgb(66, 66, 66)" stroke-width="1px" opacity="0.25"></line><line x1="0" y1="83.55555555555556" x2="2043.8125" y2="83.55555555555556" fill="rgb(0, 0, 0)" stroke="rgb(66, 66, 66)" stroke-width="1px" opacity="0.25"></line><line x1="0" y1="41.7777777777778" x2="2043.8125" y2="41.7777777777778" fill="rgb(0, 0, 0)" stroke="rgb(66, 66, 66)" stroke-width="1px" opacity="0.25"></line><line x1="0" y1="0" x2="2043.8125" y2="0" fill="rgb(0, 0, 0)" stroke="rgb(66, 66, 66)" stroke-width="1px" opacity="0.25"></line></g></g></g><g><g><line x1="0" y1="1002.6666666666667" x2="2043.8125" y2="1002.6666666666667" fill="rgb(0, 0, 0)" stroke="rgb(153, 153, 153)" stroke-width="1.5px"></line></g></g><g><g><line x1="204.38125000000002" y1="0" x2="204.38125000000002" y2="376" fill="rgb(0, 0, 0)" stroke="rgb(153, 153, 153)" stroke-width="1.5px"></line></g></g><g><g><g><g><g><path stroke="rgb(255, 112, 67)" stroke-width="2px" d="M204.38125000000002,238.46836005316842L208.468875,250.471777598063L212.5565,251.5164919137414L216.644125,270.6355003531462L220.73175,266.69806348941984L224.819375,282.5239818908532L228.907,300.01796713104244L232.994625,303.0715384954093L237.08225000000002,308.75071971706905L241.169875,313.4000806537082L245.2575,314.49920362122225L249.345125,308.3062943784658L253.43275,315.2326035478902L257.520375,329.0494645746807L261.608,334.22440453997865L265.695625,326.535732942569L269.78325,328.53402980080983L273.870875,335.32555810794975L277.9585,334.85254413256536L282.046125,343.0986053801703L286.13375,347.0010399461853L290.22137499999997,344.06083680091695L294.30899999999997,343.8783677049663L298.396625,335.04162447594695L302.48425,338.0432140812614L306.571875,337.10454691049625L310.6595,335.9482372167321L314.747125,336.2429584886734L318.83475,332.04206667686844L322.922375,334.97251509515604L327.01,334.69725956311726L331.097625,329.02461206808755L335.18525,325.02791402265854L339.272875,325.20004852160866L343.3605,328.9467568113798L347.448125,332.07031038532153L351.53574999999995,330.1598294485363L355.62337499999995,332.7416893046853L359.71099999999996,338.47083011033214L363.79862499999996,334.7344844164564L367.88624999999996,330.9675101726773L371.97387499999996,331.19275789407936L376.06149999999997,325.6509710325905L380.14912499999997,323.9357866123128L384.23675000000003,328.01871005917485L388.32437500000003,325.6388647886117L392.41200000000003,325.79257315919705L396.49962500000004,333.36933526396103L400.58725000000004,334.46966295309636L404.67487500000004,328.12550301269187L408.76250000000005,331.63407052508L412.85012500000005,337.4108629151083L416.93775,332.57333727488117L421.025375,331.8455472325495L425.113,334.93933958356376L429.200625,339.9871182222538L433.28825,337.2541449839159L437.375875,336.7723084964259L441.4635,327.1063789400856L445.551125,322.83195616179427L449.63875,326.70685327606986L453.726375,334.1438256429423L457.814,337.22209148765336L461.901625,330.73722556859013L465.98925,328.5409145783504L470.07687500000003,315.1066735842496L474.16450000000003,319.0495903593172L478.25212500000004,315.2582881511371L482.33975,322.8404831445886L486.427375,329.11263305352816L490.515,327.90507440676964L494.602625,329.15758254011206L498.69025,324.59930755358107L502.777875,324.0956122285463L506.8655,324.6971480174663L510.953125,315.7659945667731L515.04075,307.63940359770277L519.128375,313.9761185583613L523.216,310.1806811719092L527.303625,312.281141586175L531.39125,322.0144765776816L535.478875,327.43082543228604L539.5665,320.88013900394634L543.654125,317.74051897636946L547.74175,309.9821294468026L551.829375,312.07725781131086L555.917,309.69095510996357L560.004625,307.32714834267085L564.09225,301.89826518832825L568.179875,310.7856299843077L572.2675,316.9088725652373L576.3551249999999,319.3965984957396L580.4427499999999,316.5115112079039L584.5303749999999,319.97724567331L588.6179999999999,313.38592965224984L592.7056249999999,311.1822291780686L596.79325,312.85383010124224L600.880875,312.89652522003365L604.9685,319.19218759295774L609.056125,313.0560962471809L613.14375,315.5315255868502L617.231375,317.38397069065184L621.319,305.701120804148L625.406625,308.972055267862L629.49425,312.8269384016026L633.581875,314.4055251557619L637.6695,311.20087667114814L641.757125,319.8128945736525L645.84475,321.4779270382453L649.932375,312.5070090441278L654.02,315.99289696836036L658.107625,309.0465173965111L662.19525,315.1875743376462L666.282875,320.2279017260686L670.3705,321.670450752438L674.458125,312.50953024421455L678.54575,314.1020872329002L682.633375,311.49896257194496L686.721,317.478105434877L690.808625,309.42925353327865L694.89625,302.76413238797926L698.983875,295.23460926134663L703.0714999999999,307.7759740257751L707.1591249999999,318.2381016409425L711.2467499999999,311.5516195294874L715.3343749999999,306.04283559573065L719.4219999999999,308.5557340451554L723.5096249999999,310.62831076129464L727.5972499999999,301.3088095090771L731.6848749999999,303.4275681490226L735.7724999999999,317.49314028177463L739.8601249999999,314.2114250761828L743.9477499999999,310.20887205417324L748.0353749999999,312.1003422212193L752.1229999999999,310.04372109336526L756.2106249999999,320.10715476159635L760.2982499999999,313.7463098654214L764.3858749999999,306.73826782571984L768.4735000000001,302.70291620758474L772.5611250000001,302.4847027410439L776.6487500000001,316.56024947394496L780.7363750000001,310.8555832781169L784.8240000000001,317.82638911075037L788.9116250000001,314.1289396133686L792.9992500000001,313.153201984167L797.0868750000001,314.74248474844285L801.1745000000001,294.9088433067479L805.2621250000001,296.31136433365816L809.3497500000001,292.63388891269483L813.4373750000001,298.7592450229641L817.5250000000001,296.3338869931621L821.6126250000001,291.00927452445626L825.7002500000001,287.8992597830331L829.7878750000001,288.1797678652625L833.8755,293.85556647545087L837.963125,297.71292213353445L842.05075,291.66725387690894L846.138375,289.02835864667486L850.226,289.05490920384705L854.313625,292.2341343515183L858.40125,292.3340678504942L862.488875,293.01540992145107L866.5765,283.84964173195044L870.664125,297.44278335731263L874.75175,301.55986082384936L878.839375,300.6126498927472L882.927,308.12197022536196L887.014625,302.94002783834225L891.10225,306.8352508338647L895.189875,306.51747876095254L899.2775,299.0682644918146L903.365125,301.4618910410089L907.45275,302.86982668189705L911.540375,297.2468288704663L915.628,296.86685139129025L919.715625,296.3563982696701L923.80325,297.88596827495303L927.890875,298.77546998949447L931.9785,288.2942153704328L936.066125,294.2913587307233L940.1537500000001,284.86940548908507L944.2413750000001,274.81023853542155L948.3290000000001,285.749096137746L952.4166250000001,284.26300409649303L956.5042500000001,291.73143052321706L960.591875,295.3934223872809L964.6795,284.62685882516365L968.767125,282.0080461761746L972.85475,279.30698767206763L976.942375,283.2503269077111L981.03,279.7134726474478L985.117625,277.8173142742325L989.20525,276.11471785598917L993.292875,280.34645929432264L997.3805,286.47243517403285L1001.468125,284.75351996943704L1005.55575,281.91456925705285L1009.643375,279.0249792115668L1013.731,269.5242533418272L1017.818625,266.76115845040886L1021.90625,275.92054326902996L1025.9938750000001,268.84781139436063L1030.0815,263.75689986287506L1034.1691250000001,254.3475549025341L1038.25675,252.62779428049612L1042.3443750000001,254.64620781829765L1046.432,245.9155587567339L1050.5196250000001,248.3876605849865L1054.60725,244.58938210403002L1058.6948750000001,247.47896156493542L1062.7825,240.34423864686062L1066.8701250000001,233.9734004201041L1070.95775,231.36538926464925L1075.0453750000001,232.65317046200133L1079.133,239.582923327548L1083.2206250000002,240.83167470507914L1087.30825,246.01516082890686L1091.3958750000002,239.74842483935802L1095.4835,231.29995347674847L1099.5711250000002,225.89192344781125L1103.65875,206.6048365502406L1107.7463750000002,205.00255375848644L1111.834,208.16471245799994L1115.9216250000002,207.20941978708296L1120.00925,203.35998821665083L1124.0968750000002,196.3336592168829L1128.1845,185.7630956494875L1132.2721250000002,182.89469549733153L1136.35975,166.62824931879834L1140.4473750000002,172.1198905363744L1144.535,163.32662928167707L1148.6226250000002,156.61025843923198L1152.7102499999999,149.61488688862596L1156.797875,144.99399588100547L1160.8854999999999,145.49771724431508L1164.973125,145.23508054190162L1169.0607499999999,135.24876249072256L1173.148375,127.19520747273211L1177.2359999999999,115.44340690008886L1181.323625,125.33841216848208L1185.4112499999999,119.07424006367603L1189.498875,115.99356747570562L1193.5865,116.7717976306056L1197.674125,111.50531965366713L1201.76175,110.04004142870203L1205.849375,98.11767855730798L1209.937,93.1390180501834L1214.024625,86.96028664391213L1218.11225,84.21331323526218L1222.199875,92.87404574823191L1226.2875,99.11547155701204L1230.375125,85.99896229618643L1234.46275,75.78482591829359L1238.550375,78.97672305206123L1242.638,61.37559071600232L1246.725625,49.176815204341075L1250.81325,63.68974729860291L1254.900875,68.1045045749083L1258.9885,78.20965573431135L1263.076125,69.13423053368567L1267.16375,58.492156701287854L1271.251375,53.15193057676236L1275.339,30.488004862984496L1279.426625,25.984074212278617L1283.51425,20.513848797115486L1287.601875,29.00925261051754L1291.6895,34.64312413032969L1295.777125,39.068465217130054L1299.86475,42.68393530432322L1303.952375,38.780885949304114L1308.04,42.51138774362758L1312.127625,46.69849185299084L1316.21525,48.25048888349601L1320.302875,47.93895503257151L1324.3905,39.137758598970066L1328.478125,37.641685649833434L1332.56575,43.5224761251431L1336.653375,48.632597817012964L1340.741,46.72780630305503L1344.828625,39.512568113430284L1348.91625,51.16927725043665L1353.003875,41.04771164106055L1357.0915,45.198936093794345L1361.179125,35.57321636547789L1365.26675,33.893072614425634L1369.3543750000001,34.26895175007899L1373.442,46.639142046141124L1377.5296250000001,40.53262802282361L1381.61725,28.593390697157744L1385.7048750000001,28.12356168066448L1389.7925,33.4056386088761L1393.8801250000001,35.24743183069022L1397.96775,42.90498782562767L1402.0553750000001,37.13415616108852L1406.1429999999998,45.95758516800729L1410.230625,54.30194435709784L1414.3182499999998,54.422416207357614L1418.405875,58.05339004559511L1422.4934999999998,43.20113599675805L1426.581125,35.108847559426295L1430.6687499999998,46.09809323075128L1434.756375,45.51781047404105L1438.8439999999998,48.33287188555318L1442.931625,54.99277326154023L1447.0192499999998,31.25362701030945L1451.106875,37.09124752237478L1455.1944999999998,42.429661707869386L1459.282125,55.68736855792474L1463.3697499999998,47.995087828548264L1467.457375,42.58889568758038L1471.5449999999998,41.18102228125471L1475.632625,38.81116328194721L1479.7202499999999,48.60191742446344L1483.807875,49.27955119795063L1487.8954999999999,54.71347656837974L1491.983125,48.088615183649374L1496.0707499999999,55.2416470290265L1500.158375,55.74882122522844L1504.2459999999999,59.21638868240263L1508.333625,53.58646976543125L1512.4212499999999,59.69833910752264L1516.508875,63.421941290034425L1520.5964999999999,53.96328440292688L1524.684125,50.208653014802984L1528.7717499999999,52.39010947923765L1532.859375,60.56213846857555L1536.9470000000001,68.43093678123219L1541.034625,61.79834478358312L1545.1222500000001,59.40040511776273L1549.209875,56.63422025707263L1553.2975000000001,48.50671827077995L1557.385125,49.58961920574058L1561.4727500000001,56.904800983079745L1565.560375,51.832329645837355L1569.6480000000001,58.504621718708954L1573.735625,51.97315809524446L1577.8232500000001,52.94042358436025L1581.910875,56.17565687414047L1585.9985000000001,58.20154958780887L1590.086125,44.645724945827624L1594.1737500000002,52.0743822602483L1598.261375,56.023219579673246L1602.3490000000002,52.433151718507155L1606.436625,55.27821581951568L1610.5242500000002,51.02588402729964L1614.611875,56.580340257959634L1618.6995000000002,66.86092184683314L1622.787125,68.1996077142198L1626.8747500000002,67.36472312462568L1630.962375,75.02616012803067L1635.0500000000002,66.00967326323327L1639.137625,54.838092911933074L1643.2252500000002,58.13332246265464L1647.312875,62.73709390076985L1651.4005000000002,64.42613017401227L1655.488125,70.2409428613518L1659.5757500000002,74.32294028278334L1663.6633749999999,81.43232821589396L1667.751,76.34937360054343L1671.8386249999999,64.77004557417149L1675.92625,61.40937977505847L1680.0138749999999,61.00286799090322L1684.1015,68.35642728325715L1688.1891249999999,62.26202802794047L1692.27675,60.102283141634075L1696.3643749999999,61.32007688910382L1700.452,74.2519602773425L1704.539625,72.46478904075445L1708.62725,61.22483493161419L1712.714875,63.066866426633425L1716.8025,72.95583505237762L1720.890125,78.26783425625298L1724.97775,70.46831841942023L1729.065375,67.42673690126146L1733.153,72.09778747495824L1737.240625,74.67449551014852L1741.32825,78.33876509580273L1745.415875,74.12604822848856L1749.5035,66.26039795293522L1753.591125,64.13943308057196L1757.67875,67.69645349526157L1761.766375,63.814814913997296L1765.854,68.43373961571609L1769.941625,67.6181634200373L1774.02925,72.86223377250835L1778.116875,70.72716827999804L1782.2045,67.38433292329397L1786.292125,61.56577838353377L1790.37975,65.0507619248684L1794.467375,68.6104383018394L1798.555,72.27137908353419L1802.642625,76.30378543080633L1806.73025,69.28988912415224L1810.817875,74.76908592674836L1814.9055,69.41408759663068L1818.993125,67.78273600524403L1823.08075,76.35019444602842L1827.168375,80.84107912421425L1831.256,80.00515949167271L1835.343625,77.44184352486472" style="fill: none;" fill="none"></path></g></g></g></g><g opacity="0.2"><g><g><g><path stroke="rgb(255, 112, 67)" stroke-width="2px" d="M204.38125000000002,238.46836005316842L208.468875,257.673828125L212.5565,252.5194176567925L216.644125,293.1194542778863L220.73175,261.5573459201389L224.819375,304.41692437065973L228.907,325.0346459282769L232.994625,307.523674858941L237.08225000000002,317.1264088948568L241.169875,320.3038397894965L245.2575,316.1379191080729L249.345125,299.0506320529514L253.43275,325.5994517008463L257.520375,349.7476874457465L261.608,341.9807315402561L265.695625,315.0081481933594L269.78325,331.5306294759115L273.870875,345.51112620035804L277.9585,334.1430952284071L282.046125,355.4669435289171L286.13375,352.85447777642145L290.22137499999997,339.6506288316515L294.30899999999997,343.6046676635742L298.396625,321.786614312066L302.48425,342.5455771552192L306.571875,335.6965501573351L310.6595,334.2137756347656L314.747125,336.6850399441189L318.83475,325.740732828776L322.922375,339.3681861029731L327.01,334.2843763563368L331.097625,320.5156419542101L335.18525,319.0328674316406L339.272875,325.458250257704L343.3605,334.5668190850152L347.448125,336.75564066569007L351.53574999999995,327.29410807291663L355.62337499999995,336.6144790649414L359.71099999999996,347.06454128689234L363.79862499999996,329.12996588812933L367.88624999999996,325.31704881456164L371.97387499999996,331.5306294759115L376.06149999999997,317.33829074435766L380.14912499999997,321.3630099826389L384.23675000000003,334.1430952284071L388.32437500000003,322.06909688313806L392.41200000000003,326.0231357150608L396.49962500000004,344.7344784206814L400.58725000000004,336.12015448676215L404.67487500000004,318.6092631022135L408.76250000000005,336.89692179361975L412.85012500000005,346.0760515001085L416.93775,325.31704881456164L421.025375,330.75386216905383L425.113,339.5800281100803L429.200625,347.5587861802843L433.28825,333.1546851264106L437.375875,336.049553765191L441.4635,312.60748460557727L445.551125,316.42032199435766L449.63875,332.51919894748266L453.726375,345.29928419325086L457.814,341.8394902547201L461.901625,321.00992668999567L465.98925,325.2464480929905L470.07687500000003,294.955312093099L474.16450000000003,324.9639655219184L478.25212500000004,309.5713348388672L482.33975,334.2137756347656L486.427375,338.5208579169379L490.515,326.09373643663196L494.602625,331.03634474012586L498.69025,317.76189507378473L502.777875,323.3400692409939L506.8655,325.5994517008463L510.953125,302.3692643907335L515.04075,295.44951714409723L519.128375,323.481190999349L523.216,304.4875250922309L527.303625,315.4318322075738L531.39125,336.6144790649414L535.478875,335.55534871419275L539.5665,311.05410936143664L543.654125,313.03108893500433L547.74175,298.34454515245227L551.829375,315.2199503580729L555.917,306.11150105794275L560.004625,303.7814381917318L564.09225,293.7549404568142L568.179875,324.1166771782769L572.2675,326.09373643663196L576.3551249999999,323.12818739149304L580.4427499999999,312.18388027615015L584.5303749999999,325.1758473714193L588.6179999999999,303.49895562065973L592.7056249999999,307.8766784667969L596.79325,315.36123148600257L600.880875,312.96056789822046L604.9685,328.63568115234375L609.056125,303.8519592285156L613.14375,319.24466959635413L617.231375,320.16263834635413L621.319,288.17684597439234L625.406625,313.87845696343317L629.49425,318.6092631022135L633.581875,316.77340528700086L637.6695,306.3939039442274L641.757125,332.7309214274088L645.84475,323.9754757351345L649.932375,299.0506320529514L654.02,321.2217288547092L658.107625,298.62694803873694L662.19525,324.399159749349L666.282875,327.78839280870227L670.3705,323.8342742919922L674.458125,298.76814948187933L678.54575,316.49092271592883L682.633375,307.59427558051215L686.721,326.44681972927515L690.808625,297.3559756808811L694.89625,292.7664506700304L698.983875,283.9403245713976L703.0714999999999,326.58802117241754L707.1591249999999,333.9312930636936L711.2467499999999,301.5218963623047L715.3343749999999,297.77965969509546L719.4219999999999,312.32508171929254L723.5096249999999,313.7371758355035L727.5972499999999,287.32955763075086L731.6848749999999,306.605706108941L735.7724999999999,338.59149848090277L739.8601249999999,309.28885226779516L743.9477499999999,304.2050425211588L748.0353749999999,314.9375474717882L752.1229999999999,306.9587894015842L756.2106249999999,335.2023052639431L760.2982499999999,304.2050425211588L764.3858749999999,296.22620476616754L768.4735000000001,296.64988878038196L772.5611250000001,302.15738254123266L776.6487500000001,337.67356957329645L780.7363750000001,302.298583984375L784.8240000000001,328.28259785970056L788.9116250000001,308.582765367296L792.9992500000001,311.6895955403646L797.0868750000001,317.1264088948568L801.1745000000001,265.15838114420575L805.2621250000001,298.41514587402344L809.3497500000001,287.11767578125L813.4373750000001,307.94727918836804L817.5250000000001,292.6958499484592L821.6126250000001,283.0223558213976L825.7002500000001,283.23423767089844L829.7878750000001,288.6005299886068L833.8755,302.3692643907335L837.963125,303.49895562065973L842.05075,282.59875149197046L846.138375,285.0700158013238L850.226,289.09473503960504L854.313625,297.00297207302515L858.40125,292.48396809895837L862.488875,294.0374230278863L866.5765,270.10098944769965L870.664125,317.8324957953559L874.75175,307.73547702365454L878.839375,299.19183349609375L882.927,319.3859507242838L887.014625,295.1671142578125L891.10225,312.67808532714844L895.189875,306.0408206515842L899.2775,287.89444308810766L903.365125,305.05233086480035L907.45275,304.98173014322913L911.540375,288.8123321533203L915.628,296.296885172526L919.715625,295.5907185872396L923.80325,300.18032328287757L927.890875,300.1097225613064L931.9785,272.57233344184027L936.066125,303.2870737711588L940.1537500000001,270.7364756266276L944.2413750000001,259.7214881049262L948.3290000000001,302.15738254123266L952.4166250000001,282.0338660346137L956.5042500000001,302.934070163303L960.591875,300.8864101833767L964.6795,268.47701348198785L968.767125,278.079827202691L972.85475,275.2553999159071L976.942375,289.1653357611762L981.03,274.408191257053L985.117625,274.97307671440973L989.20525,273.56082322862414L993.292875,286.6940714518229L997.3805,295.6613989935981L1001.468125,282.1751471625434L1005.55575,277.65614318847656L1009.643375,274.69059414333765L1013.731,255.2731645372179L1017.818625,262.61651611328125L1021.90625,289.6596204969618L1025.9938750000001,258.23871358235675L1030.0815,256.1205325656467L1034.1691250000001,240.23353746202258L1038.25675,250.04815334743924L1042.3443750000001,257.673828125L1046.432,232.819585164388L1050.5196250000001,252.09581332736545L1054.60725,238.8919643825955L1058.6948750000001,251.81333075629342L1062.7825,229.64215426974826L1066.8701250000001,224.4171430799696L1070.95775,227.453372531467L1075.0453750000001,234.5848422580295L1079.133,249.97755262586804L1083.2206250000002,242.70480177137586L1087.30825,253.79039001464844L1091.3958750000002,230.3483208550347L1095.4835,218.6272464328342L1099.5711250000002,217.7798784044054L1103.65875,177.67420620388455L1107.7463750000002,202.599129570855L1111.834,212.90795050727L1115.9216250000002,205.7764807807075L1120.00925,197.58584086100262L1124.0968750000002,185.79416571723092L1128.1845,169.90725029839408L1132.2721250000002,178.5920952690972L1136.35975,142.22858005099826L1140.4473750000002,180.35735236273874L1144.535,150.13673739963107L1148.6226250000002,146.53570217556424L1152.7102499999999,139.121829562717L1156.797875,138.06265936957467L1160.8854999999999,146.2532992892795L1164.973125,144.84112548828125L1169.0607499999999,120.269285413954L1173.148375,115.11487494574655L1177.2359999999999,97.81570604112413L1181.323625,140.18092007107205L1185.4112499999999,109.67798190646702L1189.498875,111.37255859375L1193.5865,117.93914286295572L1197.674125,103.60560268825954L1201.76175,107.84212409125436L1205.849375,80.23413425021702L1209.937,85.67102728949655L1214.024625,77.69218953450522L1218.11225,80.09285312228734L1222.199875,105.86514451768663L1226.2875,108.47761027018228L1230.375125,66.32419840494791L1234.46275,60.46362135145399L1238.550375,83.76456875271266L1242.638,34.97389221191406L1246.725625,30.87865193684897L1250.81325,85.45914543999564L1254.900875,74.72664048936632L1258.9885,93.36738247341579L1263.076125,55.52109273274741L1267.16375,42.52904595269095L1271.251375,45.141591389973975L1275.339,-3.5078837076823195L1279.426625,19.228178236219613L1283.51425,12.308510674370641L1287.601875,41.75235833062064L1291.6895,43.09393141004774L1295.777125,45.70647684733071L1299.86475,48.107140435112825L1303.952375,32.92631191677516L1308.04,48.107140435112825L1312.127625,52.97914801703561L1316.21525,50.57848442925345L1320.302875,47.47165425618491L1324.3905,25.93596394856772L1328.478125,35.39757622612845L1332.56575,52.34366183810765L1336.653375,56.297780354817725L1340.741,43.87061903211805L1344.828625,28.68971082899305L1348.91625,68.65434095594618L1353.003875,25.865363226996546L1357.0915,51.42577277289499L1361.179125,21.134636773003454L1365.26675,31.372856987847204L1369.3543750000001,34.83277045355905L1373.442,65.19442749023438L1377.5296250000001,31.372856987847204L1381.61725,10.684534708658841L1385.7048750000001,27.418818155924466L1389.7925,41.32875400119359L1393.8801250000001,38.010121663411475L1397.96775,54.39132181803384L1402.0553750000001,28.477908664279525L1406.1429999999998,59.1927286783854L1410.230625,66.8184831407335L1414.3182499999998,54.60312398274741L1418.405875,63.4998508029514L1422.4934999999998,20.92275492350259L1426.581125,22.970414903428825L1430.6687499999998,62.58196173773874L1434.756375,44.6473863389757L1438.8439999999998,52.555464002821175L1442.931625,64.98262532552084L1447.0192499999998,-4.3550923665364305L1451.106875,45.84767829047311L1455.1944999999998,50.4372829861111L1459.282125,75.57392883300781L1463.3697499999998,36.45666673448351L1467.457375,34.47960747612845L1471.5449999999998,39.06921217176649L1475.632625,35.2563747829861L1479.7202499999999,63.288048638237825L1483.807875,50.29600185818141L1487.8954999999999,62.86436462402344L1491.983125,38.151323106553825L1496.0707499999999,65.97119479709202L1500.158375,56.50958251953125L1504.2459999999999,64.41773986816406L1508.333625,45.141591389973975L1512.4212499999999,68.8661431206597L1516.508875,69.00734456380209L1520.5964999999999,39.775299072265625L1524.684125,44.57670593261719L1528.7717499999999,55.66229417588976L1532.859375,72.82018195258249L1536.9470000000001,80.23413425021702L1541.034625,51.849456787109375L1545.1222500000001,55.80349561903211L1549.209875,52.48494296603734L1553.2975000000001,36.31546529134116L1557.385125,51.21397060818141L1561.4727500000001,67.87757364908853L1565.560375,44.223622639973975L1569.6480000000001,68.5130598280165L1573.735625,42.17596266004774L1577.8232500000001,54.39132181803384L1581.910875,61.028506808810775L1585.9985000000001,61.24038865831164L1590.086125,24.31198798285592L1594.1737500000002,63.21736823187936L1598.261375,61.946475558810775L1602.3490000000002,47.04804992675781L1606.436625,59.54581197102866L1610.5242500000002,44.6473863389757L1614.611875,64.91202460394967L1618.6995000000002,82.28179423014322L1622.787125,70.20763651529947L1626.8747500000002,66.11239624023438L1630.962375,86.51831563313803L1635.0500000000002,52.48494296603734L1639.137625,38.08072238498265L1643.2252500000002,63.07616678873696L1647.312875,69.64275105794272L1651.4005000000002,66.95968458387587L1655.488125,78.9631618923611L1659.5757500000002,80.44593641493056L1663.6633749999999,92.0964101155599L1667.751,68.72494167751735L1671.8386249999999,47.40105353461374L1675.92625,56.3683810763889L1680.0138749999999,60.39310031467015L1684.1015,79.38676622178819L1688.1891249999999,53.1204291449653L1692.27675,56.86266581217446L1696.3643749999999,63.14676751030814L1700.452,93.64978535970053L1704.539625,69.7840321858724L1708.62725,44.36490376790366L1712.714875,65.82991366916234L1716.8025,87.78928799099391L1720.890125,86.23583306206595L1724.97775,58.76904466417101L1729.065375,62.86436462402344L1733.153,79.10436333550345L1737.240625,78.53955756293405L1741.32825,83.83516947428384L1745.415875,67.80697292751735L1749.5035,54.46192253960501L1753.591125,60.95798577202689L1757.67875,73.031984117296L1761.766375,57.9923570421007L1765.854,75.36212666829428L1769.941625,66.39479912651908L1774.02925,80.7283393012153L1778.116875,67.52457004123265L1782.2045,62.370079888237825L1786.292125,52.83794657389321L1790.37975,70.27823723687064L1794.467375,73.949952867296L1798.555,77.7627902560764L1802.642625,82.35239495171439L1806.73025,58.76904466417101L1810.817875,82.98788113064235L1814.9055,61.38159010145399L1818.993125,65.33570861816406L1823.08075,89.20138210720485L1827.168375,87.57740614149306L1831.256,78.75128004286024L1835.343625,73.5968695746528" style="fill: none;" fill="none"></path></g></g></g></g></g></g><g transform="translate(53, 376)" clip-path="url(#clip_1)"><clipPath id="clip_1"><rect width="2043" height="24"></rect></clipPath><g><g><line x1="0" y1="0" x2="0" y2="5" style="visibility: inherit;" fill="rgb(0, 0, 0)" stroke="rgb(204, 204, 204)" stroke-width="1px"></line><line x1="204.38125000000002" y1="0" x2="204.38125000000002" y2="5" style="visibility: inherit;" fill="rgb(0, 0, 0)" stroke="rgb(204, 204, 204)" stroke-width="1px"></line><line x1="408.76250000000005" y1="0" x2="408.76250000000005" y2="5" style="visibility: inherit;" fill="rgb(0, 0, 0)" stroke="rgb(204, 204, 204)" stroke-width="1px"></line><line x1="613.14375" y1="0" x2="613.14375" y2="5" style="visibility: inherit;" fill="rgb(0, 0, 0)" stroke="rgb(204, 204, 204)" stroke-width="1px"></line><line x1="817.5250000000001" y1="0" x2="817.5250000000001" y2="5" style="visibility: inherit;" fill="rgb(0, 0, 0)" stroke="rgb(204, 204, 204)" stroke-width="1px"></line><line x1="1021.90625" y1="0" x2="1021.90625" y2="5" style="visibility: inherit;" fill="rgb(0, 0, 0)" stroke="rgb(204, 204, 204)" stroke-width="1px"></line><line x1="1226.2875" y1="0" x2="1226.2875" y2="5" style="visibility: inherit;" fill="rgb(0, 0, 0)" stroke="rgb(204, 204, 204)" stroke-width="1px"></line><line x1="1430.6687499999998" y1="0" x2="1430.6687499999998" y2="5" style="visibility: inherit;" fill="rgb(0, 0, 0)" stroke="rgb(204, 204, 204)" stroke-width="1px"></line><line x1="1635.0500000000002" y1="0" x2="1635.0500000000002" y2="5" style="visibility: inherit;" fill="rgb(0, 0, 0)" stroke="rgb(204, 204, 204)" stroke-width="1px"></line><line x1="1839.43125" y1="0" x2="1839.43125" y2="5" style="visibility: inherit;" fill="rgb(0, 0, 0)" stroke="rgb(204, 204, 204)" stroke-width="1px"></line><line x1="2043.8125" y1="0" x2="2043.8125" y2="5" style="visibility: inherit;" fill="rgb(0, 0, 0)" stroke="rgb(204, 204, 204)" stroke-width="1px"></line></g><g transform="translate(0, 8)"><text x="0" y="0" dx="0em" dy="0.95em" style="text-anchor: middle; visibility: hidden; font-family: Roboto, sans-serif; font-size: 12px; font-weight: 200;" fill="rgb(33, 33, 33)" stroke="none" stroke-width="1px">-50</text><text x="204.38125000000002" y="0" dx="0em" dy="0.95em" style="text-anchor: middle; visibility: inherit; font-family: Roboto, sans-serif; font-size: 12px; font-weight: 200;" fill="rgb(33, 33, 33)" stroke="none" stroke-width="1px">0</text><text x="408.76250000000005" y="0" dx="0em" dy="0.95em" style="text-anchor: middle; visibility: inherit; font-family: Roboto, sans-serif; font-size: 12px; font-weight: 200;" fill="rgb(33, 33, 33)" stroke="none" stroke-width="1px">50</text><text x="613.14375" y="0" dx="0em" dy="0.95em" style="text-anchor: middle; visibility: inherit; font-family: Roboto, sans-serif; font-size: 12px; font-weight: 200;" fill="rgb(33, 33, 33)" stroke="none" stroke-width="1px">100</text><text x="817.5250000000001" y="0" dx="0em" dy="0.95em" style="text-anchor: middle; visibility: inherit; font-family: Roboto, sans-serif; font-size: 12px; font-weight: 200;" fill="rgb(33, 33, 33)" stroke="none" stroke-width="1px">150</text><text x="1021.90625" y="0" dx="0em" dy="0.95em" style="text-anchor: middle; visibility: inherit; font-family: Roboto, sans-serif; font-size: 12px; font-weight: 200;" fill="rgb(33, 33, 33)" stroke="none" stroke-width="1px">200</text><text x="1226.2875" y="0" dx="0em" dy="0.95em" style="text-anchor: middle; visibility: inherit; font-family: Roboto, sans-serif; font-size: 12px; font-weight: 200;" fill="rgb(33, 33, 33)" stroke="none" stroke-width="1px">250</text><text x="1430.6687499999998" y="0" dx="0em" dy="0.95em" style="text-anchor: middle; visibility: inherit; font-family: Roboto, sans-serif; font-size: 12px; font-weight: 200;" fill="rgb(33, 33, 33)" stroke="none" stroke-width="1px">300</text><text x="1635.0500000000002" y="0" dx="0em" dy="0.95em" style="text-anchor: middle; visibility: inherit; font-family: Roboto, sans-serif; font-size: 12px; font-weight: 200;" fill="rgb(33, 33, 33)" stroke="none" stroke-width="1px">350</text><text x="1839.43125" y="0" dx="0em" dy="0.95em" style="text-anchor: middle; visibility: inherit; font-family: Roboto, sans-serif; font-size: 12px; font-weight: 200;" fill="rgb(33, 33, 33)" stroke="none" stroke-width="1px">400</text><text x="2043.8125" y="0" dx="0em" dy="0.95em" style="text-anchor: middle; visibility: hidden; font-family: Roboto, sans-serif; font-size: 12px; font-weight: 200;" fill="rgb(33, 33, 33)" stroke="none" stroke-width="1px">450</text></g><line x1="0" y1="0" x2="2043.8125" y2="0" fill="rgb(0, 0, 0)" stroke="rgb(204, 204, 204)" stroke-width="1px"></line></g></g></g></g></svg>