<svg viewBox="0 0 2097 400" xmlns="http://www.w3.org/2000/svg"><g><g><g><g><g><line x1="74.78125" y1="376" x2="69.78125" y2="376" style="visibility: inherit;" fill="rgb(0, 0, 0)" stroke="rgb(204, 204, 204)" stroke-width="1px"></line><line x1="74.78125" y1="338.40000000000003" x2="69.78125" y2="338.40000000000003" style="visibility: inherit;" fill="rgb(0, 0, 0)" stroke="rgb(204, 204, 204)" stroke-width="1px"></line><line x1="74.78125" y1="300.8" x2="69.78125" y2="300.8" style="visibility: inherit;" fill="rgb(0, 0, 0)" stroke="rgb(204, 204, 204)" stroke-width="1px"></line><line x1="74.78125" y1="263.2" x2="69.78125" y2="263.2" style="visibility: inherit;" fill="rgb(0, 0, 0)" stroke="rgb(204, 204, 204)" stroke-width="1px"></line><line x1="74.78125" y1="225.6" x2="69.78125" y2="225.6" style="visibility: inherit;" fill="rgb(0, 0, 0)" stroke="rgb(204, 204, 204)" stroke-width="1px"></line><line x1="74.78125" y1="188" x2="69.78125" y2="188" style="visibility: inherit;" fill="rgb(0, 0, 0)" stroke="rgb(204, 204, 204)" stroke-width="1px"></line><line x1="74.78125" y1="150.4" x2="69.78125" y2="150.4" style="visibility: inherit;" fill="rgb(0, 0, 0)" stroke="rgb(204, 204, 204)" stroke-width="1px"></line><line x1="74.78125" y1="112.80000000000001" x2="69.78125" y2="112.80000000000001" style="visibility: inherit;" fill="rgb(0, 0, 0)" stroke="rgb(204, 204, 204)" stroke-width="1px"></line><line x1="74.78125" y1="75.19999999999999" x2="69.78125" y2="75.19999999999999" style="visibility: inherit;" fill="rgb(0, 0, 0)" stroke="rgb(204, 204, 204)" stroke-width="1px"></line><line x1="74.78125" y1="37.599999999999994" x2="69.78125" y2="37.599999999999994" style="visibility: inherit;" fill="rgb(0, 0, 0)" stroke="rgb(204, 204, 204)" stroke-width="1px"></line><line x1="74.78125" y1="0" x2="69.78125" y2="0" style="visibility: inherit;" fill="rgb(0, 0, 0)" stroke="rgb(204, 204, 204)" stroke-width="1px"></line></g><g transform="translate(64.78125, 0)"><text x="0" y="376" dx="0em" dy="0.3em" style="text-anchor: end; visibility: hidden; font-family: Roboto, sans-serif; font-size: 12px; font-weight: 200;" fill="rgb(33, 33, 33)" stroke="none" stroke-width="1px">0</text><text x="0" y="338.40000000000003" dx="0em" dy="0.3em" style="text-anchor: end; visibility: inherit; font-family: Roboto, sans-serif; font-size: 12px; font-weight: 200;" fill="rgb(33, 33, 33)" stroke="none" stroke-width="1px">500</text><text x="0" y="300.8" dx="0em" dy="0.3em" style="text-anchor: end; visibility: inherit; font-family: Roboto, sans-serif; font-size: 12px; font-weight: 200;" fill="rgb(33, 33, 33)" stroke="none" stroke-width="1px">1e+3</text><text x="0" y="263.2" dx="0em" dy="0.3em" style="text-anchor: end; visibility: inherit; font-family: Roboto, sans-serif; font-size: 12px; font-weight: 200;" fill="rgb(33, 33, 33)" stroke="none" stroke-width="1px">1.5e+3</text><text x="0" y="225.6" dx="0em" dy="0.3em" style="text-anchor: end; visibility: inherit; font-family: Roboto, sans-serif; font-size: 12px; font-weight: 200;" fill="rgb(33, 33, 33)" stroke="none" stroke-width="1px">2e+3</text><text x="0" y="188" dx="0em" dy="0.3em" style="text-anchor: end; visibility: inherit; font-family: Roboto, sans-serif; font-size: 12px; font-weight: 200;" fill="rgb(33, 33, 33)" stroke="none" stroke-width="1px">2.5e+3</text><text x="0" y="150.4" dx="0em" dy="0.3em" style="text-anchor: end; visibility: inherit; font-family: Roboto, sans-serif; font-size: 12px; font-weight: 200;" fill="rgb(33, 33, 33)" stroke="none" stroke-width="1px">3e+3</text><text x="0" y="112.80000000000001" dx="0em" dy="0.3em" style="text-anchor: end; visibility: inherit; font-family: Roboto, sans-serif; font-size: 12px; font-weight: 200;" fill="rgb(33, 33, 33)" stroke="none" stroke-width="1px">3.5e+3</text><text x="0" y="75.19999999999999" dx="0em" dy="0.3em" style="text-anchor: end; visibility: inherit; font-family: Roboto, sans-serif; font-size: 12px; font-weight: 200;" fill="rgb(33, 33, 33)" stroke="none" stroke-width="1px">4e+3</text><text x="0" y="37.599999999999994" dx="0em" dy="0.3em" style="text-anchor: end; visibility: inherit; font-family: Roboto, sans-serif; font-size: 12px; font-weight: 200;" fill="rgb(33, 33, 33)" stroke="none" stroke-width="1px">4.5e+3</text><text x="0" y="0" dx="0em" dy="0.3em" style="text-anchor: end; visibility: hidden; font-family: Roboto, sans-serif; font-size: 12px; font-weight: 200;" fill="rgb(33, 33, 33)" stroke="none" stroke-width="1px">5e+3</text></g><line x1="74.78125" y1="0" x2="74.78125" y2="376" fill="rgb(0, 0, 0)" stroke="rgb(204, 204, 204)" stroke-width="1px"></line></g></g><g transform="translate(74, 0)" clip-path="url(#clip_0)"><clipPath id="clip_0"><rect width="2022" height="376"></rect></clipPath><g><g><g><line x1="0" y1="0" x2="0" y2="376" fill="rgb(0, 0, 0)" stroke="rgb(66, 66, 66)" stroke-width="1px" opacity="0.25"></line><line x1="202.221875" y1="0" x2="202.221875" y2="376" fill="rgb(0, 0, 0)" stroke="rgb(66, 66, 66)" stroke-width="1px" opacity="0.25"></line><line x1="404.44375" y1="0" x2="404.44375" y2="376" fill="rgb(0, 0, 0)" stroke="rgb(66, 66, 66)" stroke-width="1px" opacity="0.25"></line><line x1="606.665625" y1="0" x2="606.665625" y2="376" fill="rgb(0, 0, 0)" stroke="rgb(66, 66, 66)" stroke-width="1px" opacity="0.25"></line><line x1="808.8875" y1="0" x2="808.8875" y2="376" fill="rgb(0, 0, 0)" stroke="rgb(66, 66, 66)" stroke-width="1px" opacity="0.25"></line><line x1="1011.109375" y1="0" x2="1011.109375" y2="376" fill="rgb(0, 0, 0)" stroke="rgb(66, 66, 66)" stroke-width="1px" opacity="0.25"></line><line x1="1213.33125" y1="0" x2="1213.33125" y2="376" fill="rgb(0, 0, 0)" stroke="rgb(66, 66, 66)" stroke-width="1px" opacity="0.25"></line><line x1="1415.553125" y1="0" x2="1415.553125" y2="376" fill="rgb(0, 0, 0)" stroke="rgb(66, 66, 66)" stroke-width="1px" opacity="0.25"></line><line x1="1617.775" y1="0" x2="1617.775" y2="376" fill="rgb(0, 0, 0)" stroke="rgb(66, 66, 66)" stroke-width="1px" opacity="0.25"></line><line x1="1819.996875" y1="0" x2="1819.996875" y2="376" fill="rgb(0, 0, 0)" stroke="rgb(66, 66, 66)" stroke-width="1px" opacity="0.25"></line><line x1="2022.21875" y1="0" x2="2022.21875" y2="376" fill="rgb(0, 0, 0)" stroke="rgb(66, 66, 66)" stroke-width="1px" opacity="0.25"></line></g><g><line x1="0" y1="376" x2="2022.21875" y2="376" fill="rgb(0, 0, 0)" stroke="rgb(66, 66, 66)" stroke-width="1px" opacity="0.25"></line><line x1="0" y1="338.40000000000003" x2="2022.21875" y2="338.40000000000003" fill="rgb(0, 0, 0)" stroke="rgb(66, 66, 66)" stroke-width="1px" opacity="0.25"></line><line x1="0" y1="300.8" x2="2022.21875" y2="300.8" fill="rgb(0, 0, 0)" stroke="rgb(66, 66, 66)" stroke-width="1px" opacity="0.25"></line><line x1="0" y1="263.2" x2="2022.21875" y2="263.2" fill="rgb(0, 0, 0)" stroke="rgb(66, 66, 66)" stroke-width="1px" opacity="0.25"></line><line x1="0" y1="225.6" x2="2022.21875" y2="225.6" fill="rgb(0, 0, 0)" stroke="rgb(66, 66, 66)" stroke-width="1px" opacity="0.25"></line><line x1="0" y1="188" x2="2022.21875" y2="188" fill="rgb(0, 0, 0)" stroke="rgb(66, 66, 66)" stroke-width="1px" opacity="0.25"></line><line x1="0" y1="150.4" x2="2022.21875" y2="150.4" fill="rgb(0, 0, 0)" stroke="rgb(66, 66, 66)" stroke-width="1px" opacity="0.25"></line><line x1="0" y1="112.80000000000001" x2="2022.21875" y2="112.80000000000001" fill="rgb(0, 0, 0)" stroke="rgb(66, 66, 66)" stroke-width="1px" opacity="0.25"></line><line x1="0" y1="75.19999999999999" x2="2022.21875" y2="75.19999999999999" fill="rgb(0, 0, 0)" stroke="rgb(66, 66, 66)" stroke-width="1px" opacity="0.25"></line><line x1="0" y1="37.599999999999994" x2="2022.21875" y2="37.599999999999994" fill="rgb(0, 0, 0)" stroke="rgb(66, 66, 66)" stroke-width="1px" opacity="0.25"></line><line x1="0" y1="0" x2="2022.21875" y2="0" fill="rgb(0, 0, 0)" stroke="rgb(66, 66, 66)" stroke-width="1px" opacity="0.25"></line></g></g></g><g><g><line x1="0" y1="376" x2="2022.21875" y2="376" fill="rgb(0, 0, 0)" stroke="rgb(153, 153, 153)" stroke-width="1.5px"></line></g></g><g><g><line x1="202.221875" y1="0" x2="202.221875" y2="376" fill="rgb(0, 0, 0)" stroke="rgb(153, 153, 153)" stroke-width="1.5px"></line></g></g><g><g><g><g><g><path stroke="rgb(255, 112, 67)" stroke-width="2px" d="M202.221875,375.12862504882816L206.2663125,374.5629918891907L210.31074999999998,373.915964151437L214.3551875,373.21354645080567L218.399625,372.44032799940567L222.4440625,371.6129628488346L226.48850000000002,370.7442030888573L230.5329375,369.85100001354107L234.57737500000002,368.9386402059584L238.62181249999998,368.01393584656137L242.66625,367.0782360059151L246.7106875,366.128070947518L250.755125,365.1871248091916L254.7995625,364.26967898363773L258.844,363.3410735961385L262.8884375,362.4022052789401L266.932875,361.459869471938L270.97731250000004,360.5143267085682L275.02175,359.5662323634167L279.0661875,358.6169471325529L283.110625,357.66736549548125L287.1550625,356.71669992899785L291.1995,355.7652347285467L295.24393749999996,354.81175749106427L299.288375,353.8767540629594L303.3328125,353.00543292411726L307.37725,352.17053792340084L311.4216875,351.35920299799193L315.466125,350.5210891657679L319.5105625,349.6525940301153L323.555,348.75375012696765L327.5994375,347.83462232724906L331.64387500000004,346.89806421100195L335.6883125,345.9576122887186L339.73275,345.0131093101195L343.7771875,344.0671156935018L347.821625,343.1233469493229L351.8660625,342.1774771699878L355.91049999999996,341.2302687412886L359.95493749999997,340.27974097006506L363.999375,339.33046753049643L368.0438125,338.3769400881515L372.08825,337.4228164354279L376.1326875,336.4985986501591L380.177125,335.5732765337493L384.2215625,334.63594939675363L388.266,333.6933231145794L392.31043750000003,332.7444274624763L396.354875,331.79199050091046L400.3993125,330.8402854724136L404.44375,329.8906278850061L408.48818750000004,328.94075938725086L412.532625,327.99457758547385L416.57706249999995,327.0424654184708L420.62149999999997,326.0891725713944L424.6659375,325.1382538553363L428.710375,324.18648121945154L432.7548125,323.23284681760833L436.79925,322.2804655515024L440.8436875,321.3280815965264L444.888125,320.3766433719783L448.9325625,319.42440114037447L452.97700000000003,318.4986372467247L457.0214375,317.58860246522227L461.065875,316.7223224947584L465.1103125,315.84703255935506L469.15475000000004,314.95908836373803L473.19918750000005,314.0467656354303L477.24362499999995,313.1181322328207L481.28806249999997,312.1778930115674L485.3325,311.23767787725296L489.3769375,310.3166443826018L493.421375,309.4111626061236L497.46581249999997,308.48816861836167L501.51025,307.55443046789196L505.5546875,306.6155897260477L509.599125,305.67467516375365L513.6435625,304.73022505918965L517.688,303.7840006214513L521.7324375000001,302.8376497478708L525.776875,301.888931762785L529.8213125,300.94007132329597L533.86575,299.9936351377276L537.9101875,299.04900967638656L541.9546250000001,298.11781549333193L545.9990625,297.1813181241242L550.0435,296.2546446244745L554.0879375000001,295.3421308371847L558.132375,294.4249895960608L562.1768125000001,293.49978438263645L566.22125,292.5607740670819L570.2656874999999,291.61665319024917L574.310125,290.67155894539945L578.3545624999999,289.7181954453647L582.399,288.7618678922188L586.4434375,287.8130701103313L590.4878749999999,286.8720728474488L594.5323125,285.9341476147193L598.57675,284.99417708445657L602.6211875,284.05771609442394L606.665625,283.12036090665435L610.7100624999999,282.1934517783676L614.7545,281.26548122327057L618.7989375,280.35394068708734L622.843375,279.4361349591274L626.8878125,278.54127566297643L630.93225,277.6707959446609L634.9766875,276.7924978011715L639.021125,275.8858507119529L643.0655625,274.96237050529675L647.11,274.07620167817805L651.1544375,273.1903149912818L655.198875,272.3119633697691L659.2433125,271.4260009124865L663.2877500000001,270.5156107818669L667.3321875,269.5906448284951L671.376625,268.6627165845971L675.4210625000001,267.7346596382582L679.4655,266.79383547045495L683.5099375000001,265.84614776664796L687.554375,264.8980835818638L691.5988125,263.9500688991183L695.64325,263.00157719884595L699.6876874999999,262.0508531943076L703.732125,261.09807746345956L707.7765625,260.14372921245075L711.8209999999999,259.19037619934545L715.8654375,258.2361515789823L719.9098749999999,257.28015188488934L723.9543125,256.3244420684336L727.99875,255.36809836606014L732.0431874999999,254.41434487901114L736.087625,253.4616130992817L740.1320625,252.512409812694L744.1765,251.5618904188664L748.2209375,250.6089583919448L752.265375,249.6615626914169L756.3098125,248.71613753672514L760.35425,247.76926931891006L764.3986875,246.82305174759605L768.443125,245.8763653454326L772.4875625,244.92793256663455L776.532,243.97925610248072L780.5764375,243.03025717711347L784.6208750000001,242.07775641564305L788.6653125,241.12381916188582L792.70975,240.1715939971315L796.7541875000001,239.2204291326539L800.798625,238.26785521396735L804.8430625000001,237.3149976596304L808.8875,236.36235179890323L812.9319375,235.41127600121692L816.9763750000001,234.45806888198015L821.0208125,233.5000102354381L825.06525,232.54263911001286L829.1096875,231.58789830975772L833.1541249999999,230.63337711085467L837.1985625,229.67820556338776L841.2429999999999,228.7286289630327L845.2874375,227.77886229969457L849.331875,226.82723378606676L853.3763124999999,225.87846847476504L857.42075,224.929570459859L861.4651875,223.9780335259154L865.509625,223.02876136554923L869.5540625,222.08720041307956L873.5985,221.13941212284772L877.6429375,220.19359352370864L881.687375,219.24593111422513L885.7318125,218.2960902310351L889.77625,217.34682960737103L893.8206875,216.4006343269226L897.865125,215.4508585649036L901.9095625,214.50250357644214L905.9540000000001,213.5553535521153L909.9984375,212.6192885375192L914.042875,211.67750031001148L918.0873125,210.7298400297569L922.13175,209.77701886160412L926.1761875000001,208.8216592857125L930.220625,207.87932463392747L934.2650625,206.93477337410644L938.3095000000001,205.98847355571388L942.3539375,205.04348928967835L946.3983750000001,204.094968886307L950.4428125,203.1473671130342L954.4872499999999,202.20213042407048L958.5316875,201.2551549731923L962.5761249999999,200.30598329641538L966.6205625,199.35093341534926L970.665,198.37591395545954L974.7094374999999,197.39547806077573L978.753875,196.43596058646543L982.7983125,195.47902869562932L986.84275,194.52239971737757L990.8871875,193.57865717417653L994.9316249999999,192.63229180450594L998.9760625,191.70974008270355L1003.0205,190.8049354558721L1007.0649375,189.93448471102326L1011.109375,189.09011004536399L1015.1538125,188.22083618346844L1019.19825,187.36776764758105L1023.2426875,186.53967527604863L1027.287125,185.68039110312918L1031.3315625,184.78129325562753L1035.376,183.88420860962654L1039.4204375,182.96711579077592L1043.4648750000001,182.03492634946556L1047.5093125,181.09624924717932L1051.55375,180.15017657955758L1055.5981875,179.19757360398455L1059.642625,178.24544400614076L1063.6870625000001,177.29082249743445L1067.7315,176.33556506096062L1071.7759375,175.3840312240764L1075.820375,174.4322713906958L1079.8648125,173.48121314691753L1083.9092500000002,172.5309944506505L1087.9536875000001,171.58028073289032L1091.998125,170.62806562723418L1096.0425625,169.6774685950905L1100.087,168.7289880320543L1104.1314375000002,167.78095485048254L1108.1758750000001,166.84331712903952L1112.2203125,165.90437465242377L1116.26475,164.96091135395426L1120.3091875,164.01419946862256L1124.3536250000002,163.0702017124235L1128.3980625000002,162.1234482149541L1132.4425,161.17369002272244L1136.4869375,160.22591838863346L1140.5313749999998,159.2776496269301L1144.5758125,158.32599086990805L1148.62025,157.37745342819483L1152.6646875,156.42654408816693L1156.7091249999999,155.47244176540013L1160.7535624999998,154.5141617779901L1164.798,153.55336050429406L1168.8424375,152.61111692757643L1172.886875,151.6664293752959L1176.9313124999999,150.72026809392753L1180.9757499999998,149.77144538760655L1185.0201875,148.82269285756388L1189.064625,147.8701857145383L1193.1090625,146.92577314747297L1197.1535,145.9795051384838L1201.1979374999999,145.02927448934025L1205.242375,144.0915300061041L1209.2868125,143.1512603474125L1213.33125,142.2065821459475L1217.3756875,141.2855347563185L1221.4201249999999,140.40597726004106L1225.4645625,139.53368135602466L1229.509,138.65523350111476L1233.5534375,137.81179603816886L1237.597875,136.9644621541513L1241.6423125,136.09959619874078L1245.68675,135.2145686567445L1249.7311875,134.31231088154667L1253.775625,133.39371512267797L1257.8200625,132.4664181361068L1261.8645,131.5303533816641L1265.9089375,130.58587015399843L1269.953375,129.63698209239905L1273.9978125,128.68639847418947L1278.04225,127.73208033451365L1282.0866875,126.77814320070821L1286.131125,125.8222829516749L1290.1755625,124.86515133350495L1294.22,123.90926173760296L1298.2644375,122.95350782381176L1302.308875,121.99561750678706L1306.3533125000001,121.03977941032227L1310.39775,120.08585561494336L1314.4421875,119.12949665021598L1318.486625,118.1750033026296L1322.5310625,117.21985213782776L1326.5755000000001,116.26310190769667L1330.6199375,115.30958551961801L1334.664375,114.3558797492708L1338.7088125,113.39752925581249L1342.75325,112.44067333473751L1346.7976875000002,111.4872110320925L1350.8421250000001,110.53320724425552L1354.8865625,109.57994340905333L1358.931,108.65397229543201L1362.9754375,107.73310415850922L1367.0198750000002,106.8018220263555L1371.0643125000001,105.86281540331326L1375.10875,104.91584002323799L1379.1531875,103.96741745144276L1383.197625,103.02218765836568L1387.2420625000002,102.07612697001936L1391.2865,101.12842946326164L1395.3309375,100.18406799045697L1399.3753749999998,99.2360093880242L1403.4198124999998,98.2858573515645L1407.46425,97.33381034843872L1411.5086875,96.38164714656321L1415.553125,95.4285623504379L1419.5975624999999,94.47707631651274L1423.6419999999998,93.53006719615766L1427.6864375,92.58058156769457L1431.730875,91.63148269061675L1435.7753125,90.68169055187003L1439.8197499999999,89.73013854987202L1443.8641874999998,88.78058562992321L1447.908625,87.83081481545392L1451.9530625,86.8757506080224L1455.9975,85.92212223981343L1460.0419375,84.96746068763807L1464.0863749999999,84.01222328758287L1468.1308125,83.05571506629973L1472.17525,82.10419450852984L1476.2196875,81.15408764261791L1480.264125,80.20253774182076L1484.3085624999999,79.25329452009248L1488.353,78.3058759308055L1492.3974375,77.35769415223332L1496.441875,76.40920133508995L1500.4863125,75.45846564480395L1504.53075,74.50715532438234L1508.5751875,73.55725538212941L1512.619625,72.60572682302765L1516.6640625,71.65180375006659L1520.7085,70.70549881253997L1524.7529375,69.77799694377397L1528.797375,68.86997254126436L1532.8418125,67.96314039975866L1536.88625,67.06006392735516L1540.9306875,66.15311616891306L1544.975125,65.24101095134787L1549.0195625000001,64.32717719580876L1553.064,63.414436004985276L1557.1084375,62.49713629049115L1561.152875,61.56389739929473L1565.1973125,60.66022250207685L1569.2417500000001,59.76299131374613L1573.2861875,58.85833166324772L1577.330625,57.95326868544862L1581.3750625,57.060477461269166L1585.4195,56.15094710176151L1589.4639375000002,55.240127011056906L1593.5083750000001,54.31898620663418L1597.5528125,53.38376578648052L1601.59725,52.44231540938831L1605.6416875,51.495496745633L1609.6861250000002,50.55031867237977L1613.7305625000001,49.6059633909279L1617.775,48.659472722056705L1621.8194375,47.710011758234025L1625.863875,46.76130955494043L1629.9083125000002,45.81439917046422L1633.9527500000002,44.86572918977856L1637.9971875,43.91660563886717L1642.041625,42.96878150832029L1646.0860624999998,42.01715452999212L1650.1305,41.063583655495236L1654.1749375,40.11331144329715L1658.219375,39.162095615978274L1662.2638124999999,38.21351549458694L1666.3082499999998,37.267662421752135L1670.3526875,36.31967089055127L1674.397125,35.37190909683077L1678.4415625,34.42472577059848L1682.4859999999999,33.47518702485912L1686.5304374999998,32.52076877741544L1690.574875,31.568769078949288L1694.6193125,30.620864259869602L1698.66375,29.685785743421803L1702.7081875,28.758300196053103L1706.7526249999999,27.816981680131875L1710.7970625,26.869816195579162L1714.8415,25.922726279847492L1718.8859375,24.971554517908572L1722.930375,24.019784273245122L1726.9748124999999,23.06643587644707L1731.01925,22.11427027586827L1735.0636875,21.160669978020987L1739.108125,20.2176210493126L1743.1525625,19.280712004587613L1747.197,18.337719702752523L1751.2414375,17.392090884151532L1755.285875,16.445071092990883L1759.3303125,15.49479328079451L1763.37475,14.541400343476683L1767.4191875,13.589354893586016L1771.463625,12.653231373651657L1775.5080625,11.715836324191022L1779.5525,10.774123982014594L1783.5969375,9.825605951708749L1787.641375,8.873342321025206L1791.6858125,7.921328205115123L1795.73025,6.969184735569084L1799.7746875,6.013159591341458L1803.819125,5.073620129804825L1807.8635625,4.1351302028829435L1811.9080000000001,3.190205309229742L1815.9524375,2.2412138105378165" style="fill: none;" fill="none"></path></g></g></g></g><g opacity="0.2"><g><g><g><path stroke="rgb(255, 112, 67)" stroke-width="2px" d="M202.221875,375.12862504882816L206.2663125,374.2236119934082L210.31074999999998,373.29481752319333L214.3551875,372.3875032348633L218.399625,371.4308139892578L222.4440625,370.4684189941406L226.48850000000002,369.5018627319336L230.5329375,368.5487013549805L234.57737500000002,367.593086706543L238.62181249999998,366.6408576416016L242.66625,365.6831729736328L246.7106875,364.70799411621095L250.755125,363.77877795410154L254.7995625,362.8953076171875L258.844,361.9492570556641L262.8884375,360.9945649658203L266.932875,360.0467645263672L270.97731250000004,359.09625263671876L275.02175,358.1442352783203L279.0661875,357.19310605468746L283.110625,356.2430451171875L287.1550625,355.29073286132814L291.1995,354.33805571289065L295.24393749999996,353.3815529296875L299.288375,352.4742555664062L303.3328125,351.69845493164064L307.37725,350.91819755859376L311.4216875,350.1422018554688L315.466125,349.26391918945313L319.5105625,348.34985180664063L323.555,347.4054845703125L327.5994375,346.4559308105469L331.64387500000004,345.4932271484375L335.6883125,344.54693447265623L339.73275,343.5963548828125L343.7771875,342.64812529296876L347.821625,341.70769384765623L351.8660625,340.75867250976563L355.91049999999996,339.80945610351563L359.95493749999997,338.8539493164063L363.999375,337.9065573730469L368.0438125,336.9466489257813L372.08825,335.99163095703125L376.1326875,335.11227197265623L380.177125,334.185293359375L384.2215625,333.22995869140624L388.266,332.2793836914062L392.31043750000003,331.321083984375L396.354875,330.36333505859375L400.3993125,329.4127279296875L404.44375,328.4661415039063L408.48818750000004,327.515956640625L412.532625,326.5753048828125L416.57706249999995,325.61429716796874L420.62149999999997,324.65923330078124L424.6659375,323.71187578125L428.710375,322.758822265625L432.7548125,321.8023952148438L436.79925,320.85189365234373L440.8436875,319.89950566406253L444.888125,318.94948603515627L448.9325625,317.99603779296876L452.97700000000003,317.10999140625L457.0214375,316.22355029296875L461.065875,315.42290253906253L465.1103125,314.53409765624997L469.15475000000004,313.6271720703125L473.19918750000005,312.67828154296876L477.24362499999995,311.7251821289062L481.28806249999997,310.7675341796875L485.3325,309.82735517578124L489.3769375,308.935094140625L493.421375,308.05293994140624L497.46581249999997,307.10367763671877L501.51025,306.1538232421875L505.5546875,305.2073286132812L509.599125,304.2633033203125L513.6435625,303.31354990234377L517.688,302.36466396484377L521.7324375000001,301.41812343749996L525.776875,300.4658547851563L529.8213125,299.51678066406254L533.86575,298.573980859375L537.9101875,297.632071484375L541.9546250000001,296.72102421875L545.9990625,295.7765720703125L550.0435,294.864634375L554.0879375000001,293.97336015625L558.132375,293.049277734375L562.1768125000001,292.1119765625L566.22125,291.15225859375L570.2656874999999,290.200471875L574.310125,289.253917578125L578.3545624999999,288.2881501953125L582.399,287.3273765625L586.4434375,286.3898734375L590.4878749999999,285.460576953125L594.5323125,284.527259765625L598.57675,283.5842212890625L602.6211875,282.653024609375L606.665625,281.714328125L610.7100624999999,280.8030880859375L614.7545,279.873525390625L618.7989375,278.9866298828125L622.843375,278.0594263671875L626.8878125,277.19898671875L630.93225,276.3650763671875L634.9766875,275.4750505859375L639.021125,274.525880078125L643.0655625,273.5771501953125L647.11,272.7469484375L651.1544375,271.8614849609375L655.198875,270.9944359375L659.2433125,270.0970572265625L663.2877500000001,269.1500255859375L667.3321875,268.2031958984375L671.376625,267.27082421875L675.4210625000001,266.34257421875003L679.4655,265.38259921875L683.5099375000001,264.42461621093753L687.554375,263.4759873046875L691.5988125,262.52804687500003L695.64325,261.5788396484375L699.6876874999999,260.6247671875L703.732125,259.6689138671875L707.7765625,258.71220683593754L711.8209999999999,257.76034667968753L715.8654375,256.8048146484375L719.9098749999999,255.84615234375002L723.9543125,254.89087734375002L727.99875,253.9335828125L732.0431874999999,252.98371464843748L736.087625,252.03251542968746L740.1320625,251.08860488281252L744.1765,250.13611132812497L748.2209375,249.1795603515625L752.265375,248.240469140625L756.3098125,247.29799980468752L760.35425,246.3489669921875L764.3986875,245.40372539062503L768.443125,244.4563357421875L772.4875625,243.50528339843748L776.532,242.55624140625002L780.5764375,241.6067587890625L784.6208750000001,240.64900527343747L788.6653125,239.69291328125001L792.70975,238.74325625L796.7541875000001,237.79368183593746L800.798625,236.8389943359375L804.8430625000001,235.885711328125L808.8875,234.9333830078125L812.9319375,233.9846623046875L816.9763750000001,233.02825820312498L821.0208125,232.06292226562502L825.06525,231.106582421875L829.1096875,230.155787109375L833.1541249999999,229.2015953125L837.1985625,228.24544824218748L841.2429999999999,227.3042640625L845.2874375,226.3542123046875L849.331875,225.399791015625L853.3763124999999,224.45532050781247L857.42075,223.50622343749995L861.4651875,222.550728125L865.509625,221.60485312500003L869.5540625,220.674858984375L873.5985,219.71772968750003L877.6429375,218.77486562500002L881.687375,217.8244375L885.7318125,216.87132890625003L889.77625,215.92293867187502L893.8206875,214.98134140624998L897.865125,214.026194921875L901.9095625,213.07997109375L905.9540000000001,212.134628515625L909.9984375,211.21519101562498L914.042875,210.26481796874998L918.0873125,209.308349609375L922.13175,208.34778710937502L926.1761875000001,207.388619921875L930.220625,206.46582265625L934.2650625,205.51794648437505L938.3095000000001,204.56902382812498L942.3539375,203.62601289062496L946.3983750000001,202.67218828125002L950.4428125,201.725964453125L954.4872499999999,200.784275390625L958.5316875,199.83469179687498L962.5761249999999,198.88222578125L966.6205625,197.91835859375L970.665,196.913384765625L974.7094374999999,195.92482421875L978.753875,194.996684375L982.7983125,194.04363085937499L986.84275,193.08745625L990.8871875,192.16304335937497L994.9316249999999,191.21274375L998.9760625,190.3259125L1003.0205,189.447728515625L1007.0649375,188.62880859375L1011.109375,187.823548046875L1015.1538125,186.91692539062498L1019.19825,186.08816484375L1023.2426875,185.29753671875L1027.287125,184.39146484375001L1031.3315625,183.432646484375L1035.376,182.538581640625L1039.4204375,181.59147656250002L1043.4648750000001,180.6366421875L1047.5093125,179.68823359375L1051.55375,178.731067578125L1055.5981875,177.76866914062498L1059.642625,176.817249609375L1063.6870625000001,175.858890234375L1067.7315,174.90267890625L1071.7759375,173.95673046875L1075.820375,173.004631640625L1079.8648125,172.05462578125L1083.9092500000002,171.10566640625L1087.9536875000001,170.15421015624997L1091.998125,169.19974296875L1096.0425625,168.251573046875L1100.087,167.3062671875L1104.1314375000002,166.358905078125L1108.1758750000001,165.436860546875L1112.2203125,164.4959609375L1116.26475,163.54571640625002L1120.3091875,162.594131640625L1124.3536250000002,161.654205078125L1128.3980625000002,160.70331796875L1132.4425,159.749052734375L1136.4869375,158.8042609375L1140.5313749999998,157.855246484375L1144.5758125,156.898502734375L1148.62025,155.95464726562497L1152.6646875,155.000180078125L1156.7091249999999,154.04128828125002L1160.7535624999998,153.076741796875L1164.798,152.11215859374997L1168.8424375,151.1977515625L1172.886875,150.249398046875L1176.9313124999999,149.30102617187498L1180.9757499999998,148.34821132812502L1185.0201875,147.3995640625L1189.064625,146.441425L1193.1090625,145.509154296875L1197.1535,144.560103125L1201.1979374999999,143.603928515625L1205.242375,142.68491328125L1209.2868125,141.740855859375L1213.33125,140.78956484375001L1217.3756875,139.90396367187498L1221.4201249999999,139.086641015625L1225.4645625,138.22523750000002L1229.509,137.33756171875L1233.5534375,136.54663984375L1237.597875,135.69346132812498L1241.6423125,134.802297265625L1245.68675,133.88702734375002L1249.7311875,132.95892421875L1253.775625,132.015821484375L1257.8200625,131.07547265624999L1261.8645,130.12625624999998L1265.9089375,129.1691453125L1269.953375,128.21365L1273.9978125,127.26052304687501L1278.04225,126.30060312499998L1282.0866875,125.34723750000002L1286.131125,124.38849257812498L1290.1755625,123.42945390624998L1294.22,122.47542734375001L1298.2644375,121.51987695312502L1302.308875,120.55878203124999L1306.3533125000001,119.606022265625L1310.39775,118.654969921875L1314.4421875,117.69495820312498L1318.486625,116.74326328125002L1322.5310625,115.787125390625L1326.5755000000001,114.82797656249998L1330.6199375,113.87931093750001L1334.664375,112.92532109374999L1338.7088125,111.96000351562498L1342.75325,111.00538945312499L1346.7976875000002,110.05701757812498L1350.8421250000001,109.10220156250001L1354.8865625,108.15004765625L1358.931,107.26501562499999L1362.9754375,106.351801953125L1367.0198750000002,105.40489882812501L1371.0643125000001,104.45430546875002L1375.10875,103.49537695312499L1379.1531875,102.54478359375L1383.197625,101.60434296875L1387.2420625000002,100.65703593750001L1391.2865,99.706883203125L1395.3309375,98.76752578124999L1399.3753749999998,97.81392148437499L1403.4198124999998,96.860629296875L1407.46425,95.90573984375001L1411.5086875,94.95340234375L1415.553125,93.99893515625001L1419.5975624999999,93.04984726562498L1423.6419999999998,92.109553515625L1427.6864375,91.15635312499998L1431.730875,90.20783437500002L1435.7753125,89.25700234375L1439.8197499999999,88.302810546875L1443.8641874999998,87.35625624999999L1447.908625,86.40615859374999L1451.9530625,85.44315429687498L1455.9975,84.49167968750001L1460.0419375,83.535468359375L1464.0863749999999,82.57936718750001L1468.1308125,81.62095273437498L1472.17525,80.67691367187501L1476.2196875,79.72892734375L1480.264125,78.775212890625L1484.3085624999999,77.82942968750001L1488.353,76.88474804687499L1492.3974375,75.93542148437501L1496.441875,74.98646210937498L1500.4863125,74.032362109375L1504.53075,73.08018984374998L1508.5751875,72.13240546875L1512.619625,71.17843398437502L1516.6640625,70.22091914062501L1520.7085,69.28604140624999L1524.7529375,68.38674414062498L1528.797375,67.50793593750001L1532.8418125,66.60289218750002L1536.88625,65.70544921875L1540.9306875,64.79269453124998L1544.975125,63.87285312499999L1549.0195625000001,62.956426562499985L1553.064,62.04532421875001L1557.1084375,61.12118671875002L1561.152875,60.1640390625L1565.1973125,59.30471015625002L1569.2417500000001,58.41714453124998L1573.2861875,57.50134218749998L1577.330625,56.595674218749984L1581.3750625,55.72129062500002L1585.4195,54.78665156249999L1589.4639375000002,53.873896875000014L1593.5083750000001,52.93727499999998L1597.5528125,51.98093515625001L1601.59725,51.030139843749986L1605.6416875,50.07526874999998L1609.6861250000002,49.13255156250001L1613.7305625000001,48.18943046874998L1617.775,47.23973671875002L1621.8194375,46.28582031249998L1625.863875,45.33825624999998L1629.9083125000002,44.39403359375002L1633.9527500000002,43.442724218749994L1637.9971875,42.49292031250001L1642.041625,41.5470453125L1646.0860624999998,40.58971406249999L1650.1305,39.63322734375002L1654.1749375,38.687903125L1658.219375,37.73527187500002L1662.2638124999999,36.79064531249999L1666.3082499999998,35.84888281249999L1670.3526875,34.89768359374998L1674.397125,33.95026640624999L1678.4415625,33.003950781250005L1682.4859999999999,32.050878906250006L1686.5304374999998,31.089141406250015L1690.574875,30.140769531250008L1694.6193125,29.199007031250012L1698.66375,28.28316796875002L1702.7081875,27.367071875000008L1706.7526249999999,26.405003906250016L1710.7970625,25.449067968749986L1714.8415,24.502091406250006L1718.8859375,23.544796874999985L1722.930375,22.59212890625001L1726.9748124999999,21.63641328125001L1731.01925,20.68602187500001L1735.0636875,19.730269531250016L1739.108125,18.80304765625L1743.1525625,17.875348437499984L1747.197,16.923231249999997L1751.2414375,15.973647656250002L1755.285875,15.024541406250012L1759.3303125,14.069376562499997L1763.37475,13.111310937500003L1767.4191875,12.161286718749992L1771.463625,11.249046093750016L1775.5080625,10.309743749999985L1779.5525,9.361555468750016L1783.5969375,8.402828906250019L1787.641375,7.44494687500002L1791.6858125,6.493307031249998L1795.73025,5.540969531249984L1799.7746875,4.57912187500002L1803.819125,3.6643109375000202L1807.8635625,2.7273953125000174L1811.9080000000001,1.7728179687499814L1815.9524375,0.817726562499991" style="fill: none;" fill="none"></path></g></g></g></g></g><g><g opacity="0.486864"><span fill="rgb(0, 0, 0)" stroke="none" stroke-width="1px">Alt + Scroll to Zoom</span></g></g></g><g transform="translate(74, 376)" clip-path="url(#clip_1)"><clipPath id="clip_1"><rect width="2022" height="24"></rect></clipPath><g><g><line x1="0" y1="0" x2="0" y2="5" style="visibility: inherit;" fill="rgb(0, 0, 0)" stroke="rgb(204, 204, 204)" stroke-width="1px"></line><line x1="202.221875" y1="0" x2="202.221875" y2="5" style="visibility: inherit;" fill="rgb(0, 0, 0)" stroke="rgb(204, 204, 204)" stroke-width="1px"></line><line x1="404.44375" y1="0" x2="404.44375" y2="5" style="visibility: inherit;" fill="rgb(0, 0, 0)" stroke="rgb(204, 204, 204)" stroke-width="1px"></line><line x1="606.665625" y1="0" x2="606.665625" y2="5" style="visibility: inherit;" fill="rgb(0, 0, 0)" stroke="rgb(204, 204, 204)" stroke-width="1px"></line><line x1="808.8875" y1="0" x2="808.8875" y2="5" style="visibility: inherit;" fill="rgb(0, 0, 0)" stroke="rgb(204, 204, 204)" stroke-width="1px"></line><line x1="1011.109375" y1="0" x2="1011.109375" y2="5" style="visibility: inherit;" fill="rgb(0, 0, 0)" stroke="rgb(204, 204, 204)" stroke-width="1px"></line><line x1="1213.33125" y1="0" x2="1213.33125" y2="5" style="visibility: inherit;" fill="rgb(0, 0, 0)" stroke="rgb(204, 204, 204)" stroke-width="1px"></line><line x1="1415.553125" y1="0" x2="1415.553125" y2="5" style="visibility: inherit;" fill="rgb(0, 0, 0)" stroke="rgb(204, 204, 204)" stroke-width="1px"></line><line x1="1617.775" y1="0" x2="1617.775" y2="5" style="visibility: inherit;" fill="rgb(0, 0, 0)" stroke="rgb(204, 204, 204)" stroke-width="1px"></line><line x1="1819.996875" y1="0" x2="1819.996875" y2="5" style="visibility: inherit;" fill="rgb(0, 0, 0)" stroke="rgb(204, 204, 204)" stroke-width="1px"></line><line x1="2022.21875" y1="0" x2="2022.21875" y2="5" style="visibility: inherit;" fill="rgb(0, 0, 0)" stroke="rgb(204, 204, 204)" stroke-width="1px"></line></g><g transform="translate(0, 8)"><text x="0" y="0" dx="0em" dy="0.95em" style="text-anchor: middle; visibility: hidden; font-family: Roboto, sans-serif; font-size: 12px; font-weight: 200;" fill="rgb(33, 33, 33)" stroke="none" stroke-width="1px">-50</text><text x="202.221875" y="0" dx="0em" dy="0.95em" style="text-anchor: middle; visibility: inherit; font-family: Roboto, sans-serif; font-size: 12px; font-weight: 200;" fill="rgb(33, 33, 33)" stroke="none" stroke-width="1px">0</text><text x="404.44375" y="0" dx="0em" dy="0.95em" style="text-anchor: middle; visibility: inherit; font-family: Roboto, sans-serif; font-size: 12px; font-weight: 200;" fill="rgb(33, 33, 33)" stroke="none" stroke-width="1px">50</text><text x="606.665625" y="0" dx="0em" dy="0.95em" style="text-anchor: middle; visibility: inherit; font-family: Roboto, sans-serif; font-size: 12px; font-weight: 200;" fill="rgb(33, 33, 33)" stroke="none" stroke-width="1px">100</text><text x="808.8875" y="0" dx="0em" dy="0.95em" style="text-anchor: middle; visibility: inherit; font-family: Roboto, sans-serif; font-size: 12px; font-weight: 200;" fill="rgb(33, 33, 33)" stroke="none" stroke-width="1px">150</text><text x="1011.109375" y="0" dx="0em" dy="0.95em" style="text-anchor: middle; visibility: inherit; font-family: Roboto, sans-serif; font-size: 12px; font-weight: 200;" fill="rgb(33, 33, 33)" stroke="none" stroke-width="1px">200</text><text x="1213.33125" y="0" dx="0em" dy="0.95em" style="text-anchor: middle; visibility: inherit; font-family: Roboto, sans-serif; font-size: 12px; font-weight: 200;" fill="rgb(33, 33, 33)" stroke="none" stroke-width="1px">250</text><text x="1415.553125" y="0" dx="0em" dy="0.95em" style="text-anchor: middle; visibility: inherit; font-family: Roboto, sans-serif; font-size: 12px; font-weight: 200;" fill="rgb(33, 33, 33)" stroke="none" stroke-width="1px">300</text><text x="1617.775" y="0" dx="0em" dy="0.95em" style="text-anchor: middle; visibility: inherit; font-family: Roboto, sans-serif; font-size: 12px; font-weight: 200;" fill="rgb(33, 33, 33)" stroke="none" stroke-width="1px">350</text><text x="1819.996875" y="0" dx="0em" dy="0.95em" style="text-anchor: middle; visibility: inherit; font-family: Roboto, sans-serif; font-size: 12px; font-weight: 200;" fill="rgb(33, 33, 33)" stroke="none" stroke-width="1px">400</text><text x="2022.21875" y="0" dx="0em" dy="0.95em" style="text-anchor: middle; visibility: hidden; font-family: Roboto, sans-serif; font-size: 12px; font-weight: 200;" fill="rgb(33, 33, 33)" stroke="none" stroke-width="1px">450</text></g><line x1="0" y1="0" x2="2022.21875" y2="0" fill="rgb(0, 0, 0)" stroke="rgb(204, 204, 204)" stroke-width="1px"></line></g></g></g></g></svg>