<svg viewBox="0 0 2097 400" xmlns="http://www.w3.org/2000/svg"><g><g><g><g><g><line x1="53.1875" y1="344.6666666666668" x2="48.1875" y2="344.6666666666668" style="visibility: inherit;" fill="rgb(0, 0, 0)" stroke="rgb(204, 204, 204)" stroke-width="1px"></line><line x1="53.1875" y1="313.3333333333335" x2="48.1875" y2="313.3333333333335" style="visibility: inherit;" fill="rgb(0, 0, 0)" stroke="rgb(204, 204, 204)" stroke-width="1px"></line><line x1="53.1875" y1="282.00000000000006" x2="48.1875" y2="282.00000000000006" style="visibility: inherit;" fill="rgb(0, 0, 0)" stroke="rgb(204, 204, 204)" stroke-width="1px"></line><line x1="53.1875" y1="250.66666666666669" x2="48.1875" y2="250.66666666666669" style="visibility: inherit;" fill="rgb(0, 0, 0)" stroke="rgb(204, 204, 204)" stroke-width="1px"></line><line x1="53.1875" y1="219.3333333333334" x2="48.1875" y2="219.3333333333334" style="visibility: inherit;" fill="rgb(0, 0, 0)" stroke="rgb(204, 204, 204)" stroke-width="1px"></line><line x1="53.1875" y1="188" x2="48.1875" y2="188" style="visibility: inherit;" fill="rgb(0, 0, 0)" stroke="rgb(204, 204, 204)" stroke-width="1px"></line><line x1="53.1875" y1="156.66666666666683" x2="48.1875" y2="156.66666666666683" style="visibility: inherit;" fill="rgb(0, 0, 0)" stroke="rgb(204, 204, 204)" stroke-width="1px"></line><line x1="53.1875" y1="125.33333333333343" x2="48.1875" y2="125.33333333333343" style="visibility: inherit;" fill="rgb(0, 0, 0)" stroke="rgb(204, 204, 204)" stroke-width="1px"></line><line x1="53.1875" y1="94.00000000000009" x2="48.1875" y2="94.00000000000009" style="visibility: inherit;" fill="rgb(0, 0, 0)" stroke="rgb(204, 204, 204)" stroke-width="1px"></line><line x1="53.1875" y1="62.666666666666735" x2="48.1875" y2="62.666666666666735" style="visibility: inherit;" fill="rgb(0, 0, 0)" stroke="rgb(204, 204, 204)" stroke-width="1px"></line><line x1="53.1875" y1="31.333333333333346" x2="48.1875" y2="31.333333333333346" style="visibility: inherit;" fill="rgb(0, 0, 0)" stroke="rgb(204, 204, 204)" stroke-width="1px"></line><line x1="53.1875" y1="0" x2="48.1875" y2="0" style="visibility: inherit;" fill="rgb(0, 0, 0)" stroke="rgb(204, 204, 204)" stroke-width="1px"></line></g><g transform="translate(43.1875, 0)"><text x="0" y="344.6666666666668" dx="0em" dy="0.3em" style="text-anchor: end; visibility: inherit; font-family: Roboto, sans-serif; font-size: 12px; font-weight: 200;" fill="rgb(33, 33, 33)" stroke="none" stroke-width="1px">0.58</text><text x="0" y="313.3333333333335" dx="0em" dy="0.3em" style="text-anchor: end; visibility: inherit; font-family: Roboto, sans-serif; font-size: 12px; font-weight: 200;" fill="rgb(33, 33, 33)" stroke="none" stroke-width="1px">0.6</text><text x="0" y="282.00000000000006" dx="0em" dy="0.3em" style="text-anchor: end; visibility: inherit; font-family: Roboto, sans-serif; font-size: 12px; font-weight: 200;" fill="rgb(33, 33, 33)" stroke="none" stroke-width="1px">0.62</text><text x="0" y="250.66666666666669" dx="0em" dy="0.3em" style="text-anchor: end; visibility: inherit; font-family: Roboto, sans-serif; font-size: 12px; font-weight: 200;" fill="rgb(33, 33, 33)" stroke="none" stroke-width="1px">0.64</text><text x="0" y="219.3333333333334" dx="0em" dy="0.3em" style="text-anchor: end; visibility: inherit; font-family: Roboto, sans-serif; font-size: 12px; font-weight: 200;" fill="rgb(33, 33, 33)" stroke="none" stroke-width="1px">0.66</text><text x="0" y="188" dx="0em" dy="0.3em" style="text-anchor: end; visibility: inherit; font-family: Roboto, sans-serif; font-size: 12px; font-weight: 200;" fill="rgb(33, 33, 33)" stroke="none" stroke-width="1px">0.68</text><text x="0" y="156.66666666666683" dx="0em" dy="0.3em" style="text-anchor: end; visibility: inherit; font-family: Roboto, sans-serif; font-size: 12px; font-weight: 200;" fill="rgb(33, 33, 33)" stroke="none" stroke-width="1px">0.7</text><text x="0" y="125.33333333333343" dx="0em" dy="0.3em" style="text-anchor: end; visibility: inherit; font-family: Roboto, sans-serif; font-size: 12px; font-weight: 200;" fill="rgb(33, 33, 33)" stroke="none" stroke-width="1px">0.72</text><text x="0" y="94.00000000000009" dx="0em" dy="0.3em" style="text-anchor: end; visibility: inherit; font-family: Roboto, sans-serif; font-size: 12px; font-weight: 200;" fill="rgb(33, 33, 33)" stroke="none" stroke-width="1px">0.74</text><text x="0" y="62.666666666666735" dx="0em" dy="0.3em" style="text-anchor: end; visibility: inherit; font-family: Roboto, sans-serif; font-size: 12px; font-weight: 200;" fill="rgb(33, 33, 33)" stroke="none" stroke-width="1px">0.76</text><text x="0" y="31.333333333333346" dx="0em" dy="0.3em" style="text-anchor: end; visibility: inherit; font-family: Roboto, sans-serif; font-size: 12px; font-weight: 200;" fill="rgb(33, 33, 33)" stroke="none" stroke-width="1px">0.78</text><text x="0" y="0" dx="0em" dy="0.3em" style="text-anchor: end; visibility: hidden; font-family: Roboto, sans-serif; font-size: 12px; font-weight: 200;" fill="rgb(33, 33, 33)" stroke="none" stroke-width="1px">0.8</text></g><line x1="53.1875" y1="0" x2="53.1875" y2="376" fill="rgb(0, 0, 0)" stroke="rgb(204, 204, 204)" stroke-width="1px"></line></g></g><g transform="translate(53, 0)" clip-path="url(#clip_0)"><clipPath id="clip_0"><rect width="2043" height="376"></rect></clipPath><g><g><g><line x1="0" y1="0" x2="0" y2="376" fill="rgb(0, 0, 0)" stroke="rgb(66, 66, 66)" stroke-width="1px" opacity="0.25"></line><line x1="204.38125000000002" y1="0" x2="204.38125000000002" y2="376" fill="rgb(0, 0, 0)" stroke="rgb(66, 66, 66)" stroke-width="1px" opacity="0.25"></line><line x1="408.76250000000005" y1="0" x2="408.76250000000005" y2="376" fill="rgb(0, 0, 0)" stroke="rgb(66, 66, 66)" stroke-width="1px" opacity="0.25"></line><line x1="613.14375" y1="0" x2="613.14375" y2="376" fill="rgb(0, 0, 0)" stroke="rgb(66, 66, 66)" stroke-width="1px" opacity="0.25"></line><line x1="817.5250000000001" y1="0" x2="817.5250000000001" y2="376" fill="rgb(0, 0, 0)" stroke="rgb(66, 66, 66)" stroke-width="1px" opacity="0.25"></line><line x1="1021.90625" y1="0" x2="1021.90625" y2="376" fill="rgb(0, 0, 0)" stroke="rgb(66, 66, 66)" stroke-width="1px" opacity="0.25"></line><line x1="1226.2875" y1="0" x2="1226.2875" y2="376" fill="rgb(0, 0, 0)" stroke="rgb(66, 66, 66)" stroke-width="1px" opacity="0.25"></line><line x1="1430.6687499999998" y1="0" x2="1430.6687499999998" y2="376" fill="rgb(0, 0, 0)" stroke="rgb(66, 66, 66)" stroke-width="1px" opacity="0.25"></line><line x1="1635.0500000000002" y1="0" x2="1635.0500000000002" y2="376" fill="rgb(0, 0, 0)" stroke="rgb(66, 66, 66)" stroke-width="1px" opacity="0.25"></line><line x1="1839.43125" y1="0" x2="1839.43125" y2="376" fill="rgb(0, 0, 0)" stroke="rgb(66, 66, 66)" stroke-width="1px" opacity="0.25"></line><line x1="2043.8125" y1="0" x2="2043.8125" y2="376" fill="rgb(0, 0, 0)" stroke="rgb(66, 66, 66)" stroke-width="1px" opacity="0.25"></line></g><g><line x1="0" y1="344.6666666666668" x2="2043.8125" y2="344.6666666666668" fill="rgb(0, 0, 0)" stroke="rgb(66, 66, 66)" stroke-width="1px" opacity="0.25"></line><line x1="0" y1="313.3333333333335" x2="2043.8125" y2="313.3333333333335" fill="rgb(0, 0, 0)" stroke="rgb(66, 66, 66)" stroke-width="1px" opacity="0.25"></line><line x1="0" y1="282.00000000000006" x2="2043.8125" y2="282.00000000000006" fill="rgb(0, 0, 0)" stroke="rgb(66, 66, 66)" stroke-width="1px" opacity="0.25"></line><line x1="0" y1="250.66666666666669" x2="2043.8125" y2="250.66666666666669" fill="rgb(0, 0, 0)" stroke="rgb(66, 66, 66)" stroke-width="1px" opacity="0.25"></line><line x1="0" y1="219.3333333333334" x2="2043.8125" y2="219.3333333333334" fill="rgb(0, 0, 0)" stroke="rgb(66, 66, 66)" stroke-width="1px" opacity="0.25"></line><line x1="0" y1="188" x2="2043.8125" y2="188" fill="rgb(0, 0, 0)" stroke="rgb(66, 66, 66)" stroke-width="1px" opacity="0.25"></line><line x1="0" y1="156.66666666666683" x2="2043.8125" y2="156.66666666666683" fill="rgb(0, 0, 0)" stroke="rgb(66, 66, 66)" stroke-width="1px" opacity="0.25"></line><line x1="0" y1="125.33333333333343" x2="2043.8125" y2="125.33333333333343" fill="rgb(0, 0, 0)" stroke="rgb(66, 66, 66)" stroke-width="1px" opacity="0.25"></line><line x1="0" y1="94.00000000000009" x2="2043.8125" y2="94.00000000000009" fill="rgb(0, 0, 0)" stroke="rgb(66, 66, 66)" stroke-width="1px" opacity="0.25"></line><line x1="0" y1="62.666666666666735" x2="2043.8125" y2="62.666666666666735" fill="rgb(0, 0, 0)" stroke="rgb(66, 66, 66)" stroke-width="1px" opacity="0.25"></line><line x1="0" y1="31.333333333333346" x2="2043.8125" y2="31.333333333333346" fill="rgb(0, 0, 0)" stroke="rgb(66, 66, 66)" stroke-width="1px" opacity="0.25"></line><line x1="0" y1="0" x2="2043.8125" y2="0" fill="rgb(0, 0, 0)" stroke="rgb(66, 66, 66)" stroke-width="1px" opacity="0.25"></line></g></g></g><g><g><line x1="0" y1="1253.3333333333335" x2="2043.8125" y2="1253.3333333333335" fill="rgb(0, 0, 0)" stroke="rgb(153, 153, 153)" stroke-width="1.5px"></line></g></g><g><g><line x1="204.38125000000002" y1="0" x2="204.38125000000002" y2="376" fill="rgb(0, 0, 0)" stroke="rgb(153, 153, 153)" stroke-width="1.5px"></line></g></g><g><g><g><g><g><path stroke="rgb(255, 112, 67)" stroke-width="2px" d="M245.2575,378.043632301669L249.345125,372.92224839589267L253.43275,366.26429946191064L257.520375,360.27324363021773L261.608,355.9524190468572L265.695625,352.99671355363364L269.78325,350.7864298940711L273.870875,344.40660079157914L277.9585,343.1383509281974L282.046125,341.16267372926933L286.13375,337.5801434392653L290.22137499999997,335.18773337038266L294.30899999999997,332.91004507947747L298.396625,330.69311575186174L302.48425,327.9457793573405L306.571875,327.3096674125432L310.6595,324.10977124142244L314.747125,321.2504261198158L318.83475,319.03273112099055L322.922375,315.45885042726167L327.01,314.77223138669615L331.097625,312.1413124334636L335.18525,308.4166879106276L339.272875,305.25060978294346L343.3605,302.4277648843497L347.448125,299.53549915651513L351.53574999999995,301.4200951420672L355.62337499999995,298.2911280931123L359.71099999999996,296.60809159744855L363.79862499999996,294.5050068696186L367.88624999999996,292.7896250869888L371.97387499999996,291.3636031294591L376.06149999999997,290.9614835506346L380.14912499999997,288.86567288555153L384.23675000000003,288.8796568746429L388.32437500000003,286.41805542503704L392.41200000000003,285.81569735005183L396.49962500000004,285.6243472722807L400.58725000000004,283.99516519470643L404.67487500000004,281.7461855603889L408.76250000000005,281.2795433636664L412.85012500000005,280.9104729435528L416.93775,278.5267466351359L421.025375,276.8454664177662L425.113,274.61386052133287L429.200625,273.69600618299796L433.28825,271.9872246051841L437.375875,270.23310132016803L441.4635,269.01866801891754L445.551125,269.0431413351339L449.63875,269.3979548592671L453.726375,270.6393370139184L457.814,267.13254712666554L461.901625,265.96788213240404L465.98925,262.99343501878184L470.07687500000003,264.98261337688996L474.16450000000003,263.5927271358852L478.25212500000004,265.03444350834803L482.33975,261.2834083064961L486.427375,261.55137429781155L490.515,262.3357496071699L494.602625,261.0895162468458L498.69025,259.02174792559777L502.777875,256.74448745571686L506.8655,256.65766964628165L510.953125,254.48382208907927L515.04075,255.68188979326288L519.128375,254.97540613471622L523.216,254.42197835719077L527.303625,252.6808082835406L531.39125,251.52270482638664L535.478875,252.2612724701118L539.5665,254.94763942556892L543.654125,251.46558466750767L547.74175,250.43726760068566L551.829375,250.6948801552397L555.917,252.65539133599253L560.004625,249.83919138143972L564.09225,246.51362988013332L568.179875,245.1742357372739L572.2675,246.0307570910155L576.3551249999999,246.3584316143811L580.4427499999999,246.88706042584317L584.5303749999999,245.26871913005843L588.6179999999999,245.41529349484003L592.7056249999999,245.37366317906748L596.79325,245.72930435656764L600.880875,243.9666806478456L604.9685,244.55309074039187L609.056125,243.50392882574542L613.14375,243.92720467576737L617.231375,241.9541173382362L621.319,242.21180009069613L625.406625,240.97346985671473L629.49425,240.6434754788889L633.581875,240.48600603699776L637.6695,237.8891107811138L641.757125,236.75208282710747L645.84475,237.52757473135964L649.932375,237.5231654048659L654.02,236.0223212997534L658.107625,233.84227636419246L662.19525,236.4943343180171L666.282875,233.4452251063438L670.3705,236.23993004163026L674.458125,236.05410864829975L678.54575,234.55781871604893L682.633375,235.75752266960126L686.721,233.0436279498545L690.808625,233.17263949650587L694.89625,232.91802232705393L698.983875,232.67616692330154L703.0714999999999,231.34870574759879L707.1591249999999,228.6086050225543L711.2467499999999,227.51522872169312L715.3343749999999,227.21554334950162L719.4219999999999,226.93043615018354L723.5096249999999,226.8565623696349L727.5972499999999,227.51681348099527L731.6848749999999,225.16761156170102L735.7724999999999,226.15520802487057L739.8601249999999,225.92982646236297L743.9477499999999,224.79038244332568L748.0353749999999,223.442667837018L752.1229999999999,224.16462197804898L756.2106249999999,225.6586728984383L760.2982499999999,225.36465008025974L764.3858749999999,227.21284007409577L768.4735000000001,226.4024463616573L772.5611250000001,225.2440191501039L776.6487500000001,223.16416572691952L780.7363750000001,223.42255761918605L784.8240000000001,221.51249923724245L788.9116250000001,221.79178848913293L792.9992500000001,219.62701321672L797.0868750000001,220.70098670937978L801.1745000000001,218.20318797797975L805.2621250000001,219.57133082293097L809.3497500000001,221.4935847982325L813.4373750000001,220.48469047931187L817.5250000000001,218.43785608522506L821.6126250000001,216.10028174348113L825.7002500000001,214.2928014605887L829.7878750000001,214.04246360518417L833.8755,214.20807411546235L837.963125,214.22646075650874L842.05075,215.54941560922958L846.138375,214.22953708628148L850.226,214.08548464572047L854.313625,213.17300830401354L858.40125,210.86006868352925L862.488875,212.92223287703854L866.5765,212.1430331453617L870.664125,209.77237911929302L874.75175,212.73121817058106L878.839375,211.72067918268317L882.927,209.8105383588124L887.014625,210.39748593210678L891.10225,210.9359301172068L895.189875,208.432664377036L899.2775,207.58664769085777L903.365125,205.3783900071334L907.45275,204.0777517077815L911.540375,205.74304426019344L915.628,204.4099083203373L919.715625,204.17692176451067L923.80325,205.2599675970265L927.890875,204.47640273076243L931.9785,200.8640809840081L936.066125,204.29265173193528L940.1537500000001,204.30901697427072L944.2413750000001,202.9744915037357L948.3290000000001,200.6027034840388L952.4166250000001,199.98946467566915L956.5042500000001,198.544469433199L960.591875,199.3700145227733L964.6795,197.84884332873577L968.767125,196.79039215599389L972.85475,197.68590435716447L976.942375,195.92328460216294L981.03,196.2019145758934L985.117625,194.5307645165119L989.20525,192.2647468823111L993.292875,191.87692963547994L997.3805,190.8425107208937L1001.468125,189.93032510725948L1005.55575,186.20034107952296L1009.643375,185.1932938658535L1013.731,184.69436151365466L1017.818625,186.14424504387398L1021.90625,186.01806551743368L1025.9938750000001,182.80021232681773L1030.0815,182.64302231262502L1034.1691250000001,184.29795124564805L1038.25675,183.42019616624262L1042.3443750000001,180.52074181473577L1046.432,181.05671732089718L1050.5196250000001,179.63712776777223L1054.60725,178.60724118397877L1058.6948750000001,177.58437355585644L1062.7825,176.33898917969714L1066.8701250000001,174.68473401151093L1070.95775,172.24257767090398L1075.0453750000001,170.49385503861825L1079.133,165.63839043736567L1083.2206250000002,165.33278389112235L1087.30825,163.39207158487673L1091.3958750000002,160.65657146375364L1095.4835,162.5299307958344L1099.5711250000002,160.64137585497264L1103.65875,159.13572896045255L1107.7463750000002,156.88799620780452L1111.834,157.11853473055214L1115.9216250000002,156.04212551515008L1120.00925,154.02765641133422L1124.0968750000002,152.6974680991199L1128.1845,149.78570367721076L1132.2721250000002,150.71108602977205L1136.35975,148.3266191293582L1140.4473750000002,147.14698342143203L1144.535,143.04601208960247L1148.6226250000002,141.24137204842916L1152.7102499999999,138.328365417066L1156.797875,134.55599510574916L1160.8854999999999,133.4182201459283L1164.973125,134.06368891205034L1169.0607499999999,130.6528445868033L1173.148375,130.67953694591944L1177.2359999999999,129.81280677753696L1181.323625,127.36539288305059L1185.4112499999999,126.3261218305994L1189.498875,123.807567801271L1193.5865,121.54326473446343L1197.674125,120.37095853550225L1201.76175,119.34365615564384L1205.849375,117.00231074482875L1209.937,113.07891638591283L1214.024625,112.23928915370153L1218.11225,109.82427319035128L1222.199875,108.86928439226868L1226.2875,107.73750154229272L1230.375125,104.64510334363945L1234.46275,106.3205720553679L1238.550375,102.6530875505934L1242.638,100.79272638213213L1246.725625,97.69243318111643L1250.81325,95.72696128450406L1254.900875,94.80682801581955L1258.9885,94.26285349156983L1263.076125,92.88369577821017L1267.16375,91.16535012938134L1271.251375,90.50689402233098L1275.339,90.23328985578156L1279.426625,88.44945934895465L1283.51425,87.34677664925931L1287.601875,85.31654345486722L1291.6895,84.33323709663244L1295.777125,83.16829018888771L1299.86475,82.9228156393642L1303.952375,80.62135229026521L1308.04,80.16370969721818L1312.127625,79.19265419866129L1316.21525,79.96243360018033L1320.302875,77.59800634210497L1324.3905,76.45467337822035L1328.478125,76.13311944517567L1332.56575,75.42999278374363L1336.653375,75.25916121920643L1340.741,76.53335393977585L1344.828625,76.5771206707503L1348.91625,73.84996003850766L1353.003875,72.73196339772832L1357.0915,71.6967195679745L1361.179125,72.94628570934132L1365.26675,72.44080323255046L1369.3543750000001,72.6558134850422L1373.442,71.81298895060378L1377.5296250000001,69.67955813832685L1381.61725,68.56145898120185L1385.7048750000001,69.4940566199021L1389.7925,69.25188663663447L1393.8801250000001,68.8798191729903L1397.96775,68.46223496896336L1402.0553750000001,69.18347778023674L1406.1429999999998,69.01694406331413L1410.230625,68.73885362899809L1414.3182499999998,68.5558258467307L1418.405875,68.00868910392474L1422.4934999999998,68.06913186216576L1426.581125,67.08500891389983L1430.6687499999998,66.55930393613905L1434.756375,66.48685729708801L1438.8439999999998,65.93315765980815L1442.931625,66.35410852665066L1447.0192499999998,65.50531077842533L1451.106875,65.95972002621868L1455.1944999999998,66.15138590977425L1459.282125,64.88965642837196L1463.3697499999998,65.20970804922298L1467.457375,64.91582367876676L1471.5449999999998,64.36697912649015L1475.632625,63.64084215423886L1479.7202499999999,63.20515997088803L1483.807875,62.3201922985526L1487.8954999999999,62.14555210347659L1491.983125,61.765407243226086L1496.0707499999999,61.78025932243709L1500.158375,61.19799660323822L1504.2459999999999,60.67046876755621L1508.333625,60.44303716822831L1512.4212499999999,60.20942502183344L1516.508875,60.14213196215608L1520.5964999999999,59.69682044850333L1524.684125,60.34476351976327L1528.7717499999999,60.60395442787775L1532.859375,59.25316502656912L1536.9470000000001,58.38602803154602L1541.034625,58.32734486661651L1545.1222500000001,57.55517519236989L1549.209875,57.0918733878218L1553.2975000000001,57.19451167205667L1557.385125,57.790605255085445L1561.4727500000001,56.9577706822465L1565.560375,56.40951202126605L1569.6480000000001,55.80519608147305L1573.735625,55.30492614599493L1577.8232500000001,55.42587338423199L1581.910875,54.95586302996956L1585.9985000000001,53.86402281396369L1590.086125,53.58953805132385L1594.1737500000002,54.60719512719132L1598.261375,53.54956344853768L1602.3490000000002,53.60331159486926L1606.436625,53.287362863547926L1610.5242500000002,52.77383761202936L1614.611875,52.789678473844035L1618.6995000000002,53.38225152069763L1622.787125,52.88747151280098L1626.8747500000002,52.17759974550006L1630.962375,52.05131638696275L1635.0500000000002,51.044205518467166L1639.137625,51.41176968330316L1643.2252500000002,50.903453843876775L1647.312875,50.63895417278124L1651.4005000000002,50.32636312459984L1655.488125,49.38567519872436L1659.5757500000002,48.45681659791303L1663.6633749999999,48.417801175992395L1667.751,49.706352143176915L1671.8386249999999,48.39817833226243L1675.92625,49.60549333485756L1680.0138749999999,48.36197935815328L1684.1015,47.55106482868805L1688.1891249999999,48.35216002046325L1692.27675,47.59376849559508L1696.3643749999999,46.61232840514724L1700.452,46.5336960047277L1704.539625,45.74145135222623L1708.62725,45.80057782096909L1712.714875,44.89664476412485L1716.8025,45.69052410899379L1720.890125,44.644374248060295L1724.97775,44.04906872709955L1729.065375,43.9672461577278L1733.153,43.11638669737305L1737.240625,42.557313103883246L1741.32825,43.2098358031564L1745.415875,43.909094561524356L1749.5035,42.99241063756985L1753.591125,42.725866463362536L1757.67875,41.56172487730545L1761.766375,41.8674550072039L1765.854,41.71886898770045L1769.941625,41.37056750671534L1774.02925,41.28305611580498L1778.116875,41.27914455077985L1782.2045,40.36977306927412L1786.292125,40.463919416617316L1790.37975,40.269362792701195L1794.467375,40.77618718067648L1798.555,40.90211160929902L1802.642625,39.33371930093694L1806.73025,38.765197845922714L1810.817875,38.70755115307971L1814.9055,38.68913665905171L1818.993125,38.04642416334894L1823.08075,37.49883733568636L1827.168375,36.10940680331822L1831.256,36.49858624990888L1835.343625,36.87787972642658" style="fill: none;" fill="none"></path></g></g></g></g><g opacity="0.2"><g><g><g><path stroke="rgb(255, 112, 67)" stroke-width="2px" d="M232.994625,389.4214046001435L237.08225000000002,374.19653654098516L241.169875,372.35413710276293L245.2575,371.9492387771607L249.345125,365.2680428822836L253.43275,356.2991154193879L257.520375,351.2983969847362L261.608,349.4762611389161L265.695625,348.5652399063111L269.78325,347.471939722697L273.870875,334.83847697575897L277.9585,341.2361693382264L282.046125,338.19933851559966L286.13375,332.20654447873443L290.22137499999997,331.5991969903311L294.30899999999997,329.4935576121013L298.396625,327.3677480220795L302.48425,323.82479429245L306.571875,326.355502208074L310.6595,319.3099351723989L314.747125,316.96141282717394L318.83475,315.706190665563L322.922375,310.0980313618978L327.01,313.7423030535381L331.097625,308.19493452707934L335.18525,302.82975157101953L339.272875,300.50149281819665L343.3605,298.19349765777594L347.448125,295.1971006393433L351.53574999999995,304.2469890912374L355.62337499999995,293.59767754872644L359.71099999999996,294.0835368633271L363.79862499999996,291.350379784902L367.88624999999996,290.21655241648364L371.97387499999996,289.22457019488024L376.06149999999997,290.35830418268847L380.14912499999997,285.7219568888347L384.23675000000003,288.9006328582764L388.32437500000003,282.7256532510122L392.41200000000003,284.91216023763025L396.49962500000004,285.33732215563464L400.58725000000004,281.5513920783997L404.67487500000004,278.372716108958L408.76250000000005,280.5795800685883L412.85012500000005,280.35686731338507L416.93775,274.951157172521L421.025375,274.32354609171557L425.113,271.26645167668664L429.200625,272.31922467549646L433.28825,269.4240522384644L437.375875,267.6019163926443L441.4635,267.1970180670421L445.551125,269.0798513094585L449.63875,269.93017514546716L453.726375,272.50141024589544L457.814,261.8723622957866L461.901625,264.2208846410116L465.98925,258.531764348348L470.07687500000003,267.96638091405237L474.16450000000003,261.50789777437853L478.25212500000004,267.1970180670421L482.33975,255.65685550371813L486.427375,261.95332328478503L490.515,263.51231257120776L494.602625,259.2201662063599L498.69025,255.92009544372567L502.777875,253.32859675089526L506.8655,256.52744293212896L510.953125,251.22305075327563L515.04075,257.4789913495382L519.128375,253.91568064689645L523.216,253.5918366909028L527.303625,250.06905317306527L531.39125,249.7855496406556L535.478875,253.36912393569955L539.5665,258.9771898587545L543.654125,246.24250253041592L547.74175,248.89479200045275L551.829375,251.0812989870708L555.917,255.59615810712185L560.004625,245.61489144961047L564.09225,241.5252876281739L568.179875,243.1651445229849L572.2675,247.3155391216279L576.3551249999999,246.8499433994294L580.4427499999999,247.68000364303597L584.5303749999999,242.8412071863811L588.6179999999999,245.6351550420126L592.7056249999999,245.3112177054088L596.79325,246.26276612281808L600.880875,241.32274508476266L604.9685,245.4327058792115L609.056125,241.93018595377612L613.14375,244.56211845080065L617.231375,238.99448633193978L621.319,242.59832421938586L625.406625,239.11597450574246L629.49425,240.14848391215014L633.581875,240.24980187416085L637.6695,233.99376789728808L641.757125,235.0465408960979L645.84475,238.69081258773812L649.932375,237.5165514151256L654.02,233.77105514208483L658.107625,230.5722089608511L662.19525,240.47242124875393L666.282875,228.8715612888337L670.3705,240.4319874445598L674.458125,235.77537655830392L678.54575,232.31338381767281L682.633375,237.5570785999299L686.721,228.97278587023425L690.808625,233.36615681648263L694.89625,232.53609657287606L698.983875,232.31338381767281L703.0714999999999,229.35751398404446L707.1591249999999,224.49845393498745L711.2467499999999,225.8751642704011L715.3343749999999,226.76601529121407L719.4219999999999,226.50277535120654L723.5096249999999,226.74575169881192L727.5972499999999,228.50719014803576L731.6848749999999,221.64380868275967L735.7724999999999,227.6366027196249L739.8601249999999,225.59175411860156L743.9477499999999,223.08121641476956L748.0353749999999,221.42109592755642L752.1229999999999,225.2475531895956L756.2106249999999,227.8997492790223L760.2982499999999,224.92361585299182L764.3858749999999,229.98512506484994L768.4735000000001,225.18685579299935L772.5611250000001,223.50637833277392L776.6487500000001,220.04438559214282L780.7363750000001,223.81014545758572L784.8240000000001,218.64741166432705L788.9116250000001,222.21072236696887L792.9992500000001,216.37985030810046L797.0868750000001,222.3119469483694L801.1745000000001,214.4564898808798L805.2621250000001,221.62354509035754L809.3497500000001,224.37696576118478L813.4373750000001,218.97134900093087L817.5250000000001,215.36760449409493L821.6126250000001,212.59392023086556L825.7002500000001,211.58158103624987L829.7878750000001,213.6669568220775L833.8755,214.4564898808798L837.963125,214.2540407180787L842.05075,217.53384788831082L846.138375,212.2497193018596L850.226,213.86940598487863L854.313625,211.80429379145312L858.40125,207.3906592528026L862.488875,216.01547916730252L866.5765,210.97423354784655L870.664125,206.2163980801901L874.75175,217.1694767475129L878.839375,210.20487070083627L882.927,206.94532712300625L887.014625,211.2779072920482L891.10225,211.74359639485684L895.189875,204.67776576677966L899.2775,206.31762266159066L903.365125,202.0660034815471L907.45275,202.12679425875353L911.540375,208.2409830888113L915.628,202.41020441055306L919.715625,203.82744193077096L923.80325,206.88453634579983L927.890875,203.30105543136605L931.9785,195.44559836387643L936.066125,209.43550785382595L940.1537500000001,204.3335648377737L944.2413750000001,200.972703297933L948.3290000000001,197.04502145449328L952.4166250000001,199.0696064631145L956.5042500000001,196.37697656949368L960.591875,200.6083321571351L964.6795,195.5670865376791L968.767125,195.2027153968812L972.85475,199.02917265892037L976.942375,193.27935496966052L981.03,196.61985953648892L985.117625,192.02403942743945L989.20525,188.86572043101L993.292875,191.29520376523342L997.3805,189.29088234901437L1001.468125,188.56204668680834L1005.55575,180.60536503791818L1009.643375,183.6827230453492L1013.731,183.94596298535672L1017.818625,188.31907033920297L1021.90625,185.8287962277731L1025.9938750000001,177.97343254089364L1030.0815,182.40723729133614L1034.1691250000001,186.78034464518237L1038.25675,182.10356354713448L1042.3443750000001,176.17156028747567L1046.432,181.86068058013925L1050.5196250000001,177.507743438085L1054.60725,177.06241130828866L1058.6948750000001,176.05007211367297L1062.7825,174.47091261545825L1066.8701250000001,172.20335125923165L1070.95775,168.57934315999356L1075.0453750000001,167.8707710901897L1079.133,158.35519353548693L1083.2206250000002,164.87437407175707L1087.30825,160.4810031255087L1091.3958750000002,156.55332128206896L1095.4835,165.33996979395556L1099.5711250000002,157.8085434436799L1103.65875,156.87725861867276L1107.7463750000002,153.51639707883206L1111.834,157.46434251467394L1115.9216250000002,154.4275116920472L1120.00925,151.00595275561022L1124.0968750000002,150.70218563079843L1128.1845,145.4180570443472L1132.2721250000002,152.09915955861416L1136.35975,144.74991877873745L1140.4473750000002,145.37752985954293L1144.535,136.894555091858L1148.6226250000002,138.53441198666897L1152.7102499999999,133.95885547002163L1156.797875,128.89743963877368L1160.8854999999999,131.71155770619717L1164.973125,135.0318920612336L1169.0607499999999,125.53657809893298L1173.148375,130.71957548459378L1177.2359999999999,128.51271152496346L1181.323625,123.69427204132089L1185.4112499999999,124.76721525192269L1189.498875,120.02973675727853L1193.5865,118.14681013425196L1197.674125,118.61249923706063L1201.76175,117.8027025858562L1205.849375,113.49029262860621L1209.937,107.19382484753932L1214.024625,110.9798483053844L1218.11225,106.2017492453258L1222.199875,107.43680119514474L1226.2875,106.03982726732897L1230.375125,100.00650604565944L1234.46275,108.83377512296046L1238.550375,97.15186079343165L1242.638,98.00218462944039L1246.725625,93.04199337959298L1250.81325,92.77875343958544L1254.900875,93.42662811279305L1258.9885,93.44689170519518L1263.076125,90.81495920817065L1267.16375,88.58783165613818L1271.251375,89.51920986175546L1275.339,89.82288360595712L1279.426625,85.77371358871468L1283.51425,85.69275259971627L1287.601875,82.27119366327929L1291.6895,82.85827755928048L1295.777125,81.4208698272706L1299.86475,82.55460381507882L1303.952375,77.1691572666169L1308.04,79.47724580764779L1312.127625,77.73607095082606L1316.21525,81.11710270245875L1320.302875,74.05136545499171L1324.3905,74.73967393239344L1328.478125,75.6507885456086L1332.56575,74.37530279159554L1336.653375,75.002913872401L1340.741,78.44464302062997L1344.828625,76.642770767212L1348.91625,69.75921909014392L1353.003875,71.0549684365591L1357.0915,70.14385382334399L1361.179125,74.82063492139186L1365.26675,71.68257951736459L1369.3543750000001,72.97832886377978L1373.442,70.54875214894618L1377.5296250000001,66.47941191991175L1381.61725,66.884310245514L1385.7048750000001,70.89295307795214L1389.7925,68.88863166173304L1393.8801250000001,68.32171797752389L1397.96775,67.83585866292323L1402.0553750000001,70.26534199714669L1406.1429999999998,68.76714348793038L1410.230625,68.32171797752389L1414.3182499999998,68.28128417332972L1418.405875,67.18798398971566L1422.4934999999998,68.15979599952706L1426.581125,65.60882449150094L1430.6687499999998,65.77074646949777L1434.756375,66.37818733851122L1438.8439999999998,65.10260820388802L1442.931625,66.98553482691455L1447.0192499999998,64.23211415608729L1451.106875,66.64133389790858L1455.1944999999998,66.43888473510751L1459.282125,62.997062206268396L1463.3697499999998,65.68978548049935L1467.457375,64.47499712308253L1471.5449999999998,63.54371229807543L1475.632625,62.5516366958619L1479.7202499999999,62.5516366958619L1483.807875,60.992740790049304L1487.8954999999999,61.88359181086229L1491.983125,61.19518995285043L1496.0707499999999,61.80253744125375L1500.158375,60.32460252443956L1504.2459999999999,59.87917701403307L1508.333625,60.101889769236315L1512.4212499999999,59.859006802241076L1516.508875,60.041192372640026L1520.5964999999999,59.02885317802438L1524.684125,61.31667812665309L1528.7717499999999,60.992740790049304L1532.859375,57.22698092460641L1536.9470000000001,57.085322539011706L1541.034625,58.23932011922206L1545.1222500000001,56.39692068099984L1549.209875,56.39692068099984L1553.2975000000001,57.34846909840907L1557.385125,58.68474562962855L1561.4727500000001,55.70851882298793L1565.560375,55.5871240297954L1569.6480000000001,54.89872217178353L1573.735625,54.554521242777575L1577.8232500000001,55.60729424158739L1581.910875,54.250847498575915L1585.9985000000001,52.2262624899547L1590.086125,53.17781090736398L1594.1737500000002,56.1336807409923L1598.261375,51.963115930557336L1602.3490000000002,53.68393381436671L1606.436625,52.81343976656603L1610.5242500000002,52.00354973475145L1614.611875,52.81343976656603L1618.6995000000002,54.27111109097804L1622.787125,52.145301500956286L1626.8747500000002,51.112792094548595L1630.962375,51.86189134915675L1635.0500000000002,49.53353921572374L1639.137625,51.963115930557336L1643.2252500000002,50.140980084737194L1647.312875,50.24220466613778L1651.4005000000002,49.857476552327526L1655.488125,47.974643309911144L1659.5757500000002,47.06352869669603L1663.6633749999999,48.35927804311122L1667.751,51.6391785939535L1671.8386249999999,46.43591761589059L1675.92625,51.416465838750256L1680.0138749999999,46.49670839309701L1684.1015,46.33469303449L1688.1891249999999,49.553802808125866L1692.27675,46.45618120829271L1696.3643749999999,45.14016826947535L1700.452,46.415747404098596L1704.539625,44.553084373474206L1708.62725,45.88926752408351L1712.714875,43.54074517885851L1716.8025,46.88134312629708L1720.890125,43.07514945666002L1724.97775,43.156110445658435L1729.065375,43.8445123036703L1733.153,41.840097506841076L1737.240625,41.71870271364855L1741.32825,44.188619852066125L1745.415875,44.9579826990764L1749.5035,41.61738475163783L1753.591125,42.32605020205187L1757.67875,39.81551249821986L1761.766375,42.32605020205187L1765.854,41.4959899584453L1769.941625,40.84811528523768L1774.02925,41.15178902943934L1778.116875,41.27327720324205L1782.2045,39.005715847015466L1786.292125,40.60513893763231L1790.37975,39.97752785682687L1794.467375,41.536423762639416L1798.555,41.09099825223292L1802.642625,36.98113083839425L1806.73025,37.912415663401354L1810.817875,38.62108111381539L1814.9055,38.66151491800951L1818.993125,37.08235541979479L1823.08075,36.67745709419259L1827.168375,34.02526100476588L1831.256,37.08235541979479L1835.343625,37.44681994120287" style="fill: none;" fill="none"></path></g></g></g></g></g></g><g transform="translate(53, 376)" clip-path="url(#clip_1)"><clipPath id="clip_1"><rect width="2043" height="24"></rect></clipPath><g><g><line x1="0" y1="0" x2="0" y2="5" style="visibility: inherit;" fill="rgb(0, 0, 0)" stroke="rgb(204, 204, 204)" stroke-width="1px"></line><line x1="204.38125000000002" y1="0" x2="204.38125000000002" y2="5" style="visibility: inherit;" fill="rgb(0, 0, 0)" stroke="rgb(204, 204, 204)" stroke-width="1px"></line><line x1="408.76250000000005" y1="0" x2="408.76250000000005" y2="5" style="visibility: inherit;" fill="rgb(0, 0, 0)" stroke="rgb(204, 204, 204)" stroke-width="1px"></line><line x1="613.14375" y1="0" x2="613.14375" y2="5" style="visibility: inherit;" fill="rgb(0, 0, 0)" stroke="rgb(204, 204, 204)" stroke-width="1px"></line><line x1="817.5250000000001" y1="0" x2="817.5250000000001" y2="5" style="visibility: inherit;" fill="rgb(0, 0, 0)" stroke="rgb(204, 204, 204)" stroke-width="1px"></line><line x1="1021.90625" y1="0" x2="1021.90625" y2="5" style="visibility: inherit;" fill="rgb(0, 0, 0)" stroke="rgb(204, 204, 204)" stroke-width="1px"></line><line x1="1226.2875" y1="0" x2="1226.2875" y2="5" style="visibility: inherit;" fill="rgb(0, 0, 0)" stroke="rgb(204, 204, 204)" stroke-width="1px"></line><line x1="1430.6687499999998" y1="0" x2="1430.6687499999998" y2="5" style="visibility: inherit;" fill="rgb(0, 0, 0)" stroke="rgb(204, 204, 204)" stroke-width="1px"></line><line x1="1635.0500000000002" y1="0" x2="1635.0500000000002" y2="5" style="visibility: inherit;" fill="rgb(0, 0, 0)" stroke="rgb(204, 204, 204)" stroke-width="1px"></line><line x1="1839.43125" y1="0" x2="1839.43125" y2="5" style="visibility: inherit;" fill="rgb(0, 0, 0)" stroke="rgb(204, 204, 204)" stroke-width="1px"></line><line x1="2043.8125" y1="0" x2="2043.8125" y2="5" style="visibility: inherit;" fill="rgb(0, 0, 0)" stroke="rgb(204, 204, 204)" stroke-width="1px"></line></g><g transform="translate(0, 8)"><text x="0" y="0" dx="0em" dy="0.95em" style="text-anchor: middle; visibility: hidden; font-family: Roboto, sans-serif; font-size: 12px; font-weight: 200;" fill="rgb(33, 33, 33)" stroke="none" stroke-width="1px">-50</text><text x="204.38125000000002" y="0" dx="0em" dy="0.95em" style="text-anchor: middle; visibility: inherit; font-family: Roboto, sans-serif; font-size: 12px; font-weight: 200;" fill="rgb(33, 33, 33)" stroke="none" stroke-width="1px">0</text><text x="408.76250000000005" y="0" dx="0em" dy="0.95em" style="text-anchor: middle; visibility: inherit; font-family: Roboto, sans-serif; font-size: 12px; font-weight: 200;" fill="rgb(33, 33, 33)" stroke="none" stroke-width="1px">50</text><text x="613.14375" y="0" dx="0em" dy="0.95em" style="text-anchor: middle; visibility: inherit; font-family: Roboto, sans-serif; font-size: 12px; font-weight: 200;" fill="rgb(33, 33, 33)" stroke="none" stroke-width="1px">100</text><text x="817.5250000000001" y="0" dx="0em" dy="0.95em" style="text-anchor: middle; visibility: inherit; font-family: Roboto, sans-serif; font-size: 12px; font-weight: 200;" fill="rgb(33, 33, 33)" stroke="none" stroke-width="1px">150</text><text x="1021.90625" y="0" dx="0em" dy="0.95em" style="text-anchor: middle; visibility: inherit; font-family: Roboto, sans-serif; font-size: 12px; font-weight: 200;" fill="rgb(33, 33, 33)" stroke="none" stroke-width="1px">200</text><text x="1226.2875" y="0" dx="0em" dy="0.95em" style="text-anchor: middle; visibility: inherit; font-family: Roboto, sans-serif; font-size: 12px; font-weight: 200;" fill="rgb(33, 33, 33)" stroke="none" stroke-width="1px">250</text><text x="1430.6687499999998" y="0" dx="0em" dy="0.95em" style="text-anchor: middle; visibility: inherit; font-family: Roboto, sans-serif; font-size: 12px; font-weight: 200;" fill="rgb(33, 33, 33)" stroke="none" stroke-width="1px">300</text><text x="1635.0500000000002" y="0" dx="0em" dy="0.95em" style="text-anchor: middle; visibility: inherit; font-family: Roboto, sans-serif; font-size: 12px; font-weight: 200;" fill="rgb(33, 33, 33)" stroke="none" stroke-width="1px">350</text><text x="1839.43125" y="0" dx="0em" dy="0.95em" style="text-anchor: middle; visibility: inherit; font-family: Roboto, sans-serif; font-size: 12px; font-weight: 200;" fill="rgb(33, 33, 33)" stroke="none" stroke-width="1px">400</text><text x="2043.8125" y="0" dx="0em" dy="0.95em" style="text-anchor: middle; visibility: hidden; font-family: Roboto, sans-serif; font-size: 12px; font-weight: 200;" fill="rgb(33, 33, 33)" stroke="none" stroke-width="1px">450</text></g><line x1="0" y1="0" x2="2043.8125" y2="0" fill="rgb(0, 0, 0)" stroke="rgb(204, 204, 204)" stroke-width="1px"></line></g></g></g></g></svg>