<svg viewBox="0 0 2097 400" xmlns="http://www.w3.org/2000/svg"><g><g><g><g><g><line x1="42.390625" y1="325.48554012075203" x2="37.390625" y2="325.48554012075203" style="visibility: inherit;" fill="rgb(0, 0, 0)" stroke="rgb(204, 204, 204)" stroke-width="1px"></line><line x1="42.390625" y1="226.57158694540496" x2="37.390625" y2="226.57158694540496" style="visibility: inherit;" fill="rgb(0, 0, 0)" stroke="rgb(204, 204, 204)" stroke-width="1px"></line><line x1="42.390625" y1="140.88842335311998" x2="37.390625" y2="140.88842335311998" style="visibility: inherit;" fill="rgb(0, 0, 0)" stroke="rgb(204, 204, 204)" stroke-width="1px"></line><line x1="42.390625" y1="65.3105168085546" x2="37.390625" y2="65.3105168085546" style="visibility: inherit;" fill="rgb(0, 0, 0)" stroke="rgb(204, 204, 204)" stroke-width="1px"></line></g><g transform="translate(32.390625, 0)"><text x="0" y="325.48554012075203" dx="0em" dy="0.3em" style="text-anchor: end; visibility: inherit; font-family: Roboto, sans-serif; font-size: 12px; font-weight: 200;" fill="rgb(33, 33, 33)" stroke="none" stroke-width="1px">0.6</text><text x="0" y="226.57158694540496" dx="0em" dy="0.3em" style="text-anchor: end; visibility: inherit; font-family: Roboto, sans-serif; font-size: 12px; font-weight: 200;" fill="rgb(33, 33, 33)" stroke="none" stroke-width="1px">0.7</text><text x="0" y="140.88842335311998" dx="0em" dy="0.3em" style="text-anchor: end; visibility: inherit; font-family: Roboto, sans-serif; font-size: 12px; font-weight: 200;" fill="rgb(33, 33, 33)" stroke="none" stroke-width="1px">0.8</text><text x="0" y="65.3105168085546" dx="0em" dy="0.3em" style="text-anchor: end; visibility: inherit; font-family: Roboto, sans-serif; font-size: 12px; font-weight: 200;" fill="rgb(33, 33, 33)" stroke="none" stroke-width="1px">0.9</text></g><line x1="42.390625" y1="0" x2="42.390625" y2="376" fill="rgb(0, 0, 0)" stroke="rgb(204, 204, 204)" stroke-width="1px"></line></g></g><g transform="translate(42, 0)" clip-path="url(#clip_0)"><clipPath id="clip_0"><rect width="2054" height="376"></rect></clipPath><g><g><g><line x1="0" y1="0" x2="0" y2="376" fill="rgb(0, 0, 0)" stroke="rgb(66, 66, 66)" stroke-width="1px" opacity="0.25"></line><line x1="205.4609375" y1="0" x2="205.4609375" y2="376" fill="rgb(0, 0, 0)" stroke="rgb(66, 66, 66)" stroke-width="1px" opacity="0.25"></line><line x1="410.921875" y1="0" x2="410.921875" y2="376" fill="rgb(0, 0, 0)" stroke="rgb(66, 66, 66)" stroke-width="1px" opacity="0.25"></line><line x1="616.3828125" y1="0" x2="616.3828125" y2="376" fill="rgb(0, 0, 0)" stroke="rgb(66, 66, 66)" stroke-width="1px" opacity="0.25"></line><line x1="821.84375" y1="0" x2="821.84375" y2="376" fill="rgb(0, 0, 0)" stroke="rgb(66, 66, 66)" stroke-width="1px" opacity="0.25"></line><line x1="1027.3046875" y1="0" x2="1027.3046875" y2="376" fill="rgb(0, 0, 0)" stroke="rgb(66, 66, 66)" stroke-width="1px" opacity="0.25"></line><line x1="1232.765625" y1="0" x2="1232.765625" y2="376" fill="rgb(0, 0, 0)" stroke="rgb(66, 66, 66)" stroke-width="1px" opacity="0.25"></line><line x1="1438.2265625" y1="0" x2="1438.2265625" y2="376" fill="rgb(0, 0, 0)" stroke="rgb(66, 66, 66)" stroke-width="1px" opacity="0.25"></line><line x1="1643.6875" y1="0" x2="1643.6875" y2="376" fill="rgb(0, 0, 0)" stroke="rgb(66, 66, 66)" stroke-width="1px" opacity="0.25"></line><line x1="1849.1484375" y1="0" x2="1849.1484375" y2="376" fill="rgb(0, 0, 0)" stroke="rgb(66, 66, 66)" stroke-width="1px" opacity="0.25"></line><line x1="2054.609375" y1="0" x2="2054.609375" y2="376" fill="rgb(0, 0, 0)" stroke="rgb(66, 66, 66)" stroke-width="1px" opacity="0.25"></line></g><g><line x1="0" y1="325.48554012075203" x2="2054.609375" y2="325.48554012075203" fill="rgb(0, 0, 0)" stroke="rgb(66, 66, 66)" stroke-width="1px" opacity="0.25"></line><line x1="0" y1="226.57158694540496" x2="2054.609375" y2="226.57158694540496" fill="rgb(0, 0, 0)" stroke="rgb(66, 66, 66)" stroke-width="1px" opacity="0.25"></line><line x1="0" y1="140.88842335311998" x2="2054.609375" y2="140.88842335311998" fill="rgb(0, 0, 0)" stroke="rgb(66, 66, 66)" stroke-width="1px" opacity="0.25"></line><line x1="0" y1="65.3105168085546" x2="2054.609375" y2="65.3105168085546" fill="rgb(0, 0, 0)" stroke="rgb(66, 66, 66)" stroke-width="1px" opacity="0.25"></line></g></g></g><g><g><line x1="205.4609375" y1="0" x2="205.4609375" y2="376" fill="rgb(0, 0, 0)" stroke="rgb(153, 153, 153)" stroke-width="1.5px"></line></g></g><g><g><g><g><g><path stroke="rgb(255, 112, 67)" stroke-width="2px" d="M205.4609375,324.48321846031735L209.57015625,355.36043918051956L213.679375,357.17866042499116L217.78859375,350.2896489257531L221.8978125,328.5486954010299L226.00703125,301.09297531037686L230.11625,256.5707553762615L234.22546875,193.97454115098583L238.3346875,136.62766633695583L242.44390625,111.40835328647555L246.553125,98.98295579567326L250.66234375,90.62524425848639L254.7715625,83.66461091888823L258.88078125,80.83510215110066L262.99,77.21162759160156L267.09921875000003,75.03093114257433L271.2084375,73.87313841272848L275.31765625,71.6911682169299L279.426875,70.43932174606586L283.53609375,69.80016077521397L287.64531250000005,68.72658670125139L291.75453124999996,68.17878095353782L295.86375,67.82944757307249L299.97296875,68.76581767044716L304.0821875,69.73855763782456L308.19140625,68.58454320370707L312.30062499999997,68.57630041283636L316.40984375,69.1910933978457L320.5190625,67.76079214339723L324.62828125,67.76640679620346L328.7375,67.10456603168636L332.84671875000004,67.6842791311254L336.9559375,68.85344028941839L341.06515625000003,69.65276075284439L345.174375,67.88742139033418L349.28359375,68.52643904588355L353.3928125,71.96013495878204L357.50203124999996,72.54540354107772L361.61125,74.20298435922592L365.72046875,74.25525598532178L369.8296875,71.52477391281663L373.93890625,72.11786101467573L378.04812499999997,70.95781234261251L382.15734375,73.19398905548314L386.2665625,73.17940821102194L390.37578125,73.1738967381052L394.485,74.20142069320151L398.59421875000004,71.62384766785816L402.7034375,77.96225939707723L406.81265625000003,74.37807371703262L410.921875,74.77698870617638L415.03109375,73.65759751190359L419.1403125,74.04902846290169L423.24953124999996,74.82040235845369L427.35875,72.8125556962761L431.46796875,72.86777945199745L435.5771875,70.54930454394926L439.68640625,68.08279600758793L443.795625,67.22401953156024L447.90484375,69.48739584590092L452.0140625,66.54510068228267L456.12328125,63.97250919141506L460.2325,62.72023435098147L464.34171875000004,61.61272706141613L468.4509375,60.725112627209114L472.56015625000003,59.10128820466619L476.669375,61.089430014842655L480.77859375,59.30885627732156L484.8878125,60.628264700802106L488.99703124999996,59.11157592389205L493.10625,58.305389389077575L497.21546875,57.9541899972107L501.3246875,57.844843658997306L505.43390625,58.29422947888065L509.543125,57.97333550022584L513.65234375,57.548449182433025L517.7615625,57.41125660807046L521.87078125,57.312727656168214L525.98,57.578988663754444L530.08921875,58.637891079276926L534.1984375000001,57.37908584036674L538.30765625,56.92722348688641L542.416875,56.98974910760672L546.52609375,58.11085667863511L550.6353125,57.086880287389036L554.74453125,58.07750712525545L558.85375,59.130832451742535L562.9629687500001,57.96208594591726L567.0721875,58.94670226298677L571.18140625,60.56143032505889L575.2906250000001,60.234284325888105L579.39984375,60.20443355572222L583.5090624999999,59.818118723141296L587.61828125,63.761485206852235L591.7275,64.1014840277156L595.8367187499999,63.00433166559782L599.9459375,63.34362878020475L604.05515625,60.90833243562898L608.164375,62.36188353311461L612.2735937499999,62.44142631194075L616.3828125,63.86124378099967L620.49203125,60.32884455517901L624.6012499999999,60.68583175861829L628.71046875,62.136451721838455L632.8196875,64.52418404002466L636.92890625,61.470074975746655L641.038125,62.33933424763142L645.14734375,64.36512253222432L649.2565625,61.01101380965856L653.36578125,59.58374645504526L657.475,60.96706994036218L661.58421875,62.642970085826796L665.6934375000001,63.06560666059565L669.80265625,61.60204786812719L673.911875,58.94018076341075L678.02109375,62.34436438096794L682.1303125000001,59.10248718350199L686.23953125,60.73779123849363L690.34875,61.85046320260664L694.4579687500001,59.75961944062212L698.5671875,62.091009614840814L702.67640625,62.315488687840116L706.785625,58.78740988329086L710.89484375,57.7624197927339L715.0040624999999,57.492111820974884L719.11328125,57.530051610059715L723.2225,57.89473844586752L727.3317187499999,58.10274064220146L731.4409375,60.124265032596114L735.55015625,56.95889270766118L739.659375,56.41873916504508L743.7685937499999,56.471062441460134L747.8778125,55.46594449992249L751.98703125,55.20274223414893L756.0962499999999,56.31398453225525L760.20546875,55.732555851355954L764.3146875,59.57574117279714L768.42390625,56.07658104824074L772.533125,56.57479066749114L776.64234375,55.691322661052496L780.7515625,56.91868615426358L784.8607812500001,56.19381674050992L788.97,55.10538158603703L793.07921875,54.48525443479746L797.1884375000001,53.833001345313725L801.29765625,54.14381206658077L805.406875,53.6808391581785L809.51609375,54.109484065759666L813.6253125000001,53.71428571428565L817.73453125,53.82026435842143L821.84375,53.326604072503834L825.9529687500001,52.9777864847924L830.0621875,53.193771213190686L834.17140625,52.811688746720755L838.280625,52.597815463041385L842.38984375,53.37474480092722L846.4990624999999,53.59905537377343L850.60828125,52.68663389163644L854.7175,52.29576193962573L858.8267187499999,52.31017742956942L862.9359375,52.871687414911804L867.04515625,52.713165482171675L871.154375,52.074234005096834L875.2635937499999,52.52752477839284L879.3728125,51.84209953522303L883.48203125,52.74092788313579L887.59125,53.54492561083213L891.70046875,54.685394825036155L895.8096875,54.39631335481634L899.91890625,52.709311995686654L904.028125,53.695413018845976L908.13734375,53.9988709847337L912.2465625,55.2759226459307L916.3557812500001,55.73602968484066L920.465,54.81634530127824L924.57421875,55.77167656939484L928.6834375000001,56.50604597954796L932.79265625,58.909673868088625L936.901875,55.94252650594042L941.01109375,63.556195418697875L945.1203125000001,66.76573133738486L949.22953125,69.38485211766591L953.33875,68.99754618704036L957.4479687500001,69.5407392549786L961.5571875,68.89004273658497L965.6664062499999,70.59526880810749L969.775625,69.02651937579238L973.88484375,70.43254711107427L977.9940624999999,73.80844282768794L982.10328125,78.89192106327783L986.2125,83.32272746705327L990.32171875,86.64048175202375L994.4309375,88.14392264065566L998.54015625,81.13490725538273L1002.649375,93.71395353544722L1006.7585937499999,90.12659728546915L1010.8678125,99.3047111511838L1014.97703125,92.69085370299737L1019.08625,97.44782999221292L1023.19546875,102.3775050540407L1027.3046875,107.2714278296404L1031.41390625,110.67650857542759L1035.523125,108.77384626160367L1039.63234375,118.8575536813948L1043.7415625,120.77535565455001L1047.85078125,123.49121392214276L1051.96,131.26906954640395L1056.0692187500001,132.68318827446208L1060.1784375,134.6124696052772L1064.28765625,137.19105482705854L1068.3968750000001,146.53613862870367L1072.50609375,135.54369172149495L1076.6153125,152.04273205209654L1080.7245312500002,155.12109784970067L1084.83375,162.85823113247844L1088.94296875,165.72440010828828L1093.0521875,157.90358571107083L1097.16140625,165.63232481864696L1101.270625,170.6357910739676L1105.37984375,166.28308707286288L1109.4890625,168.60311396371418L1113.5982812500001,158.89501829707692L1117.7075,169.25465548260945L1121.81671875,174.22198430993586L1125.9259375000001,181.41214279039465L1130.03515625,193.75083166109977L1134.144375,191.0170487134296L1138.2535937500002,208.033602650452L1142.3628125,203.7907665469929L1146.47203125,201.4341100675991L1150.5812500000002,208.97493193219205L1154.69046875,214.97439016485978L1158.7996875,205.00583547307633L1162.90890625,212.68348548689298L1167.0181249999998,211.44124369209277L1171.12734375,217.82983075600598L1175.2365625,213.973612265464L1179.3457812499998,212.64088474641463L1183.455,224.4665276232851L1187.56421875,236.54154423102617L1191.6734374999999,231.66216253219162L1195.78265625,249.39403683182587L1199.891875,236.7003937352094L1204.0010937499999,225.13928694720389L1208.1103125,225.1135461922153L1212.21953125,244.93115109689847L1216.32875,253.5028507814857L1220.43796875,253.65921943116493L1224.5471874999998,259.737682051454L1228.65640625,258.39986429504887L1232.765625,263.5995402107466L1236.8748437499999,250.79691870511343L1240.9840625,245.11561576873436L1245.09328125,240.24370841809244L1249.2024999999999,239.96117202515524L1253.31171875,249.04031565911953L1257.4209375,261.0098504834088L1261.53015625,256.23259682626684L1265.639375,271.38217072139344L1269.74859375,277.82820713421785L1273.8578125,265.42228659776913L1277.96703125,270.41762051924104L1282.07625,270.3611113481466L1286.18546875,270.14458294991624L1290.2946875,270.81109969504183L1294.40390625,266.2288214537262L1298.513125,269.1317305581591L1302.62234375,288.40925260447085L1306.7315625,273.4959725449118L1310.84078125,265.77998137328234L1314.95,268.4420836572471L1319.0592187500001,281.55207828710655L1323.1684375,280.36911904449147L1327.27765625,277.6810302151771L1331.3868750000001,271.17205443862156L1335.49609375,270.12561440936565L1339.6053125,277.7758180305507L1343.7145312500002,284.13907510233776L1347.82375,279.3614017485386L1351.93296875,288.8826997762526L1356.0421875,276.8834602910295L1360.15140625,274.85796162793633L1364.2606250000001,280.87041782161134L1368.36984375,287.2196007620788L1372.4790625,293.19954351645976L1376.5882812500001,290.8899652021198L1380.6975,281.48866481785893L1384.80671875,286.8878196580562L1388.9159375000002,284.8347245325758L1393.02515625,289.0314842817504L1397.134375,298.08861848081585L1401.2435937500002,303.1187539168177L1405.3528125,286.5836838905254L1409.46203125,295.2862539922459L1413.57125,297.146626869272L1417.6804687499998,302.7255039278365L1421.7896875,304.50378975810236L1425.89890625,294.4145847461859L1430.0081249999998,288.06156446031054L1434.11734375,290.62658131040047L1438.2265625,304.81496436797016L1442.3357812499999,309.4997963737231L1446.445,298.71258499969287L1450.55421875,292.6913162403031L1454.6634374999999,299.4892340299749L1458.77265625,290.79526905309655L1462.881875,300.05773986419064L1466.99109375,304.03960950950716L1471.1003125,301.8162000438299L1475.20953125,290.5867919966223L1479.31875,301.51271879902436L1483.42796875,310.4182483991968L1487.5371874999998,303.28622573753745L1491.64640625,292.1749371270266L1495.755625,303.7657943760285L1499.8648437499999,302.0547409902205L1503.9740625,310.55667633179416L1508.08328125,315.1939416108171L1512.1924999999999,303.45537027143575L1516.30171875,318.90500906951746L1520.4109375,310.2424305830312L1524.52015625,300.41881776212205L1528.629375,302.15682363002225L1532.73859375,313.0597601600851L1536.8478125,305.8520809839879L1540.95703125,312.42524900568236L1545.06625,301.05984818861197L1549.17546875,299.90812483684095L1553.2846875,303.6742327797221L1557.39390625,303.7313960561071L1561.503125,310.1244971721806L1565.61234375,306.919401857088L1569.7215625000001,316.9473249793461L1573.83078125,332.4270586989559L1577.94,309.0714234913752L1582.0492187500001,308.93694072368044L1586.1584375,311.4129180361823L1590.26765625,300.7860716756033L1594.3768750000002,311.76853628034723L1598.48609375,318.3839876005285L1602.5953125,310.1865437112827L1606.70453125,309.738560017721L1610.81375,311.12738491605546L1614.92296875,314.64384889511257L1619.0321875,303.4566543228695L1623.14140625,308.53323422996704L1627.2506250000001,302.37573160416605L1631.35984375,323.7683707260732L1635.4690625,325.6651644175895L1639.5782812500001,311.6787258664385L1643.6875,324.3375237652395L1647.79671875,317.0734191086788L1651.9059375000002,314.9414314505752L1656.01515625,319.5236401430038L1660.124375,312.03338657059794L1664.2335937500002,318.9060411900762L1668.3428125,310.86624844140096L1672.45203125,314.8583218927219L1676.56125,311.91562109078035L1680.6704687499998,325.5623731725405L1684.7796875,306.80180385502035L1688.88890625,307.66438558538937L1692.9981249999998,313.986691393907L1697.10734375,329.599872823141L1701.2165625,311.04806792287405L1705.3257812499999,329.4581147357424L1709.435,322.14864985606255L1713.54421875,317.5837503483525L1717.6534374999999,327.2827524538477L1721.76265625,309.19307968931594L1725.871875,319.6434937957379L1729.98109375,311.80047861529397L1734.0903125,311.66477893987303L1738.1995312499998,329.2698940114042L1742.30875,326.0044857324876L1746.41796875,318.2215010483312L1750.5271874999999,312.86610073157317L1754.63640625,314.15370713037674L1758.745625,324.6175380488165L1762.8548437499999,315.60523397904075L1766.9640625,326.48725901382255L1771.07328125,307.55475825443887L1775.1825,322.2857142857143L1779.29171875,323.5809908725937L1783.4009375,310.1451440141828L1787.51015625,316.4687939376482L1791.619375,312.0349062396243L1795.72859375,316.4201273491815L1799.8378125,311.01072295114744L1803.94703125,309.63457133135074L1808.05625,312.47607072017644L1812.16546875,304.77515047536644L1816.2746875,307.58565398710533L1820.38390625,315.73489339723153L1824.493125,318.59690271304004L1828.60234375,314.81728256902704L1832.7115625000001,313.8119528109954L1836.82078125,318.1113832292122L1840.93,322.38465874167633L1845.0392187500001,323.97203403932934" style="fill: none;" fill="none"></path></g></g></g></g><g opacity="0.2"><g><g><g><path stroke="rgb(255, 112, 67)" stroke-width="2px" d="M205.4609375,324.48321846031735L209.57015625,367.4302137739544L213.679375,358.1277874667938L217.78859375,346.3624229297507L221.8978125,315.94743948692786L226.00703125,285.08694135355887L230.11625,231.02283570848462L234.22546875,158.75479734561745L238.3346875,104.13935072221214L242.44390625,96.55503303912255L246.553125,91.54815524592041L250.66234375,85.59890626058018L254.7715625,79.47114437026315L258.88078125,79.12164241893528L262.99,75.01953735068905L267.09921875000003,73.70929671530595L271.2084375,73.17054734521429L275.31765625,70.36876340674405L279.426875,69.67974469865402L283.53609375,69.41204255659348L287.64531250000005,68.07503383178843L291.75453124999996,67.84609838782883L295.86375,67.61724459440538L299.97296875,69.33553397565788L304.0821875,70.33042948192521L308.19140625,67.88424151224682L312.30062499999997,68.57129118007867L316.40984375,69.56500153331663L320.5190625,66.89312862213083L324.62828125,67.76981894039798L328.7375,66.70268735104612L332.84671875000004,68.03683668755939L336.9559375,69.56500153331663L341.06515625000003,70.13900828750617L345.174375,66.81696236945842L349.28359375,68.91509207530423L353.3928125,74.05586230186498L357.50203124999996,72.90134219138781L361.61125,75.21242026025801L365.72046875,74.28702442360824L369.8296875,69.8710717148397L373.93890625,72.47855813377302L378.04812499999997,70.2538541515193L382.15734375,74.55676856129034L386.2665625,73.17054734521429L390.37578125,73.17054734521429L394.485,74.82666927222992L398.59421875000004,70.06245579604864L402.7034375,81.8450315641633L406.81265625000003,72.20964307840713L410.921875,75.01953735068905L415.03109375,72.97827714494548L419.1403125,74.28702442360824L423.24953124999996,75.28963282352544L427.35875,71.59541522124539L431.46796875,72.90134219138781L435.5771875,69.14440930128646L439.68640625,66.58847526111263L443.795625,66.70268735104612L447.90484375,70.86679855155198L452.0140625,64.76358637992L456.12328125,62.41412523718092L460.2325,61.96039777213969L464.34171875000004,60.94060863668991L468.4509375,60.18629341234904L472.56015625000003,58.11646614670193L476.669375,62.300673863675826L480.77859375,58.22918006810423L484.8878125,61.43141904090306L488.99703124999996,58.191606561039535L493.10625,57.815950446099194L497.21546875,57.74085400610881L501.3246875,57.77840112751157L505.43390625,58.56748272687953L509.543125,57.77840112751157L513.65234375,57.29037589951079L517.7615625,57.327896669829805L521.87078125,57.252857323036956L525.98,57.74085400610881L530.08921875,59.28225881630746L534.1984375000001,56.61529308451908L538.30765625,56.65277439993932L542.416875,57.02774996943823L546.52609375,58.79313098479156L550.6353125,56.46538971262021L554.74453125,58.68027590731317L558.85375,59.771801911897L562.9629687500001,57.252857323036956L567.0721875,59.54580929508254L571.18140625,61.5447168152048L575.2906250000001,60.03555357658122L579.39984375,60.18629341234904L583.5090624999999,59.5834621845796L587.61828125,66.169828883265L591.7275,64.30819514811982L595.8367187499999,62.338488759453156L599.9459375,63.549913098648815L604.05515625,59.432863881486455L608.164375,63.24684253307679L612.2735937499999,62.48977063155769L616.3828125,64.72562830224726L620.49203125,58.191606561039535L624.6012499999999,60.90287602862399L628.71046875,63.01962292449898L632.8196875,65.97960212741648L636.92890625,59.62111728365801L641.038125,62.86817376151188L645.14734375,65.59936022876245L649.2565625,58.98119676806809L653.36578125,58.717920102305264L657.475,61.80919837524492L661.58421875,63.66358558020166L665.6934375000001,63.32258616452888L669.80265625,60.71424626337875L673.911875,57.327896669829805L678.02109375,64.42200205130047L682.1303125000001,57.14031475412169L686.23953125,61.7336331650596L690.34875,62.527596673146505L694.4579687500001,58.49229828666426L698.5671875,63.51198436873403L702.67640625,62.45194681965678L706.785625,56.65277439993932L710.89484375,57.14031475412169L715.0040624999999,57.327896669829805L719.11328125,57.553109362366044L723.2225,58.11646614670193L727.3317187499999,58.22918006810423L731.4409375,61.35589830352892L735.55015625,55.0428424568037L739.659375,56.09070064204983L743.7685937499999,56.50286227263898L747.8778125,54.85588544490569L751.98703125,55.0428424568037L756.0962499999999,56.99024674515232L760.20546875,55.379468933593344L764.3146875,61.92260515078141L768.42390625,53.95936615782283L772.533125,56.87775022203341L776.64234375,55.15501771864369L780.7515625,57.665724360956396L784.8607812500001,55.75370093750037L788.97,54.44482179795808L793.07921875,54.108685160703985L797.1884375000001,53.4369396770634L801.29765625,54.33277061129899L805.406875,53.39964572989092L809.51609375,54.370118832800294L813.6253125000001,53.474235791889164L817.73453125,53.88467793835083L821.84375,53.02678373331105L825.9529687500001,52.76589668807637L830.0621875,53.325064337498326L834.17140625,52.579601814885166L838.280625,52.46787583946197L842.38984375,53.84735796026882L846.4990624999999,53.73541104758126L850.60828125,52.132772954039396L854.7175,52.05833865651983L858.8267187499999,52.318938126684436L862.9359375,53.21316679751944L867.04515625,52.616848130095725L871.154375,51.686255027054166L875.2635937499999,52.803153818815574L879.3728125,51.42591232758636L883.48203125,53.28777689177431L887.59125,54.03402131588105L891.70046875,55.379468933593344L895.8096875,54.22069722004489L899.91890625,51.686255027054166L904.028125,54.29542456351201L908.13734375,54.18335769431332L912.2465625,56.05325214319673L916.3557812500001,56.01580582974584L920.465,54.25808068918625L924.57421875,56.352943253761126L928.6834375000001,56.95274571266031L932.79265625,60.37481018862681L936.901875,54.1460203412839L941.01109375,68.2276743914175L945.1203125000001,68.72409257193401L949.22953125,70.9817747606652L953.33875,68.7622879246496L957.4479687500001,69.8710717148397L961.5571875,68.4949254807828L965.6664062499999,71.63378187714478L969.775625,68.07503383178843L973.88484375,71.28852163660818L977.9940624999999,75.86874258198614L982.10328125,82.00102714793098L986.2125,86.0304269794478L990.32171875,88.6651499558671L994.4309375,89.05931311746835L998.54015625,76.9125109725005L1002.649375,101.48069116226975L1006.7585937499999,87.9562570417874L1010.8678125,104.94722451664629L1014.97703125,88.7045509707712L1019.08625,100.35604825432952L1023.19546875,105.39195963320432L1027.3046875,110.26388546099L1031.41390625,112.75469612411591L1035.523125,107.62031601087429L1039.63234375,125.06391616676733L1043.7415625,121.94364290972072L1047.85078125,125.14732031512324L1051.96,136.0422773898549L1056.0692187500001,133.54409724827687L1060.1784375,135.78776679529642L1064.28765625,138.76318219309178L1068.3968750000001,152.28251531949357L1072.50609375,128.95423944398598L1076.6153125,162.28074137673133L1080.7245312500002,156.99911341282666L1084.83375,167.60620378311123L1088.94296875,167.47249475181695L1093.0521875,153.1968947292044L1097.16140625,170.3750960125029L1101.270625,173.6956526752884L1105.37984375,163.65222684428306L1109.4890625,170.01714265448226L1113.5982812500001,153.06620321852577L1117.7075,175.63307680891268L1121.81671875,177.25960788140543L1125.9259375000001,185.82141234079623L1130.03515625,201.3668402295681L1134.144375,189.36135418475232L1138.2535937500002,218.59971141345608L1142.3628125,201.22596123651434L1146.47203125,200.00614658607708L1150.5812500000002,213.60128891264213L1154.69046875,218.6479564357624L1158.7996875,199.02257151886488L1162.90890625,217.39460166300418L1167.0181249999998,210.68748535292227L1171.12734375,221.7435868917283L1175.2365625,211.64139375386648L1179.3457812499998,211.83231368367066L1183.455,231.76111016676052L1187.56421875,243.9923085245498L1191.6734374999999,228.7149037850166L1195.78265625,260.4143655971706L1199.891875,229.1071563348453L1204.0010937499999,218.2138278341503L1208.1103125,225.09790360116716L1212.21953125,257.28063413872434L1216.32875,258.76851381494697L1220.43796875,253.7542659429542L1224.5471874999998,263.45999474392784L1228.65640625,257.5882101337153L1232.765625,266.78017943638264L1236.8748437499999,243.1395230188493L1240.9840625,241.68740495238208L1245.09328125,237.30093693442905L1249.2024999999999,239.78953059846847L1253.31171875,254.62128547267193L1257.4209375,268.3945399198899L1261.53015625,253.34665841391174L1265.639375,280.76665913084724L1269.74859375,281.77744385648583L1273.8578125,257.9985218071708L1277.96703125,273.47247751818725L1282.07625,270.3267721928186L1286.18546875,270.01303063766704L1290.2946875,271.21649175292976L1294.40390625,263.45999474392784L1298.513125,270.9023149787481L1302.62234375,300.41388295088535L1306.7315625,264.5993860362944L1310.84078125,261.1357697704901L1314.95,270.06530050011145L1319.0592187500001,289.6521015254793L1323.1684375,279.6512784942882L1327.27765625,276.05291704385263L1331.3868750000001,267.24845398796487L1335.49609375,269.490507644216L1339.6053125,282.4699299915587L1343.7145312500002,288.0371891249972L1347.82375,276.4752113074202L1351.93296875,294.73873774552317L1356.0421875,269.6994424098866L1360.15140625,273.63014774664987L1364.2606250000001,284.5520032850158L1368.36984375,291.10902397193274L1372.4790625,296.8610700554226L1376.5882812500001,289.49044534918204L1380.6975,275.8419035852589L1384.80671875,290.19131010144935L1388.9159375000002,283.5902252006384L1393.02515625,291.59540081891L1397.134375,303.65590406126495L1401.2435937500002,306.195028333254L1405.3528125,276.73930857800656L1409.46203125,300.6331963488342L1413.57125,298.2798477539438L1417.6804687499998,306.1397310748953L1421.7896875,305.5868968320645L1425.89890625,288.3598105282169L1430.0081249999998,284.23123046342454L1434.11734375,292.1904095758916L1438.2265625,313.59329488682187L1442.3357812499999,312.36364847425335L1446.445,292.24451764533626L1450.55421875,289.05950098534504L1454.6634374999999,303.65590406126495L1458.77265625,285.56877319705836L1462.881875,305.75272182500385L1466.99109375,306.4715861279382L1471.1003125,300.46875025360754L1475.20953125,283.85726776035426L1479.31875,308.2446323879184L1483.42796875,315.89129541272814L1487.5371874999998,298.9903841376053L1491.64640625,285.51522510995403L1495.755625,310.91342181966945L1499.8648437499999,301.01712923608136L1503.9740625,315.7790219994481L1508.08328125,318.0285462769077L1512.1924999999999,296.42514874989877L1516.30171875,328.4790316018875L1520.4109375,305.034600220818L1524.52015625,294.52149016200144L1528.629375,303.21534372538144L1532.73859375,319.7773127701025L1536.8478125,301.5110774773965L1540.95703125,316.45302018955095L1545.06625,294.24997335946466L1549.17546875,299.20921146134566L1553.2846875,305.97380605108674L1557.39390625,303.76613764122453L1561.503125,314.0410409901881L1565.61234375,304.9794028700318L1569.7215625000001,323.11891718701276L1573.83078125,342.02009848179244L1577.94,295.28223952817024L1582.0492187500001,308.85522702078663L1586.1584375,312.92229224609156L1590.26765625,294.4128939462265L1594.3768750000002,318.5357700222568L1598.48609375,322.4378845084702L1602.5953125,305.2554988836269L1606.70453125,309.46646540340134L1610.81375,311.97286829196025L1614.92296875,316.79031639671666L1619.0321875,296.75207720052424L1623.14140625,311.63809425187713L1627.2506250000001,298.66237471420027L1631.35984375,337.1262634640636L1635.4690625,326.8206233695114L1639.5782812500001,303.32550164027936L1643.6875,332.1542942423402L1647.79671875,312.69873887883824L1651.9059375000002,313.64923824435624L1656.01515625,322.32439644289235L1660.124375,307.5237801091389L1664.2335937500002,323.11891718701276L1668.3428125,306.0290890117536L1672.45203125,317.2965619117669L1676.56125,310.13386208332236L1680.6704687499998,333.99978520669566L1684.7796875,295.66298312590027L1688.88890625,308.18915822604026L1692.9981249999998,317.85951876125995L1697.10734375,339.27725694881383L1701.2165625,300.0303719935784L1705.3257812499999,340.90984050161734L1709.435,317.7469004685314L1713.54421875,314.82536491494784L1717.6534374999999,333.2494283557958L1721.76265625,298.4437337656485L1725.871875,326.0785462711751L1729.98109375,307.0805570536987L1734.0903125,311.5823259516705L1738.1995312499998,340.20967178949246L1742.30875,324.0281289889298L1746.41796875,313.5373564062237L1750.5271874999999,309.63323396051715L1754.63640625,314.9374715757474L1758.745625,331.06096170114057L1762.8548437499999,310.1895046324535L1766.9640625,333.1917498885247L1771.07328125,296.31622990827833L1775.1825,331.406026780609L1779.29171875,324.36943173838745L1783.4009375,302.11529515957824L1787.51015625,320.3424512299417L1791.619375,309.3552482779318L1795.72859375,319.09981559515427L1799.8378125,307.7454754925208L1803.94703125,308.7997000485065L1808.05625,314.2090655060155L1812.16546875,300.1399231654987L1816.2746875,309.29967802131534L1820.38390625,320.73836349490426L1824.493125,320.3424512299417L1828.60234375,312.53117180286466L1832.7115625000001,313.2017653551301L1836.82078125,320.73836349490426L1840.93,324.99557225097095L1845.0392187500001,324.9386309220957" style="fill: none;" fill="none"></path></g></g></g></g></g></g><g transform="translate(42, 376)" clip-path="url(#clip_1)"><clipPath id="clip_1"><rect width="2054" height="24"></rect></clipPath><g><g><line x1="0" y1="0" x2="0" y2="5" style="visibility: inherit;" fill="rgb(0, 0, 0)" stroke="rgb(204, 204, 204)" stroke-width="1px"></line><line x1="205.4609375" y1="0" x2="205.4609375" y2="5" style="visibility: inherit;" fill="rgb(0, 0, 0)" stroke="rgb(204, 204, 204)" stroke-width="1px"></line><line x1="410.921875" y1="0" x2="410.921875" y2="5" style="visibility: inherit;" fill="rgb(0, 0, 0)" stroke="rgb(204, 204, 204)" stroke-width="1px"></line><line x1="616.3828125" y1="0" x2="616.3828125" y2="5" style="visibility: inherit;" fill="rgb(0, 0, 0)" stroke="rgb(204, 204, 204)" stroke-width="1px"></line><line x1="821.84375" y1="0" x2="821.84375" y2="5" style="visibility: inherit;" fill="rgb(0, 0, 0)" stroke="rgb(204, 204, 204)" stroke-width="1px"></line><line x1="1027.3046875" y1="0" x2="1027.3046875" y2="5" style="visibility: inherit;" fill="rgb(0, 0, 0)" stroke="rgb(204, 204, 204)" stroke-width="1px"></line><line x1="1232.765625" y1="0" x2="1232.765625" y2="5" style="visibility: inherit;" fill="rgb(0, 0, 0)" stroke="rgb(204, 204, 204)" stroke-width="1px"></line><line x1="1438.2265625" y1="0" x2="1438.2265625" y2="5" style="visibility: inherit;" fill="rgb(0, 0, 0)" stroke="rgb(204, 204, 204)" stroke-width="1px"></line><line x1="1643.6875" y1="0" x2="1643.6875" y2="5" style="visibility: inherit;" fill="rgb(0, 0, 0)" stroke="rgb(204, 204, 204)" stroke-width="1px"></line><line x1="1849.1484375" y1="0" x2="1849.1484375" y2="5" style="visibility: inherit;" fill="rgb(0, 0, 0)" stroke="rgb(204, 204, 204)" stroke-width="1px"></line><line x1="2054.609375" y1="0" x2="2054.609375" y2="5" style="visibility: inherit;" fill="rgb(0, 0, 0)" stroke="rgb(204, 204, 204)" stroke-width="1px"></line></g><g transform="translate(0, 8)"><text x="0" y="0" dx="0em" dy="0.95em" style="text-anchor: middle; visibility: hidden; font-family: Roboto, sans-serif; font-size: 12px; font-weight: 200;" fill="rgb(33, 33, 33)" stroke="none" stroke-width="1px">-50</text><text x="205.4609375" y="0" dx="0em" dy="0.95em" style="text-anchor: middle; visibility: inherit; font-family: Roboto, sans-serif; font-size: 12px; font-weight: 200;" fill="rgb(33, 33, 33)" stroke="none" stroke-width="1px">0</text><text x="410.921875" y="0" dx="0em" dy="0.95em" style="text-anchor: middle; visibility: inherit; font-family: Roboto, sans-serif; font-size: 12px; font-weight: 200;" fill="rgb(33, 33, 33)" stroke="none" stroke-width="1px">50</text><text x="616.3828125" y="0" dx="0em" dy="0.95em" style="text-anchor: middle; visibility: inherit; font-family: Roboto, sans-serif; font-size: 12px; font-weight: 200;" fill="rgb(33, 33, 33)" stroke="none" stroke-width="1px">100</text><text x="821.84375" y="0" dx="0em" dy="0.95em" style="text-anchor: middle; visibility: inherit; font-family: Roboto, sans-serif; font-size: 12px; font-weight: 200;" fill="rgb(33, 33, 33)" stroke="none" stroke-width="1px">150</text><text x="1027.3046875" y="0" dx="0em" dy="0.95em" style="text-anchor: middle; visibility: inherit; font-family: Roboto, sans-serif; font-size: 12px; font-weight: 200;" fill="rgb(33, 33, 33)" stroke="none" stroke-width="1px">200</text><text x="1232.765625" y="0" dx="0em" dy="0.95em" style="text-anchor: middle; visibility: inherit; font-family: Roboto, sans-serif; font-size: 12px; font-weight: 200;" fill="rgb(33, 33, 33)" stroke="none" stroke-width="1px">250</text><text x="1438.2265625" y="0" dx="0em" dy="0.95em" style="text-anchor: middle; visibility: inherit; font-family: Roboto, sans-serif; font-size: 12px; font-weight: 200;" fill="rgb(33, 33, 33)" stroke="none" stroke-width="1px">300</text><text x="1643.6875" y="0" dx="0em" dy="0.95em" style="text-anchor: middle; visibility: inherit; font-family: Roboto, sans-serif; font-size: 12px; font-weight: 200;" fill="rgb(33, 33, 33)" stroke="none" stroke-width="1px">350</text><text x="1849.1484375" y="0" dx="0em" dy="0.95em" style="text-anchor: middle; visibility: inherit; font-family: Roboto, sans-serif; font-size: 12px; font-weight: 200;" fill="rgb(33, 33, 33)" stroke="none" stroke-width="1px">400</text><text x="2054.609375" y="0" dx="0em" dy="0.95em" style="text-anchor: middle; visibility: hidden; font-family: Roboto, sans-serif; font-size: 12px; font-weight: 200;" fill="rgb(33, 33, 33)" stroke="none" stroke-width="1px">450</text></g><line x1="0" y1="0" x2="2054.609375" y2="0" fill="rgb(0, 0, 0)" stroke="rgb(204, 204, 204)" stroke-width="1px"></line></g></g></g></g></svg>