<svg viewBox="0 0 2097 400" xmlns="http://www.w3.org/2000/svg"><g><g><g><g><g><line x1="31.59375" y1="376" x2="26.59375" y2="376" style="visibility: inherit;" fill="rgb(0, 0, 0)" stroke="rgb(204, 204, 204)" stroke-width="1px"></line><line x1="31.59375" y1="347.0769230769231" x2="26.59375" y2="347.0769230769231" style="visibility: inherit;" fill="rgb(0, 0, 0)" stroke="rgb(204, 204, 204)" stroke-width="1px"></line><line x1="31.59375" y1="318.15384615384613" x2="26.59375" y2="318.15384615384613" style="visibility: inherit;" fill="rgb(0, 0, 0)" stroke="rgb(204, 204, 204)" stroke-width="1px"></line><line x1="31.59375" y1="289.2307692307692" x2="26.59375" y2="289.2307692307692" style="visibility: inherit;" fill="rgb(0, 0, 0)" stroke="rgb(204, 204, 204)" stroke-width="1px"></line><line x1="31.59375" y1="260.3076923076923" x2="26.59375" y2="260.3076923076923" style="visibility: inherit;" fill="rgb(0, 0, 0)" stroke="rgb(204, 204, 204)" stroke-width="1px"></line><line x1="31.59375" y1="231.3846153846154" x2="26.59375" y2="231.3846153846154" style="visibility: inherit;" fill="rgb(0, 0, 0)" stroke="rgb(204, 204, 204)" stroke-width="1px"></line><line x1="31.59375" y1="202.46153846153845" x2="26.59375" y2="202.46153846153845" style="visibility: inherit;" fill="rgb(0, 0, 0)" stroke="rgb(204, 204, 204)" stroke-width="1px"></line><line x1="31.59375" y1="173.53846153846155" x2="26.59375" y2="173.53846153846155" style="visibility: inherit;" fill="rgb(0, 0, 0)" stroke="rgb(204, 204, 204)" stroke-width="1px"></line><line x1="31.59375" y1="144.6153846153846" x2="26.59375" y2="144.6153846153846" style="visibility: inherit;" fill="rgb(0, 0, 0)" stroke="rgb(204, 204, 204)" stroke-width="1px"></line><line x1="31.59375" y1="115.6923076923077" x2="26.59375" y2="115.6923076923077" style="visibility: inherit;" fill="rgb(0, 0, 0)" stroke="rgb(204, 204, 204)" stroke-width="1px"></line><line x1="31.59375" y1="86.76923076923076" x2="26.59375" y2="86.76923076923076" style="visibility: inherit;" fill="rgb(0, 0, 0)" stroke="rgb(204, 204, 204)" stroke-width="1px"></line><line x1="31.59375" y1="57.84615384615385" x2="26.59375" y2="57.84615384615385" style="visibility: inherit;" fill="rgb(0, 0, 0)" stroke="rgb(204, 204, 204)" stroke-width="1px"></line><line x1="31.59375" y1="28.923076923076906" x2="26.59375" y2="28.923076923076906" style="visibility: inherit;" fill="rgb(0, 0, 0)" stroke="rgb(204, 204, 204)" stroke-width="1px"></line><line x1="31.59375" y1="0" x2="26.59375" y2="0" style="visibility: inherit;" fill="rgb(0, 0, 0)" stroke="rgb(204, 204, 204)" stroke-width="1px"></line></g><g transform="translate(21.59375, 0)"><text x="0" y="376" dx="0em" dy="0.3em" style="text-anchor: end; visibility: hidden; font-family: Roboto, sans-serif; font-size: 12px; font-weight: 200;" fill="rgb(33, 33, 33)" stroke="none" stroke-width="1px">12</text><text x="0" y="347.0769230769231" dx="0em" dy="0.3em" style="text-anchor: end; visibility: inherit; font-family: Roboto, sans-serif; font-size: 12px; font-weight: 200;" fill="rgb(33, 33, 33)" stroke="none" stroke-width="1px">14</text><text x="0" y="318.15384615384613" dx="0em" dy="0.3em" style="text-anchor: end; visibility: inherit; font-family: Roboto, sans-serif; font-size: 12px; font-weight: 200;" fill="rgb(33, 33, 33)" stroke="none" stroke-width="1px">16</text><text x="0" y="289.2307692307692" dx="0em" dy="0.3em" style="text-anchor: end; visibility: inherit; font-family: Roboto, sans-serif; font-size: 12px; font-weight: 200;" fill="rgb(33, 33, 33)" stroke="none" stroke-width="1px">18</text><text x="0" y="260.3076923076923" dx="0em" dy="0.3em" style="text-anchor: end; visibility: inherit; font-family: Roboto, sans-serif; font-size: 12px; font-weight: 200;" fill="rgb(33, 33, 33)" stroke="none" stroke-width="1px">20</text><text x="0" y="231.3846153846154" dx="0em" dy="0.3em" style="text-anchor: end; visibility: inherit; font-family: Roboto, sans-serif; font-size: 12px; font-weight: 200;" fill="rgb(33, 33, 33)" stroke="none" stroke-width="1px">22</text><text x="0" y="202.46153846153845" dx="0em" dy="0.3em" style="text-anchor: end; visibility: inherit; font-family: Roboto, sans-serif; font-size: 12px; font-weight: 200;" fill="rgb(33, 33, 33)" stroke="none" stroke-width="1px">24</text><text x="0" y="173.53846153846155" dx="0em" dy="0.3em" style="text-anchor: end; visibility: inherit; font-family: Roboto, sans-serif; font-size: 12px; font-weight: 200;" fill="rgb(33, 33, 33)" stroke="none" stroke-width="1px">26</text><text x="0" y="144.6153846153846" dx="0em" dy="0.3em" style="text-anchor: end; visibility: inherit; font-family: Roboto, sans-serif; font-size: 12px; font-weight: 200;" fill="rgb(33, 33, 33)" stroke="none" stroke-width="1px">28</text><text x="0" y="115.6923076923077" dx="0em" dy="0.3em" style="text-anchor: end; visibility: inherit; font-family: Roboto, sans-serif; font-size: 12px; font-weight: 200;" fill="rgb(33, 33, 33)" stroke="none" stroke-width="1px">30</text><text x="0" y="86.76923076923076" dx="0em" dy="0.3em" style="text-anchor: end; visibility: inherit; font-family: Roboto, sans-serif; font-size: 12px; font-weight: 200;" fill="rgb(33, 33, 33)" stroke="none" stroke-width="1px">32</text><text x="0" y="57.84615384615385" dx="0em" dy="0.3em" style="text-anchor: end; visibility: inherit; font-family: Roboto, sans-serif; font-size: 12px; font-weight: 200;" fill="rgb(33, 33, 33)" stroke="none" stroke-width="1px">34</text><text x="0" y="28.923076923076906" dx="0em" dy="0.3em" style="text-anchor: end; visibility: inherit; font-family: Roboto, sans-serif; font-size: 12px; font-weight: 200;" fill="rgb(33, 33, 33)" stroke="none" stroke-width="1px">36</text><text x="0" y="0" dx="0em" dy="0.3em" style="text-anchor: end; visibility: hidden; font-family: Roboto, sans-serif; font-size: 12px; font-weight: 200;" fill="rgb(33, 33, 33)" stroke="none" stroke-width="1px">38</text></g><line x1="31.59375" y1="0" x2="31.59375" y2="376" fill="rgb(0, 0, 0)" stroke="rgb(204, 204, 204)" stroke-width="1px"></line></g></g><g transform="translate(31, 0)" clip-path="url(#clip_0)"><clipPath id="clip_0"><rect width="2065" height="376"></rect></clipPath><g><g><g><line x1="0" y1="0" x2="0" y2="376" fill="rgb(0, 0, 0)" stroke="rgb(66, 66, 66)" stroke-width="1px" opacity="0.25"></line><line x1="206.540625" y1="0" x2="206.540625" y2="376" fill="rgb(0, 0, 0)" stroke="rgb(66, 66, 66)" stroke-width="1px" opacity="0.25"></line><line x1="413.08125" y1="0" x2="413.08125" y2="376" fill="rgb(0, 0, 0)" stroke="rgb(66, 66, 66)" stroke-width="1px" opacity="0.25"></line><line x1="619.6218749999999" y1="0" x2="619.6218749999999" y2="376" fill="rgb(0, 0, 0)" stroke="rgb(66, 66, 66)" stroke-width="1px" opacity="0.25"></line><line x1="826.1625" y1="0" x2="826.1625" y2="376" fill="rgb(0, 0, 0)" stroke="rgb(66, 66, 66)" stroke-width="1px" opacity="0.25"></line><line x1="1032.703125" y1="0" x2="1032.703125" y2="376" fill="rgb(0, 0, 0)" stroke="rgb(66, 66, 66)" stroke-width="1px" opacity="0.25"></line><line x1="1239.2437499999999" y1="0" x2="1239.2437499999999" y2="376" fill="rgb(0, 0, 0)" stroke="rgb(66, 66, 66)" stroke-width="1px" opacity="0.25"></line><line x1="1445.784375" y1="0" x2="1445.784375" y2="376" fill="rgb(0, 0, 0)" stroke="rgb(66, 66, 66)" stroke-width="1px" opacity="0.25"></line><line x1="1652.325" y1="0" x2="1652.325" y2="376" fill="rgb(0, 0, 0)" stroke="rgb(66, 66, 66)" stroke-width="1px" opacity="0.25"></line><line x1="1858.8656250000001" y1="0" x2="1858.8656250000001" y2="376" fill="rgb(0, 0, 0)" stroke="rgb(66, 66, 66)" stroke-width="1px" opacity="0.25"></line><line x1="2065.40625" y1="0" x2="2065.40625" y2="376" fill="rgb(0, 0, 0)" stroke="rgb(66, 66, 66)" stroke-width="1px" opacity="0.25"></line></g><g><line x1="0" y1="376" x2="2065.40625" y2="376" fill="rgb(0, 0, 0)" stroke="rgb(66, 66, 66)" stroke-width="1px" opacity="0.25"></line><line x1="0" y1="347.0769230769231" x2="2065.40625" y2="347.0769230769231" fill="rgb(0, 0, 0)" stroke="rgb(66, 66, 66)" stroke-width="1px" opacity="0.25"></line><line x1="0" y1="318.15384615384613" x2="2065.40625" y2="318.15384615384613" fill="rgb(0, 0, 0)" stroke="rgb(66, 66, 66)" stroke-width="1px" opacity="0.25"></line><line x1="0" y1="289.2307692307692" x2="2065.40625" y2="289.2307692307692" fill="rgb(0, 0, 0)" stroke="rgb(66, 66, 66)" stroke-width="1px" opacity="0.25"></line><line x1="0" y1="260.3076923076923" x2="2065.40625" y2="260.3076923076923" fill="rgb(0, 0, 0)" stroke="rgb(66, 66, 66)" stroke-width="1px" opacity="0.25"></line><line x1="0" y1="231.3846153846154" x2="2065.40625" y2="231.3846153846154" fill="rgb(0, 0, 0)" stroke="rgb(66, 66, 66)" stroke-width="1px" opacity="0.25"></line><line x1="0" y1="202.46153846153845" x2="2065.40625" y2="202.46153846153845" fill="rgb(0, 0, 0)" stroke="rgb(66, 66, 66)" stroke-width="1px" opacity="0.25"></line><line x1="0" y1="173.53846153846155" x2="2065.40625" y2="173.53846153846155" fill="rgb(0, 0, 0)" stroke="rgb(66, 66, 66)" stroke-width="1px" opacity="0.25"></line><line x1="0" y1="144.6153846153846" x2="2065.40625" y2="144.6153846153846" fill="rgb(0, 0, 0)" stroke="rgb(66, 66, 66)" stroke-width="1px" opacity="0.25"></line><line x1="0" y1="115.6923076923077" x2="2065.40625" y2="115.6923076923077" fill="rgb(0, 0, 0)" stroke="rgb(66, 66, 66)" stroke-width="1px" opacity="0.25"></line><line x1="0" y1="86.76923076923076" x2="2065.40625" y2="86.76923076923076" fill="rgb(0, 0, 0)" stroke="rgb(66, 66, 66)" stroke-width="1px" opacity="0.25"></line><line x1="0" y1="57.84615384615385" x2="2065.40625" y2="57.84615384615385" fill="rgb(0, 0, 0)" stroke="rgb(66, 66, 66)" stroke-width="1px" opacity="0.25"></line><line x1="0" y1="28.923076923076906" x2="2065.40625" y2="28.923076923076906" fill="rgb(0, 0, 0)" stroke="rgb(66, 66, 66)" stroke-width="1px" opacity="0.25"></line><line x1="0" y1="0" x2="2065.40625" y2="0" fill="rgb(0, 0, 0)" stroke="rgb(66, 66, 66)" stroke-width="1px" opacity="0.25"></line></g></g></g><g><g><line x1="0" y1="549.5384615384615" x2="2065.40625" y2="549.5384615384615" fill="rgb(0, 0, 0)" stroke="rgb(153, 153, 153)" stroke-width="1.5px"></line></g></g><g><g><line x1="206.540625" y1="0" x2="206.540625" y2="376" fill="rgb(0, 0, 0)" stroke="rgb(153, 153, 153)" stroke-width="1.5px"></line></g></g><g><g><g><g><g><path stroke="rgb(255, 112, 67)" stroke-width="2px" d="M256.110375,379.63202921231573L260.2411875,373.9446130723322L264.372,360.9335972313126L268.5028125,360.45515078362155L272.633625,346.21584367324436L276.76443750000004,336.32921673067517L280.89525000000003,336.5517464159307L285.0260625,326.31283624897276L289.156875,333.774131170366L293.28768749999995,327.48880558377664L297.4185,323.1139769513438L301.5493125,322.0969185865127L305.680125,322.64708435408784L309.81093749999997,315.1434835410974L313.94175,303.9297913673957L318.0725625,315.32127608651496L322.203375,313.1051539965844L326.3341875,309.674955176228L330.46500000000003,300.5749707923031L334.5958125,305.6468107823761L338.726625,304.94946667774576L342.8574375,297.4000518266169L346.98825,300.0096648008447L351.11906250000004,295.47105958227945L355.249875,279.2142824776211L359.38068749999996,272.5330380538376L363.51149999999996,283.4343469189435L367.6423125,270.02552934202566L371.773125,267.50851349812723L375.9039375,275.075681235884L380.03475,273.46581140801493L384.1655625,261.9255843263653L388.296375,260.20328725368074L392.4271875,244.6731381692843L396.558,247.7301868391392L400.68881250000004,248.77718333708052L404.81962500000003,233.0941587982144L408.9504375,232.17296644941229L413.08125,230.79341216880184L417.2120625,227.25710547969175L421.342875,221.58902334761368L425.4736875,224.36573962098652L429.6045,224.54815056127694L433.73531249999996,207.82455766499848L437.866125,200.70672626379073L441.9969375,204.00267280232413L446.12775,201.55932514213575L450.2585625,193.4522952603604L454.38937500000003,189.47463575675042L458.5201875,182.97268506807987L462.651,181.98821478704247L466.7818125,190.6346838449445L470.912625,174.93348520511523L475.04343750000004,170.14234111349435L479.17425000000003,171.48624297613225L483.3050625,167.98003931406595L487.43587499999995,161.35914406383256L491.5666875,157.5873267205048L495.6975,158.4881033759424L499.8283125,155.3073460596455L503.959125,160.2700225617949L508.0899375,156.6523751455084L512.22075,150.19264445933663L516.3515625,148.9177481393301L520.482375,143.92532836758957L524.6131875,151.53316677384655L528.744,144.47616788110895L532.8748125,131.98375927545607L537.005625,135.10097575221613L541.1364375,137.60040462136251L545.26725,127.38510182218491L549.3980625,126.23944179623403L553.5288750000001,121.42961019174425L557.6596875,127.79799040732463L561.7905000000001,129.9466001576695L565.9213125,122.60398375091897L570.052125,122.36521998959881L574.1829375000001,124.07060965584303L578.31375,115.7067706066751L582.4445625,113.15287997836315L586.5753749999999,113.58221565255448L590.7061874999999,111.69911139352484L594.837,105.33655157060079L598.9678124999999,108.97572322163934L603.098625,109.1472695541619L607.2294375,107.72712892991596L611.36025,105.4223129264262L615.4910625,105.37729281796499L619.6218749999999,105.79233359357228L623.7526875,102.44440427896868L627.8835,98.62486491271198L632.0143125,99.35348357915127L636.145125,98.83131854932323L640.2759374999999,98.94971010893798L644.40675,90.47714914779742L648.5375625,91.62638162154795L652.668375,94.32865618755302L656.7991875,98.62657438978142L660.9300000000001,99.9416111152433L665.0608125,98.868818272051L669.191625,92.4983131739664L673.3224375,94.79894880201927L677.45325,91.66382671449912L681.5840625000001,95.14075361013181L685.714875,88.01876748200512L689.8456875,89.75119322577044L693.9765,89.90527900588454L698.1073125,87.18672097691963L702.2381250000001,83.18982203599886L706.3689375,89.28710252091423L710.49975,80.973134491769L714.6305625,83.03063048241994L718.7613749999999,87.01322727513234L722.8921875,79.98153700529004L727.0229999999999,83.2031411967399L731.1538125,85.97326726715248L735.284625,81.90802440742982L739.4154374999999,82.89858585192862L743.54625,86.1083250413563L747.6770624999999,79.13885006387484L751.807875,81.51302649705256L755.9386875,73.15865469356383L760.0695,73.06160319038182L764.2003125,70.01720260142338L768.331125,76.62370538438222L772.4619375,69.0103890931728L776.59275,71.79839988605721L780.7235625,68.75424153050234L784.854375,68.32780461829772L788.9851875,72.12093298225501L793.116,72.16774970858971L797.2468125,73.93649841196975L801.3776250000001,71.07422675109926L805.5084375,65.35293192550097L809.6392500000001,65.40799799890904L813.7700625,64.83700812048441L817.900875,64.5326108149608L822.0316875000001,68.38058577806041L826.1625,67.77205572013678L830.2933125000001,67.07879917111723L834.424125,64.21602544309003L838.5549375,64.12123348888227L842.68575,63.57546927590615L846.8165624999999,57.247471266813854L850.947375,57.316211710877134L855.0781875,54.78093336587918L859.209,62.47632442287929L863.3398125,58.409523147247995L867.4706249999999,58.20946917855849L871.6014375,59.43007537845392L875.73225,56.0784116655691L879.8630625,56.921591178188635L883.993875,58.84278757995113L888.1246874999999,66.41505684308588L892.2555,62.83673154875451L896.3863125,62.65723436626837L900.517125,59.09568727599631L904.6479375,57.65451134775599L908.7787500000001,56.565088735308855L912.9095625,62.05839934178897L917.040375,60.63729617077259L921.1711875,63.70084011939392L925.302,61.11673287040062L929.4328125000001,59.02241841396497L933.563625,57.45895409869239L937.6944375,59.41539848175012L941.82525,58.992084414882285L945.9560625,58.81096889797069L950.0868750000001,63.16613442514869L954.2176875,60.798668817213446L958.3485000000001,58.625829310371415L962.4793125000001,54.25287764135462L966.610125,49.680029337787545L970.7409375,54.66077610987225L974.8717499999999,58.28432494893378L979.0025625,59.837672237172285L983.133375,63.54983615996301L987.2641874999999,59.539565530060806L991.395,54.4376141472035L995.5258124999999,54.00565962384861L999.656625,55.612819919714546L1003.7874375,53.56525118243155L1007.91825,54.92721665782157L1012.0490625,51.387625624834094L1016.179875,54.846549609271655L1020.3106875,55.37294478090672L1024.4415,53.29851583535957L1028.5723125,54.65578399778515L1032.703125,52.849993974923336L1036.8339375,56.98927496579779L1040.96475,54.24353052240808L1045.0955625,51.67759054821245L1049.226375,51.432640767563846L1053.3571875,49.454660435387005L1057.488,53.781160620594214L1061.6188125,54.33306044817076L1065.749625,49.72574519817289L1069.8804375,48.01437590957497L1074.01125,51.94390350581597L1078.1420625,47.93289493973046L1082.272875,45.82276709737062L1086.4036875000002,47.796433910804126L1090.5345,46.731036233653576L1094.6653125,53.67658525279265L1098.796125,55.840589210155926L1102.9269375000001,44.577658833311716L1107.0577500000002,43.47275490847053L1111.1885625,46.26128560269756L1115.319375,41.16781300653517L1119.4501875,38.09304689820105L1123.5810000000001,44.84406066466323L1127.7118125000002,41.052957000334516L1131.842625,47.38701968047136L1135.9734375,39.086533772188375L1140.10425,41.53491263266156L1144.2350625000001,36.84853061913267L1148.3658750000002,38.17352803773031L1152.4966875,38.12203272743125L1156.6275,39.95782956631904L1160.7583125,33.54090650459168L1164.889125,36.225755702605866L1169.0199375,39.97706132603271L1173.1507499999998,29.627344564447203L1177.2815624999998,34.9418103317117L1181.4123749999999,40.549889545208245L1185.5431875,37.96574072489534L1189.674,35.275796902345036L1193.8048125,30.5245574988055L1197.9356249999998,33.166353356919274L1202.0664375,30.590858516406463L1206.19725,31.289932797165157L1210.3280625,38.29403963047516L1214.458875,32.87315103211501L1218.5896874999999,33.46965994634065L1222.7205,34.47378215223097L1226.8513125,32.13794189212501L1230.982125,32.639921259325604L1235.1129375,34.528805122499726L1239.2437499999999,31.442720867573662L1243.3745625,31.14915065422138L1247.505375,31.923846741860665L1251.6361875,24.532208894520124L1255.767,29.731841663225282L1259.8978124999999,32.30180369724562L1264.028625,29.538774393994366L1268.1594375,34.5373676091322L1272.29025,33.272464844604606L1276.4210625,34.07817102785463L1280.5518749999999,30.909378712569026L1284.6826875,31.5012985074677L1288.8135,29.226301145599724L1292.9443125,29.08209734216383L1297.075125,28.34128408411875L1301.2059375000001,27.325438078452095L1305.33675,27.99219614268956L1309.4675625,23.706236618424064L1313.598375,25.573390136419448L1317.7291875,25.511272453950845L1321.8600000000001,27.646076513528612L1325.9908125,26.993988312588556L1330.121625,24.751311381080484L1334.2524375,27.500697531225125L1338.38325,30.2519344056102L1342.5140625000001,26.15445110794613L1346.644875,25.09707461522038L1350.7756875,22.015546445482535L1354.9065,23.27099687781299L1359.0373125,24.40732721241023L1363.1681250000001,28.138710481719972L1367.2989375,29.98735669304345L1371.42975,22.500969468416912L1375.5605625,24.31795157728203L1379.691375,29.36488372712455L1383.8221875000002,24.198450939459388L1387.953,31.24686132495112L1392.0838125,29.614081428919718L1396.214625,25.913342682757076L1400.3454375000001,31.235550709938526L1404.4762500000002,30.71168097888492L1408.6070625000002,27.142494557122603L1412.737875,28.415201955325244L1416.8686875,23.663889074051315L1420.9995,28.295874200944684L1425.1303125,30.762372524279222L1429.261125,31.481827965394512L1433.3919374999998,29.177421951331546L1437.5227499999999,30.753045949920732L1441.6535625,29.139288796766863L1445.784375,29.169990177910808L1449.9151875,28.824666321429937L1454.0459999999998,29.589167116195256L1458.1768124999999,31.65318553068649L1462.307625,32.2350868017796L1466.4384375,34.38212569418573L1470.56925,29.147256754214073L1474.7000624999998,33.84934815159431L1478.8308749999999,27.659831351171203L1482.9616875,29.63418957556243L1487.0925,29.991416260693153L1491.2233125,29.056587476387296L1495.3541249999998,26.105519031012022L1499.4849375,24.61596374593112L1503.61575,27.624500637890282L1507.7465625,21.946072316655886L1511.877375,28.132075425746184L1516.0081875,33.85132761057904L1520.139,35.28912155772741L1524.2698125,33.324771549143975L1528.400625,28.60630822706309L1532.5314375,26.142841494599217L1536.66225,30.853475973949628L1540.7930625,30.841970572393507L1544.923875,28.302231673239675L1549.0546875,31.77390123333571L1553.1855,35.56067573018455L1557.3163125,41.51785495819874L1561.447125,33.525374671870445L1565.5779375,36.232168901169835L1569.70875,38.756243719623455L1573.8395625,35.46075485680567L1577.970375,35.52912968429874L1582.1011875,32.888885407965915L1586.232,32.163116343559835L1590.3628125,37.258494523369734L1594.493625,43.55419953973459L1598.6244375,33.35255552012649L1602.7552500000002,36.43829732346554L1606.8860625,39.33963236314227L1611.016875,35.82374539671804L1615.1476875,30.097877457206287L1619.2785000000001,38.15198966209098L1623.4093125000002,39.59479305343323L1627.540125,38.7059029435375L1631.6709375,38.82095337827465L1635.80175,40.22270784224472L1639.9325625000001,37.19213412589189L1644.0633750000002,37.030448113067415L1648.1941875,39.27478592529495L1652.325,37.87856263397949L1656.4558125,36.7566863715014L1660.5866250000001,35.19821298826003L1664.7174375000002,34.797559765816004L1668.84825,39.81746541731232L1672.9790625,43.92134750410376L1677.109875,34.35713556514114L1681.2406875,35.599178912418424L1685.3715,38.02368269483089L1689.5023124999998,33.50382374396764L1693.6331249999998,37.21101603045563L1697.7639374999999,36.971188859504714L1701.89475,41.73088400953582L1706.0255625,44.15874063791378L1710.156375,41.77911510849848L1714.2871874999998,40.82574447069171L1718.418,40.92757315186485L1722.5488125,47.36642342561236L1726.679625,44.69586757542689L1730.8104375,44.039174509673416L1734.9412499999999,44.946348545992905L1739.0720625,50.48336274871391L1743.202875,40.48843029156499L1747.3336875,42.50747360690474L1751.4645,46.741413407011265L1755.5953124999999,40.571997706571004L1759.726125,45.87323580522169L1763.8569375,51.27757119495822L1767.98775,45.177989094968716L1772.1185625,41.604634975742215L1776.2493749999999,50.24712930777088L1780.3801875,51.62074505975272L1784.511,51.139115781850315L1788.6418125,51.076985581025475L1792.772625,50.97828518332281L1796.9034374999999,42.87428543990224L1801.03425,46.35071398723485L1805.1650625,54.63830132309729L1809.295875,49.73417108391232L1813.4266875,57.55485967086444L1817.5575000000001,53.05547800219883L1821.6883125,57.10627119377042L1825.819125,58.80560714736299L1829.9499375,50.8329698026535L1834.08075,49.93930356910188L1838.2115625000001,49.36466598796516L1842.342375,59.517471663748275L1846.4731875,59.10348131479452L1850.604,61.27523224887263L1854.7348125,54.85614383865777" style="fill: none;" fill="none"></path></g></g></g></g><g opacity="0.2"><g><g><g><path stroke="rgb(255, 112, 67)" stroke-width="2px" d="M251.9795625,384.06611251831055L256.110375,372.87141741239105L260.2411875,370.48828447782074L264.372,353.02659078744745L268.5028125,360.1643908574031L272.633625,337.56237558218146L276.76443750000004,330.32094544630786L280.89525000000003,336.6869814946101L285.0260625,320.09047610943134L289.156875,338.3084872319148L293.28768749999995,323.6691061166617L297.4185,320.45531903780426L301.5493125,321.4788348858173L305.680125,322.9814294668344L309.81093749999997,310.58341745229865L313.94175,297.1150395320012L318.0725625,322.24407548170825L322.203375,311.75837883582483L326.3341875,307.59036489633417L330.46500000000003,295.0447552020733L334.5958125,308.7290543776292L338.726625,304.52567878136267L342.8574375,292.81214376596307L346.98825,301.59557107778693L351.11906250000004,292.7128718449519L355.249875,269.33476198636566L359.38068749999996,268.4727319570688L363.51149999999996,290.05925809420074L367.6423125,261.8767623901367L371.773125,265.978880075308L375.9039375,279.6743780282828L380.03475,272.48746607853815L384.1655625,254.91239166259766L388.296375,259.156617971567L392.4271875,235.23520190899185L396.558,249.58800741342398L400.68881250000004,249.41346095158505L404.81962500000003,223.56331751896786L408.9504375,231.61314216026892L413.08125,229.95503352238583L417.2120625,225.108031639686L421.342875,218.1444332416241L425.4736875,226.0531974205604L429.6045,224.65900479830228L433.73531249999996,197.66134526179385L437.866125,196.38109882061295L441.9969375,206.00567568265475L446.12775,200.07446112999548L450.2585625,188.5255150428185L454.38937500000003,187.0573442899264L458.5201875,179.0213388296274L462.651,181.38993542010965L466.7818125,195.88929044283353L470.912625,165.391599214994L475.04343750000004,167.23068119929385L479.17425000000003,172.3029550405649L483.3050625,165.84925959660458L487.43587499999995,157.3355131882888L491.5666875,155.29512904240536L495.6975,159.03552070030798L499.8283125,153.37434563269983L503.959125,163.28592564509464L508.0899375,154.45386915940503L512.22075,146.26695603590747L516.3515625,148.1429719191331L520.482375,140.89134979248047L524.6131875,156.15657982459436L528.744,140.18750939002405L532.8748125,124.39190967266377L537.005625,136.995361328125L541.1364375,139.11935013991138L545.26725,121.17708822397087L549.3980625,125.54320467435396L553.5288750000001,118.50659355750452L557.6596875,131.66816359299878L561.7905000000001,131.2523469191331L565.9213125,118.1417506291316L570.052125,122.22011918288013L574.1829375000001,125.1070040189303L578.31375,110.62392308161809L582.4445625,111.60083712064302L586.5753749999999,113.84313025841345L590.7061874999999,110.55471684382512L594.837,101.46991553673377L598.9678124999999,111.18730985201323L603.098625,109.25152118389424L607.2294375,106.8640852708083L611.36025,104.02163696289062L615.4910625,105.34993333082934L619.6218749999999,106.044560945951L623.7526875,100.40981057974007L627.8835,96.30366574800932L632.0143125,99.79627755972054L636.145125,98.51398996206429L640.2759374999999,99.02165867732121L644.40675,85.32822946401741L648.5375625,92.32478978083684L652.668375,95.97087449293872L656.7991875,101.23849252554085L660.9300000000001,100.74078134390022L665.0608125,98.21686377892127L669.191625,88.62684866098259L673.3224375,96.19708428016077L677.45325,89.75855959378755L681.5840625000001,97.25374133770283L685.714875,83.69061514047478L689.8456875,90.80401787391077L693.9765,89.99891956035908L698.1073125,85.53460693359375L702.2381250000001,80.76083843524638L706.3689375,92.99252378023589L710.49975,75.92059443547176L714.6305625,84.281005859375L718.7613749999999,89.4335192166842L722.8921875,75.70825899564302L727.0229999999999,85.16096496582031L731.1538125,87.65672008807842L735.284625,79.43750704251802L739.4154374999999,83.50056692270134L743.54625,88.05893824650691L747.6770624999999,74.90338134765625L751.807875,82.95585397573616L755.9386875,68.08156057504509L760.0695,73.00262333796574L764.2003125,68.16706848144531L768.331125,80.63858971228967L772.4619375,64.38364703838643L776.59275,73.49272155761719L780.7235625,66.90425461989184L784.854375,68.06865163949821L788.9851875,74.42608173076924L793.116,72.19620103102466L797.2468125,75.01139714167668L801.3776250000001,69.33477548452522L805.5084375,61.87600355881909L809.6392500000001,65.44146259014424L813.7700625,64.49000784067009L817.900875,64.34762338491585L822.0316875000001,70.7190657395583L826.1625,67.40224163348857L830.2933125000001,66.65749535193811L834.424125,62.47626906174878L838.5549375,64.0636268028846L842.68575,63.24379906287561L846.8165624999999,53.401839036207924L850.947375,57.35798645019531L855.0781875,53.24020150991585L859.209,67.15294471153845L863.3398125,55.9380587064303L867.4706249999999,58.087892972506026L871.6014375,60.171858567457924L875.73225,54.041548508864174L879.8630625,57.43400573730469L883.993875,60.010331373948326L888.1246874999999,71.01685391939604L892.2555,60.66212228628304L896.3863125,62.548150869516235L900.517125,56.9312744140625L904.6479375,56.778684175931474L908.7787500000001,55.90302804800179L912.9095625,65.39677781325122L917.040375,59.77366755558895L921.1711875,65.56260798527644L925.302,59.54632685734676L929.4328125000001,57.74966782789966L933.563625,56.50881019005408L937.6944375,60.60436307466947L941.82525,58.73482924241284L945.9560625,58.70090191180888L950.0868750000001,65.8128427358774L954.2176875,59.35991962139425L958.3485000000001,57.30535771296574L962.4793125000001,51.5953603891226L966.610125,46.901031494140625L970.7409375,57.68766080416166L974.8717499999999,60.48641733022835L979.0025625,60.7816678560697L983.133375,65.80578143780049L987.2641874999999,57.10245572603666L991.395,51.33707134540263L995.5258124999999,53.74315349872294L999.656625,56.589518620417685L1003.7874375,52.32090876652645L1007.91825,55.7549062875601L1012.0490625,49.236555833082924L1016.179875,56.94859666090747L1020.3106875,55.69284409743091L1024.4415,52.037850013146034L1028.5723125,55.4806189903846L1032.703125,51.75258460411658L1036.8339375,59.50478656475362L1040.96475,52.57489483173075L1045.0955625,50.11822509765625L1049.226375,51.28378061147835L1053.3571875,48.252608079176674L1057.488,56.41044851449821L1061.6188125,54.668459378756026L1065.749625,46.925801203801065L1069.8804375,46.97434762807991L1074.01125,54.33194439227763L1078.1420625,45.49533667931189L1082.272875,44.54040644719051L1086.4036875000002,48.99586486816406L1090.5345,46.083575908954344L1094.6653125,57.897513756385216L1098.796125,57.1556912935697L1102.9269375000001,37.73298410268929L1107.0577500000002,42.801285963792076L1111.1885625,47.95592322716345L1115.319375,38.07242290790263L1119.4501875,36.2244591346154L1123.5810000000001,48.94676677997294L1127.7118125000002,38.74903869628906L1131.842625,51.23633751502405L1135.9734375,34.04218703049878L1140.10425,43.02283419095553L1144.2350625000001,34.00053640512321L1148.3658750000002,38.978751549353966L1152.4966875,38.09073814978967L1156.6275,41.07347459059497L1160.7583125,29.641233004056478L1164.889125,37.85738431490385L1169.0199375,42.256793682391844L1173.1507499999998,23.337645310621987L1177.2815624999998,38.17150174654447L1181.4123749999999,43.95801485501803L1185.5431875,36.39530944824219L1189.674,33.641072199894815L1193.8048125,27.637148343599772L1197.9356249999998,34.77181772085335L1202.0664375,29.025686410757203L1206.19725,31.71477215106669L1210.3280625,42.55055471567009L1214.458875,29.57878464918872L1218.5896874999999,33.83216857910156L1222.7205,35.084004328801065L1226.8513125,30.718411959134603L1230.982125,32.94498267540564L1235.1129375,35.67671203613281L1239.2437499999999,29.567254873422485L1243.3745625,30.970743032602172L1247.505375,32.39464275653544L1251.6361875,20.0401846078726L1255.767,32.8917471078726L1259.8978124999999,33.86361342210034L1264.028625,27.859634399414062L1268.1594375,37.57509789100061L1272.29025,32.50376187838041L1276.4210625,34.567812406099776L1280.5518749999999,28.983649620643025L1284.6826875,31.861018254206748L1288.8135,27.843746478740968L1292.9443125,28.994462233323326L1297.075125,27.891079242412843L1301.2059375000001,26.708091148963337L1305.33675,28.397396381084718L1309.4675625,21.1015859750601L1313.598375,26.708091148963337L1317.7291875,25.47352247971753L1321.8600000000001,28.94343332143929L1325.9908125,26.5977032001202L1330.121625,23.388398390549888L1334.2524375,29.17154634915865L1338.38325,31.923907940204344L1342.5140625000001,23.664340679462157L1346.644875,24.454488900991578L1350.7756875,20.142849261944093L1354.9065,24.033955500676065L1359.0373125,25.097894521859985L1363.1681250000001,30.40633568396936L1367.2989375,31.110810499924888L1371.42975,17.951364370492797L1375.5605625,25.422162569486165L1379.691375,32.431990403395424L1383.8221875000002,21.058721689077515L1387.953,35.53030043381909L1392.0838125,28.62181326059196L1396.214625,23.664340679462157L1400.3454375000001,34.4699472280649L1404.4762500000002,30.393316415640015L1408.6070625000002,24.97343914325419L1412.737875,29.18864793043872L1416.8686875,20.776435265174275L1420.9995,31.110810499924888L1425.1303125,32.2613055889423L1429.261125,31.91905329777645L1433.3919374999998,27.776995145357585L1437.5227499999999,31.710579505333538L1441.6535625,28.15858107346753L1445.784375,29.18864793043872L1449.9151875,28.61480712890625L1454.0459999999998,30.053767277644248L1458.1768124999999,32.90752469576322L1462.307625,32.58871812086841L1466.4384375,35.6869178185096L1470.56925,25.965937687800498L1474.7000624999998,36.706889225886435L1478.8308749999999,23.898356511042685L1482.9616875,30.834040715144248L1487.0925,30.20850900503304L1491.2233125,28.48847609299878L1495.3541249999998,24.312104445237388L1499.4849375,23.710735614483156L1503.61575,29.452839778019815L1507.7465625,18.495194655198326L1511.877375,31.891414935772218L1516.0081875,37.32701462965747L1520.139,36.1628934420072L1524.2698125,32.13100257286658L1528.400625,25.73881765512321L1532.5314375,24.645750779371987L1536.66225,33.71620882474459L1540.7930625,30.834978543795085L1544.923875,26.7587890625L1549.0546875,33.88369398850659L1553.1855,37.86196312537561L1557.3163125,45.13813429612378L1561.447125,28.668208195612998L1565.5779375,37.877133882962724L1569.70875,40.290167001577515L1573.8395625,33.45803011380709L1577.970375,35.57068223219653L1582.1011875,31.284363966721763L1586.232,31.722054114708538L1590.3628125,40.35504267765926L1594.493625,47.380206768329344L1598.6244375,27.15284259502706L1602.7552500000002,38.31355520395134L1606.8860625,41.10282311072717L1611.016875,33.687080970177284L1615.1476875,26.618169931265015L1619.2785000000001,43.046610905573935L1623.4093125000002,40.4716092623197L1627.540125,38.16570927546574L1631.6709375,38.890871488131026L1635.80175,41.07457791841947L1639.9325625000001,35.35040283203125L1644.0633750000002,36.93218876765324L1648.1941875,40.63870826134314L1652.325,37.03005394568811L1656.4558125,36.07490304800179L1660.5866250000001,34.25110215407153L1664.7174375000002,34.55407597468449L1668.84825,42.868147629957924L1672.9790625,46.415346585787276L1677.109875,28.544800978440513L1681.2406875,36.35398982121395L1685.3715,39.49709496131311L1689.5023124999998,30.757028432992797L1693.6331249999998,39.46393996018628L1697.7639374999999,36.825441800631026L1701.89475,44.623431865985594L1706.0255625,45.63419048602763L1710.156375,40.33297612116886L1714.2871874999998,40.24636488694409L1718.418,40.98945617675781L1722.5488125,51.27942246657153L1726.679625,43.07292527418872L1730.8104375,43.64009094238281L1734.9412499999999,45.49765366774341L1739.0720625,53.84830064039966L1743.202875,34.41433950570915L1747.3336875,43.734480637770424L1751.4645,49.314450777493974L1755.5953124999999,36.82273864746094L1759.726125,49.09488854041467L1763.8569375,54.56187791090747L1767.98775,41.47116910494291L1772.1185625,39.433046781099776L1776.2493749999999,55.499320397010216L1780.3801875,52.4555147611178L1784.511,50.84642146183895L1788.6418125,51.03922799917366L1792.772625,50.91830326960636L1796.9034374999999,37.949346689077515L1801.03425,48.463398860051065L1805.1650625,59.674809382512L1809.295875,46.753847562349776L1813.4266875,62.307625403771034L1817.5575000000001,50.32112708458533L1821.6883125,59.56800724909855L1825.819125,59.83832256610575L1829.9499375,45.987862220177284L1834.08075,49.39620736929085L1838.2115625000001,49.01544893704928L1842.342375,65.68750469501201L1846.4731875,58.85189232459436L1850.604,62.59504230205831L1854.7348125,50.95515441894531" style="fill: none;" fill="none"></path></g></g></g></g></g></g><g transform="translate(31, 376)" clip-path="url(#clip_1)"><clipPath id="clip_1"><rect width="2065" height="24"></rect></clipPath><g><g><line x1="0" y1="0" x2="0" y2="5" style="visibility: inherit;" fill="rgb(0, 0, 0)" stroke="rgb(204, 204, 204)" stroke-width="1px"></line><line x1="206.540625" y1="0" x2="206.540625" y2="5" style="visibility: inherit;" fill="rgb(0, 0, 0)" stroke="rgb(204, 204, 204)" stroke-width="1px"></line><line x1="413.08125" y1="0" x2="413.08125" y2="5" style="visibility: inherit;" fill="rgb(0, 0, 0)" stroke="rgb(204, 204, 204)" stroke-width="1px"></line><line x1="619.6218749999999" y1="0" x2="619.6218749999999" y2="5" style="visibility: inherit;" fill="rgb(0, 0, 0)" stroke="rgb(204, 204, 204)" stroke-width="1px"></line><line x1="826.1625" y1="0" x2="826.1625" y2="5" style="visibility: inherit;" fill="rgb(0, 0, 0)" stroke="rgb(204, 204, 204)" stroke-width="1px"></line><line x1="1032.703125" y1="0" x2="1032.703125" y2="5" style="visibility: inherit;" fill="rgb(0, 0, 0)" stroke="rgb(204, 204, 204)" stroke-width="1px"></line><line x1="1239.2437499999999" y1="0" x2="1239.2437499999999" y2="5" style="visibility: inherit;" fill="rgb(0, 0, 0)" stroke="rgb(204, 204, 204)" stroke-width="1px"></line><line x1="1445.784375" y1="0" x2="1445.784375" y2="5" style="visibility: inherit;" fill="rgb(0, 0, 0)" stroke="rgb(204, 204, 204)" stroke-width="1px"></line><line x1="1652.325" y1="0" x2="1652.325" y2="5" style="visibility: inherit;" fill="rgb(0, 0, 0)" stroke="rgb(204, 204, 204)" stroke-width="1px"></line><line x1="1858.8656250000001" y1="0" x2="1858.8656250000001" y2="5" style="visibility: inherit;" fill="rgb(0, 0, 0)" stroke="rgb(204, 204, 204)" stroke-width="1px"></line><line x1="2065.40625" y1="0" x2="2065.40625" y2="5" style="visibility: inherit;" fill="rgb(0, 0, 0)" stroke="rgb(204, 204, 204)" stroke-width="1px"></line></g><g transform="translate(0, 8)"><text x="0" y="0" dx="0em" dy="0.95em" style="text-anchor: middle; visibility: hidden; font-family: Roboto, sans-serif; font-size: 12px; font-weight: 200;" fill="rgb(33, 33, 33)" stroke="none" stroke-width="1px">-50</text><text x="206.540625" y="0" dx="0em" dy="0.95em" style="text-anchor: middle; visibility: inherit; font-family: Roboto, sans-serif; font-size: 12px; font-weight: 200;" fill="rgb(33, 33, 33)" stroke="none" stroke-width="1px">0</text><text x="413.08125" y="0" dx="0em" dy="0.95em" style="text-anchor: middle; visibility: inherit; font-family: Roboto, sans-serif; font-size: 12px; font-weight: 200;" fill="rgb(33, 33, 33)" stroke="none" stroke-width="1px">50</text><text x="619.6218749999999" y="0" dx="0em" dy="0.95em" style="text-anchor: middle; visibility: inherit; font-family: Roboto, sans-serif; font-size: 12px; font-weight: 200;" fill="rgb(33, 33, 33)" stroke="none" stroke-width="1px">100</text><text x="826.1625" y="0" dx="0em" dy="0.95em" style="text-anchor: middle; visibility: inherit; font-family: Roboto, sans-serif; font-size: 12px; font-weight: 200;" fill="rgb(33, 33, 33)" stroke="none" stroke-width="1px">150</text><text x="1032.703125" y="0" dx="0em" dy="0.95em" style="text-anchor: middle; visibility: inherit; font-family: Roboto, sans-serif; font-size: 12px; font-weight: 200;" fill="rgb(33, 33, 33)" stroke="none" stroke-width="1px">200</text><text x="1239.2437499999999" y="0" dx="0em" dy="0.95em" style="text-anchor: middle; visibility: inherit; font-family: Roboto, sans-serif; font-size: 12px; font-weight: 200;" fill="rgb(33, 33, 33)" stroke="none" stroke-width="1px">250</text><text x="1445.784375" y="0" dx="0em" dy="0.95em" style="text-anchor: middle; visibility: inherit; font-family: Roboto, sans-serif; font-size: 12px; font-weight: 200;" fill="rgb(33, 33, 33)" stroke="none" stroke-width="1px">300</text><text x="1652.325" y="0" dx="0em" dy="0.95em" style="text-anchor: middle; visibility: inherit; font-family: Roboto, sans-serif; font-size: 12px; font-weight: 200;" fill="rgb(33, 33, 33)" stroke="none" stroke-width="1px">350</text><text x="1858.8656250000001" y="0" dx="0em" dy="0.95em" style="text-anchor: middle; visibility: inherit; font-family: Roboto, sans-serif; font-size: 12px; font-weight: 200;" fill="rgb(33, 33, 33)" stroke="none" stroke-width="1px">400</text><text x="2065.40625" y="0" dx="0em" dy="0.95em" style="text-anchor: middle; visibility: hidden; font-family: Roboto, sans-serif; font-size: 12px; font-weight: 200;" fill="rgb(33, 33, 33)" stroke="none" stroke-width="1px">450</text></g><line x1="0" y1="0" x2="2065.40625" y2="0" fill="rgb(0, 0, 0)" stroke="rgb(204, 204, 204)" stroke-width="1px"></line></g></g></g></g></svg>