<svg viewBox="0 0 2097 400" xmlns="http://www.w3.org/2000/svg"><g><g><g><g><g><line x1="31.59375" y1="376" x2="26.59375" y2="376" style="visibility: inherit;" fill="rgb(0, 0, 0)" stroke="rgb(204, 204, 204)" stroke-width="1px"></line><line x1="31.59375" y1="344.66666666666663" x2="26.59375" y2="344.66666666666663" style="visibility: inherit;" fill="rgb(0, 0, 0)" stroke="rgb(204, 204, 204)" stroke-width="1px"></line><line x1="31.59375" y1="313.33333333333337" x2="26.59375" y2="313.33333333333337" style="visibility: inherit;" fill="rgb(0, 0, 0)" stroke="rgb(204, 204, 204)" stroke-width="1px"></line><line x1="31.59375" y1="282" x2="26.59375" y2="282" style="visibility: inherit;" fill="rgb(0, 0, 0)" stroke="rgb(204, 204, 204)" stroke-width="1px"></line><line x1="31.59375" y1="250.66666666666669" x2="26.59375" y2="250.66666666666669" style="visibility: inherit;" fill="rgb(0, 0, 0)" stroke="rgb(204, 204, 204)" stroke-width="1px"></line><line x1="31.59375" y1="219.33333333333331" x2="26.59375" y2="219.33333333333331" style="visibility: inherit;" fill="rgb(0, 0, 0)" stroke="rgb(204, 204, 204)" stroke-width="1px"></line><line x1="31.59375" y1="188" x2="26.59375" y2="188" style="visibility: inherit;" fill="rgb(0, 0, 0)" stroke="rgb(204, 204, 204)" stroke-width="1px"></line><line x1="31.59375" y1="156.66666666666666" x2="26.59375" y2="156.66666666666666" style="visibility: inherit;" fill="rgb(0, 0, 0)" stroke="rgb(204, 204, 204)" stroke-width="1px"></line><line x1="31.59375" y1="125.33333333333334" x2="26.59375" y2="125.33333333333334" style="visibility: inherit;" fill="rgb(0, 0, 0)" stroke="rgb(204, 204, 204)" stroke-width="1px"></line><line x1="31.59375" y1="94" x2="26.59375" y2="94" style="visibility: inherit;" fill="rgb(0, 0, 0)" stroke="rgb(204, 204, 204)" stroke-width="1px"></line><line x1="31.59375" y1="62.66666666666665" x2="26.59375" y2="62.66666666666665" style="visibility: inherit;" fill="rgb(0, 0, 0)" stroke="rgb(204, 204, 204)" stroke-width="1px"></line><line x1="31.59375" y1="31.333333333333346" x2="26.59375" y2="31.333333333333346" style="visibility: inherit;" fill="rgb(0, 0, 0)" stroke="rgb(204, 204, 204)" stroke-width="1px"></line><line x1="31.59375" y1="0" x2="26.59375" y2="0" style="visibility: inherit;" fill="rgb(0, 0, 0)" stroke="rgb(204, 204, 204)" stroke-width="1px"></line></g><g transform="translate(21.59375, 0)"><text x="0" y="376" dx="0em" dy="0.3em" style="text-anchor: end; visibility: hidden; font-family: Roboto, sans-serif; font-size: 12px; font-weight: 200;" fill="rgb(33, 33, 33)" stroke="none" stroke-width="1px">12</text><text x="0" y="344.66666666666663" dx="0em" dy="0.3em" style="text-anchor: end; visibility: inherit; font-family: Roboto, sans-serif; font-size: 12px; font-weight: 200;" fill="rgb(33, 33, 33)" stroke="none" stroke-width="1px">14</text><text x="0" y="313.33333333333337" dx="0em" dy="0.3em" style="text-anchor: end; visibility: inherit; font-family: Roboto, sans-serif; font-size: 12px; font-weight: 200;" fill="rgb(33, 33, 33)" stroke="none" stroke-width="1px">16</text><text x="0" y="282" dx="0em" dy="0.3em" style="text-anchor: end; visibility: inherit; font-family: Roboto, sans-serif; font-size: 12px; font-weight: 200;" fill="rgb(33, 33, 33)" stroke="none" stroke-width="1px">18</text><text x="0" y="250.66666666666669" dx="0em" dy="0.3em" style="text-anchor: end; visibility: inherit; font-family: Roboto, sans-serif; font-size: 12px; font-weight: 200;" fill="rgb(33, 33, 33)" stroke="none" stroke-width="1px">20</text><text x="0" y="219.33333333333331" dx="0em" dy="0.3em" style="text-anchor: end; visibility: inherit; font-family: Roboto, sans-serif; font-size: 12px; font-weight: 200;" fill="rgb(33, 33, 33)" stroke="none" stroke-width="1px">22</text><text x="0" y="188" dx="0em" dy="0.3em" style="text-anchor: end; visibility: inherit; font-family: Roboto, sans-serif; font-size: 12px; font-weight: 200;" fill="rgb(33, 33, 33)" stroke="none" stroke-width="1px">24</text><text x="0" y="156.66666666666666" dx="0em" dy="0.3em" style="text-anchor: end; visibility: inherit; font-family: Roboto, sans-serif; font-size: 12px; font-weight: 200;" fill="rgb(33, 33, 33)" stroke="none" stroke-width="1px">26</text><text x="0" y="125.33333333333334" dx="0em" dy="0.3em" style="text-anchor: end; visibility: inherit; font-family: Roboto, sans-serif; font-size: 12px; font-weight: 200;" fill="rgb(33, 33, 33)" stroke="none" stroke-width="1px">28</text><text x="0" y="94" dx="0em" dy="0.3em" style="text-anchor: end; visibility: inherit; font-family: Roboto, sans-serif; font-size: 12px; font-weight: 200;" fill="rgb(33, 33, 33)" stroke="none" stroke-width="1px">30</text><text x="0" y="62.66666666666665" dx="0em" dy="0.3em" style="text-anchor: end; visibility: inherit; font-family: Roboto, sans-serif; font-size: 12px; font-weight: 200;" fill="rgb(33, 33, 33)" stroke="none" stroke-width="1px">32</text><text x="0" y="31.333333333333346" dx="0em" dy="0.3em" style="text-anchor: end; visibility: inherit; font-family: Roboto, sans-serif; font-size: 12px; font-weight: 200;" fill="rgb(33, 33, 33)" stroke="none" stroke-width="1px">34</text><text x="0" y="0" dx="0em" dy="0.3em" style="text-anchor: end; visibility: hidden; font-family: Roboto, sans-serif; font-size: 12px; font-weight: 200;" fill="rgb(33, 33, 33)" stroke="none" stroke-width="1px">36</text></g><line x1="31.59375" y1="0" x2="31.59375" y2="376" fill="rgb(0, 0, 0)" stroke="rgb(204, 204, 204)" stroke-width="1px"></line></g></g><g transform="translate(31, 0)" clip-path="url(#clip_0)"><clipPath id="clip_0"><rect width="2065" height="376"></rect></clipPath><g><g><g><line x1="0" y1="0" x2="0" y2="376" fill="rgb(0, 0, 0)" stroke="rgb(66, 66, 66)" stroke-width="1px" opacity="0.25"></line><line x1="206.540625" y1="0" x2="206.540625" y2="376" fill="rgb(0, 0, 0)" stroke="rgb(66, 66, 66)" stroke-width="1px" opacity="0.25"></line><line x1="413.08125" y1="0" x2="413.08125" y2="376" fill="rgb(0, 0, 0)" stroke="rgb(66, 66, 66)" stroke-width="1px" opacity="0.25"></line><line x1="619.6218749999999" y1="0" x2="619.6218749999999" y2="376" fill="rgb(0, 0, 0)" stroke="rgb(66, 66, 66)" stroke-width="1px" opacity="0.25"></line><line x1="826.1625" y1="0" x2="826.1625" y2="376" fill="rgb(0, 0, 0)" stroke="rgb(66, 66, 66)" stroke-width="1px" opacity="0.25"></line><line x1="1032.703125" y1="0" x2="1032.703125" y2="376" fill="rgb(0, 0, 0)" stroke="rgb(66, 66, 66)" stroke-width="1px" opacity="0.25"></line><line x1="1239.2437499999999" y1="0" x2="1239.2437499999999" y2="376" fill="rgb(0, 0, 0)" stroke="rgb(66, 66, 66)" stroke-width="1px" opacity="0.25"></line><line x1="1445.784375" y1="0" x2="1445.784375" y2="376" fill="rgb(0, 0, 0)" stroke="rgb(66, 66, 66)" stroke-width="1px" opacity="0.25"></line><line x1="1652.325" y1="0" x2="1652.325" y2="376" fill="rgb(0, 0, 0)" stroke="rgb(66, 66, 66)" stroke-width="1px" opacity="0.25"></line><line x1="1858.8656250000001" y1="0" x2="1858.8656250000001" y2="376" fill="rgb(0, 0, 0)" stroke="rgb(66, 66, 66)" stroke-width="1px" opacity="0.25"></line><line x1="2065.40625" y1="0" x2="2065.40625" y2="376" fill="rgb(0, 0, 0)" stroke="rgb(66, 66, 66)" stroke-width="1px" opacity="0.25"></line></g><g><line x1="0" y1="376" x2="2065.40625" y2="376" fill="rgb(0, 0, 0)" stroke="rgb(66, 66, 66)" stroke-width="1px" opacity="0.25"></line><line x1="0" y1="344.66666666666663" x2="2065.40625" y2="344.66666666666663" fill="rgb(0, 0, 0)" stroke="rgb(66, 66, 66)" stroke-width="1px" opacity="0.25"></line><line x1="0" y1="313.33333333333337" x2="2065.40625" y2="313.33333333333337" fill="rgb(0, 0, 0)" stroke="rgb(66, 66, 66)" stroke-width="1px" opacity="0.25"></line><line x1="0" y1="282" x2="2065.40625" y2="282" fill="rgb(0, 0, 0)" stroke="rgb(66, 66, 66)" stroke-width="1px" opacity="0.25"></line><line x1="0" y1="250.66666666666669" x2="2065.40625" y2="250.66666666666669" fill="rgb(0, 0, 0)" stroke="rgb(66, 66, 66)" stroke-width="1px" opacity="0.25"></line><line x1="0" y1="219.33333333333331" x2="2065.40625" y2="219.33333333333331" fill="rgb(0, 0, 0)" stroke="rgb(66, 66, 66)" stroke-width="1px" opacity="0.25"></line><line x1="0" y1="188" x2="2065.40625" y2="188" fill="rgb(0, 0, 0)" stroke="rgb(66, 66, 66)" stroke-width="1px" opacity="0.25"></line><line x1="0" y1="156.66666666666666" x2="2065.40625" y2="156.66666666666666" fill="rgb(0, 0, 0)" stroke="rgb(66, 66, 66)" stroke-width="1px" opacity="0.25"></line><line x1="0" y1="125.33333333333334" x2="2065.40625" y2="125.33333333333334" fill="rgb(0, 0, 0)" stroke="rgb(66, 66, 66)" stroke-width="1px" opacity="0.25"></line><line x1="0" y1="94" x2="2065.40625" y2="94" fill="rgb(0, 0, 0)" stroke="rgb(66, 66, 66)" stroke-width="1px" opacity="0.25"></line><line x1="0" y1="62.66666666666665" x2="2065.40625" y2="62.66666666666665" fill="rgb(0, 0, 0)" stroke="rgb(66, 66, 66)" stroke-width="1px" opacity="0.25"></line><line x1="0" y1="31.333333333333346" x2="2065.40625" y2="31.333333333333346" fill="rgb(0, 0, 0)" stroke="rgb(66, 66, 66)" stroke-width="1px" opacity="0.25"></line><line x1="0" y1="0" x2="2065.40625" y2="0" fill="rgb(0, 0, 0)" stroke="rgb(66, 66, 66)" stroke-width="1px" opacity="0.25"></line></g></g></g><g><g><line x1="0" y1="564" x2="2065.40625" y2="564" fill="rgb(0, 0, 0)" stroke="rgb(153, 153, 153)" stroke-width="1.5px"></line></g></g><g><g><line x1="206.540625" y1="0" x2="206.540625" y2="376" fill="rgb(0, 0, 0)" stroke="rgb(153, 153, 153)" stroke-width="1.5px"></line></g></g><g><g><g><g><g><path stroke="rgb(255, 112, 67)" stroke-width="2px" d="M260.2411875,378.7997933627158L264.372,364.49471208319954L268.5028125,363.49869354125804L272.633625,348.6951422313673L276.76443750000004,342.6879146528278L280.89525000000003,341.38515717540776L285.0260625,332.94028634788737L289.156875,340.0551721982946L293.28768749999995,332.1473985655957L297.4185,328.03380617841526L301.5493125,327.11648663128926L305.680125,328.62874994326603L309.81093749999997,321.39906504686456L313.94175,310.1683862223755L318.0725625,321.6256584492587L322.203375,323.64811341802647L326.3341875,318.002961993193L330.46500000000003,308.49030999317756L334.5958125,315.12615059867073L338.726625,313.17682001490016L342.8574375,302.681385116562L346.98825,302.9280552961674L351.11906250000004,301.1693586777386L355.249875,286.6001396975456L359.38068749999996,280.05707623376264L363.51149999999996,291.99893052162355L367.6423125,278.01316212562176L371.773125,277.60134700666015L375.9039375,282.0941958732803L380.03475,281.1107057893472L384.1655625,267.5504102000859L388.296375,266.980015200947L392.4271875,255.0362647830775L396.558,262.42579368599525L400.68881250000004,255.2502346227829L404.81962500000003,239.05316145403384L408.9504375,243.81773366335284L413.08125,241.21071739818282L417.2120625,232.87849569453886L421.342875,229.38965693238057L425.4736875,229.26295673279338L429.6045,232.30129274463584L433.73531249999996,219.96323185306971L437.866125,213.28392730879528L441.9969375,214.48124083080975L446.12775,215.71611155759547L450.2585625,201.50089578349684L454.38937500000003,203.85992740722796L458.5201875,194.42482765936862L462.651,197.36998335504808L466.7818125,200.76632206656595L470.912625,182.83283643834613L475.04343750000004,183.71283395561625L479.17425000000003,186.66791335273595L483.3050625,180.8905586509495L487.43587499999995,176.9707416551358L491.5666875,172.10047592786586L495.6975,169.63629233461185L499.8283125,165.71627418383903L503.959125,173.00416459772893L508.0899375,167.9751008610588L512.22075,164.48762888170586L516.3515625,170.4807453773902L520.482375,166.26305025403695L524.6131875,172.41738926433652L528.744,162.4007476546552L532.8748125,149.82708693907207L537.005625,154.38227634593022L541.1364375,153.56147076388652L545.26725,147.92815086192658L549.3980625,143.56841591467344L553.5288750000001,143.64189698489122L557.6596875,140.21069235305416L561.7905000000001,146.34297192745174L565.9213125,141.83752488754934L570.052125,141.6624043919297L574.1829375000001,137.9763438263766L578.31375,127.45095653611314L582.4445625,128.36865144212092L586.5753749999999,129.43076632432496L590.7061874999999,126.86952419981036L594.837,122.65028394162621L598.9678124999999,125.82313976681422L603.098625,127.16739802712759L607.2294375,124.97481966078705L611.36025,121.69781433477843L615.4910625,120.9160548498369L619.6218749999999,122.4650345337144L623.7526875,119.52820707896174L627.8835,118.40133988560913L632.0143125,112.11804183696943L636.145125,114.76955626406115L640.2759374999999,112.89824790949802L644.40675,102.04821587395449L648.5375625,106.02668678581009L652.668375,112.42308562393677L656.7991875,111.55385023084851L660.9300000000001,116.80947464105509L665.0608125,115.42245070600576L669.191625,112.30695919020388L673.3224375,108.12149105490501L677.45325,112.27067286471555L681.5840625000001,114.69446900340526L685.714875,105.71035412174753L689.8456875,106.46852915877132L693.9765,110.19713034596985L698.1073125,105.32050226138739L702.2381250000001,101.45069046988618L706.3689375,104.698551185707L710.49975,97.29254533805529L714.6305625,95.76052414294239L718.7613749999999,99.24782525076772L722.8921875,98.81484441309264L727.0229999999999,102.4071700296L731.1538125,104.52062797469014L735.284625,99.91075744218193L739.4154374999999,105.20804027452985L743.54625,106.03362900292676L747.6770624999999,102.69154447464399L751.807875,101.6440441032652L755.9386875,89.56429518796132L760.0695,88.23795884177122L764.2003125,84.32604099818924L768.331125,92.59635195551664L772.4619375,86.92750168188543L776.59275,88.33549253592967L780.7235625,88.64627379602324L784.854375,90.05720060846286L788.9851875,98.50223645656546L793.116,97.60192230140902L797.2468125,96.16278963805023L801.3776250000001,91.02654377451398L805.5084375,81.37059560171824L809.6392500000001,89.25573056769645L813.7700625,87.55759357870221L817.900875,82.09561104937501L822.0316875000001,89.7730833861791L826.1625,84.56462428935437L830.2933125000001,87.9410186363849L834.424125,85.06561582514225L838.5549375,84.99556111320254L842.68575,80.39546895137651L846.8165624999999,78.60953598239065L850.947375,79.8437491333566L855.0781875,75.46205503129552L859.209,83.050446519186L863.3398125,78.68373791139871L867.4706249999999,77.65889155330123L871.6014375,78.07529039888163L875.73225,77.7005025767669L879.8630625,77.32074001419939L883.993875,83.48439909578971L888.1246874999999,87.10044641238743L892.2555,81.41909731698225L896.3863125,86.12804283341647L900.517125,80.19697832747549L904.6479375,76.2298949415748L908.7787500000001,73.46982116219304L912.9095625,81.09136140667387L917.040375,77.07800325109645L921.1711875,82.38696752108974L925.302,80.95313897769196L929.4328125000001,76.03964965460027L933.563625,77.93035087866332L937.6944375,75.76467106938047L941.82525,76.2519299504705L945.9560625,72.93168939574883L950.0868750000001,80.8456076051632L954.2176875,77.04391592622673L958.3485000000001,77.9442374284165L962.4793125000001,72.88881185414263L966.610125,68.25997909390915L970.7409375,69.55593471931363L974.8717499999999,77.40566038068361L979.0025625,82.1875101548534L983.133375,83.30826047102157L987.2641874999999,79.32347062775439L991.395,71.80737577658394L995.5258124999999,71.18042453952037L999.656625,70.2059069922046L1003.7874375,71.29707961073322L1007.91825,68.18391127891263L1012.0490625,68.85522419513879L1016.179875,70.01166988863562L1020.3106875,71.93118939198669L1024.4415,76.57650699663459L1028.5723125,71.50752000051199L1032.703125,70.37413803392803L1036.8339375,75.08525217212504L1040.96475,68.94403230882574L1045.0955625,69.10987491850595L1049.226375,68.41311998929615L1053.3571875,65.21787862729587L1057.488,69.6219480449765L1061.6188125,70.88205868832247L1065.749625,65.69647506386528L1069.8804375,61.09009342812465L1074.01125,69.08910566856348L1078.1420625,65.2318885365484L1082.272875,61.894953536716855L1086.4036875000002,61.72383765375718L1090.5345,59.65118443225358L1094.6653125,65.17221721917602L1098.796125,71.75763396827442L1102.9269375000001,61.34803681391719L1107.0577500000002,59.76510467113348L1111.1885625,63.45513973129719L1115.319375,61.40850096865823L1119.4501875,57.28763293758429L1123.5810000000001,67.41228885158284L1127.7118125000002,63.40736491296942L1131.842625,62.70238712771526L1135.9734375,52.35326236693017L1140.10425,51.420631067460775L1144.2350625000001,44.10902219716634L1148.3658750000002,44.95108485901439L1152.4966875,51.62116424642581L1156.6275,54.644028913579106L1160.7583125,49.87379311599873L1164.889125,54.25469932051195L1169.0199375,59.831666392134174L1173.1507499999998,43.77804005206987L1177.2815624999998,48.884256437452606L1181.4123749999999,54.5122601053338L1185.5431875,54.09452489903982L1189.674,48.35930259862493L1193.8048125,48.0761316466642L1197.9356249999998,53.170035267220136L1202.0664375,45.12113531780525L1206.19725,50.402976431421074L1210.3280625,56.39333730065154L1214.458875,46.982115156974515L1218.5896874999999,49.38320021506632L1222.7205,42.88789106567416L1226.8513125,45.34183593724535L1230.982125,44.51679669708805L1235.1129375,49.499735811757205L1239.2437499999999,44.90946829022551L1243.3745625,43.708039257439L1247.505375,43.25832266448687L1251.6361875,36.702202282280226L1255.767,44.162177839288844L1259.8978124999999,43.75606819466641L1264.028625,46.84009994264332L1268.1594375,44.89359560231412L1272.29025,43.278416405741055L1276.4210625,46.1626938727853L1280.5518749999999,46.96370800579595L1284.6826875,47.92121857433139L1288.8135,49.40488860764923L1292.9443125,45.2958636234685L1297.075125,42.47007329659492L1301.2059375000001,38.37158540101848L1305.33675,43.09466090359425L1309.4675625,36.503764706283555L1313.598375,36.11632075388078L1317.7291875,37.83554029243197L1321.8600000000001,41.13293735706518L1325.9908125,39.39916060946344L1330.121625,40.14826151998815L1334.2524375,37.567208440391234L1338.38325,37.55869910199128L1342.5140625000001,40.28683966080094L1346.644875,38.235175084063876L1350.7756875,31.873591837598855L1354.9065,36.45564428677629L1359.0373125,38.606710814978264L1363.1681250000001,41.217906886120865L1367.2989375,38.83654901179566L1371.42975,31.496330270009352L1375.5605625,36.836769153098736L1379.691375,40.98066996332107L1383.8221875000002,40.960559996216794L1387.953,48.25119869354393L1392.0838125,39.40445207619131L1396.214625,36.16063730984913L1400.3454375000001,41.16179998179725L1404.4762500000002,44.5826127856975L1408.6070625000002,38.535731707090314L1412.737875,40.870757444858526L1416.8686875,35.560122945321055L1420.9995,36.697906682173354L1425.1303125,38.77229735043428L1429.261125,41.39112530550759L1433.3919374999998,45.343875341372986L1437.5227499999999,46.07674994455004L1441.6535625,43.6143157520095L1445.784375,42.79046221383798L1449.9151875,40.44308292483859L1454.0459999999998,42.857735475288735L1458.1768124999999,41.86119691259289L1462.307625,37.93578935027787L1466.4384375,47.80702146776842L1470.56925,44.6839148325899L1474.7000624999998,41.881933475033655L1478.8308749999999,36.53637127826572L1482.9616875,43.860694667850865L1487.0925,41.597409260269515L1491.2233125,44.41732595957787L1495.3541249999998,40.98209307716133L1499.4849375,38.72339766418498L1503.61575,41.785558389225756L1507.7465625,37.05489651546328L1511.877375,38.47108924649263L1516.0081875,45.633120962570786L1520.139,45.606855831233005L1524.2698125,41.70224294972205L1528.400625,35.521541620598775L1532.5314375,35.00600494317792L1536.66225,40.40120079452638L1540.7930625,36.16303951281877L1544.923875,39.8657065013566L1549.0546875,41.59548479412574L1553.1855,45.78790875816099L1557.3163125,50.86270208189429L1561.447125,45.74075116214324L1565.5779375,50.624701108276156L1569.70875,55.21732066862731L1573.8395625,48.570904241956605L1577.970375,42.57723741136977L1582.1011875,43.462187832358794L1586.232,40.12237569671728L1590.3628125,43.3490068943813L1594.493625,51.44856933569042L1598.6244375,43.94185897288838L1602.7552500000002,46.36778960357638L1606.8860625,48.59320499179898L1611.016875,50.0892507536643L1615.1476875,45.23456773276107L1619.2785000000001,47.037651662086056L1623.4093125000002,47.252845515422614L1627.540125,48.55647266903875L1631.6709375,50.70916478921735L1635.80175,49.9195014164838L1639.9325625000001,42.52807461770629L1644.0633750000002,46.43647311145812L1648.1941875,44.31584042042071L1652.325,44.15276108183242L1656.4558125,47.958888535530996L1660.5866250000001,45.08576516936848L1664.7174375000002,46.01408970266953L1668.84825,49.12527402264005L1672.9790625,50.49095810326295L1677.109875,44.64577918960406L1681.2406875,46.29009597348971L1685.3715,46.10295011902325L1689.5023124999998,46.86492031263402L1693.6331249999998,48.53916164687271L1697.7639374999999,42.892397872313666L1701.89475,46.28561366532689L1706.0255625,52.19096618709182L1710.156375,52.93459852591072L1714.2871874999998,52.297110701290414L1718.418,49.56781998345446L1722.5488125,52.37704349057031L1726.679625,50.05827291245807L1730.8104375,54.04875806199153L1734.9412499999999,54.40717896560505L1739.0720625,56.698953568534016L1743.202875,52.66551456853477L1747.3336875,51.23975468228052L1751.4645,55.013326102096066L1755.5953124999999,52.38665748296192L1759.726125,57.14759231957522L1763.8569375,58.58727998112967L1767.98775,59.821226065451675L1772.1185625,53.95476184436271L1776.2493749999999,55.549510593217306L1780.3801875,57.789087926497736L1784.511,50.687401632395314L1788.6418125,61.4337195143823L1792.772625,59.33799785631929L1796.9034374999999,51.76089611662969L1801.03425,51.002190560292405L1805.1650625,62.30942095272964L1809.295875,56.74246073357584L1813.4266875,60.035774106978344L1817.5575000000001,54.279678404674094L1821.6883125,65.62943914772119L1825.819125,64.59479042841119L1829.9499375,57.27195968056007L1834.08075,55.960551832453206L1838.2115625000001,59.77496925367801L1842.342375,69.8699391052259L1846.4731875,72.57975648403367L1850.604,67.57756967973471L1854.7348125,57.89913945926039" style="fill: none;" fill="none"></path></g></g></g></g><g opacity="0.2"><g><g><g><path stroke="rgb(255, 112, 67)" stroke-width="2px" d="M251.9795625,391.9543237686157L256.110375,375.462994257609L260.2411875,375.4775915145874L264.372,355.8012809753418L268.5028125,362.8933963775635L272.633625,339.69877338409424L276.76443750000004,339.0372203191122L280.89525000000003,340.59344927469886L285.0260625,327.8081944783529L289.156875,344.37900956471765L293.28768749999995,327.34170977274573L297.4185,325.5339059829712L301.5493125,326.5590159098307L305.680125,329.54777812957764L309.81093749999997,317.0054623285929L313.94175,303.34331130981445L318.0725625,328.5884380340576L322.203375,324.8771937688192L326.3341875,314.57230726877845L330.46500000000003,302.7093092600504L334.5958125,319.15886402130127L338.726625,311.9921785990397L342.8574375,296.3031304677328L346.98825,303.0779609680176L351.11906250000004,300.1005687713623L355.249875,277.74617703755695L359.38068749999996,276.0807450612386L363.51149999999996,299.25619888305664L367.6423125,269.51377232869464L371.773125,277.3510799407959L375.9039375,284.82457669576013L380.03475,280.5130221048991L384.1655625,259.3095874786377L388.296375,266.6333764394124L392.4271875,247.7778441111247L396.558,266.91653633117676L400.68881250000004,250.88952509562176L404.81962500000003,229.20992406209308L408.9504375,246.7132453918457L413.08125,239.62638918558758L417.2120625,227.81486256917316L421.342875,227.26943016052246L425.4736875,229.1859588623047L429.6045,234.14774131774902L433.73531249999996,212.4651819864909L437.866125,209.22480010986328L441.9969375,215.2088686625163L446.12775,216.4665635426839L450.2585625,192.8620669047038L454.38937500000003,205.2935511271159L458.5201875,188.69095675150555L462.651,199.15980466206867L466.7818125,202.83033498128253L470.912625,171.9343516031901L475.04343750000004,184.24762344360352L479.17425000000003,188.46376546223956L483.3050625,177.37956174214682L487.43587499999995,174.58860206604004L491.5666875,169.1407324473063L495.6975,168.13876597086588L499.8283125,163.33401234944662L503.959125,177.4331398010254L508.0899375,164.91885312398276L512.22075,162.36823272705078L516.3515625,174.12286440531412L520.482375,163.69988505045572L524.6131875,176.15748596191406L528.744,156.31346384684244L532.8748125,142.1858590443929L537.005625,157.15054257710776L541.1364375,153.0626532236735L545.26725,144.50468635559082L549.3980625,140.9189306894938L553.5288750000001,143.68655268351236L557.6596875,138.1254908243815L561.7905000000001,150.06966272989908L565.9213125,139.09948794047037L570.052125,141.55598068237305L574.1829375000001,135.73626200358072L578.31375,121.05449930826822L582.4445625,128.92635027567545L586.5753749999999,130.07623163859049L590.7061874999999,125.3130137125651L594.837,120.08617973327637L598.9678124999999,127.75133832295737L603.098625,127.98432668050131L607.2294375,123.64235242207846L611.36025,119.70632235209146L615.4910625,120.44096628824869L619.6218749999999,123.40637588500977L623.7526875,117.74344698588052L627.8835,117.71652348836264L632.0143125,108.2995745340983L636.145125,116.38092676798502L640.2759374999999,111.76102193196616L644.40675,95.45446650187174L648.5375625,108.44447135925293L652.668375,116.31028620402017L656.7991875,111.02560106913248L660.9300000000001,120.00340716044107L665.0608125,114.57953262329102L669.191625,110.41362190246582L673.3224375,105.57791074117026L677.45325,114.79220136006674L681.5840625000001,116.16745122273764L685.714875,100.25055440266928L689.8456875,106.92928504943848L693.9765,112.46306482950845L698.1073125,102.35689226786295L702.2381250000001,99.09893989562988L706.3689375,106.67233149210611L710.49975,92.79178937276205L714.6305625,94.82948875427246L718.7613749999999,101.36711756388345L722.8921875,98.55171457926431L727.0229999999999,104.59028752644858L731.1538125,105.80501238505045L735.284625,97.10926055908203L739.4154374999999,108.42728932698569L743.54625,106.53535334269205L747.6770624999999,100.6605027516683L751.807875,101.0074602762858L755.9386875,82.22322591145834L760.0695,87.43192164103189L764.2003125,81.94870185852051L768.331125,97.62236086527506L772.4619375,83.4824447631836L776.59275,89.19115257263184L780.7235625,88.83514086405435L784.854375,90.91464487711588L788.9851875,103.63442866007486L793.116,97.05478604634604L797.2468125,95.28820419311523L801.3776250000001,87.9051596323649L805.5084375,75.50251134236655L809.6392500000001,94.04766146341959L813.7700625,86.52560679117838L817.900875,78.77627118428549L822.0316875000001,94.43881416320801L826.1625,81.39935493469238L830.2933125000001,89.9929110209147L834.424125,83.31818453470865L838.5549375,84.95298767089844L842.68575,77.59991455078125L846.8165624999999,77.52419408162436L850.947375,80.59380149841309L855.0781875,72.79922485351562L859.209,87.66204134623209L863.3398125,76.0300146738688L867.4706249999999,77.03607495625815L871.6014375,78.32834307352701L875.73225,77.47273763020834L879.8630625,77.0899518330892L883.993875,87.23015975952148L888.1246874999999,89.29797999064127L892.2555,77.9664446512858L896.3863125,88.9897492726644L900.517125,76.59256935119629L904.6479375,73.81903076171875L908.7787500000001,71.7924772898356L912.9095625,85.72310129801431L917.040375,74.63901710510254L921.1711875,85.61331558227539L925.302,80.08177693684897L929.4328125000001,73.05363845825195L933.563625,79.07936223347983L937.6944375,74.44855054219565L941.82525,76.54804547627768L945.9560625,70.91392262776694L950.0868750000001,85.65503056844076L954.2176875,74.73356310526529L958.3485000000001,78.49137814839682L962.4793125000001,69.81654357910156L966.610125,65.44695854187012L970.7409375,70.3435090382894L974.8717499999999,82.17607243855795L979.0025625,85.09352175394693L983.133375,83.98935953776041L987.2641874999999,76.90184593200684L991.395,67.23971684773764L995.5258124999999,70.7994155883789L999.656625,69.61367607116699L1003.7874375,71.96020380655924L1007.91825,66.29198582967123L1012.0490625,69.2631924947103L1016.179875,70.71446164449057L1020.3106875,73.09771410624185L1024.4415,79.39954566955566L1028.5723125,68.4270102183024L1032.703125,69.68536249796549L1036.8339375,77.94827651977539L1040.96475,65.2119083404541L1045.0955625,69.21066029866537L1049.226375,67.98969014485678L1053.3571875,63.27607599894204L1057.488,72.29837608337402L1061.6188125,71.64784940083823L1065.749625,62.545107523600244L1069.8804375,58.29071680704751L1074.01125,73.95024172465006L1078.1420625,62.88779195149741L1082.272875,59.867041269938134L1086.4036875000002,61.61984761555991L1090.5345,58.391597747802734L1094.6653125,68.5274429321289L1098.796125,75.75970395406088L1102.9269375000001,55.02194722493491L1107.0577500000002,58.80312983194985L1111.1885625,65.69763692220053L1115.319375,60.164723714192725L1119.4501875,54.78331120808921L1123.5810000000001,73.56521479288736L1127.7118125000002,60.97350438435874L1131.842625,62.27396011352539L1135.9734375,46.06392288208008L1140.10425,50.85385513305664L1144.2350625000001,39.665632883707666L1148.3658750000002,45.46282068888345L1152.4966875,55.674685160318994L1156.6275,56.481075286865234L1160.7583125,46.97483952840171L1164.889125,56.917050679524756L1169.0199375,63.22088432312012L1173.1507499999998,34.02197774251304L1177.2815624999998,51.98739115397134L1181.4123749999999,57.93249384562173L1185.5431875,53.840660095214844L1189.674,44.8739102681478L1193.8048125,47.9040438334147L1197.9356249999998,56.26568730672202L1202.0664375,40.22968165079751L1206.19725,53.61284128824868L1210.3280625,60.0337816874186L1214.458875,41.26275507609048L1218.5896874999999,50.84238052368164L1222.7205,38.94058100382485L1226.8513125,46.833140055338525L1230.982125,44.01540629069009L1235.1129375,52.52795282999673L1239.2437499999999,42.1198844909668L1243.3745625,42.97791035970054L1247.505375,42.985022226969384L1251.6361875,32.71793619791665L1255.767,48.69573211669922L1259.8978124999999,43.5092684427897L1264.028625,48.714318593343116L1268.1594375,43.71067174275718L1272.29025,42.296844482421875L1276.4210625,47.9155184427897L1280.5518749999999,47.450497945149756L1284.6826875,48.50311406453452L1288.8135,50.30654017130532L1292.9443125,42.79873911539712L1297.075125,40.75279235839844L1301.2059375000001,35.88086446126304L1305.33675,45.9649543762207L1309.4675625,32.49836476643882L1313.598375,35.88086446126304L1317.7291875,38.8803393046061L1321.8600000000001,43.13682174682617L1325.9908125,38.34551493326821L1330.121625,40.60350290934243L1334.2524375,35.99865849812827L1338.38325,37.55352783203125L1342.5140625000001,41.94477717081704L1346.644875,36.98834355672202L1350.7756875,28.007549285888672L1354.9065,39.24023564656577L1359.0373125,39.913950602213525L1363.1681250000001,42.80477523803711L1367.2989375,37.38935724894204L1371.42975,27.035554250081393L1375.5605625,40.082244873046875L1379.691375,43.49898910522461L1383.8221875000002,40.94833882649741L1387.953,52.68184407552085L1392.0838125,34.028133392333984L1396.214625,34.18931579589844L1400.3454375000001,44.20109176635742L1404.4762500000002,46.6614990234375L1408.6070625000002,34.860939025878906L1412.737875,42.289792378743506L1416.8686875,32.332759857177734L1420.9995,37.38935724894204L1425.1303125,40.03293991088867L1429.261125,42.98263168334961L1433.3919374999998,47.746028900146484L1437.5227499999999,46.52213033040366L1441.6535625,42.11785252888999L1445.784375,42.289792378743506L1449.9151875,39.01654052734375L1454.0459999999998,44.32516098022461L1458.1768124999999,41.2555834452311L1462.307625,35.55025227864585L1466.4384375,53.80593744913735L1470.56925,42.78594970703125L1474.7000624999998,40.179121653238916L1478.8308749999999,33.28778203328452L1482.9616875,48.311810811360694L1487.0925,40.22197214762368L1491.2233125,46.13103739420571L1495.3541249999998,38.89444351196289L1499.4849375,37.35074996948242L1503.61575,43.64648564656577L1507.7465625,34.17999267578125L1511.877375,39.33173370361328L1516.0081875,49.98560969034829L1520.139,45.59089406331382L1524.2698125,39.329343159993506L1528.400625,31.76542409261069L1532.5314375,34.692704518636084L1536.66225,43.67995325724282L1540.7930625,33.58743667602539L1544.923875,42.11588033040366L1549.0546875,42.64670054117837L1553.1855,48.335716247558594L1557.3163125,53.946740468343116L1561.447125,42.628054300943994L1565.5779375,53.59276072184243L1569.70875,58.00833384195962L1573.8395625,44.53176371256509L1577.970375,38.934783935546875L1582.1011875,43.99998728434243L1586.232,38.092714945475244L1590.3628125,45.309885660807275L1594.493625,56.370811462402344L1598.6244375,39.3799031575521L1602.7552500000002,47.84206899007163L1606.8860625,49.945627848307275L1611.016875,50.998423258463525L1615.1476875,42.28429412841797L1619.2785000000001,48.13341649373374L1623.4093125000002,47.383622487386084L1627.540125,49.34870910644531L1631.6709375,52.017392476399756L1635.80175,49.43960952758789L1639.9325625000001,38.03617858886719L1644.0633750000002,48.81167348225913L1648.1941875,43.027095794677734L1652.325,44.05365498860679L1656.4558125,50.27193705240884L1660.5866250000001,43.339719136556006L1664.7174375000002,46.57824834187827L1668.84825,51.015993754068994L1672.9790625,51.32090759277344L1677.109875,41.093564351399756L1681.2406875,47.28937530517578L1685.3715,45.98921839396157L1689.5023124999998,47.3279825846354L1693.6331249999998,49.55662663777671L1697.7639374999999,39.46076329549155L1701.89475,48.34772872924805L1706.0255625,55.77974955240884L1710.156375,53.38651657104492L1714.2871874999998,51.909698486328125L1718.418,47.909183502197266L1722.5488125,54.08425649007163L1726.679625,48.64911651611328L1730.8104375,56.47384389241538L1734.9412499999999,54.624997456868506L1739.0720625,58.09170405069985L1743.202875,50.214324951171875L1747.3336875,50.37329610188804L1751.4645,57.306589762369775L1755.5953124999999,50.79038619995117L1759.726125,60.0408935546875L1763.8569375,59.462202707926416L1767.98775,60.571116129557275L1772.1185625,50.389611562093116L1776.2493749999999,56.518666585286475L1780.3801875,59.15011723836265L1784.511,46.371585845947266L1788.6418125,67.96444002787271L1792.772625,58.06439208984375L1796.9034374999999,47.15616226196289L1801.03425,50.54111226399741L1805.1650625,69.18101755777994L1809.295875,53.359324137369775L1813.4266875,62.03717676798501L1817.5575000000001,50.78160095214844L1821.6883125,72.52688217163086L1825.819125,63.96601676940918L1829.9499375,52.82175064086914L1834.08075,55.16358693440757L1838.2115625000001,62.093055725097656L1842.342375,76.00482432047525L1846.4731875,74.22655868530273L1850.604,64.53765551249185L1854.7348125,52.017392476399756" style="fill: none;" fill="none"></path></g></g></g></g></g></g><g transform="translate(31, 376)" clip-path="url(#clip_1)"><clipPath id="clip_1"><rect width="2065" height="24"></rect></clipPath><g><g><line x1="0" y1="0" x2="0" y2="5" style="visibility: inherit;" fill="rgb(0, 0, 0)" stroke="rgb(204, 204, 204)" stroke-width="1px"></line><line x1="206.540625" y1="0" x2="206.540625" y2="5" style="visibility: inherit;" fill="rgb(0, 0, 0)" stroke="rgb(204, 204, 204)" stroke-width="1px"></line><line x1="413.08125" y1="0" x2="413.08125" y2="5" style="visibility: inherit;" fill="rgb(0, 0, 0)" stroke="rgb(204, 204, 204)" stroke-width="1px"></line><line x1="619.6218749999999" y1="0" x2="619.6218749999999" y2="5" style="visibility: inherit;" fill="rgb(0, 0, 0)" stroke="rgb(204, 204, 204)" stroke-width="1px"></line><line x1="826.1625" y1="0" x2="826.1625" y2="5" style="visibility: inherit;" fill="rgb(0, 0, 0)" stroke="rgb(204, 204, 204)" stroke-width="1px"></line><line x1="1032.703125" y1="0" x2="1032.703125" y2="5" style="visibility: inherit;" fill="rgb(0, 0, 0)" stroke="rgb(204, 204, 204)" stroke-width="1px"></line><line x1="1239.2437499999999" y1="0" x2="1239.2437499999999" y2="5" style="visibility: inherit;" fill="rgb(0, 0, 0)" stroke="rgb(204, 204, 204)" stroke-width="1px"></line><line x1="1445.784375" y1="0" x2="1445.784375" y2="5" style="visibility: inherit;" fill="rgb(0, 0, 0)" stroke="rgb(204, 204, 204)" stroke-width="1px"></line><line x1="1652.325" y1="0" x2="1652.325" y2="5" style="visibility: inherit;" fill="rgb(0, 0, 0)" stroke="rgb(204, 204, 204)" stroke-width="1px"></line><line x1="1858.8656250000001" y1="0" x2="1858.8656250000001" y2="5" style="visibility: inherit;" fill="rgb(0, 0, 0)" stroke="rgb(204, 204, 204)" stroke-width="1px"></line><line x1="2065.40625" y1="0" x2="2065.40625" y2="5" style="visibility: inherit;" fill="rgb(0, 0, 0)" stroke="rgb(204, 204, 204)" stroke-width="1px"></line></g><g transform="translate(0, 8)"><text x="0" y="0" dx="0em" dy="0.95em" style="text-anchor: middle; visibility: hidden; font-family: Roboto, sans-serif; font-size: 12px; font-weight: 200;" fill="rgb(33, 33, 33)" stroke="none" stroke-width="1px">-50</text><text x="206.540625" y="0" dx="0em" dy="0.95em" style="text-anchor: middle; visibility: inherit; font-family: Roboto, sans-serif; font-size: 12px; font-weight: 200;" fill="rgb(33, 33, 33)" stroke="none" stroke-width="1px">0</text><text x="413.08125" y="0" dx="0em" dy="0.95em" style="text-anchor: middle; visibility: inherit; font-family: Roboto, sans-serif; font-size: 12px; font-weight: 200;" fill="rgb(33, 33, 33)" stroke="none" stroke-width="1px">50</text><text x="619.6218749999999" y="0" dx="0em" dy="0.95em" style="text-anchor: middle; visibility: inherit; font-family: Roboto, sans-serif; font-size: 12px; font-weight: 200;" fill="rgb(33, 33, 33)" stroke="none" stroke-width="1px">100</text><text x="826.1625" y="0" dx="0em" dy="0.95em" style="text-anchor: middle; visibility: inherit; font-family: Roboto, sans-serif; font-size: 12px; font-weight: 200;" fill="rgb(33, 33, 33)" stroke="none" stroke-width="1px">150</text><text x="1032.703125" y="0" dx="0em" dy="0.95em" style="text-anchor: middle; visibility: inherit; font-family: Roboto, sans-serif; font-size: 12px; font-weight: 200;" fill="rgb(33, 33, 33)" stroke="none" stroke-width="1px">200</text><text x="1239.2437499999999" y="0" dx="0em" dy="0.95em" style="text-anchor: middle; visibility: inherit; font-family: Roboto, sans-serif; font-size: 12px; font-weight: 200;" fill="rgb(33, 33, 33)" stroke="none" stroke-width="1px">250</text><text x="1445.784375" y="0" dx="0em" dy="0.95em" style="text-anchor: middle; visibility: inherit; font-family: Roboto, sans-serif; font-size: 12px; font-weight: 200;" fill="rgb(33, 33, 33)" stroke="none" stroke-width="1px">300</text><text x="1652.325" y="0" dx="0em" dy="0.95em" style="text-anchor: middle; visibility: inherit; font-family: Roboto, sans-serif; font-size: 12px; font-weight: 200;" fill="rgb(33, 33, 33)" stroke="none" stroke-width="1px">350</text><text x="1858.8656250000001" y="0" dx="0em" dy="0.95em" style="text-anchor: middle; visibility: inherit; font-family: Roboto, sans-serif; font-size: 12px; font-weight: 200;" fill="rgb(33, 33, 33)" stroke="none" stroke-width="1px">400</text><text x="2065.40625" y="0" dx="0em" dy="0.95em" style="text-anchor: middle; visibility: hidden; font-family: Roboto, sans-serif; font-size: 12px; font-weight: 200;" fill="rgb(33, 33, 33)" stroke="none" stroke-width="1px">450</text></g><line x1="0" y1="0" x2="2065.40625" y2="0" fill="rgb(0, 0, 0)" stroke="rgb(204, 204, 204)" stroke-width="1px"></line></g></g></g></g></svg>