<svg viewBox="0 0 2097 400" xmlns="http://www.w3.org/2000/svg"><g><g><g><g><g><line x1="31.59375" y1="376" x2="26.59375" y2="376" style="visibility: inherit;" fill="rgb(0, 0, 0)" stroke="rgb(204, 204, 204)" stroke-width="1px"></line><line x1="31.59375" y1="349.14285714285717" x2="26.59375" y2="349.14285714285717" style="visibility: inherit;" fill="rgb(0, 0, 0)" stroke="rgb(204, 204, 204)" stroke-width="1px"></line><line x1="31.59375" y1="322.28571428571433" x2="26.59375" y2="322.28571428571433" style="visibility: inherit;" fill="rgb(0, 0, 0)" stroke="rgb(204, 204, 204)" stroke-width="1px"></line><line x1="31.59375" y1="295.42857142857144" x2="26.59375" y2="295.42857142857144" style="visibility: inherit;" fill="rgb(0, 0, 0)" stroke="rgb(204, 204, 204)" stroke-width="1px"></line><line x1="31.59375" y1="268.57142857142856" x2="26.59375" y2="268.57142857142856" style="visibility: inherit;" fill="rgb(0, 0, 0)" stroke="rgb(204, 204, 204)" stroke-width="1px"></line><line x1="31.59375" y1="241.7142857142857" x2="26.59375" y2="241.7142857142857" style="visibility: inherit;" fill="rgb(0, 0, 0)" stroke="rgb(204, 204, 204)" stroke-width="1px"></line><line x1="31.59375" y1="214.85714285714283" x2="26.59375" y2="214.85714285714283" style="visibility: inherit;" fill="rgb(0, 0, 0)" stroke="rgb(204, 204, 204)" stroke-width="1px"></line><line x1="31.59375" y1="188" x2="26.59375" y2="188" style="visibility: inherit;" fill="rgb(0, 0, 0)" stroke="rgb(204, 204, 204)" stroke-width="1px"></line><line x1="31.59375" y1="161.14285714285717" x2="26.59375" y2="161.14285714285717" style="visibility: inherit;" fill="rgb(0, 0, 0)" stroke="rgb(204, 204, 204)" stroke-width="1px"></line><line x1="31.59375" y1="134.28571428571428" x2="26.59375" y2="134.28571428571428" style="visibility: inherit;" fill="rgb(0, 0, 0)" stroke="rgb(204, 204, 204)" stroke-width="1px"></line><line x1="31.59375" y1="107.42857142857142" x2="26.59375" y2="107.42857142857142" style="visibility: inherit;" fill="rgb(0, 0, 0)" stroke="rgb(204, 204, 204)" stroke-width="1px"></line><line x1="31.59375" y1="80.57142857142858" x2="26.59375" y2="80.57142857142858" style="visibility: inherit;" fill="rgb(0, 0, 0)" stroke="rgb(204, 204, 204)" stroke-width="1px"></line><line x1="31.59375" y1="53.71428571428573" x2="26.59375" y2="53.71428571428573" style="visibility: inherit;" fill="rgb(0, 0, 0)" stroke="rgb(204, 204, 204)" stroke-width="1px"></line><line x1="31.59375" y1="26.857142857142847" x2="26.59375" y2="26.857142857142847" style="visibility: inherit;" fill="rgb(0, 0, 0)" stroke="rgb(204, 204, 204)" stroke-width="1px"></line><line x1="31.59375" y1="0" x2="26.59375" y2="0" style="visibility: inherit;" fill="rgb(0, 0, 0)" stroke="rgb(204, 204, 204)" stroke-width="1px"></line></g><g transform="translate(21.59375, 0)"><text x="0" y="376" dx="0em" dy="0.3em" style="text-anchor: end; visibility: hidden; font-family: Roboto, sans-serif; font-size: 12px; font-weight: 200;" fill="rgb(33, 33, 33)" stroke="none" stroke-width="1px">14</text><text x="0" y="349.14285714285717" dx="0em" dy="0.3em" style="text-anchor: end; visibility: inherit; font-family: Roboto, sans-serif; font-size: 12px; font-weight: 200;" fill="rgb(33, 33, 33)" stroke="none" stroke-width="1px">16</text><text x="0" y="322.28571428571433" dx="0em" dy="0.3em" style="text-anchor: end; visibility: inherit; font-family: Roboto, sans-serif; font-size: 12px; font-weight: 200;" fill="rgb(33, 33, 33)" stroke="none" stroke-width="1px">18</text><text x="0" y="295.42857142857144" dx="0em" dy="0.3em" style="text-anchor: end; visibility: inherit; font-family: Roboto, sans-serif; font-size: 12px; font-weight: 200;" fill="rgb(33, 33, 33)" stroke="none" stroke-width="1px">20</text><text x="0" y="268.57142857142856" dx="0em" dy="0.3em" style="text-anchor: end; visibility: inherit; font-family: Roboto, sans-serif; font-size: 12px; font-weight: 200;" fill="rgb(33, 33, 33)" stroke="none" stroke-width="1px">22</text><text x="0" y="241.7142857142857" dx="0em" dy="0.3em" style="text-anchor: end; visibility: inherit; font-family: Roboto, sans-serif; font-size: 12px; font-weight: 200;" fill="rgb(33, 33, 33)" stroke="none" stroke-width="1px">24</text><text x="0" y="214.85714285714283" dx="0em" dy="0.3em" style="text-anchor: end; visibility: inherit; font-family: Roboto, sans-serif; font-size: 12px; font-weight: 200;" fill="rgb(33, 33, 33)" stroke="none" stroke-width="1px">26</text><text x="0" y="188" dx="0em" dy="0.3em" style="text-anchor: end; visibility: inherit; font-family: Roboto, sans-serif; font-size: 12px; font-weight: 200;" fill="rgb(33, 33, 33)" stroke="none" stroke-width="1px">28</text><text x="0" y="161.14285714285717" dx="0em" dy="0.3em" style="text-anchor: end; visibility: inherit; font-family: Roboto, sans-serif; font-size: 12px; font-weight: 200;" fill="rgb(33, 33, 33)" stroke="none" stroke-width="1px">30</text><text x="0" y="134.28571428571428" dx="0em" dy="0.3em" style="text-anchor: end; visibility: inherit; font-family: Roboto, sans-serif; font-size: 12px; font-weight: 200;" fill="rgb(33, 33, 33)" stroke="none" stroke-width="1px">32</text><text x="0" y="107.42857142857142" dx="0em" dy="0.3em" style="text-anchor: end; visibility: inherit; font-family: Roboto, sans-serif; font-size: 12px; font-weight: 200;" fill="rgb(33, 33, 33)" stroke="none" stroke-width="1px">34</text><text x="0" y="80.57142857142858" dx="0em" dy="0.3em" style="text-anchor: end; visibility: inherit; font-family: Roboto, sans-serif; font-size: 12px; font-weight: 200;" fill="rgb(33, 33, 33)" stroke="none" stroke-width="1px">36</text><text x="0" y="53.71428571428573" dx="0em" dy="0.3em" style="text-anchor: end; visibility: inherit; font-family: Roboto, sans-serif; font-size: 12px; font-weight: 200;" fill="rgb(33, 33, 33)" stroke="none" stroke-width="1px">38</text><text x="0" y="26.857142857142847" dx="0em" dy="0.3em" style="text-anchor: end; visibility: inherit; font-family: Roboto, sans-serif; font-size: 12px; font-weight: 200;" fill="rgb(33, 33, 33)" stroke="none" stroke-width="1px">40</text><text x="0" y="0" dx="0em" dy="0.3em" style="text-anchor: end; visibility: hidden; font-family: Roboto, sans-serif; font-size: 12px; font-weight: 200;" fill="rgb(33, 33, 33)" stroke="none" stroke-width="1px">42</text></g><line x1="31.59375" y1="0" x2="31.59375" y2="376" fill="rgb(0, 0, 0)" stroke="rgb(204, 204, 204)" stroke-width="1px"></line></g></g><g transform="translate(31, 0)" clip-path="url(#clip_0)"><clipPath id="clip_0"><rect width="2065" height="376"></rect></clipPath><g><g><g><line x1="0" y1="0" x2="0" y2="376" fill="rgb(0, 0, 0)" stroke="rgb(66, 66, 66)" stroke-width="1px" opacity="0.25"></line><line x1="206.540625" y1="0" x2="206.540625" y2="376" fill="rgb(0, 0, 0)" stroke="rgb(66, 66, 66)" stroke-width="1px" opacity="0.25"></line><line x1="413.08125" y1="0" x2="413.08125" y2="376" fill="rgb(0, 0, 0)" stroke="rgb(66, 66, 66)" stroke-width="1px" opacity="0.25"></line><line x1="619.6218749999999" y1="0" x2="619.6218749999999" y2="376" fill="rgb(0, 0, 0)" stroke="rgb(66, 66, 66)" stroke-width="1px" opacity="0.25"></line><line x1="826.1625" y1="0" x2="826.1625" y2="376" fill="rgb(0, 0, 0)" stroke="rgb(66, 66, 66)" stroke-width="1px" opacity="0.25"></line><line x1="1032.703125" y1="0" x2="1032.703125" y2="376" fill="rgb(0, 0, 0)" stroke="rgb(66, 66, 66)" stroke-width="1px" opacity="0.25"></line><line x1="1239.2437499999999" y1="0" x2="1239.2437499999999" y2="376" fill="rgb(0, 0, 0)" stroke="rgb(66, 66, 66)" stroke-width="1px" opacity="0.25"></line><line x1="1445.784375" y1="0" x2="1445.784375" y2="376" fill="rgb(0, 0, 0)" stroke="rgb(66, 66, 66)" stroke-width="1px" opacity="0.25"></line><line x1="1652.325" y1="0" x2="1652.325" y2="376" fill="rgb(0, 0, 0)" stroke="rgb(66, 66, 66)" stroke-width="1px" opacity="0.25"></line><line x1="1858.8656250000001" y1="0" x2="1858.8656250000001" y2="376" fill="rgb(0, 0, 0)" stroke="rgb(66, 66, 66)" stroke-width="1px" opacity="0.25"></line><line x1="2065.40625" y1="0" x2="2065.40625" y2="376" fill="rgb(0, 0, 0)" stroke="rgb(66, 66, 66)" stroke-width="1px" opacity="0.25"></line></g><g><line x1="0" y1="376" x2="2065.40625" y2="376" fill="rgb(0, 0, 0)" stroke="rgb(66, 66, 66)" stroke-width="1px" opacity="0.25"></line><line x1="0" y1="349.14285714285717" x2="2065.40625" y2="349.14285714285717" fill="rgb(0, 0, 0)" stroke="rgb(66, 66, 66)" stroke-width="1px" opacity="0.25"></line><line x1="0" y1="322.28571428571433" x2="2065.40625" y2="322.28571428571433" fill="rgb(0, 0, 0)" stroke="rgb(66, 66, 66)" stroke-width="1px" opacity="0.25"></line><line x1="0" y1="295.42857142857144" x2="2065.40625" y2="295.42857142857144" fill="rgb(0, 0, 0)" stroke="rgb(66, 66, 66)" stroke-width="1px" opacity="0.25"></line><line x1="0" y1="268.57142857142856" x2="2065.40625" y2="268.57142857142856" fill="rgb(0, 0, 0)" stroke="rgb(66, 66, 66)" stroke-width="1px" opacity="0.25"></line><line x1="0" y1="241.7142857142857" x2="2065.40625" y2="241.7142857142857" fill="rgb(0, 0, 0)" stroke="rgb(66, 66, 66)" stroke-width="1px" opacity="0.25"></line><line x1="0" y1="214.85714285714283" x2="2065.40625" y2="214.85714285714283" fill="rgb(0, 0, 0)" stroke="rgb(66, 66, 66)" stroke-width="1px" opacity="0.25"></line><line x1="0" y1="188" x2="2065.40625" y2="188" fill="rgb(0, 0, 0)" stroke="rgb(66, 66, 66)" stroke-width="1px" opacity="0.25"></line><line x1="0" y1="161.14285714285717" x2="2065.40625" y2="161.14285714285717" fill="rgb(0, 0, 0)" stroke="rgb(66, 66, 66)" stroke-width="1px" opacity="0.25"></line><line x1="0" y1="134.28571428571428" x2="2065.40625" y2="134.28571428571428" fill="rgb(0, 0, 0)" stroke="rgb(66, 66, 66)" stroke-width="1px" opacity="0.25"></line><line x1="0" y1="107.42857142857142" x2="2065.40625" y2="107.42857142857142" fill="rgb(0, 0, 0)" stroke="rgb(66, 66, 66)" stroke-width="1px" opacity="0.25"></line><line x1="0" y1="80.57142857142858" x2="2065.40625" y2="80.57142857142858" fill="rgb(0, 0, 0)" stroke="rgb(66, 66, 66)" stroke-width="1px" opacity="0.25"></line><line x1="0" y1="53.71428571428573" x2="2065.40625" y2="53.71428571428573" fill="rgb(0, 0, 0)" stroke="rgb(66, 66, 66)" stroke-width="1px" opacity="0.25"></line><line x1="0" y1="26.857142857142847" x2="2065.40625" y2="26.857142857142847" fill="rgb(0, 0, 0)" stroke="rgb(66, 66, 66)" stroke-width="1px" opacity="0.25"></line><line x1="0" y1="0" x2="2065.40625" y2="0" fill="rgb(0, 0, 0)" stroke="rgb(66, 66, 66)" stroke-width="1px" opacity="0.25"></line></g></g></g><g><g><line x1="0" y1="564" x2="2065.40625" y2="564" fill="rgb(0, 0, 0)" stroke="rgb(153, 153, 153)" stroke-width="1.5px"></line></g></g><g><g><line x1="206.540625" y1="0" x2="206.540625" y2="376" fill="rgb(0, 0, 0)" stroke="rgb(153, 153, 153)" stroke-width="1.5px"></line></g></g><g><g><g><g><g><path stroke="rgb(255, 112, 67)" stroke-width="2px" d="M268.5028125,384.5335230099831L272.633625,370.74479691543723L276.76443750000004,356.87216011527966L280.89525000000003,358.68501011188357L285.0260625,346.53987914185177L289.156875,354.4586398284033L293.28768749999995,349.7537127678609L297.4185,345.08840940898284L301.5493125,343.96644494713576L305.680125,343.5423423806272L309.81093749999997,335.6838050577265L313.94175,324.37354712128575L318.0725625,335.81548283025194L322.203375,328.91394683704965L326.3341875,327.90896674911363L330.46500000000003,319.18933751618624L334.5958125,322.6292639083367L338.726625,323.28803587757307L342.8574375,318.72566606073735L346.98825,323.73703651216965L351.11906250000004,316.32930747262935L355.249875,298.1327487215673L359.38068749999996,291.2544495136658L363.51149999999996,301.1640645869769L367.6423125,288.23042149657994L371.773125,283.34150440840983L375.9039375,294.3238660264776L380.03475,292.0600125794092L384.1655625,282.543769113232L388.296375,279.5881492900134L392.4271875,259.8668867877391L396.558,257.8651553900828L400.68881250000004,268.01431257817575L404.81962500000003,252.9259116139446L408.9504375,245.61867960070865L413.08125,245.74338683118913L417.2120625,247.39432668180166L421.342875,239.3578750821479L425.4736875,245.3013633441622L429.6045,242.41585618249837L433.73531249999996,220.4757755418044L437.866125,212.82396119788413L441.9969375,218.59205037653624L446.12775,211.79113705064896L450.2585625,210.50343222745624L454.38937500000003,199.11085221661685L458.5201875,196.08749738651224L462.651,190.4540437430237L466.7818125,205.32483595739185L470.912625,192.02121303309286L475.04343750000004,180.57725742900982L479.17425000000003,180.1005475213789L483.3050625,179.2788309692981L487.43587499999995,169.34543493893162L491.5666875,166.87365165344585L495.6975,171.7129835032339L499.8283125,169.37238552824306L503.959125,171.6952245974127L508.0899375,169.68643276534084L512.22075,159.62509831390167L516.3515625,149.08595171779575L520.482375,143.1776096147443L524.6131875,152.81234826669228L528.744,149.39757313143426L532.8748125,136.88021637040157L537.005625,138.24308154993108L541.1364375,144.85267062299303L545.26725,128.74707301477846L549.3980625,131.64040815429118L553.5288750000001,120.54523676662733L557.6596875,138.80442143316628L561.7905000000001,136.40435023567068L565.9213125,125.55360790837061L570.052125,125.30111668809813L574.1829375000001,133.54543769778792L578.31375,127.68050814150142L582.4445625,120.97295518278196L586.5753749999999,120.68278902634184L590.7061874999999,119.61085777124435L594.837,110.54514496236649L598.9678124999999,114.81654800456715L603.098625,113.54429742303522L607.2294375,113.06338670321618L611.36025,111.91932214063004L615.4910625,112.76990614996525L619.6218749999999,111.80838649150121L623.7526875,107.91657092212169L627.8835,100.67181463646034L632.0143125,109.8013887273818L636.145125,105.55412524979363L640.2759374999999,108.11854100074171L644.40675,102.35195984366965L648.5375625,100.17219216629633L652.668375,98.38592781122328L656.7991875,108.93732350744223L660.9300000000001,105.54826870015465L665.0608125,104.90875805252773L669.191625,94.4026997157828L673.3224375,104.54482235588209L677.45325,92.34057140146159L681.5840625000001,97.3501676456363L685.714875,92.50783285247239L689.8456875,95.4887999905978L693.9765,91.16271567187154L698.1073125,91.13125631688385L702.2381250000001,86.94948333522211L706.3689375,96.59537677059052L710.49975,87.09036024573415L714.6305625,93.44099534525083L718.7613749999999,98.08688799988684L722.8921875,82.84278180046675L727.0229999999999,85.7410005890055L731.1538125,89.40260811905874L735.284625,85.97532607547735L739.4154374999999,81.47218056549038L743.54625,87.78899415016994L747.6770624999999,76.06333699379L751.807875,82.8576103485835L755.9386875,79.01064360673178L760.0695,80.44333110979544L764.2003125,78.41883802049946L768.331125,83.10646952968332L772.4619375,73.0103341357847L776.59275,77.53369392278117L780.7235625,70.26227288684797L784.854375,67.51367573526521L788.9851875,65.19166559797416L793.116,66.55926649056549L797.2468125,72.52914138743422L801.3776250000001,72.54043337396325L805.5084375,71.5824214343767L809.6392500000001,61.59752167879871L813.7700625,62.63459926113167L817.900875,68.80029645022093L822.0316875000001,67.92332895271474L826.1625,73.04475699812659L830.2933125000001,67.28241431533577L834.424125,64.46276043677585L838.5549375,64.35917971864342L842.68575,68.81066765616399L846.8165624999999,56.70067750865617L850.947375,55.33070226787998L855.0781875,55.1336117303648L859.209,63.07808223210736L863.3398125,59.345161770835496L867.4706249999999,60.179438560962005L871.6014375,62.41932394608757L875.73225,55.24702989674183L879.8630625,57.66806440206003L883.993875,54.0925739960957L888.1246874999999,66.85441945149861L892.2555,65.90474703320494L896.3863125,59.45136075515581L900.517125,58.93654136304232L904.6479375,60.66646839128126L908.7787500000001,61.641140911453675L912.9095625,64.5756479520643L917.040375,66.32641182041152L921.1711875,66.66747232168L925.302,62.62647998315166L929.4328125000001,63.985857673203036L933.563625,58.08450037007872L937.6944375,65.15579844841376L941.82525,63.65889963907928L945.9560625,67.26292137209602L950.0868750000001,67.34220117318351L954.2176875,66.73064873099818L958.3485000000001,60.72583190741626L962.4793125000001,57.17297073410955L966.610125,52.62238817561775L970.7409375,62.12883972841299L974.8717499999999,60.5901167593986L979.0025625,58.08395071865343L983.133375,65.15559068017498L987.2641874999999,61.09274027469961L991.395,58.91546261443354L995.5258124999999,58.733971865849306L999.656625,63.47673805282597L1003.7874375,57.57126118754661L1007.91825,64.32027383042028L1012.0490625,55.64482884952135L1016.179875,61.988281889155765L1020.3106875,60.8577459996575L1024.4415,50.16611198401661L1028.5723125,59.596566810496775L1032.703125,57.06686863097218L1036.8339375,60.60128416808643L1040.96475,61.937293241115675L1045.0955625,56.027102600757004L1049.226375,56.35913136668689L1053.3571875,55.843118033212L1057.488,60.13870644213305L1061.6188125,59.83784637718479L1065.749625,55.875031893187455L1069.8804375,57.58468905321833L1074.01125,56.62710707968774L1078.1420625,52.4160517142462L1082.272875,51.78655309660394L1086.4036875000002,56.360004171608004L1090.5345,56.484968160468554L1094.6653125,65.19269548017749L1098.796125,62.069014337063784L1102.9269375000001,49.66172296759297L1107.0577500000002,49.14161631287808L1111.1885625,50.869576618384954L1115.319375,41.899974371452416L1119.4501875,40.113233377071396L1123.5810000000001,42.64547817870861L1127.7118125000002,39.11199340222148L1131.842625,54.135069572585465L1135.9734375,48.26646050157975L1140.10425,54.70864906719057L1144.2350625000001,52.97391499951504L1148.3658750000002,54.88423448738781L1152.4966875,46.94587618441548L1156.6275,47.47350602184057L1160.7583125,39.0124591684676L1164.889125,39.66330469987084L1169.0199375,41.192364724734105L1173.1507499999998,37.60046806865598L1177.2815624999998,43.29942154708717L1181.4123749999999,48.9819871004142L1185.5431875,43.75254636164494L1189.674,44.66262683134238L1193.8048125,34.421585695979346L1197.9356249999998,34.07883328529207L1202.0664375,38.11915421952874L1206.19725,33.23119346270646L1210.3280625,41.647835746038275L1214.458875,40.98023714969081L1218.5896874999999,39.44484446627866L1222.7205,49.128757481359536L1226.8513125,41.241944737656745L1230.982125,43.39285931397669L1235.1129375,41.639856058371585L1239.2437499999999,40.335700620756384L1243.3745625,41.125738416799194L1247.505375,43.348933324692545L1251.6361875,34.887289860960195L1255.767,37.462438632105304L1259.8978124999999,43.56800652356917L1264.028625,33.68705911614282L1268.1594375,46.95231461900813L1272.29025,46.19289933612393L1276.4210625,44.622799945200846L1280.5518749999999,36.651851857505115L1284.6826875,36.84640265280657L1288.8135,29.86325243900179L1292.9443125,34.601104038641886L1297.075125,36.39201194330582L1301.2059375000001,38.9935357522579L1305.33675,34.844750096070854L1309.4675625,33.27650911803218L1313.598375,37.815875684304565L1317.7291875,35.68263500437722L1321.8600000000001,36.48003868232416L1325.9908125,37.1022492386177L1330.121625,31.243002862431165L1334.2524375,40.25477949213779L1338.38325,46.22731188615238L1342.5140625000001,34.05075633620286L1346.644875,34.25941989079479L1350.7756875,34.97981492142697L1354.9065,32.36528331152217L1359.0373125,32.33927067347274L1363.1681250000001,37.461599552260985L1367.2989375,44.209209558384444L1371.42975,36.495514691288534L1375.5605625,34.221258238522594L1379.691375,40.41831157633719L1383.8221875000002,28.968113287609004L1387.953,35.86654195690632L1392.0838125,42.64399747684585L1396.214625,38.4699453524524L1400.3454375000001,44.26960416735853L1404.4762500000002,39.08442468146613L1408.6070625000002,38.407467249791615L1412.737875,38.47233744411676L1416.8686875,34.32697703209532L1420.9995,43.0243222457618L1425.1303125,45.99115863302947L1429.261125,44.5465419594312L1433.3919374999998,34.698465717895004L1437.5227499999999,37.391063106026685L1441.6535625,36.805096263780975L1445.784375,37.8666412114048L1449.9151875,39.87167385656614L1454.0459999999998,38.70504743797946L1458.1768124999999,44.358472755687714L1462.307625,50.023828664261586L1466.4384375,43.1840502997532L1470.56925,35.46648428452955L1474.7000624999998,48.90797774665105L1478.8308749999999,41.80001020493333L1482.9616875,37.509397956673126L1487.0925,41.01967632027031L1491.2233125,35.61063123077952L1495.3541249999998,33.245252083453785L1499.4849375,32.67189886926293L1503.61575,35.66277238928051L1507.7465625,28.77431999239259L1511.877375,40.60465778125597L1516.0081875,44.75576536194807L1520.139,47.92868454494076L1524.2698125,48.16576768561735L1528.400625,45.04778407781121L1532.5314375,40.340856998111796L1536.66225,44.33528856242146L1540.7930625,49.05278472871235L1544.923875,39.28866641616697L1549.0546875,44.899840832940875L1553.1855,48.30390517647413L1557.3163125,55.36429149876572L1561.447125,43.91970483720305L1565.5779375,44.08432439063842L1569.70875,44.14655058183693L1573.8395625,44.81156042657501L1577.970375,51.798864458816496L1582.1011875,45.13805424408775L1586.232,47.43166953539307L1590.3628125,54.71385818547023L1594.493625,59.07029415015895L1598.6244375,45.64136580545929L1602.7552500000002,49.5464819265806L1606.8860625,53.267936544851814L1611.016875,43.76883473415139L1615.1476875,36.97057321472476L1619.2785000000001,52.36333243121713L1623.4093125000002,55.294986346099016L1627.540125,51.912510076949694L1631.6709375,49.67165373671675L1635.80175,53.6359797300501L1639.9325625000001,55.455286921559676L1644.0633750000002,50.690063280481034L1648.1941875,57.87005977957126L1652.325,55.13120855928954L1656.4558125,48.32227279758702L1660.5866250000001,48.31454404511764L1664.7174375000002,46.387061955695074L1668.84825,53.677444450816644L1672.9790625,60.923850482947266L1677.109875,46.98353030624964L1681.2406875,47.80849938339214L1685.3715,53.25249935052301L1689.5023124999998,42.479959060702335L1693.6331249999998,48.6722302805607L1697.7639374999999,54.54123807761581L1701.89475,60.92963623291048L1706.0255625,59.49532949363367L1710.156375,53.50023978671786L1714.2871874999998,52.19637618799818L1718.418,55.55263698966037L1722.5488125,66.12331471160472L1726.679625,63.06234047607098L1730.8104375,57.0938906625665L1734.9412499999999,58.68690601250863L1739.0720625,67.94958860923772L1743.202875,50.92229973198021L1747.3336875,56.99559671027473L1751.4645,61.85738379605561L1755.5953124999999,51.50625538154964L1759.726125,57.53709204931014L1763.8569375,67.51495893114873L1767.98775,52.682538472120235L1772.1185625,51.88728509108034L1776.2493749999999,68.58690107338839L1780.3801875,69.12570591426487L1784.511,75.74457621407983L1788.6418125,63.49154442649335L1792.772625,65.91662068774575L1796.9034374999999,57.21052827208498L1801.03425,65.46695720236845L1805.1650625,70.51244795900476L1809.295875,66.32520149854773L1813.4266875,79.17659513138202L1817.5575000000001,76.01545119967007L1821.6883125,71.93369786199928L1825.819125,76.80599717032348L1829.9499375,68.06267475596127L1834.08075,67.64450795228457L1838.2115625000001,62.03355100355706L1842.342375,72.42218958830452L1846.4731875,68.33012424841579L1850.604,78.65141551683935L1854.7348125,75.81693330537293" style="fill: none;" fill="none"></path></g></g></g></g><g opacity="0.2"><g><g><g><path stroke="rgb(255, 112, 67)" stroke-width="2px" d="M268.5028125,384.5398243495396L272.633625,362.3651545388358L276.76443750000004,348.44152287074496L280.89525000000003,359.7867099217006L285.0260625,339.15907614571705L289.156875,359.27100563049316L293.28768749999995,346.89444841657365L297.4185,342.2532250540597L301.5493125,343.28460802350725L305.680125,343.28460802350725L309.81093749999997,330.9080380031041L313.94175,317.5001106262207L318.0725625,342.7689421517508L322.203375,324.7197657993862L326.3341875,327.29822322300504L330.46500000000003,313.8902702331543L334.5958125,324.7197657993862L338.726625,323.68838282993863L342.8574375,315.95303617204934L346.98825,326.78253173828125L351.11906250000004,311.82750429425926L355.249875,287.0743898664202L359.38068749999996,287.0743898664202L363.51149999999996,307.18630654471264L367.6423125,280.3704261779785L371.773125,280.3704261779785L375.9039375,300.99803434099465L380.03475,290.6842302594866L384.1655625,276.7605857849121L388.296375,277.79196875435963L392.4271875,247.88193947928295L396.558,256.64866910661965L400.68881250000004,274.1821283612932L404.81962500000003,243.7564332144601L408.9504375,241.1779501778739L413.08125,245.81917354038782L417.2120625,248.3976309640067L421.342875,234.47398648943218L425.4736875,248.91332244873047L429.6045,240.66228430611744L433.73531249999996,207.14241463797435L437.866125,208.1738232203892L441.9969375,222.09741646902904L446.12775,207.65810612269811L450.2585625,209.7208720615932L454.38937500000003,192.18738719395228L458.5201875,194.2501531328474L462.651,187.0304979596819L466.7818125,214.36206981113978L470.912625,183.93637466430664L475.04343750000004,173.62257058279857L479.17425000000003,179.81084278651647L483.3050625,178.77945981706893L487.43587499999995,163.30874088832311L491.5666875,165.37150682721818L495.6975,174.65392793927873L499.8283125,167.94996425083704L503.959125,173.10685348510742L508.0899375,168.4656557355608L512.22075,153.5106539045061L516.3515625,142.6811327253069L520.482375,139.58700942993164L524.6131875,158.6675431387765L528.744,147.32235608782088L532.8748125,129.27320534842357L537.005625,139.07131794520788L541.1364375,148.8694305419922L545.26725,118.95942687988281L549.3980625,133.39873722621374L553.5288750000001,113.80251203264511L557.6596875,149.9008391244071L561.7905000000001,134.9457860674177L565.9213125,118.95942687988281L570.052125,125.14767347063339L574.1829375000001,138.55565207345143L578.31375,124.11629050118582L582.4445625,116.8966609409877L586.5753749999999,120.50645010811941L590.7061874999999,118.95942687988281L594.837,105.03575679234095L598.9678124999999,117.41235242571152L603.098625,112.77112906319753L607.2294375,112.77112906319753L611.36025,111.22405460902624L615.4910625,113.2868205479213L619.6218749999999,111.22405460902624L623.7526875,105.55144827706472L627.8835,96.26905277797155L632.0143125,115.3495864868164L636.145125,102.97299085344589L640.2759374999999,109.67698015485489L644.40675,98.84751020159042L648.5375625,98.84751020159042L652.668375,97.30038452148438L656.7991875,115.3495864868164L660.9300000000001,103.48868233816965L665.0608125,104.52011653355189L669.191625,88.0179890223912L673.3224375,110.70836312430247L677.45325,84.92384011404856L681.5840625000001,100.39458465576172L685.714875,89.5650634765625L689.8456875,97.30038452148438L693.9765,88.53368050711497L698.1073125,91.1121379307338L702.2381250000001,84.4081486293248L706.3689375,102.45735059465683L710.49975,81.31399972098215L714.6305625,97.30038452148438L718.7613749999999,100.91027614048548L722.8921875,73.57867867606028L727.0229999999999,87.50229753766739L731.1538125,91.62782941545761L735.284625,83.89250837053574L739.4154374999999,78.73554229736328L743.54625,91.62782941545761L747.6770624999999,68.9374553135463L751.807875,86.98660605294363L755.9386875,76.67277635846817L760.0695,81.31399972098215L764.2003125,77.18851906912668L768.331125,85.9552230834961L772.4619375,66.87474060058594L776.59275,80.28261675153458L780.7235625,65.8433064052037L784.854375,65.8433064052037L788.9851875,63.780540466308594L793.116,67.390380859375L797.2468125,76.15713609967911L801.3776250000001,72.5472957066127L805.5084375,71.0002212524414L809.6392500000001,55.52952793666295L813.7700625,63.26484898158483L817.900875,72.5472957066127L822.0316875000001,67.390380859375L826.1625,76.15713609967911L830.2933125000001,63.780540466308594L834.424125,62.749208722795764L838.5549375,64.29623195103235L842.68575,71.51591273716517L846.8165624999999,49.34123011997767L850.947375,54.49814496721542L855.0781875,55.013836451939184L859.209,67.90607234409876L863.3398125,57.07660239083425L867.4706249999999,60.68644278390066L871.6014375,63.780540466308594L875.73225,50.88830457414901L879.8630625,59.13936832972936L883.993875,51.919687543596545L888.1246874999999,74.61001041957311L892.2555,65.32761492047989L896.3863125,55.52952793666295L900.517125,58.62367684500559L904.6479375,61.71777452741349L908.7787500000001,62.23346601213729L912.9095625,66.35899788992747L917.040375,67.390380859375L921.1711875,66.87474060058594L925.302,60.17070007324219L929.4328125000001,64.81197466169083L933.563625,54.49814496721542L937.6944375,69.45314679827011L941.82525,62.749208722795764L945.9560625,69.45314679827011L950.0868750000001,67.390380859375L954.2176875,66.35899788992747L958.3485000000001,57.07660239083425L962.4793125000001,55.013836451939184L966.610125,49.85692160470144L970.7409375,67.90607234409876L974.8717499999999,59.65500858851842L979.0025625,56.560910906110486L983.133375,69.45314679827011L987.2641874999999,58.62367684500559L991.395,57.59229387555802L995.5258124999999,58.62367684500559L999.656625,66.35899788992747L1003.7874375,53.98240225655691L1007.91825,68.42176382882253L1012.0490625,50.37261308942521L1016.179875,65.8433064052037L1020.3106875,60.17070007324219L1024.4415,43.6686237880162L1028.5723125,65.32761492047989L1032.703125,55.52952793666295L1036.8339375,62.749208722795764L1040.96475,62.749208722795764L1045.0955625,52.43537902832031L1049.226375,56.560910906110486L1053.3571875,55.52952793666295L1057.488,62.749208722795764L1061.6188125,59.65500858851842L1065.749625,53.46676199776785L1069.8804375,58.62367684500559L1074.01125,56.045168195452014L1078.1420625,49.85692160470144L1082.272875,51.40399605887278L1086.4036875000002,59.13936832972936L1090.5345,56.560910906110486L1094.6653125,70.48452976771765L1098.796125,60.17070007324219L1102.9269375000001,42.121600559779566L1107.0577500000002,48.825538635253906L1111.1885625,51.919687543596545L1115.319375,36.44899422781809L1119.4501875,39.02740042550222L1123.5810000000001,44.18436649867467L1127.7118125000002,36.96463448660715L1131.842625,63.26484898158483L1135.9734375,44.70000675746373L1140.10425,58.62367684500559L1144.2350625000001,51.919687543596545L1148.3658750000002,56.045168195452014L1152.4966875,42.121600559779566L1156.6275,47.79415566580637L1160.7583125,33.87053680419922L1164.889125,40.0588346208845L1169.0199375,42.121600559779566L1173.1507499999998,35.41761125837052L1177.2815624999998,46.7627726963588L1181.4123749999999,52.43537902832031L1185.5431875,40.574526105608264L1189.674,45.2156982421875L1193.8048125,28.197930472237704L1197.9356249999998,33.87053680419922L1202.0664375,40.574526105608264L1206.19725,30.260696411132812L1210.3280625,46.7627726963588L1214.458875,40.574526105608264L1218.5896874999999,38.51176016671316L1222.7205,55.013836451939184L1226.8513125,36.44899422781809L1230.982125,44.70000675746373L1235.1129375,40.574526105608264L1239.2437499999999,39.54314313616073L1243.3745625,41.605857849121094L1247.505375,44.70000675746373L1251.6361875,29.745004926409045L1255.767,39.02740042550222L1259.8978124999999,47.278464181082605L1264.028625,27.68223898751394L1268.1594375,55.013836451939184L1272.29025,45.73138972691127L1276.4210625,43.6686237880162L1280.5518749999999,31.80777086530411L1284.6826875,36.96463448660715L1288.8135,25.61947304861887L1292.9443125,37.480377197265625L1297.075125,37.480377197265625L1301.2059375000001,40.574526105608264L1305.33675,32.32346235002792L1309.4675625,32.32346235002792L1313.598375,40.574526105608264L1317.7291875,34.386228288922986L1321.8600000000001,36.96463448660715L1325.9908125,37.480377197265625L1330.121625,27.68223898751394L1334.2524375,45.73138972691127L1338.38325,49.85692160470144L1342.5140625000001,26.650856018066406L1346.644875,34.386228288922986L1350.7756875,35.41761125837052L1354.9065,30.77638789585658L1359.0373125,32.32346235002792L1363.1681250000001,40.574526105608264L1367.2989375,48.30984715053014L1371.42975,31.80777086530411L1375.5605625,32.839153834751684L1379.691375,44.18436649867467L1383.8221875000002,22.009632655552466L1387.953,40.0588346208845L1392.0838125,46.7627726963588L1396.214625,35.93330274309432L1400.3454375000001,47.79415566580637L1404.4762500000002,35.93330274309432L1408.6070625000002,37.99606868198939L1412.737875,38.51176016671316L1416.8686875,31.80777086530411L1420.9995,48.30984715053014L1425.1303125,47.79415566580637L1429.261125,43.6686237880162L1433.3919374999998,28.713621956961514L1437.5227499999999,39.02740042550222L1441.6535625,36.44899422781809L1445.784375,38.51176016671316L1449.9151875,41.09016636439733L1454.0459999999998,37.99606868198939L1458.1768124999999,47.79415566580637L1462.307625,53.46676199776785L1466.4384375,39.02740042550222L1470.56925,30.77638789585658L1474.7000624999998,57.07660239083425L1478.8308749999999,37.480377197265625L1482.9616875,34.90191977364675L1487.0925,43.152932303292395L1491.2233125,32.32346235002792L1495.3541249999998,31.80777086530411L1499.4849375,32.32346235002792L1503.61575,37.480377197265625L1507.7465625,24.588090079171298L1511.877375,47.79415566580637L1516.0081875,47.278464181082605L1520.139,49.85692160470144L1524.2698125,48.30984715053014L1528.400625,43.152932303292395L1532.5314375,37.480377197265625L1536.66225,46.7627726963588L1540.7930625,51.919687543596545L1544.923875,33.35484531947545L1549.0546875,48.30984715053014L1553.1855,50.37261308942521L1557.3163125,59.65500858851842L1561.447125,36.96463448660715L1565.5779375,44.18436649867467L1569.70875,44.18436649867467L1573.8395625,45.2156982421875L1577.970375,56.045168195452014L1582.1011875,41.09016636439733L1586.232,48.825538635253906L1590.3628125,59.13936832972936L1594.493625,61.71777452741349L1598.6244375,37.480377197265625L1602.7552500000002,51.919687543596545L1606.8860625,55.52952793666295L1611.016875,37.99606868198939L1615.1476875,32.839153834751684L1619.2785000000001,61.71777452741349L1623.4093125000002,57.07660239083425L1627.540125,49.85692160470144L1631.6709375,48.30984715053014L1635.80175,56.045168195452014L1639.9325625000001,56.560910906110486L1644.0633750000002,47.79415566580637L1648.1941875,62.23346601213729L1652.325,53.46676199776785L1656.4558125,44.18436649867467L1660.5866250000001,48.30984715053014L1664.7174375000002,45.2156982421875L1668.84825,58.10793413434708L1672.9790625,65.32761492047989L1677.109875,38.51176016671316L1681.2406875,48.30984715053014L1685.3715,56.560910906110486L1689.5023124999998,35.93330274309432L1693.6331249999998,52.43537902832031L1697.7639374999999,58.10793413434708L1701.89475,64.81197466169083L1706.0255625,58.62367684500559L1710.156375,49.85692160470144L1714.2871874999998,51.40399605887278L1718.418,57.59229387555802L1722.5488125,72.5472957066127L1726.679625,61.20213426862443L1730.8104375,53.46676199776785L1734.9412499999999,59.65500858851842L1739.0720625,73.57867867606028L1743.202875,40.574526105608264L1747.3336875,60.68644278390066L1751.4645,64.81197466169083L1755.5953124999999,45.2156982421875L1759.726125,61.20213426862443L1763.8569375,73.57867867606028L1767.98775,43.6686237880162L1772.1185625,51.40399605887278L1776.2493749999999,78.73554229736328L1780.3801875,69.45314679827011L1784.511,79.76697649274551L1788.6418125,56.045168195452014L1792.772625,67.390380859375L1796.9034374999999,51.919687543596545L1801.03425,70.48452976771765L1805.1650625,73.57867867606028L1809.295875,63.780540466308594L1813.4266875,86.98660605294363L1817.5575000000001,74.09437016078405L1821.6883125,69.45314679827011L1825.819125,79.76697649274551L1829.9499375,62.749208722795764L1834.08075,67.390380859375L1838.2115625000001,58.62367684500559L1842.342375,78.73554229736328L1846.4731875,65.8433064052037L1850.604,84.92384011404856L1854.7348125,74.09437016078405" style="fill: none;" fill="none"></path></g></g></g></g></g><g><g opacity="0.294597"><span fill="rgb(0, 0, 0)" stroke="none" stroke-width="1px">Alt + Scroll to Zoom</span></g></g></g><g transform="translate(31, 376)" clip-path="url(#clip_1)"><clipPath id="clip_1"><rect width="2065" height="24"></rect></clipPath><g><g><line x1="0" y1="0" x2="0" y2="5" style="visibility: inherit;" fill="rgb(0, 0, 0)" stroke="rgb(204, 204, 204)" stroke-width="1px"></line><line x1="206.540625" y1="0" x2="206.540625" y2="5" style="visibility: inherit;" fill="rgb(0, 0, 0)" stroke="rgb(204, 204, 204)" stroke-width="1px"></line><line x1="413.08125" y1="0" x2="413.08125" y2="5" style="visibility: inherit;" fill="rgb(0, 0, 0)" stroke="rgb(204, 204, 204)" stroke-width="1px"></line><line x1="619.6218749999999" y1="0" x2="619.6218749999999" y2="5" style="visibility: inherit;" fill="rgb(0, 0, 0)" stroke="rgb(204, 204, 204)" stroke-width="1px"></line><line x1="826.1625" y1="0" x2="826.1625" y2="5" style="visibility: inherit;" fill="rgb(0, 0, 0)" stroke="rgb(204, 204, 204)" stroke-width="1px"></line><line x1="1032.703125" y1="0" x2="1032.703125" y2="5" style="visibility: inherit;" fill="rgb(0, 0, 0)" stroke="rgb(204, 204, 204)" stroke-width="1px"></line><line x1="1239.2437499999999" y1="0" x2="1239.2437499999999" y2="5" style="visibility: inherit;" fill="rgb(0, 0, 0)" stroke="rgb(204, 204, 204)" stroke-width="1px"></line><line x1="1445.784375" y1="0" x2="1445.784375" y2="5" style="visibility: inherit;" fill="rgb(0, 0, 0)" stroke="rgb(204, 204, 204)" stroke-width="1px"></line><line x1="1652.325" y1="0" x2="1652.325" y2="5" style="visibility: inherit;" fill="rgb(0, 0, 0)" stroke="rgb(204, 204, 204)" stroke-width="1px"></line><line x1="1858.8656250000001" y1="0" x2="1858.8656250000001" y2="5" style="visibility: inherit;" fill="rgb(0, 0, 0)" stroke="rgb(204, 204, 204)" stroke-width="1px"></line><line x1="2065.40625" y1="0" x2="2065.40625" y2="5" style="visibility: inherit;" fill="rgb(0, 0, 0)" stroke="rgb(204, 204, 204)" stroke-width="1px"></line></g><g transform="translate(0, 8)"><text x="0" y="0" dx="0em" dy="0.95em" style="text-anchor: middle; visibility: hidden; font-family: Roboto, sans-serif; font-size: 12px; font-weight: 200;" fill="rgb(33, 33, 33)" stroke="none" stroke-width="1px">-50</text><text x="206.540625" y="0" dx="0em" dy="0.95em" style="text-anchor: middle; visibility: inherit; font-family: Roboto, sans-serif; font-size: 12px; font-weight: 200;" fill="rgb(33, 33, 33)" stroke="none" stroke-width="1px">0</text><text x="413.08125" y="0" dx="0em" dy="0.95em" style="text-anchor: middle; visibility: inherit; font-family: Roboto, sans-serif; font-size: 12px; font-weight: 200;" fill="rgb(33, 33, 33)" stroke="none" stroke-width="1px">50</text><text x="619.6218749999999" y="0" dx="0em" dy="0.95em" style="text-anchor: middle; visibility: inherit; font-family: Roboto, sans-serif; font-size: 12px; font-weight: 200;" fill="rgb(33, 33, 33)" stroke="none" stroke-width="1px">100</text><text x="826.1625" y="0" dx="0em" dy="0.95em" style="text-anchor: middle; visibility: inherit; font-family: Roboto, sans-serif; font-size: 12px; font-weight: 200;" fill="rgb(33, 33, 33)" stroke="none" stroke-width="1px">150</text><text x="1032.703125" y="0" dx="0em" dy="0.95em" style="text-anchor: middle; visibility: inherit; font-family: Roboto, sans-serif; font-size: 12px; font-weight: 200;" fill="rgb(33, 33, 33)" stroke="none" stroke-width="1px">200</text><text x="1239.2437499999999" y="0" dx="0em" dy="0.95em" style="text-anchor: middle; visibility: inherit; font-family: Roboto, sans-serif; font-size: 12px; font-weight: 200;" fill="rgb(33, 33, 33)" stroke="none" stroke-width="1px">250</text><text x="1445.784375" y="0" dx="0em" dy="0.95em" style="text-anchor: middle; visibility: inherit; font-family: Roboto, sans-serif; font-size: 12px; font-weight: 200;" fill="rgb(33, 33, 33)" stroke="none" stroke-width="1px">300</text><text x="1652.325" y="0" dx="0em" dy="0.95em" style="text-anchor: middle; visibility: inherit; font-family: Roboto, sans-serif; font-size: 12px; font-weight: 200;" fill="rgb(33, 33, 33)" stroke="none" stroke-width="1px">350</text><text x="1858.8656250000001" y="0" dx="0em" dy="0.95em" style="text-anchor: middle; visibility: inherit; font-family: Roboto, sans-serif; font-size: 12px; font-weight: 200;" fill="rgb(33, 33, 33)" stroke="none" stroke-width="1px">400</text><text x="2065.40625" y="0" dx="0em" dy="0.95em" style="text-anchor: middle; visibility: hidden; font-family: Roboto, sans-serif; font-size: 12px; font-weight: 200;" fill="rgb(33, 33, 33)" stroke="none" stroke-width="1px">450</text></g><line x1="0" y1="0" x2="2065.40625" y2="0" fill="rgb(0, 0, 0)" stroke="rgb(204, 204, 204)" stroke-width="1px"></line></g></g></g></g></svg>