<svg viewBox="0 0 2097 400" xmlns="http://www.w3.org/2000/svg"><g><g><g><g><g><line x1="63.984375" y1="376" x2="58.984375" y2="376" style="visibility: inherit;" fill="rgb(0, 0, 0)" stroke="rgb(204, 204, 204)" stroke-width="1px"></line><line x1="63.984375" y1="349.1428571428571" x2="58.984375" y2="349.1428571428571" style="visibility: inherit;" fill="rgb(0, 0, 0)" stroke="rgb(204, 204, 204)" stroke-width="1px"></line><line x1="63.984375" y1="322.2857142857142" x2="58.984375" y2="322.2857142857142" style="visibility: inherit;" fill="rgb(0, 0, 0)" stroke="rgb(204, 204, 204)" stroke-width="1px"></line><line x1="63.984375" y1="295.4285714285719" x2="58.984375" y2="295.4285714285719" style="visibility: inherit;" fill="rgb(0, 0, 0)" stroke="rgb(204, 204, 204)" stroke-width="1px"></line><line x1="63.984375" y1="268.571428571429" x2="58.984375" y2="268.571428571429" style="visibility: inherit;" fill="rgb(0, 0, 0)" stroke="rgb(204, 204, 204)" stroke-width="1px"></line><line x1="63.984375" y1="241.71428571428612" x2="58.984375" y2="241.71428571428612" style="visibility: inherit;" fill="rgb(0, 0, 0)" stroke="rgb(204, 204, 204)" stroke-width="1px"></line><line x1="63.984375" y1="214.85714285714317" x2="58.984375" y2="214.85714285714317" style="visibility: inherit;" fill="rgb(0, 0, 0)" stroke="rgb(204, 204, 204)" stroke-width="1px"></line><line x1="63.984375" y1="188.00000000000028" x2="58.984375" y2="188.00000000000028" style="visibility: inherit;" fill="rgb(0, 0, 0)" stroke="rgb(204, 204, 204)" stroke-width="1px"></line><line x1="63.984375" y1="161.1428571428574" x2="58.984375" y2="161.1428571428574" style="visibility: inherit;" fill="rgb(0, 0, 0)" stroke="rgb(204, 204, 204)" stroke-width="1px"></line><line x1="63.984375" y1="134.2857142857145" x2="58.984375" y2="134.2857142857145" style="visibility: inherit;" fill="rgb(0, 0, 0)" stroke="rgb(204, 204, 204)" stroke-width="1px"></line><line x1="63.984375" y1="107.42857142857159" x2="58.984375" y2="107.42857142857159" style="visibility: inherit;" fill="rgb(0, 0, 0)" stroke="rgb(204, 204, 204)" stroke-width="1px"></line><line x1="63.984375" y1="80.5714285714287" x2="58.984375" y2="80.5714285714287" style="visibility: inherit;" fill="rgb(0, 0, 0)" stroke="rgb(204, 204, 204)" stroke-width="1px"></line><line x1="63.984375" y1="53.714285714285815" x2="58.984375" y2="53.714285714285815" style="visibility: inherit;" fill="rgb(0, 0, 0)" stroke="rgb(204, 204, 204)" stroke-width="1px"></line><line x1="63.984375" y1="26.857142857142886" x2="58.984375" y2="26.857142857142886" style="visibility: inherit;" fill="rgb(0, 0, 0)" stroke="rgb(204, 204, 204)" stroke-width="1px"></line><line x1="63.984375" y1="0" x2="58.984375" y2="0" style="visibility: inherit;" fill="rgb(0, 0, 0)" stroke="rgb(204, 204, 204)" stroke-width="1px"></line></g><g transform="translate(53.984375, 0)"><text x="0" y="376" dx="0em" dy="0.3em" style="text-anchor: end; visibility: hidden; font-family: Roboto, sans-serif; font-size: 12px; font-weight: 200;" fill="rgb(33, 33, 33)" stroke="none" stroke-width="1px">0.8</text><text x="0" y="349.1428571428571" dx="0em" dy="0.3em" style="text-anchor: end; visibility: inherit; font-family: Roboto, sans-serif; font-size: 12px; font-weight: 200;" fill="rgb(33, 33, 33)" stroke="none" stroke-width="1px">0.805</text><text x="0" y="322.2857142857142" dx="0em" dy="0.3em" style="text-anchor: end; visibility: inherit; font-family: Roboto, sans-serif; font-size: 12px; font-weight: 200;" fill="rgb(33, 33, 33)" stroke="none" stroke-width="1px">0.81</text><text x="0" y="295.4285714285719" dx="0em" dy="0.3em" style="text-anchor: end; visibility: inherit; font-family: Roboto, sans-serif; font-size: 12px; font-weight: 200;" fill="rgb(33, 33, 33)" stroke="none" stroke-width="1px">0.815</text><text x="0" y="268.571428571429" dx="0em" dy="0.3em" style="text-anchor: end; visibility: inherit; font-family: Roboto, sans-serif; font-size: 12px; font-weight: 200;" fill="rgb(33, 33, 33)" stroke="none" stroke-width="1px">0.82</text><text x="0" y="241.71428571428612" dx="0em" dy="0.3em" style="text-anchor: end; visibility: inherit; font-family: Roboto, sans-serif; font-size: 12px; font-weight: 200;" fill="rgb(33, 33, 33)" stroke="none" stroke-width="1px">0.825</text><text x="0" y="214.85714285714317" dx="0em" dy="0.3em" style="text-anchor: end; visibility: inherit; font-family: Roboto, sans-serif; font-size: 12px; font-weight: 200;" fill="rgb(33, 33, 33)" stroke="none" stroke-width="1px">0.83</text><text x="0" y="188.00000000000028" dx="0em" dy="0.3em" style="text-anchor: end; visibility: inherit; font-family: Roboto, sans-serif; font-size: 12px; font-weight: 200;" fill="rgb(33, 33, 33)" stroke="none" stroke-width="1px">0.835</text><text x="0" y="161.1428571428574" dx="0em" dy="0.3em" style="text-anchor: end; visibility: inherit; font-family: Roboto, sans-serif; font-size: 12px; font-weight: 200;" fill="rgb(33, 33, 33)" stroke="none" stroke-width="1px">0.84</text><text x="0" y="134.2857142857145" dx="0em" dy="0.3em" style="text-anchor: end; visibility: inherit; font-family: Roboto, sans-serif; font-size: 12px; font-weight: 200;" fill="rgb(33, 33, 33)" stroke="none" stroke-width="1px">0.845</text><text x="0" y="107.42857142857159" dx="0em" dy="0.3em" style="text-anchor: end; visibility: inherit; font-family: Roboto, sans-serif; font-size: 12px; font-weight: 200;" fill="rgb(33, 33, 33)" stroke="none" stroke-width="1px">0.85</text><text x="0" y="80.5714285714287" dx="0em" dy="0.3em" style="text-anchor: end; visibility: inherit; font-family: Roboto, sans-serif; font-size: 12px; font-weight: 200;" fill="rgb(33, 33, 33)" stroke="none" stroke-width="1px">0.855</text><text x="0" y="53.714285714285815" dx="0em" dy="0.3em" style="text-anchor: end; visibility: inherit; font-family: Roboto, sans-serif; font-size: 12px; font-weight: 200;" fill="rgb(33, 33, 33)" stroke="none" stroke-width="1px">0.86</text><text x="0" y="26.857142857142886" dx="0em" dy="0.3em" style="text-anchor: end; visibility: inherit; font-family: Roboto, sans-serif; font-size: 12px; font-weight: 200;" fill="rgb(33, 33, 33)" stroke="none" stroke-width="1px">0.865</text><text x="0" y="0" dx="0em" dy="0.3em" style="text-anchor: end; visibility: hidden; font-family: Roboto, sans-serif; font-size: 12px; font-weight: 200;" fill="rgb(33, 33, 33)" stroke="none" stroke-width="1px">0.87</text></g><line x1="63.984375" y1="0" x2="63.984375" y2="376" fill="rgb(0, 0, 0)" stroke="rgb(204, 204, 204)" stroke-width="1px"></line></g></g><g transform="translate(63, 0)" clip-path="url(#clip_0)"><clipPath id="clip_0"><rect width="2033" height="376"></rect></clipPath><g><g><g><line x1="0" y1="0" x2="0" y2="376" fill="rgb(0, 0, 0)" stroke="rgb(66, 66, 66)" stroke-width="1px" opacity="0.25"></line><line x1="203.30156250000002" y1="0" x2="203.30156250000002" y2="376" fill="rgb(0, 0, 0)" stroke="rgb(66, 66, 66)" stroke-width="1px" opacity="0.25"></line><line x1="406.60312500000003" y1="0" x2="406.60312500000003" y2="376" fill="rgb(0, 0, 0)" stroke="rgb(66, 66, 66)" stroke-width="1px" opacity="0.25"></line><line x1="609.9046875" y1="0" x2="609.9046875" y2="376" fill="rgb(0, 0, 0)" stroke="rgb(66, 66, 66)" stroke-width="1px" opacity="0.25"></line><line x1="813.2062500000001" y1="0" x2="813.2062500000001" y2="376" fill="rgb(0, 0, 0)" stroke="rgb(66, 66, 66)" stroke-width="1px" opacity="0.25"></line><line x1="1016.5078125" y1="0" x2="1016.5078125" y2="376" fill="rgb(0, 0, 0)" stroke="rgb(66, 66, 66)" stroke-width="1px" opacity="0.25"></line><line x1="1219.809375" y1="0" x2="1219.809375" y2="376" fill="rgb(0, 0, 0)" stroke="rgb(66, 66, 66)" stroke-width="1px" opacity="0.25"></line><line x1="1423.1109374999999" y1="0" x2="1423.1109374999999" y2="376" fill="rgb(0, 0, 0)" stroke="rgb(66, 66, 66)" stroke-width="1px" opacity="0.25"></line><line x1="1626.4125000000001" y1="0" x2="1626.4125000000001" y2="376" fill="rgb(0, 0, 0)" stroke="rgb(66, 66, 66)" stroke-width="1px" opacity="0.25"></line><line x1="1829.7140625" y1="0" x2="1829.7140625" y2="376" fill="rgb(0, 0, 0)" stroke="rgb(66, 66, 66)" stroke-width="1px" opacity="0.25"></line><line x1="2033.015625" y1="0" x2="2033.015625" y2="376" fill="rgb(0, 0, 0)" stroke="rgb(66, 66, 66)" stroke-width="1px" opacity="0.25"></line></g><g><line x1="0" y1="376" x2="2033.015625" y2="376" fill="rgb(0, 0, 0)" stroke="rgb(66, 66, 66)" stroke-width="1px" opacity="0.25"></line><line x1="0" y1="349.1428571428571" x2="2033.015625" y2="349.1428571428571" fill="rgb(0, 0, 0)" stroke="rgb(66, 66, 66)" stroke-width="1px" opacity="0.25"></line><line x1="0" y1="322.2857142857142" x2="2033.015625" y2="322.2857142857142" fill="rgb(0, 0, 0)" stroke="rgb(66, 66, 66)" stroke-width="1px" opacity="0.25"></line><line x1="0" y1="295.4285714285719" x2="2033.015625" y2="295.4285714285719" fill="rgb(0, 0, 0)" stroke="rgb(66, 66, 66)" stroke-width="1px" opacity="0.25"></line><line x1="0" y1="268.571428571429" x2="2033.015625" y2="268.571428571429" fill="rgb(0, 0, 0)" stroke="rgb(66, 66, 66)" stroke-width="1px" opacity="0.25"></line><line x1="0" y1="241.71428571428612" x2="2033.015625" y2="241.71428571428612" fill="rgb(0, 0, 0)" stroke="rgb(66, 66, 66)" stroke-width="1px" opacity="0.25"></line><line x1="0" y1="214.85714285714317" x2="2033.015625" y2="214.85714285714317" fill="rgb(0, 0, 0)" stroke="rgb(66, 66, 66)" stroke-width="1px" opacity="0.25"></line><line x1="0" y1="188.00000000000028" x2="2033.015625" y2="188.00000000000028" fill="rgb(0, 0, 0)" stroke="rgb(66, 66, 66)" stroke-width="1px" opacity="0.25"></line><line x1="0" y1="161.1428571428574" x2="2033.015625" y2="161.1428571428574" fill="rgb(0, 0, 0)" stroke="rgb(66, 66, 66)" stroke-width="1px" opacity="0.25"></line><line x1="0" y1="134.2857142857145" x2="2033.015625" y2="134.2857142857145" fill="rgb(0, 0, 0)" stroke="rgb(66, 66, 66)" stroke-width="1px" opacity="0.25"></line><line x1="0" y1="107.42857142857159" x2="2033.015625" y2="107.42857142857159" fill="rgb(0, 0, 0)" stroke="rgb(66, 66, 66)" stroke-width="1px" opacity="0.25"></line><line x1="0" y1="80.5714285714287" x2="2033.015625" y2="80.5714285714287" fill="rgb(0, 0, 0)" stroke="rgb(66, 66, 66)" stroke-width="1px" opacity="0.25"></line><line x1="0" y1="53.714285714285815" x2="2033.015625" y2="53.714285714285815" fill="rgb(0, 0, 0)" stroke="rgb(66, 66, 66)" stroke-width="1px" opacity="0.25"></line><line x1="0" y1="26.857142857142886" x2="2033.015625" y2="26.857142857142886" fill="rgb(0, 0, 0)" stroke="rgb(66, 66, 66)" stroke-width="1px" opacity="0.25"></line><line x1="0" y1="0" x2="2033.015625" y2="0" fill="rgb(0, 0, 0)" stroke="rgb(66, 66, 66)" stroke-width="1px" opacity="0.25"></line></g></g></g><g><g><line x1="0" y1="4673.1428571428605" x2="2033.015625" y2="4673.1428571428605" fill="rgb(0, 0, 0)" stroke="rgb(153, 153, 153)" stroke-width="1.5px"></line></g></g><g><g><line x1="203.30156250000002" y1="0" x2="203.30156250000002" y2="376" fill="rgb(0, 0, 0)" stroke="rgb(153, 153, 153)" stroke-width="1.5px"></line></g></g><g><g><g><g><g><path stroke="rgb(255, 112, 67)" stroke-width="2px" d="M223.63171875,621.0554449627626L227.69775,301.22678690555404L231.76378125000002,113.78558282198073L235.8298125,-73.95453309158695L288.68821875,-17.746982251440024L292.75424999999996,9.996751708881817L296.82028125,-29.631497639932366L300.8863125,-11.200722038655757L304.95234375,29.176364990294434L309.018375,44.43890388688017L313.08440625,50.20814358973814L317.1504375,35.683789271524276L321.21646875,63.603837191008104L325.2825,74.15761530456818L329.34853125,78.1469434314928L333.4145625,79.65490946347056L337.48059375,80.22492062355842L341.546625,97.1455117679479L345.61265625000004,86.83636829465014L349.67868749999997,82.93951206174383L353.74471874999995,81.46650040570492L357.81075,114.31995585147752L361.87678124999996,126.73856200997935L365.9428125,114.7276682120157L370.00884375,126.89267728226248L374.074875,114.78592378493838L378.14090625,93.50444403707242L382.2069375,118.87029854413423L386.27296875,128.4585915478031L390.339,132.0829663031901L394.40503125000004,183.56855987917893L398.4710625,152.91453433245044L402.53709375,158.0326387424854L406.60312500000003,176.67240913535542L410.66915625,200.42336926973744L414.7351875,142.58052535620428L418.80121875,137.42105728276525L422.86724999999996,118.76565142512888L426.93328125,178.53461485527225L430.9993125,217.83240995774275L435.06534375,199.27672265472225L439.131375,225.67292670593446L443.19740625,185.5353110596618L447.2634375,153.6579662786725L451.32946875,208.42903679578768L455.3955,179.01712067362632L459.46153125,201.309670231204L463.52756250000004,209.73625396396855L467.59359375,246.33175646670742L471.659625,159.93389571665847L475.72565625000004,210.80133812334702L479.79168749999997,179.91385057544358L483.85771875,218.35376105996744L487.92375,216.17892029724078L491.98978124999996,232.06195741480673L496.0558125,254.77087237112397L500.12184375,163.12388152852847L504.187875,128.48131899002667L508.25390625,215.61739104655706L512.3199375,198.43944550629436L516.38596875,191.9461820920753L520.452,222.901982373254L524.51803125,251.308401805417L528.5840625000001,178.52019458056813L532.65009375,134.30112532369824L536.716125,134.2914440704783L540.7821562500001,134.2877845567611L544.8481875,134.2864012605757L548.91421875,184.40145829307076L552.9802500000001,136.52424300702384L557.04628125,118.42665562889805L561.1123125,144.99622059254216L565.1783437500001,205.15489692643104L569.2443750000001,161.0741697363111L573.3104062499999,161.11698092514473L577.3764375,127.72271056194782L581.44246875,232.03576398662065L585.5084999999999,238.05584432939227L589.57453125,190.2160539213289L593.6405625,188.83774007295824L597.7065937499999,138.20115751982146L601.772625,135.765656240613L605.83865625,134.84503675707222L609.9046875,134.49704259229375L613.97071875,84.2501200203757L618.03675,132.0774901325208L622.10278125,150.15623603491133L626.1688125,140.28467591931707L630.23484375,86.43784541799072L634.300875,99.493997340244L638.36690625,121.13434969273291L642.4329375,112.60927595609661L646.49896875,109.38679808364773L650.565,191.69453521806835L654.63103125,206.10173292900288L658.6970625,144.72694681940638L662.76309375,104.82215074410149L666.829125,89.73813782763638L670.89515625,134.15196086366527L674.9611875,117.52993297870857L679.0272187500001,144.65725943077064L683.09325,138.20606276295197L687.15928125,102.35725657076155L691.2253125000001,138.92198774856678L695.29134375,169.44858305965428L699.3573749999999,97.46180231703774L703.42340625,103.66105304808339L707.4894374999999,106.00436982441855L711.5554687499999,40.0696358623644L715.6215,81.96681412821653L719.68753125,97.80394751270921L723.7535624999999,137.2008369246229L727.81959375,51.861900426241746L731.885625,19.603782429854082L735.9516562499999,90.93584845660513L740.0176875,34.3737347853306L744.08371875,113.22421651367372L748.14975,126.32437254028932L752.21578125,114.57110459247278L756.2818125,126.83349623407494L760.34784375,64.64817257109193L764.413875,107.96262792999343L768.47990625,124.3354920556581L772.5459375,147.22976076185708L776.61196875,139.17846826610233L780.678,119.42995277682978L784.74403125,95.25988699600751L788.8100625000001,52.71334827910204L792.87609375,53.33588356998936L796.942125,103.68658268757595L801.0081562500001,122.71914695402376L805.0741875,113.20832932086421L809.14021875,92.90811332965308L813.2062500000001,35.11925090734346L817.2722812500001,29.980187837587277L821.3383125,28.037621997219393L825.4043437500001,60.71358596131517L829.470375,89.77022726562042L833.5364062499999,100.75363767864732L837.6024375,104.90536681477174L841.66846875,106.47472042822697L845.7344999999999,90.36280916823598L849.80053125,100.97763363783646L853.8665625,38.16952958383651L857.93259375,81.24857395493382L861.998625,114.23757965308535L866.06465625,126.70742380698712L870.1306875,131.4210248971613L874.19671875,66.38225840573863L878.26275,91.91298544961205L882.32878125,84.85847334631947L886.3948125,115.60212162302909L890.46084375,127.22322067162544L894.526875,131.61599611199466L898.59290625,133.27646522845424L902.6589375,67.08361485096707L906.72496875,108.88322511178634L910.791,124.6834777903755L914.85703125,130.65597330288216L918.9230625,132.91357660660984L922.98909375,133.76695065541864L927.0551250000001,134.08952604586872L931.12115625,67.39095183994961L935.1871875,75.5891446418667L939.2532187500001,45.27780766923713L943.31925,50.52524921946062L947.38528125,69.21390905132237L951.4513125000001,143.098929312096L955.5173437499999,154.32234004479108L959.5833749999999,158.56478930174967L963.64940625,176.87356204675737L967.7154375,200.49940507024758L971.7814687499999,192.72484680724946L975.8475,173.08093685795853L979.91353125,132.2450859045518L983.9795624999999,150.21958723673907L988.04559375,207.12932951793678L992.111625,111.70512447826869L996.1776562499999,175.8657356693588L1000.2436875,166.70819284783627L1004.30971875,213.36202243893214L1008.37575,197.5869161726121L1012.44178125,208.32905292982048L1016.5078125,229.09470754992225L1020.57384375,236.9441249963204L1024.639875,239.91120479105896L1028.70590625,224.32763402759363L1032.7719375,218.4370442790035L1036.83796875,216.21040135403695L1040.904,215.36873032839907L1044.97003125,231.75570560658468L1049.0360625,221.2448553358619L1053.10209375,233.97688085940553L1057.1681250000001,222.08445958142875L1061.23415625,200.883997412476L1065.3001875,209.5753496384895L1069.3662187500001,212.86068077992235L1073.43225,214.10253595138386L1077.49828125,197.86683028031905L1081.5643125000001,208.43486046253358L1085.63034375,212.4295758714108L1089.696375,197.2344513700889L1093.7624062500001,191.49069430858975L1097.8284375,189.31955413934287L1101.89446875,238.61424393299865L1105.9605000000001,223.83738282324657L1110.02653125,234.9568562496369L1114.0925625,222.45489027893598L1118.1585937500001,217.7291471420109L1122.224625,199.2376893103759L1126.2906562500002,208.95304517589528L1130.3566875000001,179.21519584130704L1134.42271875,201.3845426445872L1138.4887500000002,209.76455573622673L1142.5547812500001,179.5219468331122L1146.6208124999998,218.2056214453659L1150.68684375,249.53317737467523L1154.752875,244.66986659007685L1158.8189062499998,226.12640818762216L1162.8849375,235.82210783737088L1166.95096875,256.19220923085334L1171.0169999999998,230.48185370583556L1175.08303125,270.87872009500995L1179.1490625,252.73848173836342L1183.2150937499998,262.58659856542823L1187.281125,266.30918672605924L1191.34715625,301.1265789025317L1195.4131874999998,264.1721723676068L1199.47921875,266.9085336232824L1203.54525,251.23775125205086L1207.61128125,262.0193224416022L1211.6773125,215.97937557362158L1215.74334375,265.3967833610331L1219.809375,267.3714365787975L1223.87540625,301.52810934686687L1227.9414375,297.7342047273202L1232.00746875,313.0052357070085L1236.0735,302.0725584914535L1240.13953125,348.055387281605L1244.2055625,281.91126193489663L1248.27159375,307.0241633314728L1252.337625,266.4014592817465L1256.40365625,234.34095022507344L1260.4696875,272.3374585792818L1264.53571875,236.5847579595414L1268.60175,239.77536405115657L1272.66778125,257.6865400796638L1276.7338125,247.75183769256256L1280.79984375,327.522154819625L1284.865875,357.67533469365446L1288.93190625,318.95785590840586L1292.9979375,321.02777585345916L1297.06396875,338.51533251856586L1301.13,361.8307558638538L1305.19603125,303.823478184864L1309.2620625,281.8967272222056L1313.32809375,340.4289230618298L1317.394125,329.1438392374529L1321.46015625,324.87807755183877L1325.5261875,323.26561963467657L1329.59221875,289.2458566902347L1333.65825,309.79664014898987L1337.72428125,350.97509014815404L1341.7903125,349.8354173219609L1345.8563437500002,332.6994940677826L1349.922375,326.22211507770356L1353.98840625,323.7736658194533L1358.0544375000002,322.84815199983507L1362.12046875,355.9085616277733L1366.1865,334.99514261537985L1370.2525312500002,327.0898702286952L1374.3185625,340.80680419240554L1378.38459375,329.2866783048105L1382.4506250000002,324.93207071929976L1386.51665625,323.28602905197664L1390.5826875,322.66382530172876L1394.6487187500002,322.42863228413523L1398.7147499999999,322.3397293234847L1402.7807812499998,322.30612400435865L1406.8468125,322.29342119372905L1410.9128437499999,338.993746457188L1414.9788749999998,328.6013424808984L1419.04490625,324.67301377786106L1423.1109374999999,323.1881055281127L1427.17696875,322.6268102097082L1431.243,339.11976750522865L1435.3090312499999,328.64897843705774L1439.3750625,324.6910201692895L1443.44109375,339.9000388699497L1447.5071249999999,312.23879408704545L1451.57315625,318.48797048498454L1455.6391875,304.14503223752797L1459.7052187499999,315.42852850586735L1463.77125,319.6936900952994L1467.83728125,321.30592117610485L1471.9033124999999,321.9153445246492L1475.96934375,322.1457065503992L1480.035375,322.23278339613233L1484.1014062499999,338.970825369697L1488.1674375,311.8875513839499L1492.23346875,318.3552007432148L1496.2995,320.79997220101677L1500.36553125,321.7240958120659L1504.4315625,322.07341453704214L1508.49759375,322.20545701508314L1512.563625,322.2553690717826L1516.62965625,322.2742358292154L1520.6956875,322.2813674635248L1524.76171875,305.57893629541644L1528.82775,315.97054423974924L1532.89378125,319.898572042707L1536.9598125,321.38336655222463L1541.02584375,321.9446188768221L1545.091875,322.15677225552054L1549.15790625,322.2369662326681L1553.2239375,305.56215263015275L1557.28996875,299.2590730884019L1561.356,313.5816359474975L1565.4220312500001,318.99556470823546L1569.4880625,321.04202977979423L1573.55409375,321.81559357684324L1577.6201250000001,305.402873766251L1581.68615625,315.90399260372465L1585.7521875,319.87341552428916L1589.8182187500001,321.3738573882627L1593.88425,321.9410244128445L1597.95028125,322.1554135481368L1602.0163125000001,355.64670649303133L1606.08234375,334.8961613744477L1610.148375,327.0524553196227L1614.2144062500001,324.0875344308988L1618.2804375,322.9667943349615L1622.34646875,322.5431545786968L1626.4125000000001,305.67789182495153L1630.47853125,316.0079494299129L1634.5445625000002,336.61783813046566L1638.6105937500001,310.99812220752057L1642.676625,334.72412344040185L1646.7426562500002,326.98742498055356L1650.8086875000001,324.06295296273044L1654.8747187499998,322.95750253999324L1658.94075,322.53964228019896L1663.00678125,322.38169110199675L1667.0728124999998,339.0271124825136L1671.13884375,328.6139548384715L1675.204875,324.67778124902367L1679.2709062499998,323.1899076322128L1683.3369375,356.03774525681246L1687.40296875,318.3388471012792L1691.4689999999998,337.4989174502423L1695.53503125,311.3311701903962L1699.6010625,318.14488865205095L1703.6670937499998,387.5409819340659L1707.733125,330.247070565281L1711.79915625,308.5899720678801L1715.8651875,333.8138426876174L1719.93121875,309.9382119301238L1723.99725,300.9132235037909L1728.06328125,314.2069048045143L1732.1293125,319.2319163361877L1736.19534375,287.72111684340575L1740.261375,309.22028848688853L1744.32740625,317.3469753681256L1748.3934375,303.7137360833558L1752.45946875,331.9706254854672L1756.5255,342.65172967946506L1760.59153125,346.68918706479656L1764.6575625,398.3307267340834L1768.72359375,334.32559409968746L1772.789625,343.5419078156403L1776.85565625,363.73080132614785L1780.9216875,371.3622030731202L1784.98771875,357.541746007598L1789.05375,352.31761323683065L1793.11978125,350.3428910494806L1797.1858125,399.7118268402942" style="fill: none;" fill="none"></path></g></g></g></g><g opacity="0.2"><g><g><g><path stroke="rgb(255, 112, 67)" stroke-width="2px" d="M223.63171875,402.8570532117574L227.69775,107.42844336373473L231.76378125000002,-0.00002561296741454555L288.68821875,-0.00002561296741454555L292.75424999999996,26.857091631208142L296.82028125,-53.714260101318445L300.8863125,-0.00002561296741454555L304.95234375,53.714208875383655L309.018375,53.714208875383655L313.08440625,53.714208875383655L317.1504375,26.857091631208142L321.21646875,80.57132611955917L325.2825,80.57132611955917L329.34853125,80.57132611955917L333.4145625,80.57132611955917L337.48059375,80.57132611955917L341.546625,107.42844336373473L345.61265625000004,80.57132611955917L349.67868749999997,80.57132611955917L353.74471874999995,80.57132611955917L357.81075,134.28556060791024L361.87678124999996,134.28556060791024L365.9428125,107.42844336373473L370.00884375,134.28556060791024L374.074875,107.42844336373473L378.14090625,80.57132611955917L382.2069375,134.28556060791024L386.27296875,134.28556060791024L390.339,134.28556060791024L394.40503125000004,214.85723250252875L398.4710625,134.28556060791024L402.53709375,161.1429980141777L406.60312500000003,188.0001152583532L410.66915625,214.85723250252875L414.7351875,107.42844336373473L418.80121875,134.28556060791024L422.86724999999996,107.42844336373473L426.93328125,214.85723250252875L430.9993125,241.71434974670427L435.06534375,188.0001152583532L439.131375,241.71434974670427L443.19740625,161.1429980141777L447.2634375,134.28556060791024L451.32946875,241.71434974670427L455.3955,161.1429980141777L459.46153125,214.85723250252875L463.52756250000004,214.85723250252875L467.59359375,268.5714669908798L471.659625,107.42844336373473L475.72565625000004,241.71434974670427L479.79168749999997,161.1429980141777L483.85771875,241.71434974670427L487.92375,214.85723250252875L491.98978124999996,241.71434974670427L496.0558125,268.5714669908798L500.12184375,107.42844336373473L504.187875,107.42844336373473L508.25390625,268.5714669908798L512.3199375,188.0001152583532L516.38596875,188.0001152583532L520.452,241.71434974670427L524.51803125,268.5714669908798L528.5840625000001,134.28556060791024L532.65009375,107.42844336373473L536.716125,134.28556060791024L540.7821562500001,134.28556060791024L544.8481875,134.28556060791024L548.91421875,214.85723250252875L552.9802500000001,107.42844336373473L557.04628125,107.42844336373473L561.1123125,161.1429980141777L565.1783437500001,241.71434974670427L569.2443750000001,134.28556060791024L573.3104062499999,161.1429980141777L577.3764375,107.42844336373473L581.44246875,295.42858423505527L585.5084999999999,241.71434974670427L589.57453125,161.1429980141777L593.6405625,188.0001152583532L597.7065937499999,107.42844336373473L601.772625,134.28556060791024L605.83865625,134.28556060791024L609.9046875,134.28556060791024L613.97071875,53.714208875383655L618.03675,161.1429980141777L622.10278125,161.1429980141777L626.1688125,134.28556060791024L630.23484375,53.714208875383655L634.300875,107.42844336373473L638.36690625,134.28556060791024L642.4329375,107.42844336373473L646.49896875,107.42844336373473L650.565,241.71434974670427L654.63103125,214.85723250252875L658.6970625,107.42844336373473L662.76309375,80.57132611955917L666.829125,80.57132611955917L670.89515625,161.1429980141777L674.9611875,107.42844336373473L679.0272187500001,161.1429980141777L683.09325,134.28556060791024L687.15928125,80.57132611955917L691.2253125000001,161.1429980141777L695.29134375,188.0001152583532L699.3573749999999,53.714208875383655L703.42340625,107.42844336373473L707.4894374999999,107.42844336373473L711.5554687499999,-0.00002561296741454555L715.6215,107.42844336373473L719.68753125,107.42844336373473L723.7535624999999,161.1429980141777L727.81959375,-0.00002561296741454555L731.885625,-0.00002561296741454555L735.9516562499999,134.28556060791024L740.0176875,-0.00002561296741454555L744.08371875,161.1429980141777L748.14975,134.28556060791024L752.21578125,107.42844336373473L756.2818125,134.28556060791024L760.34784375,26.857091631208142L764.413875,134.28556060791024L768.47990625,134.28556060791024L772.5459375,161.1429980141777L776.61196875,134.28556060791024L780.678,107.42844336373473L784.74403125,80.57132611955917L788.8100625000001,26.857091631208142L792.87609375,53.714208875383655L796.942125,134.28556060791024L801.0081562500001,134.28556060791024L805.0741875,107.42844336373473L809.14021875,80.57132611955917L813.2062500000001,-0.00002561296741454555L817.2722812500001,26.857091631208142L821.3383125,26.857091631208142L825.4043437500001,80.57132611955917L829.470375,107.42844336373473L833.5364062499999,107.42844336373473L837.6024375,107.42844336373473L841.66846875,107.42844336373473L845.7344999999999,80.57132611955917L849.80053125,107.42844336373473L853.8665625,-0.00002561296741454555L857.93259375,107.42844336373473L861.998625,134.28556060791024L866.06465625,134.28556060791024L870.1306875,134.28556060791024L874.19671875,26.857091631208142L878.26275,107.42844336373473L882.32878125,80.57132611955917L886.3948125,134.28556060791024L890.46084375,134.28556060791024L894.526875,134.28556060791024L898.59290625,134.28556060791024L902.6589375,26.857091631208142L906.72496875,134.28556060791024L910.791,134.28556060791024L914.85703125,134.28556060791024L918.9230625,134.28556060791024L922.98909375,134.28556060791024L927.0551250000001,134.28556060791024L931.12115625,26.857091631208142L935.1871875,80.57132611955917L939.2532187500001,26.857091631208142L943.31925,53.714208875383655L947.38528125,80.57132611955917L951.4513125000001,188.0001152583532L955.5173437499999,161.1429980141777L959.5833749999999,161.1429980141777L963.64940625,188.0001152583532L967.7154375,214.85723250252875L971.7814687499999,188.0001152583532L975.8475,161.1429980141777L979.91353125,107.42844336373473L983.9795624999999,161.1429980141777L988.04559375,241.71434974670427L992.111625,53.714208875383655L996.1776562499999,214.85723250252875L1000.2436875,161.1429980141777L1004.30971875,241.71434974670427L1008.37575,188.0001152583532L1012.44178125,214.85723250252875L1016.5078125,241.71434974670427L1020.57384375,241.71434974670427L1024.639875,241.71434974670427L1028.70590625,214.85723250252875L1032.7719375,214.85723250252875L1036.83796875,214.85723250252875L1040.904,214.85723250252875L1044.97003125,241.71434974670427L1049.0360625,214.85723250252875L1053.10209375,241.71434974670427L1057.1681250000001,214.85723250252875L1061.23415625,188.0001152583532L1065.3001875,214.85723250252875L1069.3662187500001,214.85723250252875L1073.43225,214.85723250252875L1077.49828125,188.0001152583532L1081.5643125000001,214.85723250252875L1085.63034375,214.85723250252875L1089.696375,188.0001152583532L1093.7624062500001,188.0001152583532L1097.8284375,188.0001152583532L1101.89446875,268.5714669908798L1105.9605000000001,214.85723250252875L1110.02653125,241.71434974670427L1114.0925625,214.85723250252875L1118.1585937500001,214.85723250252875L1122.224625,188.0001152583532L1126.2906562500002,214.85723250252875L1130.3566875000001,161.1429980141777L1134.42271875,214.85723250252875L1138.4887500000002,214.85723250252875L1142.5547812500001,161.1429980141777L1146.6208124999998,241.71434974670427L1150.68684375,268.5714669908798L1154.752875,241.71434974670427L1158.8189062499998,214.85723250252875L1162.8849375,241.71434974670427L1166.95096875,268.5714669908798L1171.0169999999998,214.85723250252875L1175.08303125,295.42858423505527L1179.1490625,241.71434974670427L1183.2150937499998,268.5714669908798L1187.281125,268.5714669908798L1191.34715625,322.2857014792308L1195.4131874999998,241.71434974670427L1199.47921875,268.5714669908798L1203.54525,241.71434974670427L1207.61128125,268.5714669908798L1211.6773125,188.0001152583532L1215.74334375,295.42858423505527L1219.809375,268.5714669908798L1223.87540625,322.2857014792308L1227.9414375,295.42858423505527L1232.00746875,322.2857014792308L1236.0735,295.42858423505527L1240.13953125,375.99993596758185L1244.2055625,241.71434974670427L1248.27159375,322.2857014792308L1252.337625,241.71434974670427L1256.40365625,214.85723250252875L1260.4696875,295.42858423505527L1264.53571875,214.85723250252875L1268.60175,241.71434974670427L1272.66778125,268.5714669908798L1276.7338125,241.71434974670427L1280.79984375,375.99993596758185L1284.865875,375.99993596758185L1288.93190625,295.42858423505527L1292.9979375,322.2857014792308L1297.06396875,349.1428187234063L1301.13,375.99993596758185L1305.19603125,268.5714669908798L1309.2620625,268.5714669908798L1313.32809375,375.99993596758185L1317.394125,322.2857014792308L1321.46015625,322.2857014792308L1325.5261875,322.2857014792308L1329.59221875,268.5714669908798L1333.65825,322.2857014792308L1337.72428125,375.99993596758185L1341.7903125,349.1428187234063L1345.8563437500002,322.2857014792308L1349.922375,322.2857014792308L1353.98840625,322.2857014792308L1358.0544375000002,322.2857014792308L1362.12046875,375.99993596758185L1366.1865,322.2857014792308L1370.2525312500002,322.2857014792308L1374.3185625,349.1428187234063L1378.38459375,322.2857014792308L1382.4506250000002,322.2857014792308L1386.51665625,322.2857014792308L1390.5826875,322.2857014792308L1394.6487187500002,322.2857014792308L1398.7147499999999,322.2857014792308L1402.7807812499998,322.2857014792308L1406.8468125,322.2857014792308L1410.9128437499999,349.1428187234063L1414.9788749999998,322.2857014792308L1419.04490625,322.2857014792308L1423.1109374999999,322.2857014792308L1427.17696875,322.2857014792308L1431.243,349.1428187234063L1435.3090312499999,322.2857014792308L1439.3750625,322.2857014792308L1443.44109375,349.1428187234063L1447.5071249999999,295.42858423505527L1451.57315625,322.2857014792308L1455.6391875,295.42858423505527L1459.7052187499999,322.2857014792308L1463.77125,322.2857014792308L1467.83728125,322.2857014792308L1471.9033124999999,322.2857014792308L1475.96934375,322.2857014792308L1480.035375,322.2857014792308L1484.1014062499999,349.1428187234063L1488.1674375,295.42858423505527L1492.23346875,322.2857014792308L1496.2995,322.2857014792308L1500.36553125,322.2857014792308L1504.4315625,322.2857014792308L1508.49759375,322.2857014792308L1512.563625,322.2857014792308L1516.62965625,322.2857014792308L1520.6956875,322.2857014792308L1524.76171875,295.42858423505527L1528.82775,322.2857014792308L1532.89378125,322.2857014792308L1536.9598125,322.2857014792308L1541.02584375,322.2857014792308L1545.091875,322.2857014792308L1549.15790625,322.2857014792308L1553.2239375,295.42858423505527L1557.28996875,295.42858423505527L1561.356,322.2857014792308L1565.4220312500001,322.2857014792308L1569.4880625,322.2857014792308L1573.55409375,322.2857014792308L1577.6201250000001,295.42858423505527L1581.68615625,322.2857014792308L1585.7521875,322.2857014792308L1589.8182187500001,322.2857014792308L1593.88425,322.2857014792308L1597.95028125,322.2857014792308L1602.0163125000001,375.99993596758185L1606.08234375,322.2857014792308L1610.148375,322.2857014792308L1614.2144062500001,322.2857014792308L1618.2804375,322.2857014792308L1622.34646875,322.2857014792308L1626.4125000000001,295.42858423505527L1630.47853125,322.2857014792308L1634.5445625000002,349.1428187234063L1638.6105937500001,295.42858423505527L1642.676625,349.1428187234063L1646.7426562500002,322.2857014792308L1650.8086875000001,322.2857014792308L1654.8747187499998,322.2857014792308L1658.94075,322.2857014792308L1663.00678125,322.2857014792308L1667.0728124999998,349.1428187234063L1671.13884375,322.2857014792308L1675.204875,322.2857014792308L1679.2709062499998,322.2857014792308L1683.3369375,375.99993596758185L1687.40296875,295.42858423505527L1691.4689999999998,349.1428187234063L1695.53503125,295.42858423505527L1699.6010625,322.2857014792308L1703.6670937499998,429.71417045593284L1707.733125,295.42858423505527L1711.79915625,295.42858423505527L1715.8651875,349.1428187234063L1719.93121875,295.42858423505527L1723.99725,295.42858423505527L1728.06328125,322.2857014792308L1732.1293125,322.2857014792308L1736.19534375,268.5714669908798L1740.261375,322.2857014792308L1744.32740625,322.2857014792308L1748.3934375,295.42858423505527L1752.45946875,349.1428187234063L1756.5255,349.1428187234063L1760.59153125,349.1428187234063L1764.6575625,429.71417045593284L1768.72359375,295.42858423505527L1772.789625,349.1428187234063L1776.85565625,375.99993596758185L1780.9216875,375.99993596758185L1784.98771875,349.1428187234063L1789.05375,349.1428187234063L1793.11978125,349.1428187234063L1797.1858125,429.71417045593284L1801.25184375,375.99993596758185L1805.317875,456.57128770010837L1809.38390625,375.99993596758185L1813.4499375,375.99993596758185L1817.51596875,375.99993596758185L1821.582,375.99993596758185L1825.64803125,402.8570532117574" style="fill: none;" fill="none"></path></g></g></g></g></g></g><g transform="translate(63, 376)" clip-path="url(#clip_1)"><clipPath id="clip_1"><rect width="2033" height="24"></rect></clipPath><g><g><line x1="0" y1="0" x2="0" y2="5" style="visibility: inherit;" fill="rgb(0, 0, 0)" stroke="rgb(204, 204, 204)" stroke-width="1px"></line><line x1="203.30156250000002" y1="0" x2="203.30156250000002" y2="5" style="visibility: inherit;" fill="rgb(0, 0, 0)" stroke="rgb(204, 204, 204)" stroke-width="1px"></line><line x1="406.60312500000003" y1="0" x2="406.60312500000003" y2="5" style="visibility: inherit;" fill="rgb(0, 0, 0)" stroke="rgb(204, 204, 204)" stroke-width="1px"></line><line x1="609.9046875" y1="0" x2="609.9046875" y2="5" style="visibility: inherit;" fill="rgb(0, 0, 0)" stroke="rgb(204, 204, 204)" stroke-width="1px"></line><line x1="813.2062500000001" y1="0" x2="813.2062500000001" y2="5" style="visibility: inherit;" fill="rgb(0, 0, 0)" stroke="rgb(204, 204, 204)" stroke-width="1px"></line><line x1="1016.5078125" y1="0" x2="1016.5078125" y2="5" style="visibility: inherit;" fill="rgb(0, 0, 0)" stroke="rgb(204, 204, 204)" stroke-width="1px"></line><line x1="1219.809375" y1="0" x2="1219.809375" y2="5" style="visibility: inherit;" fill="rgb(0, 0, 0)" stroke="rgb(204, 204, 204)" stroke-width="1px"></line><line x1="1423.1109374999999" y1="0" x2="1423.1109374999999" y2="5" style="visibility: inherit;" fill="rgb(0, 0, 0)" stroke="rgb(204, 204, 204)" stroke-width="1px"></line><line x1="1626.4125000000001" y1="0" x2="1626.4125000000001" y2="5" style="visibility: inherit;" fill="rgb(0, 0, 0)" stroke="rgb(204, 204, 204)" stroke-width="1px"></line><line x1="1829.7140625" y1="0" x2="1829.7140625" y2="5" style="visibility: inherit;" fill="rgb(0, 0, 0)" stroke="rgb(204, 204, 204)" stroke-width="1px"></line><line x1="2033.015625" y1="0" x2="2033.015625" y2="5" style="visibility: inherit;" fill="rgb(0, 0, 0)" stroke="rgb(204, 204, 204)" stroke-width="1px"></line></g><g transform="translate(0, 8)"><text x="0" y="0" dx="0em" dy="0.95em" style="text-anchor: middle; visibility: hidden; font-family: Roboto, sans-serif; font-size: 12px; font-weight: 200;" fill="rgb(33, 33, 33)" stroke="none" stroke-width="1px">-50</text><text x="203.30156250000002" y="0" dx="0em" dy="0.95em" style="text-anchor: middle; visibility: inherit; font-family: Roboto, sans-serif; font-size: 12px; font-weight: 200;" fill="rgb(33, 33, 33)" stroke="none" stroke-width="1px">0</text><text x="406.60312500000003" y="0" dx="0em" dy="0.95em" style="text-anchor: middle; visibility: inherit; font-family: Roboto, sans-serif; font-size: 12px; font-weight: 200;" fill="rgb(33, 33, 33)" stroke="none" stroke-width="1px">50</text><text x="609.9046875" y="0" dx="0em" dy="0.95em" style="text-anchor: middle; visibility: inherit; font-family: Roboto, sans-serif; font-size: 12px; font-weight: 200;" fill="rgb(33, 33, 33)" stroke="none" stroke-width="1px">100</text><text x="813.2062500000001" y="0" dx="0em" dy="0.95em" style="text-anchor: middle; visibility: inherit; font-family: Roboto, sans-serif; font-size: 12px; font-weight: 200;" fill="rgb(33, 33, 33)" stroke="none" stroke-width="1px">150</text><text x="1016.5078125" y="0" dx="0em" dy="0.95em" style="text-anchor: middle; visibility: inherit; font-family: Roboto, sans-serif; font-size: 12px; font-weight: 200;" fill="rgb(33, 33, 33)" stroke="none" stroke-width="1px">200</text><text x="1219.809375" y="0" dx="0em" dy="0.95em" style="text-anchor: middle; visibility: inherit; font-family: Roboto, sans-serif; font-size: 12px; font-weight: 200;" fill="rgb(33, 33, 33)" stroke="none" stroke-width="1px">250</text><text x="1423.1109374999999" y="0" dx="0em" dy="0.95em" style="text-anchor: middle; visibility: inherit; font-family: Roboto, sans-serif; font-size: 12px; font-weight: 200;" fill="rgb(33, 33, 33)" stroke="none" stroke-width="1px">300</text><text x="1626.4125000000001" y="0" dx="0em" dy="0.95em" style="text-anchor: middle; visibility: inherit; font-family: Roboto, sans-serif; font-size: 12px; font-weight: 200;" fill="rgb(33, 33, 33)" stroke="none" stroke-width="1px">350</text><text x="1829.7140625" y="0" dx="0em" dy="0.95em" style="text-anchor: middle; visibility: inherit; font-family: Roboto, sans-serif; font-size: 12px; font-weight: 200;" fill="rgb(33, 33, 33)" stroke="none" stroke-width="1px">400</text><text x="2033.015625" y="0" dx="0em" dy="0.95em" style="text-anchor: middle; visibility: hidden; font-family: Roboto, sans-serif; font-size: 12px; font-weight: 200;" fill="rgb(33, 33, 33)" stroke="none" stroke-width="1px">450</text></g><line x1="0" y1="0" x2="2033.015625" y2="0" fill="rgb(0, 0, 0)" stroke="rgb(204, 204, 204)" stroke-width="1px"></line></g></g></g></g></svg>