<svg viewBox="0 0 2097 400" xmlns="http://www.w3.org/2000/svg"><g><g><g><g><g><line x1="53.1875" y1="376" x2="48.1875" y2="376" style="visibility: inherit;" fill="rgb(0, 0, 0)" stroke="rgb(204, 204, 204)" stroke-width="1px"></line><line x1="53.1875" y1="349.1428571428572" x2="48.1875" y2="349.1428571428572" style="visibility: inherit;" fill="rgb(0, 0, 0)" stroke="rgb(204, 204, 204)" stroke-width="1px"></line><line x1="53.1875" y1="322.28571428571445" x2="48.1875" y2="322.28571428571445" style="visibility: inherit;" fill="rgb(0, 0, 0)" stroke="rgb(204, 204, 204)" stroke-width="1px"></line><line x1="53.1875" y1="295.4285714285713" x2="48.1875" y2="295.4285714285713" style="visibility: inherit;" fill="rgb(0, 0, 0)" stroke="rgb(204, 204, 204)" stroke-width="1px"></line><line x1="53.1875" y1="268.5714285714285" x2="48.1875" y2="268.5714285714285" style="visibility: inherit;" fill="rgb(0, 0, 0)" stroke="rgb(204, 204, 204)" stroke-width="1px"></line><line x1="53.1875" y1="241.71428571428578" x2="48.1875" y2="241.71428571428578" style="visibility: inherit;" fill="rgb(0, 0, 0)" stroke="rgb(204, 204, 204)" stroke-width="1px"></line><line x1="53.1875" y1="214.857142857143" x2="48.1875" y2="214.857142857143" style="visibility: inherit;" fill="rgb(0, 0, 0)" stroke="rgb(204, 204, 204)" stroke-width="1px"></line><line x1="53.1875" y1="188.00000000000026" x2="48.1875" y2="188.00000000000026" style="visibility: inherit;" fill="rgb(0, 0, 0)" stroke="rgb(204, 204, 204)" stroke-width="1px"></line><line x1="53.1875" y1="161.142857142857" x2="48.1875" y2="161.142857142857" style="visibility: inherit;" fill="rgb(0, 0, 0)" stroke="rgb(204, 204, 204)" stroke-width="1px"></line><line x1="53.1875" y1="134.28571428571428" x2="48.1875" y2="134.28571428571428" style="visibility: inherit;" fill="rgb(0, 0, 0)" stroke="rgb(204, 204, 204)" stroke-width="1px"></line><line x1="53.1875" y1="107.4285714285715" x2="48.1875" y2="107.4285714285715" style="visibility: inherit;" fill="rgb(0, 0, 0)" stroke="rgb(204, 204, 204)" stroke-width="1px"></line><line x1="53.1875" y1="80.57142857142874" x2="48.1875" y2="80.57142857142874" style="visibility: inherit;" fill="rgb(0, 0, 0)" stroke="rgb(204, 204, 204)" stroke-width="1px"></line><line x1="53.1875" y1="53.714285714285985" x2="48.1875" y2="53.714285714285985" style="visibility: inherit;" fill="rgb(0, 0, 0)" stroke="rgb(204, 204, 204)" stroke-width="1px"></line><line x1="53.1875" y1="26.85714285714276" x2="48.1875" y2="26.85714285714276" style="visibility: inherit;" fill="rgb(0, 0, 0)" stroke="rgb(204, 204, 204)" stroke-width="1px"></line><line x1="53.1875" y1="0" x2="48.1875" y2="0" style="visibility: inherit;" fill="rgb(0, 0, 0)" stroke="rgb(204, 204, 204)" stroke-width="1px"></line></g><g transform="translate(43.1875, 0)"><text x="0" y="376" dx="0em" dy="0.3em" style="text-anchor: end; visibility: hidden; font-family: Roboto, sans-serif; font-size: 12px; font-weight: 200;" fill="rgb(33, 33, 33)" stroke="none" stroke-width="1px">9.5</text><text x="0" y="349.1428571428572" dx="0em" dy="0.3em" style="text-anchor: end; visibility: inherit; font-family: Roboto, sans-serif; font-size: 12px; font-weight: 200;" fill="rgb(33, 33, 33)" stroke="none" stroke-width="1px">9.6</text><text x="0" y="322.28571428571445" dx="0em" dy="0.3em" style="text-anchor: end; visibility: inherit; font-family: Roboto, sans-serif; font-size: 12px; font-weight: 200;" fill="rgb(33, 33, 33)" stroke="none" stroke-width="1px">9.7</text><text x="0" y="295.4285714285713" dx="0em" dy="0.3em" style="text-anchor: end; visibility: inherit; font-family: Roboto, sans-serif; font-size: 12px; font-weight: 200;" fill="rgb(33, 33, 33)" stroke="none" stroke-width="1px">9.8</text><text x="0" y="268.5714285714285" dx="0em" dy="0.3em" style="text-anchor: end; visibility: inherit; font-family: Roboto, sans-serif; font-size: 12px; font-weight: 200;" fill="rgb(33, 33, 33)" stroke="none" stroke-width="1px">9.9</text><text x="0" y="241.71428571428578" dx="0em" dy="0.3em" style="text-anchor: end; visibility: inherit; font-family: Roboto, sans-serif; font-size: 12px; font-weight: 200;" fill="rgb(33, 33, 33)" stroke="none" stroke-width="1px">10</text><text x="0" y="214.857142857143" dx="0em" dy="0.3em" style="text-anchor: end; visibility: inherit; font-family: Roboto, sans-serif; font-size: 12px; font-weight: 200;" fill="rgb(33, 33, 33)" stroke="none" stroke-width="1px">10.1</text><text x="0" y="188.00000000000026" dx="0em" dy="0.3em" style="text-anchor: end; visibility: inherit; font-family: Roboto, sans-serif; font-size: 12px; font-weight: 200;" fill="rgb(33, 33, 33)" stroke="none" stroke-width="1px">10.2</text><text x="0" y="161.142857142857" dx="0em" dy="0.3em" style="text-anchor: end; visibility: inherit; font-family: Roboto, sans-serif; font-size: 12px; font-weight: 200;" fill="rgb(33, 33, 33)" stroke="none" stroke-width="1px">10.3</text><text x="0" y="134.28571428571428" dx="0em" dy="0.3em" style="text-anchor: end; visibility: inherit; font-family: Roboto, sans-serif; font-size: 12px; font-weight: 200;" fill="rgb(33, 33, 33)" stroke="none" stroke-width="1px">10.4</text><text x="0" y="107.4285714285715" dx="0em" dy="0.3em" style="text-anchor: end; visibility: inherit; font-family: Roboto, sans-serif; font-size: 12px; font-weight: 200;" fill="rgb(33, 33, 33)" stroke="none" stroke-width="1px">10.5</text><text x="0" y="80.57142857142874" dx="0em" dy="0.3em" style="text-anchor: end; visibility: inherit; font-family: Roboto, sans-serif; font-size: 12px; font-weight: 200;" fill="rgb(33, 33, 33)" stroke="none" stroke-width="1px">10.6</text><text x="0" y="53.714285714285985" dx="0em" dy="0.3em" style="text-anchor: end; visibility: inherit; font-family: Roboto, sans-serif; font-size: 12px; font-weight: 200;" fill="rgb(33, 33, 33)" stroke="none" stroke-width="1px">10.7</text><text x="0" y="26.85714285714276" dx="0em" dy="0.3em" style="text-anchor: end; visibility: inherit; font-family: Roboto, sans-serif; font-size: 12px; font-weight: 200;" fill="rgb(33, 33, 33)" stroke="none" stroke-width="1px">10.8</text><text x="0" y="0" dx="0em" dy="0.3em" style="text-anchor: end; visibility: hidden; font-family: Roboto, sans-serif; font-size: 12px; font-weight: 200;" fill="rgb(33, 33, 33)" stroke="none" stroke-width="1px">10.9</text></g><line x1="53.1875" y1="0" x2="53.1875" y2="376" fill="rgb(0, 0, 0)" stroke="rgb(204, 204, 204)" stroke-width="1px"></line></g></g><g transform="translate(53, 0)" clip-path="url(#clip_0)"><clipPath id="clip_0"><rect width="2043" height="376"></rect></clipPath><g><g><g><line x1="0" y1="0" x2="0" y2="376" fill="rgb(0, 0, 0)" stroke="rgb(66, 66, 66)" stroke-width="1px" opacity="0.25"></line><line x1="204.38125000000002" y1="0" x2="204.38125000000002" y2="376" fill="rgb(0, 0, 0)" stroke="rgb(66, 66, 66)" stroke-width="1px" opacity="0.25"></line><line x1="408.76250000000005" y1="0" x2="408.76250000000005" y2="376" fill="rgb(0, 0, 0)" stroke="rgb(66, 66, 66)" stroke-width="1px" opacity="0.25"></line><line x1="613.14375" y1="0" x2="613.14375" y2="376" fill="rgb(0, 0, 0)" stroke="rgb(66, 66, 66)" stroke-width="1px" opacity="0.25"></line><line x1="817.5250000000001" y1="0" x2="817.5250000000001" y2="376" fill="rgb(0, 0, 0)" stroke="rgb(66, 66, 66)" stroke-width="1px" opacity="0.25"></line><line x1="1021.90625" y1="0" x2="1021.90625" y2="376" fill="rgb(0, 0, 0)" stroke="rgb(66, 66, 66)" stroke-width="1px" opacity="0.25"></line><line x1="1226.2875" y1="0" x2="1226.2875" y2="376" fill="rgb(0, 0, 0)" stroke="rgb(66, 66, 66)" stroke-width="1px" opacity="0.25"></line><line x1="1430.6687499999998" y1="0" x2="1430.6687499999998" y2="376" fill="rgb(0, 0, 0)" stroke="rgb(66, 66, 66)" stroke-width="1px" opacity="0.25"></line><line x1="1635.0500000000002" y1="0" x2="1635.0500000000002" y2="376" fill="rgb(0, 0, 0)" stroke="rgb(66, 66, 66)" stroke-width="1px" opacity="0.25"></line><line x1="1839.43125" y1="0" x2="1839.43125" y2="376" fill="rgb(0, 0, 0)" stroke="rgb(66, 66, 66)" stroke-width="1px" opacity="0.25"></line><line x1="2043.8125" y1="0" x2="2043.8125" y2="376" fill="rgb(0, 0, 0)" stroke="rgb(66, 66, 66)" stroke-width="1px" opacity="0.25"></line></g><g><line x1="0" y1="376" x2="2043.8125" y2="376" fill="rgb(0, 0, 0)" stroke="rgb(66, 66, 66)" stroke-width="1px" opacity="0.25"></line><line x1="0" y1="349.1428571428572" x2="2043.8125" y2="349.1428571428572" fill="rgb(0, 0, 0)" stroke="rgb(66, 66, 66)" stroke-width="1px" opacity="0.25"></line><line x1="0" y1="322.28571428571445" x2="2043.8125" y2="322.28571428571445" fill="rgb(0, 0, 0)" stroke="rgb(66, 66, 66)" stroke-width="1px" opacity="0.25"></line><line x1="0" y1="295.4285714285713" x2="2043.8125" y2="295.4285714285713" fill="rgb(0, 0, 0)" stroke="rgb(66, 66, 66)" stroke-width="1px" opacity="0.25"></line><line x1="0" y1="268.5714285714285" x2="2043.8125" y2="268.5714285714285" fill="rgb(0, 0, 0)" stroke="rgb(66, 66, 66)" stroke-width="1px" opacity="0.25"></line><line x1="0" y1="241.71428571428578" x2="2043.8125" y2="241.71428571428578" fill="rgb(0, 0, 0)" stroke="rgb(66, 66, 66)" stroke-width="1px" opacity="0.25"></line><line x1="0" y1="214.857142857143" x2="2043.8125" y2="214.857142857143" fill="rgb(0, 0, 0)" stroke="rgb(66, 66, 66)" stroke-width="1px" opacity="0.25"></line><line x1="0" y1="188.00000000000026" x2="2043.8125" y2="188.00000000000026" fill="rgb(0, 0, 0)" stroke="rgb(66, 66, 66)" stroke-width="1px" opacity="0.25"></line><line x1="0" y1="161.142857142857" x2="2043.8125" y2="161.142857142857" fill="rgb(0, 0, 0)" stroke="rgb(66, 66, 66)" stroke-width="1px" opacity="0.25"></line><line x1="0" y1="134.28571428571428" x2="2043.8125" y2="134.28571428571428" fill="rgb(0, 0, 0)" stroke="rgb(66, 66, 66)" stroke-width="1px" opacity="0.25"></line><line x1="0" y1="107.4285714285715" x2="2043.8125" y2="107.4285714285715" fill="rgb(0, 0, 0)" stroke="rgb(66, 66, 66)" stroke-width="1px" opacity="0.25"></line><line x1="0" y1="80.57142857142874" x2="2043.8125" y2="80.57142857142874" fill="rgb(0, 0, 0)" stroke="rgb(66, 66, 66)" stroke-width="1px" opacity="0.25"></line><line x1="0" y1="53.714285714285985" x2="2043.8125" y2="53.714285714285985" fill="rgb(0, 0, 0)" stroke="rgb(66, 66, 66)" stroke-width="1px" opacity="0.25"></line><line x1="0" y1="26.85714285714276" x2="2043.8125" y2="26.85714285714276" fill="rgb(0, 0, 0)" stroke="rgb(66, 66, 66)" stroke-width="1px" opacity="0.25"></line><line x1="0" y1="0" x2="2043.8125" y2="0" fill="rgb(0, 0, 0)" stroke="rgb(66, 66, 66)" stroke-width="1px" opacity="0.25"></line></g></g></g><g><g><line x1="0" y1="2927.4285714285706" x2="2043.8125" y2="2927.4285714285706" fill="rgb(0, 0, 0)" stroke="rgb(153, 153, 153)" stroke-width="1.5px"></line></g></g><g><g><line x1="204.38125000000002" y1="0" x2="204.38125000000002" y2="376" fill="rgb(0, 0, 0)" stroke="rgb(153, 153, 153)" stroke-width="1.5px"></line></g></g><g><g><g><g><g><path stroke="rgb(255, 112, 67)" stroke-width="2px" d="M241.169875,422.2935105458619L245.2575,362.925670955131L249.345125,350.7019434876575L253.43275,430.0815626052975L269.78325,439.3255096060766L273.870875,334.74375180962846L277.9585,371.26548235083936L282.046125,319.80077835675814L286.13375,334.40083812227L290.22137499999997,365.460187933659L294.30899999999997,355.6331932724968L298.396625,352.4860609762796L302.48425,330.86411877645145L306.571875,318.7182448990819L310.6595,310.7216372186201L314.747125,317.91500295486566L318.83475,215.63462788742487L322.922375,266.08035727184193L327.01,270.9596611881091L331.097625,238.18253008593004L335.18525,266.657586224951L339.272875,323.9614825449008L343.3605,375.7032933007065L347.448125,315.23496736522526L351.53574999999995,271.94561397012023L355.62337499999995,265.23085014214155L359.71099999999996,248.5036469367899L363.79862499999996,254.0995812420404L367.88624999999996,210.80962199077638L371.97387499999996,276.17532215977235L376.06149999999997,262.85674079887264L380.14912499999997,294.7140303884815L384.23675000000003,272.70220886753106L388.32437500000003,200.24692539992506L392.41200000000003,112.6967930427837L396.49962500000004,267.4670363994969L400.58725000000004,272.6189285791131L404.67487500000004,169.56687650733437L408.76250000000005,193.61291307613726L412.85012500000005,275.3506389064517L416.93775,237.57211430196185L421.025375,287.99427793085556L425.113,239.51357349497977L429.200625,161.02599132448992L433.28825,152.35764245224172L437.375875,188.2429252840636L441.4635,124.05119646747622L445.551125,221.8132084397198L449.63875,117.44353998957226L453.726375,166.532044791212L457.814,102.22293284684969L461.901625,190.29196224142302L465.98925,221.31184999106912L470.07687500000003,132.01067997106296L474.16450000000003,106.76834677812046L478.25212500000004,143.19959824654094L482.33975,100.78151513417531L486.427375,118.23388501947629L490.515,169.66847225806535L494.602625,180.59739647228912L498.69025,145.56645180707736L502.777875,166.94626270615333L506.8655,121.6767307294398L510.953125,3.5383193655260197L515.04075,-5.929020463459695L519.128375,16.60032398909056L523.216,64.84596589439008L527.303625,68.32600574685624L531.39125,45.803826577341376L535.478875,96.31721606424203L539.5665,28.00614049524654L543.654125,76.5357709275856L547.74175,2.934423712960773L551.829375,145.38249939494452L555.917,88.55273197064747L560.004625,48.34148737022485L564.09225,47.89829038634544L568.179875,126.05475865015904L572.2675,156.16537533792751L576.3551249999999,107.95278423622221L580.4427499999999,99.37719586780591L584.5303749999999,109.18954326216922L588.6179999999999,79.41220527546335L592.7056249999999,85.75102066243225L596.79325,68.8498693679644L600.880875,80.0557240119425L604.9685,93.94014882273676L609.056125,104.2965031209265L613.14375,88.34635053819557L617.231375,82.88498317128486L621.319,45.06397564331461L625.406625,140.30767214907775L629.49425,97.98579270453601L633.581875,125.6906110156929L637.6695,156.5953585288038L641.757125,119.46682262785696L645.84475,68.54052271326995L649.932375,138.96556418944544L654.02,84.99202778221746L658.107625,90.13039893148796L662.19525,45.532378126512114L666.282875,133.10632189385777L670.3705,32.26381074347046L674.458125,48.0640730218926L678.54575,75.03652935133398L682.633375,88.6375851987734L686.721,38.724950135085656L690.808625,69.23613553861837L694.89625,68.28291550757598L698.983875,106.51704535732662L703.0714999999999,94.86154753262554L707.1591249999999,141.53666448995062L711.2467499999999,148.39598495104008L715.3343749999999,60.17852256069133L719.4219999999999,55.210526046548374L723.5096249999999,64.11633780032432L727.5972499999999,72.023145366257L731.6848749999999,11.444734690196581L735.7724999999999,44.73503230941713L739.8601249999999,-4.545844761702323L743.9477499999999,42.66353231555687L748.0353749999999,92.8599794717849L752.1229999999999,109.56387182267977L756.2106249999999,120.98598485102737L760.2982499999999,99.19554466783616L764.3858749999999,74.49937112605404L768.4735000000001,92.40731911591851L772.5611250000001,48.095787633682036L776.6487500000001,23.40015065548105L780.7363750000001,-43.82647065450534L784.8240000000001,-29.50858380744457L788.9116250000001,15.065496126276013L792.9992500000001,46.671311128959196L797.0868750000001,98.34785890220924L801.1745000000001,-7.550358859326568L805.2621250000001,9.74415436233539L809.3497500000001,78.14608993130804L813.4373750000001,26.813127533411105L817.5250000000001,88.00362914488531L821.6126250000001,34.51221639510113L825.7002500000001,35.86005056058454L829.7878750000001,35.80190087843281L833.8755,88.56354911109658L837.963125,30.183455419324012L842.05075,14.926555400998499L846.138375,39.80801613763962L850.226,40.13206822476626L854.313625,44.79512994936215L858.40125,55.638748039926504L862.488875,65.98093939127736L866.5765,27.322742348988562L870.664125,43.35851281057188L874.75175,-14.714780887636753L878.839375,37.68457177920258L882.927,66.00503616188799L887.014625,0.08890865227833622L891.10225,33.06412367321563L895.189875,66.52871213932737L899.2775,88.25930733818441L903.365125,60.14938997602769L907.45275,93.79396095102993L911.540375,64.51185371584283L915.628,50.03774982603119L919.715625,86.56629361942034L923.80325,41.91494095704812L927.890875,94.84721729977134L931.9785,83.63941781704796L936.066125,123.10551766642863L940.1537500000001,77.29419651906137L944.2413750000001,96.30175878533886L948.3290000000001,56.946292222591524L952.4166250000001,66.47519109232448L956.5042500000001,67.80675019092385L960.591875,113.71530194884363L964.6795,58.98804150273442L968.767125,16.166077185156524L972.85475,50.49263881146942L976.942375,50.981630992638536L981.03,82.38251066473583L985.117625,85.17106242212189L989.20525,117.44133492668655L993.292875,77.99097180164587L997.3805,133.45685318618484L1001.468125,81.20700134552943L1005.55575,110.26708781066446L1009.643375,92.87359622507616L1013.731,4.569551639750281L1017.818625,87.54143553499702L1021.90625,80.3103606259161L1025.9938750000001,73.03644427462149L1030.0815,115.69212631248135L1034.1691250000001,81.87018166848112L1038.25675,87.8152384197444L1042.3443750000001,103.11654898200362L1046.432,102.08950966471633L1050.5196250000001,93.18793904081879L1054.60725,100.60685978110779L1058.6948750000001,135.76235512930396L1062.7825,84.9163174382354L1066.8701250000001,83.85863602100197L1070.95775,99.35058860111968L1075.0453750000001,125.63887286789736L1079.133,137.84620899489852L1083.2206250000002,155.51450184852993L1087.30825,100.32850697601826L1091.3958750000002,90.81954634703524L1095.4835,96.87377098465059L1099.5711250000002,85.54055779068335L1103.65875,47.7703572142455L1107.7463750000002,61.303953981714294L1111.834,16.474020418163384L1115.9216250000002,20.528103406681595L1120.00925,107.7627905812735L1124.0968750000002,132.79162425535347L1128.1845,172.90109232772429L1132.2721250000002,202.25165305011322L1136.35975,208.23812328346725L1140.4473750000002,129.33917594974844L1144.535,115.9747610101387L1148.6226250000002,96.73383037193268L1152.7102499999999,75.83920779636223L1156.797875,52.61675599101213L1160.8854999999999,121.02756325155838L1164.973125,124.75178852709593L1169.0607499999999,125.02444300049812L1173.148375,99.01950748353734L1177.2359999999999,135.16233596082228L1181.323625,81.85167383434226L1185.4112499999999,51.484160111114896L1189.498875,117.1939746540464L1193.5865,62.005554150099336L1197.674125,74.6307365013827L1201.76175,122.53791317465705L1205.849375,101.4850665642805L1209.937,187.74284342510953L1214.024625,132.9431462834592L1218.11225,149.12057410794395L1222.199875,112.66841507781417L1226.2875,130.67301127608812L1230.375125,141.4516876779935L1234.46275,155.74227010998885L1238.550375,145.81982579749868L1242.638,119.36645098172477L1246.725625,154.2048260359637L1250.81325,84.50916504708395L1254.900875,166.00166817982523L1258.9885,170.6978354560945L1263.076125,146.93245946266447L1267.16375,99.92233131236745L1271.251375,95.77405366588444L1275.339,49.936044290273216L1279.426625,97.87919435973045L1283.51425,122.81248048314971L1287.601875,158.3452615457088L1291.6895,111.0471458969231L1295.777125,138.0062089162835L1299.86475,164.0884908934335L1303.952375,143.8666555339315L1308.04,130.54712905162634L1312.127625,143.10683787460223L1316.21525,108.12485810745154L1320.302875,169.2527274402305L1324.3905,200.87257112264084L1328.478125,122.0144271972945L1332.56575,134.20580385725148L1336.653375,171.1652875430822L1340.741,133.4876055572168L1344.828625,122.08327812476642L1348.91625,135.36693218858736L1353.003875,183.52317048185813L1357.0915,181.29390236522096L1361.179125,141.28916099894352L1365.26675,152.2753676703972L1369.3543750000001,91.72586717547247L1373.442,88.70285118318026L1377.5296250000001,171.55982057822712L1381.61725,167.12314434627712L1385.7048750000001,171.68922513106028L1389.7925,125.73977588755696L1393.8801250000001,154.3437374888657L1397.96775,142.45334410850734L1402.0553750000001,148.7424898468542L1406.1429999999998,188.57913127668283L1410.230625,193.42129829773953L1414.3182499999998,171.98131556934192L1418.405875,98.03945348786549L1422.4934999999998,108.6838766425517L1426.581125,118.95077230814056L1430.6687499999998,129.07480327019343L1434.756375,152.19891048459166L1438.8439999999998,133.1292497389288L1442.931625,168.48814472485364L1447.0192499999998,218.7455203735624L1451.106875,129.33787369818972L1455.1944999999998,105.75802600697394L1459.282125,192.1958584526542L1463.3697499999998,182.86944474072615L1467.457375,120.8849181413436L1471.5449999999998,151.94097026409298L1475.632625,108.05885210842486L1479.7202499999999,114.17394299857833L1483.807875,123.29622275222081L1487.8954999999999,122.77150546014013L1491.983125,111.78944788761106L1496.0707499999999,166.66500333817277L1500.158375,150.51624995445638L1504.2459999999999,167.68218372511143L1508.333625,189.49503184954656L1512.4212499999999,205.11869483445167L1516.508875,183.21386617004083L1520.5964999999999,176.06894361564454L1524.684125,222.74616503503256L1528.7717499999999,151.85007456842288L1532.859375,172.72678015219617L1536.9470000000001,168.6993577459883L1541.034625,179.66344019001977L1545.1222500000001,145.78104732908326L1549.209875,119.91958303002473L1553.2975000000001,94.81966505319605L1557.385125,134.70989820290478L1561.4727500000001,203.70713782676324L1565.560375,163.95054579443968L1569.6480000000001,193.7603047408227L1573.735625,215.81210805867806L1577.8232500000001,196.3369571274651L1581.910875,164.57008484501517L1585.9985000000001,172.426902317039L1590.086125,180.5048210411728L1594.1737500000002,121.12619306366398L1598.261375,111.16751980174286L1602.3490000000002,184.02440435500128L1606.436625,198.51022760585158L1610.5242500000002,173.33745916376122L1614.611875,149.63297090161814L1618.6995000000002,175.29418232105454L1622.787125,223.58856725908586L1626.8747500000002,177.70902983297498L1630.962375,227.33921597679839L1635.0500000000002,213.74812371813962L1639.137625,156.96232402525757L1643.2252500000002,172.38900508537714L1647.312875,157.2203333379043L1651.4005000000002,179.864779686769L1655.488125,211.6947022689971L1659.5757500000002,168.10494783435527L1663.6633749999999,163.54683777493435L1667.751,193.60770310945L1671.8386249999999,131.75475520188598L1675.92625,156.04976867297773L1680.0138749999999,216.88180989681697L1684.1015,233.63301776631062L1688.1891249999999,194.55975192233012L1692.27675,158.2224692484038L1696.3643749999999,154.70321914973496L1700.452,187.4268195982609L1704.539625,229.87743782732517L1708.62725,225.491445326418L1712.714875,171.6175423452616L1716.8025,178.49630860704218L1720.890125,216.85309291727341L1724.97775,146.21702595299942L1729.065375,186.48924393139754L1733.153,192.6313208812215L1737.240625,150.68290623035764L1741.32825,157.52909635798392L1745.415875,204.3869166514675L1749.5035,115.9644434133223L1753.591125,143.8377271037834L1757.67875,226.45468066203753L1761.766375,217.38686772077472L1765.854,290.01286647853794L1769.941625,164.7905989131474L1774.02925,190.6723774647837L1778.116875,184.56393360147086L1782.2045,233.33567764354373L1786.292125,200.12303007233803L1790.37975,207.43350379786838L1794.467375,260.70996769181994L1798.555,273.4702239625217L1802.642625,189.18588967300497L1806.73025,222.59632892500568L1810.817875,214.22551777406454L1814.9055,219.0073885495815L1818.993125,167.46367589350496L1823.08075,169.54774069440992L1827.168375,131.17359848362054L1831.256,216.55943901125L1835.343625,252.80838508230835" style="fill: none;" fill="none"></path></g></g></g></g><g opacity="0.2"><g><g><g><path stroke="rgb(255, 112, 67)" stroke-width="2px" d="M237.08225000000002,584.1696483067103L241.169875,356.9611129760742L245.2575,326.84897177559986L249.345125,343.27354322160994L253.43275,478.3214994158063L269.78325,435.43463461739674L273.870875,271.1876395089286L277.9585,393.4603598458426L282.046125,288.5248009817941L286.13375,343.27354322160994L290.22137499999997,384.33548409598217L294.30899999999997,349.66116115025113L298.396625,350.5734950474331L302.48425,317.7240960257394L306.571875,311.3369903564453L310.6595,305.86196245465965L314.747125,322.28653390066967L318.83475,153.47710091727126L322.922375,296.73708670479914L327.01,273.9248973301479L331.097625,218.26330893380305L335.18525,283.96236310686385L339.272875,358.7860369001116L343.3605,407.1476734706333L347.448125,278.4873352050781L351.53574999999995,245.6379361833845L355.62337499999995,261.15017373221264L359.71099999999996,238.338240487235L363.79862499999996,257.50032588413785L367.88624999999996,184.5015760149275L371.97387499999996,315.899172101702L376.06149999999997,254.76281193324502L380.14912499999997,314.07424817766463L384.23675000000003,259.3252498081753L388.32437500000003,156.2146148681641L392.41200000000003,59.49108559744708L396.49962500000004,361.5235508510045L400.58725000000004,275.7498212541853L404.67487500000004,106.94038827078688L408.76250000000005,208.22609928676064L412.85012500000005,325.0240478515625L416.93775,214.61346108572826L421.025375,318.6366860525949L425.113,210.05102321079804L429.200625,113.32775006975453L433.28825,147.0897391183036L437.375875,210.05102321079804L441.4635,85.04078892299115L445.551125,281.224849155971L449.63875,54.01631382533491L453.726375,196.36396571568085L457.814,63.1411895751954L461.901625,243.81301225934712L465.98925,240.16316441127236L470.07687500000003,77.74083709716805L474.16450000000003,91.42815072195876L478.25212500000004,165.3394906180246L482.33975,75.0033231462752L486.427375,128.83998761858265L490.515,200.92614746093753L494.602625,187.23908996582034L498.69025,124.27754974365243L502.777875,179.93913813999725L506.8655,94.16566467285165L510.953125,-68.25640651157912L515.04075,-11.682484218052384L519.128375,30.29179055350177L523.216,94.16566467285165L527.303625,70.44088527134494L531.39125,32.11671447753915L535.478875,127.01506369454528L539.5665,-13.507664271763321L543.654125,106.02805437360497L547.74175,-41.79436928885316L551.829375,231.95062255859378L555.917,54.01631382533491L560.004625,23.90442875453413L564.09225,47.62895202636727L568.179875,173.55177634102964L572.2675,174.46411023821156L576.3551249999999,78.65317099434996L580.4427499999999,94.16566467285165L584.5303749999999,115.1526739937919L588.6179999999999,61.31600952148446L592.7056249999999,89.60322679792138L596.79325,58.57875170026513L600.880875,86.86571284702853L604.9685,102.37795039585666L609.056125,110.59023611886168L613.14375,78.65317099434996L617.231375,79.56601715087899L621.319,22.079504830496752L625.406625,198.1888896397182L629.49425,72.26606532505588L633.581875,142.5273012433734L637.6695,175.37670026506703L641.757125,96.9031786237445L645.84475,37.59174237932488L649.932375,181.76406206403468L654.02,52.19138990129753L658.107625,93.25307464599618L662.19525,18.429400852748397L666.282875,186.32649993896487L670.3705,-29.019901820591446L674.458125,57.66616167340966L678.54575,91.42815072195876L682.633375,96.9031786237445L686.721,8.392191205706006L690.808625,87.778302873884L694.89625,67.70362745012562L698.983875,129.75257764543812L703.0714999999999,87.778302873884L707.1591249999999,169.90192849295485L711.2467499999999,152.5645108904158L715.3343749999999,6.567267281668628L719.4219999999999,52.19138990129753L723.5096249999999,69.52855137416303L727.5972499999999,76.82824707031259L731.6848749999999,-25.36979784284305L735.7724999999999,64.96611349923278L739.8601249999999,-34.49467359270358L743.9477499999999,71.35347529820041L748.0353749999999,123.36521584647048L752.1229999999999,119.71511186872216L756.2106249999999,127.92739759172719L760.2982499999999,85.95312282017306L764.3858749999999,59.49108559744708L768.4735000000001,103.29028429303857L772.5611250000001,21.166914803641284L776.6487500000001,8.392191205706006L780.7363750000001,-84.68123408726271L784.8240000000001,-20.807359967912827L788.9116250000001,42.153924124581536L792.9992500000001,65.87870352608824L797.0868750000001,129.75257764543812L801.1745000000001,-71.90651048932742L805.2621250000001,20.254324776785815L809.3497500000001,119.71511186872216L813.4373750000001,-4.382788521902794L817.5250000000001,125.1901397705079L821.6126250000001,2.0045732770648454L825.7002500000001,36.67915235246941L829.7878750000001,35.76656232561394L833.8755,120.62770189557763L837.963125,-5.295122419084702L842.05075,5.654677254813159L846.138375,54.92890385219038L850.226,40.329000200544165L854.313625,47.62895202636727L858.40125,62.22859954833993L862.488875,72.26606532505588L866.5765,3.829497201102222L870.664125,53.10372379847944L874.75175,-50.0069111415317L878.839375,69.52855137416303L882.927,83.21586499895375L887.014625,-39.969445364815705L891.10225,53.10372379847944L895.189875,86.86571284702853L899.2775,101.46536036900119L903.365125,43.066514151437005L907.45275,114.24034009661L911.540375,46.71661812918536L915.628,41.241590227399634L919.715625,108.7653121948243L923.80325,14.779553004673645L927.890875,127.01506369454528L931.9785,76.82824707031259L936.066125,147.0897391183036L940.1537500000001,49.45387595040465L944.2413750000001,107.85297829764235L948.3290000000001,33.02930450439462L952.4166250000001,72.26606532505588L956.5042500000001,68.61596134730756L960.591875,141.61471121651792L964.6795,25.729352678571505L968.767125,-9.857560294015007L972.85475,71.35347529820041L976.942375,51.278799874442065L981.03,101.46536036900119L985.117625,86.86571284702853L989.20525,137.05252947126124L993.292875,54.01631382533491L997.3805,167.16441454206202L1001.468125,49.45387595040465L1005.55575,127.92739759172719L1009.643375,82.30327497209828L1013.731,-49.094321114676234L1017.818625,137.96486336844313L1021.90625,75.91591317313068L1025.9938750000001,68.61596134730756L1030.0815,141.61471121651792L1034.1691250000001,61.31600952148446L1038.25675,91.42815072195876L1042.3443750000001,112.41541617257262L1046.432,101.46536036900119L1050.5196250000001,87.778302873884L1054.60725,105.1154643467495L1058.6948750000001,157.12694876534604L1062.7825,54.01631382533491L1066.8701250000001,83.21586499895375L1070.95775,108.7653121948243L1075.0453750000001,141.61471121651792L1079.133,145.26481519426625L1083.2206250000002,166.25182451520655L1087.30825,66.79103742327015L1091.3958750000002,85.04078892299115L1095.4835,100.55302647181928L1099.5711250000002,78.65317099434996L1103.65875,24.816762651716036L1107.7463750000002,69.52855137416303L1111.834,-10.769894191196915L1115.9216250000002,22.99183872767866L1120.00925,160.7767966134208L1124.0968750000002,148.00207301548556L1128.1845,197.27629961286274L1132.2721250000002,220.08848898751398L1136.35975,211.87620326450897L1140.4473750000002,81.39094107491637L1144.535,107.85297829764235L1148.6226250000002,85.04078892299115L1152.7102499999999,63.1411895751954L1156.797875,38.50407627650679L1160.8854999999999,162.60197666713174L1164.973125,127.01506369454528L1169.0607499999999,125.1901397705079L1173.148375,83.21586499895375L1177.2359999999999,157.12694876534604L1181.323625,49.45387595040465L1185.4112499999999,33.02930450439462L1189.498875,157.12694876534604L1193.5865,28.466610499790832L1197.674125,82.30327497209828L1201.76175,151.65192086356032L1205.849375,88.69089290073947L1209.937,240.16316441127236L1214.024625,99.64043644496381L1218.11225,158.95187268938344L1222.199875,90.51581682477685L1226.2875,141.61471121651792L1230.375125,148.00207301548556L1234.46275,164.42690059116913L1238.550375,139.7897872924805L1242.638,103.29028429303857L1246.725625,175.37670026506703L1250.81325,42.153924124581536L1254.900875,215.52605111258373L1258.9885,173.55177634102964L1263.076125,132.48983546665744L1267.16375,71.35347529820041L1271.251375,93.25307464599618L1275.339,22.079504830496752L1279.426625,127.01506369454528L1283.51425,137.96486336844313L1287.601875,179.93913813999725L1291.6895,82.30327497209828L1295.777125,154.38969094412673L1299.86475,179.93913813999725L1303.952375,131.5775015694755L1308.04,122.45262581961501L1312.127625,150.73958696637843L1316.21525,86.86571284702853L1320.302875,206.40117536272328L1324.3905,220.08848898751398L1328.478125,74.09098924909325L1332.56575,141.61471121651792L1336.653375,193.62619563511444L1340.741,110.59023611886168L1344.828625,115.1526739937919L1348.91625,143.4396351405553L1353.003875,212.78853716169087L1357.0915,179.93913813999725L1361.179125,116.97759791782931L1365.26675,158.95187268938344L1369.3543750000001,54.92890385219038L1373.442,86.86571284702853L1377.5296250000001,221.9134129115514L1381.61725,164.42690059116913L1385.7048750000001,174.46411023821156L1389.7925,97.8155125209264L1393.8801250000001,171.72685241699222L1397.96775,135.2273494175503L1402.0553750000001,152.5645108904158L1406.1429999999998,212.78853716169087L1410.230625,196.36396571568085L1414.3182499999998,158.95187268938344L1418.405875,53.10372379847944L1422.4934999999998,115.1526739937919L1426.581125,125.1901397705079L1430.6687499999998,135.2273494175503L1434.756375,166.25182451520655L1438.8439999999998,121.5402919224331L1442.931625,189.97634778703969L1447.0192499999998,249.2877840314593L1451.106875,75.0033231462752L1455.1944999999998,91.42815072195876L1459.282125,244.7256022862026L1463.3697499999998,177.2016241891044L1467.457375,83.21586499895375L1471.5449999999998,170.81426239013675L1475.632625,81.39094107491637L1479.7202499999999,117.89018794468478L1483.807875,128.83998761858265L1487.8954999999999,122.45262581961501L1491.983125,105.1154643467495L1496.0707499999999,200.01381356375563L1500.158375,140.70237731933597L1504.2459999999999,178.11421421595986L1508.333625,202.75107138497495L1512.4212499999999,214.61346108572826L1516.508875,169.90192849295485L1520.5964999999999,171.72685241699222L1524.684125,251.11270795549672L1528.7717499999999,108.7653121948243L1532.859375,185.4139099121094L1536.9470000000001,166.25182451520655L1541.034625,186.32649993896487L1545.1222500000001,125.1901397705079L1549.209875,104.2031304495676L1553.2975000000001,79.56601715087899L1557.385125,158.95187268938344L1561.4727500000001,245.6379361833845L1565.560375,139.7897872924805L1569.6480000000001,211.87620326450897L1573.735625,229.21336473737446L1577.8232500000001,184.5015760149275L1581.910875,145.26481519426625L1585.9985000000001,177.2016241891044L1590.086125,185.4139099121094L1594.1737500000002,85.04078892299115L1598.261375,105.1154643467495L1602.3490000000002,228.300774710519L1606.436625,207.31350925990517L1610.5242500000002,158.0395387922015L1614.611875,135.2273494175503L1618.6995000000002,190.88893781389515L1622.787125,252.93788800920765L1626.8747500000002,149.8272530691965L1630.962375,257.50032588413785L1635.0500000000002,205.4885853358678L1639.137625,122.45262581961501L1643.2252500000002,181.76406206403468L1647.312875,148.00207301548556L1651.4005000000002,193.62619563511444L1655.488125,231.03828866141185L1659.5757500000002,141.61471121651792L1663.6633749999999,160.7767966134208L1667.751,211.87620326450897L1671.8386249999999,94.16566467285165L1675.92625,170.81426239013675L1680.0138749999999,253.85047803606312L1684.1015,243.81301225934712L1688.1891249999999,170.81426239013675L1692.27675,136.1396833147322L1696.3643749999999,152.5645108904158L1700.452,207.31350925990517L1704.539625,255.6754019601005L1708.62725,222.82600293840687L1712.714875,138.8774533952986L1716.8025,182.67665209089014L1720.890125,240.16316441127236L1724.97775,103.29028429303857L1729.065375,210.96335710797993L1733.153,196.36396571568085L1737.240625,125.1901397705079L1741.32825,161.68964276994984L1745.415875,232.86321258544925L1749.5035,62.22859954833993L1753.591125,160.7767966134208L1757.67875,276.66241128104076L1761.766375,211.87620326450897L1765.854,334.148923601423L1769.941625,88.69089290073947L1774.02925,206.40117536272328L1778.116875,180.85172816685272L1782.2045,262.97509765625L1786.292125,179.93913813999725L1790.37975,211.87620326450897L1794.467375,293.0869827270508L1798.555,281.224849155971L1802.642625,137.96486336844313L1806.73025,242.90042223249165L1810.817875,209.13843318394257L1814.9055,221.9134129115514L1818.993125,136.1396833147322L1823.08075,170.81426239013675L1827.168375,107.85297829764235L1831.256,268.4498694283622L1835.343625,274.8374873570034" style="fill: none;" fill="none"></path></g></g></g></g></g></g><g transform="translate(53, 376)" clip-path="url(#clip_1)"><clipPath id="clip_1"><rect width="2043" height="24"></rect></clipPath><g><g><line x1="0" y1="0" x2="0" y2="5" style="visibility: inherit;" fill="rgb(0, 0, 0)" stroke="rgb(204, 204, 204)" stroke-width="1px"></line><line x1="204.38125000000002" y1="0" x2="204.38125000000002" y2="5" style="visibility: inherit;" fill="rgb(0, 0, 0)" stroke="rgb(204, 204, 204)" stroke-width="1px"></line><line x1="408.76250000000005" y1="0" x2="408.76250000000005" y2="5" style="visibility: inherit;" fill="rgb(0, 0, 0)" stroke="rgb(204, 204, 204)" stroke-width="1px"></line><line x1="613.14375" y1="0" x2="613.14375" y2="5" style="visibility: inherit;" fill="rgb(0, 0, 0)" stroke="rgb(204, 204, 204)" stroke-width="1px"></line><line x1="817.5250000000001" y1="0" x2="817.5250000000001" y2="5" style="visibility: inherit;" fill="rgb(0, 0, 0)" stroke="rgb(204, 204, 204)" stroke-width="1px"></line><line x1="1021.90625" y1="0" x2="1021.90625" y2="5" style="visibility: inherit;" fill="rgb(0, 0, 0)" stroke="rgb(204, 204, 204)" stroke-width="1px"></line><line x1="1226.2875" y1="0" x2="1226.2875" y2="5" style="visibility: inherit;" fill="rgb(0, 0, 0)" stroke="rgb(204, 204, 204)" stroke-width="1px"></line><line x1="1430.6687499999998" y1="0" x2="1430.6687499999998" y2="5" style="visibility: inherit;" fill="rgb(0, 0, 0)" stroke="rgb(204, 204, 204)" stroke-width="1px"></line><line x1="1635.0500000000002" y1="0" x2="1635.0500000000002" y2="5" style="visibility: inherit;" fill="rgb(0, 0, 0)" stroke="rgb(204, 204, 204)" stroke-width="1px"></line><line x1="1839.43125" y1="0" x2="1839.43125" y2="5" style="visibility: inherit;" fill="rgb(0, 0, 0)" stroke="rgb(204, 204, 204)" stroke-width="1px"></line><line x1="2043.8125" y1="0" x2="2043.8125" y2="5" style="visibility: inherit;" fill="rgb(0, 0, 0)" stroke="rgb(204, 204, 204)" stroke-width="1px"></line></g><g transform="translate(0, 8)"><text x="0" y="0" dx="0em" dy="0.95em" style="text-anchor: middle; visibility: hidden; font-family: Roboto, sans-serif; font-size: 12px; font-weight: 200;" fill="rgb(33, 33, 33)" stroke="none" stroke-width="1px">-50</text><text x="204.38125000000002" y="0" dx="0em" dy="0.95em" style="text-anchor: middle; visibility: inherit; font-family: Roboto, sans-serif; font-size: 12px; font-weight: 200;" fill="rgb(33, 33, 33)" stroke="none" stroke-width="1px">0</text><text x="408.76250000000005" y="0" dx="0em" dy="0.95em" style="text-anchor: middle; visibility: inherit; font-family: Roboto, sans-serif; font-size: 12px; font-weight: 200;" fill="rgb(33, 33, 33)" stroke="none" stroke-width="1px">50</text><text x="613.14375" y="0" dx="0em" dy="0.95em" style="text-anchor: middle; visibility: inherit; font-family: Roboto, sans-serif; font-size: 12px; font-weight: 200;" fill="rgb(33, 33, 33)" stroke="none" stroke-width="1px">100</text><text x="817.5250000000001" y="0" dx="0em" dy="0.95em" style="text-anchor: middle; visibility: inherit; font-family: Roboto, sans-serif; font-size: 12px; font-weight: 200;" fill="rgb(33, 33, 33)" stroke="none" stroke-width="1px">150</text><text x="1021.90625" y="0" dx="0em" dy="0.95em" style="text-anchor: middle; visibility: inherit; font-family: Roboto, sans-serif; font-size: 12px; font-weight: 200;" fill="rgb(33, 33, 33)" stroke="none" stroke-width="1px">200</text><text x="1226.2875" y="0" dx="0em" dy="0.95em" style="text-anchor: middle; visibility: inherit; font-family: Roboto, sans-serif; font-size: 12px; font-weight: 200;" fill="rgb(33, 33, 33)" stroke="none" stroke-width="1px">250</text><text x="1430.6687499999998" y="0" dx="0em" dy="0.95em" style="text-anchor: middle; visibility: inherit; font-family: Roboto, sans-serif; font-size: 12px; font-weight: 200;" fill="rgb(33, 33, 33)" stroke="none" stroke-width="1px">300</text><text x="1635.0500000000002" y="0" dx="0em" dy="0.95em" style="text-anchor: middle; visibility: inherit; font-family: Roboto, sans-serif; font-size: 12px; font-weight: 200;" fill="rgb(33, 33, 33)" stroke="none" stroke-width="1px">350</text><text x="1839.43125" y="0" dx="0em" dy="0.95em" style="text-anchor: middle; visibility: inherit; font-family: Roboto, sans-serif; font-size: 12px; font-weight: 200;" fill="rgb(33, 33, 33)" stroke="none" stroke-width="1px">400</text><text x="2043.8125" y="0" dx="0em" dy="0.95em" style="text-anchor: middle; visibility: hidden; font-family: Roboto, sans-serif; font-size: 12px; font-weight: 200;" fill="rgb(33, 33, 33)" stroke="none" stroke-width="1px">450</text></g><line x1="0" y1="0" x2="2043.8125" y2="0" fill="rgb(0, 0, 0)" stroke="rgb(204, 204, 204)" stroke-width="1px"></line></g></g></g></g></svg>