<svg viewBox="0 0 2097 400" xmlns="http://www.w3.org/2000/svg"><g><g><g><g><g><line x1="74.78125" y1="376" x2="69.78125" y2="376" style="visibility: inherit;" fill="rgb(0, 0, 0)" stroke="rgb(204, 204, 204)" stroke-width="1px"></line><line x1="74.78125" y1="349.14285714285717" x2="69.78125" y2="349.14285714285717" style="visibility: inherit;" fill="rgb(0, 0, 0)" stroke="rgb(204, 204, 204)" stroke-width="1px"></line><line x1="74.78125" y1="322.28571428571433" x2="69.78125" y2="322.28571428571433" style="visibility: inherit;" fill="rgb(0, 0, 0)" stroke="rgb(204, 204, 204)" stroke-width="1px"></line><line x1="74.78125" y1="295.42857142857144" x2="69.78125" y2="295.42857142857144" style="visibility: inherit;" fill="rgb(0, 0, 0)" stroke="rgb(204, 204, 204)" stroke-width="1px"></line><line x1="74.78125" y1="268.57142857142856" x2="69.78125" y2="268.57142857142856" style="visibility: inherit;" fill="rgb(0, 0, 0)" stroke="rgb(204, 204, 204)" stroke-width="1px"></line><line x1="74.78125" y1="241.7142857142857" x2="69.78125" y2="241.7142857142857" style="visibility: inherit;" fill="rgb(0, 0, 0)" stroke="rgb(204, 204, 204)" stroke-width="1px"></line><line x1="74.78125" y1="214.85714285714283" x2="69.78125" y2="214.85714285714283" style="visibility: inherit;" fill="rgb(0, 0, 0)" stroke="rgb(204, 204, 204)" stroke-width="1px"></line><line x1="74.78125" y1="188" x2="69.78125" y2="188" style="visibility: inherit;" fill="rgb(0, 0, 0)" stroke="rgb(204, 204, 204)" stroke-width="1px"></line><line x1="74.78125" y1="161.14285714285717" x2="69.78125" y2="161.14285714285717" style="visibility: inherit;" fill="rgb(0, 0, 0)" stroke="rgb(204, 204, 204)" stroke-width="1px"></line><line x1="74.78125" y1="134.28571428571428" x2="69.78125" y2="134.28571428571428" style="visibility: inherit;" fill="rgb(0, 0, 0)" stroke="rgb(204, 204, 204)" stroke-width="1px"></line><line x1="74.78125" y1="107.42857142857142" x2="69.78125" y2="107.42857142857142" style="visibility: inherit;" fill="rgb(0, 0, 0)" stroke="rgb(204, 204, 204)" stroke-width="1px"></line><line x1="74.78125" y1="80.57142857142858" x2="69.78125" y2="80.57142857142858" style="visibility: inherit;" fill="rgb(0, 0, 0)" stroke="rgb(204, 204, 204)" stroke-width="1px"></line><line x1="74.78125" y1="53.71428571428573" x2="69.78125" y2="53.71428571428573" style="visibility: inherit;" fill="rgb(0, 0, 0)" stroke="rgb(204, 204, 204)" stroke-width="1px"></line><line x1="74.78125" y1="26.857142857142847" x2="69.78125" y2="26.857142857142847" style="visibility: inherit;" fill="rgb(0, 0, 0)" stroke="rgb(204, 204, 204)" stroke-width="1px"></line><line x1="74.78125" y1="0" x2="69.78125" y2="0" style="visibility: inherit;" fill="rgb(0, 0, 0)" stroke="rgb(204, 204, 204)" stroke-width="1px"></line></g><g transform="translate(64.78125, 0)"><text x="0" y="376" dx="0em" dy="0.3em" style="text-anchor: end; visibility: hidden; font-family: Roboto, sans-serif; font-size: 12px; font-weight: 200;" fill="rgb(33, 33, 33)" stroke="none" stroke-width="1px">0</text><text x="0" y="349.14285714285717" dx="0em" dy="0.3em" style="text-anchor: end; visibility: inherit; font-family: Roboto, sans-serif; font-size: 12px; font-weight: 200;" fill="rgb(33, 33, 33)" stroke="none" stroke-width="1px">500</text><text x="0" y="322.28571428571433" dx="0em" dy="0.3em" style="text-anchor: end; visibility: inherit; font-family: Roboto, sans-serif; font-size: 12px; font-weight: 200;" fill="rgb(33, 33, 33)" stroke="none" stroke-width="1px">1e+3</text><text x="0" y="295.42857142857144" dx="0em" dy="0.3em" style="text-anchor: end; visibility: inherit; font-family: Roboto, sans-serif; font-size: 12px; font-weight: 200;" fill="rgb(33, 33, 33)" stroke="none" stroke-width="1px">1.5e+3</text><text x="0" y="268.57142857142856" dx="0em" dy="0.3em" style="text-anchor: end; visibility: inherit; font-family: Roboto, sans-serif; font-size: 12px; font-weight: 200;" fill="rgb(33, 33, 33)" stroke="none" stroke-width="1px">2e+3</text><text x="0" y="241.7142857142857" dx="0em" dy="0.3em" style="text-anchor: end; visibility: inherit; font-family: Roboto, sans-serif; font-size: 12px; font-weight: 200;" fill="rgb(33, 33, 33)" stroke="none" stroke-width="1px">2.5e+3</text><text x="0" y="214.85714285714283" dx="0em" dy="0.3em" style="text-anchor: end; visibility: inherit; font-family: Roboto, sans-serif; font-size: 12px; font-weight: 200;" fill="rgb(33, 33, 33)" stroke="none" stroke-width="1px">3e+3</text><text x="0" y="188" dx="0em" dy="0.3em" style="text-anchor: end; visibility: inherit; font-family: Roboto, sans-serif; font-size: 12px; font-weight: 200;" fill="rgb(33, 33, 33)" stroke="none" stroke-width="1px">3.5e+3</text><text x="0" y="161.14285714285717" dx="0em" dy="0.3em" style="text-anchor: end; visibility: inherit; font-family: Roboto, sans-serif; font-size: 12px; font-weight: 200;" fill="rgb(33, 33, 33)" stroke="none" stroke-width="1px">4e+3</text><text x="0" y="134.28571428571428" dx="0em" dy="0.3em" style="text-anchor: end; visibility: inherit; font-family: Roboto, sans-serif; font-size: 12px; font-weight: 200;" fill="rgb(33, 33, 33)" stroke="none" stroke-width="1px">4.5e+3</text><text x="0" y="107.42857142857142" dx="0em" dy="0.3em" style="text-anchor: end; visibility: inherit; font-family: Roboto, sans-serif; font-size: 12px; font-weight: 200;" fill="rgb(33, 33, 33)" stroke="none" stroke-width="1px">5e+3</text><text x="0" y="80.57142857142858" dx="0em" dy="0.3em" style="text-anchor: end; visibility: inherit; font-family: Roboto, sans-serif; font-size: 12px; font-weight: 200;" fill="rgb(33, 33, 33)" stroke="none" stroke-width="1px">5.5e+3</text><text x="0" y="53.71428571428573" dx="0em" dy="0.3em" style="text-anchor: end; visibility: inherit; font-family: Roboto, sans-serif; font-size: 12px; font-weight: 200;" fill="rgb(33, 33, 33)" stroke="none" stroke-width="1px">6e+3</text><text x="0" y="26.857142857142847" dx="0em" dy="0.3em" style="text-anchor: end; visibility: inherit; font-family: Roboto, sans-serif; font-size: 12px; font-weight: 200;" fill="rgb(33, 33, 33)" stroke="none" stroke-width="1px">6.5e+3</text><text x="0" y="0" dx="0em" dy="0.3em" style="text-anchor: end; visibility: hidden; font-family: Roboto, sans-serif; font-size: 12px; font-weight: 200;" fill="rgb(33, 33, 33)" stroke="none" stroke-width="1px">7e+3</text></g><line x1="74.78125" y1="0" x2="74.78125" y2="376" fill="rgb(0, 0, 0)" stroke="rgb(204, 204, 204)" stroke-width="1px"></line></g></g><g transform="translate(74, 0)" clip-path="url(#clip_0)"><clipPath id="clip_0"><rect width="2022" height="376"></rect></clipPath><g><g><g><line x1="0" y1="0" x2="0" y2="376" fill="rgb(0, 0, 0)" stroke="rgb(66, 66, 66)" stroke-width="1px" opacity="0.25"></line><line x1="202.221875" y1="0" x2="202.221875" y2="376" fill="rgb(0, 0, 0)" stroke="rgb(66, 66, 66)" stroke-width="1px" opacity="0.25"></line><line x1="404.44375" y1="0" x2="404.44375" y2="376" fill="rgb(0, 0, 0)" stroke="rgb(66, 66, 66)" stroke-width="1px" opacity="0.25"></line><line x1="606.665625" y1="0" x2="606.665625" y2="376" fill="rgb(0, 0, 0)" stroke="rgb(66, 66, 66)" stroke-width="1px" opacity="0.25"></line><line x1="808.8875" y1="0" x2="808.8875" y2="376" fill="rgb(0, 0, 0)" stroke="rgb(66, 66, 66)" stroke-width="1px" opacity="0.25"></line><line x1="1011.109375" y1="0" x2="1011.109375" y2="376" fill="rgb(0, 0, 0)" stroke="rgb(66, 66, 66)" stroke-width="1px" opacity="0.25"></line><line x1="1213.33125" y1="0" x2="1213.33125" y2="376" fill="rgb(0, 0, 0)" stroke="rgb(66, 66, 66)" stroke-width="1px" opacity="0.25"></line><line x1="1415.553125" y1="0" x2="1415.553125" y2="376" fill="rgb(0, 0, 0)" stroke="rgb(66, 66, 66)" stroke-width="1px" opacity="0.25"></line><line x1="1617.775" y1="0" x2="1617.775" y2="376" fill="rgb(0, 0, 0)" stroke="rgb(66, 66, 66)" stroke-width="1px" opacity="0.25"></line><line x1="1819.996875" y1="0" x2="1819.996875" y2="376" fill="rgb(0, 0, 0)" stroke="rgb(66, 66, 66)" stroke-width="1px" opacity="0.25"></line><line x1="2022.21875" y1="0" x2="2022.21875" y2="376" fill="rgb(0, 0, 0)" stroke="rgb(66, 66, 66)" stroke-width="1px" opacity="0.25"></line></g><g><line x1="0" y1="376" x2="2022.21875" y2="376" fill="rgb(0, 0, 0)" stroke="rgb(66, 66, 66)" stroke-width="1px" opacity="0.25"></line><line x1="0" y1="349.14285714285717" x2="2022.21875" y2="349.14285714285717" fill="rgb(0, 0, 0)" stroke="rgb(66, 66, 66)" stroke-width="1px" opacity="0.25"></line><line x1="0" y1="322.28571428571433" x2="2022.21875" y2="322.28571428571433" fill="rgb(0, 0, 0)" stroke="rgb(66, 66, 66)" stroke-width="1px" opacity="0.25"></line><line x1="0" y1="295.42857142857144" x2="2022.21875" y2="295.42857142857144" fill="rgb(0, 0, 0)" stroke="rgb(66, 66, 66)" stroke-width="1px" opacity="0.25"></line><line x1="0" y1="268.57142857142856" x2="2022.21875" y2="268.57142857142856" fill="rgb(0, 0, 0)" stroke="rgb(66, 66, 66)" stroke-width="1px" opacity="0.25"></line><line x1="0" y1="241.7142857142857" x2="2022.21875" y2="241.7142857142857" fill="rgb(0, 0, 0)" stroke="rgb(66, 66, 66)" stroke-width="1px" opacity="0.25"></line><line x1="0" y1="214.85714285714283" x2="2022.21875" y2="214.85714285714283" fill="rgb(0, 0, 0)" stroke="rgb(66, 66, 66)" stroke-width="1px" opacity="0.25"></line><line x1="0" y1="188" x2="2022.21875" y2="188" fill="rgb(0, 0, 0)" stroke="rgb(66, 66, 66)" stroke-width="1px" opacity="0.25"></line><line x1="0" y1="161.14285714285717" x2="2022.21875" y2="161.14285714285717" fill="rgb(0, 0, 0)" stroke="rgb(66, 66, 66)" stroke-width="1px" opacity="0.25"></line><line x1="0" y1="134.28571428571428" x2="2022.21875" y2="134.28571428571428" fill="rgb(0, 0, 0)" stroke="rgb(66, 66, 66)" stroke-width="1px" opacity="0.25"></line><line x1="0" y1="107.42857142857142" x2="2022.21875" y2="107.42857142857142" fill="rgb(0, 0, 0)" stroke="rgb(66, 66, 66)" stroke-width="1px" opacity="0.25"></line><line x1="0" y1="80.57142857142858" x2="2022.21875" y2="80.57142857142858" fill="rgb(0, 0, 0)" stroke="rgb(66, 66, 66)" stroke-width="1px" opacity="0.25"></line><line x1="0" y1="53.71428571428573" x2="2022.21875" y2="53.71428571428573" fill="rgb(0, 0, 0)" stroke="rgb(66, 66, 66)" stroke-width="1px" opacity="0.25"></line><line x1="0" y1="26.857142857142847" x2="2022.21875" y2="26.857142857142847" fill="rgb(0, 0, 0)" stroke="rgb(66, 66, 66)" stroke-width="1px" opacity="0.25"></line><line x1="0" y1="0" x2="2022.21875" y2="0" fill="rgb(0, 0, 0)" stroke="rgb(66, 66, 66)" stroke-width="1px" opacity="0.25"></line></g></g></g><g><g><line x1="0" y1="376" x2="2022.21875" y2="376" fill="rgb(0, 0, 0)" stroke="rgb(153, 153, 153)" stroke-width="1.5px"></line></g></g><g><g><line x1="202.221875" y1="0" x2="202.221875" y2="376" fill="rgb(0, 0, 0)" stroke="rgb(153, 153, 153)" stroke-width="1.5px"></line></g></g><g><g><g><g><g><path stroke="rgb(255, 112, 67)" stroke-width="2px" d="M202.221875,375.166244279044L206.2663125,374.52496624447554L210.31074999999998,373.77830216160174L214.3551875,372.96885740956975L218.399625,372.1262791578138L222.4440625,371.2660723641616L226.48850000000002,370.39210697547543L230.5329375,369.5192862788301L234.57737500000002,368.64224703014173L238.62181249999998,367.76673325475303L242.66625,366.88641752693155L246.7106875,366.00891759777795L250.755125,365.13294845398434L254.7995625,364.25531957297017L258.844,363.3934869843092L262.8884375,362.5508206490763L266.932875,361.68632099651524L270.97731250000004,360.81243755794526L275.02175,359.9385776693958L279.0661875,359.065943058364L283.110625,358.1915162416303L287.1550625,357.3139863391566L291.1995,356.43986657633786L295.24393749999996,355.5666320841379L299.288375,354.68923884254014L303.3328125,353.81234440328586L307.37725,352.9335595448599L311.4216875,352.05754612381793L315.466125,351.1851027989907L319.5105625,350.30406480193574L323.555,349.4186126148303L327.5994375,348.5373239816313L331.64387500000004,347.6561348287564L335.6883125,346.7711414228592L339.73275,345.8842613848776L343.7771875,345.0004488804926L347.821625,344.12149705545346L351.8660625,343.24043263291566L355.91049999999996,342.36158970669857L359.95493749999997,341.4827443156611L363.999375,340.6011369134014L368.0438125,339.724731546653L372.08825,338.849617573463L376.1326875,337.9761826410112L380.177125,337.10204670864266L384.2215625,336.2217198772676L388.266,335.34292329148104L392.31043750000003,334.4669829271709L396.354875,333.58762781335116L400.3993125,332.7098775910695L404.44375,331.83258107763857L408.48818750000004,330.95791942218L412.532625,330.07635795285637L416.57706249999995,329.1966175006551L420.62149999999997,328.33984571407575L424.6659375,327.4722613118961L428.710375,326.59236767851945L432.7548125,325.7126275548855L436.79925,324.8373317814554L440.8436875,323.96947263967365L444.888125,323.141223984108L448.9325625,322.28360564464793L452.97700000000003,321.4111558642015L457.0214375,320.53435798670165L461.065875,319.6594484263951L465.1103125,318.782834156405L469.15475000000004,317.90709267244927L473.19918750000005,317.0056282567483L477.24362499999995,316.1097101174906L481.28806249999997,315.21991793389805L485.3325,314.32993722148L489.3769375,313.44527281687346L493.421375,312.56199398080497L497.46581249999997,311.67714258997864L501.51025,310.7950288295365L505.5546875,309.90962270671656L509.599125,309.0310146836411L513.6435625,308.14891175549445L517.688,307.27204990529566L521.7324375000001,306.3915491418245L525.776875,305.513910330911L529.8213125,304.63604009197053L533.86575,303.75397542038985L537.9101875,302.87446891175335L541.9546250000001,301.99282572325217L545.9990625,301.1019488870612L550.0435,300.2120068004029L554.0879375000001,299.3226953805411L558.132375,298.43155868029544L562.1768125000001,297.54727707149766L566.22125,296.65863300841676L570.2656874999999,295.7870679688668L574.310125,294.9070277631022L578.3545624999999,294.02808258234325L582.399,293.14893548202974L586.4434375,292.2720204327988L590.4878749999999,291.38945627968053L594.5323125,290.5070325147349L598.57675,289.6281570087617L602.6211875,288.7432000493678L606.665625,287.85844028383957L610.7100624999999,286.97373466557264L614.7545,286.0912722451601L618.7989375,285.20619111012144L622.843375,284.3233379617241L626.8878125,283.44308070600493L630.93225,282.56206321920246L634.9766875,281.6813986744813L639.021125,280.7981757952151L643.0655625,279.92031147012256L647.11,279.0409530158403L651.1544375,278.16067088117063L655.198875,277.2841954890089L659.2433125,276.40506024947706L663.2877500000001,275.5258820909876L667.3321875,274.64365337654283L671.376625,273.7649821085877L675.4210625000001,272.88511470970235L679.4655,272.0087145195867L683.5099375000001,271.1294323350556L687.554375,270.25241728314205L691.5988125,269.3706065393893L695.64325,268.48794960587355L699.6876874999999,267.6086923170916L703.732125,266.72339935880706L707.7765625,265.8430926334103L711.8209999999999,264.96206868228177L715.8654375,264.0812222442686L719.9098749999999,263.20275128288705L723.9543125,262.3229351294626L727.99875,261.4414522267047L732.0431874999999,260.56256938868097L736.087625,259.6854768991223L740.1320625,258.80199736552447L744.1765,257.92484762749416L748.2209375,257.04744774638476L752.265375,256.1653202442272L756.3098125,255.28527202832237L760.35425,254.40631158451836L764.3986875,253.52976889334528L768.443125,252.64725576668454L772.4875625,251.76930490692726L776.532,250.89252392111314L780.5764375,250.01483927432363L784.6208750000001,249.13403972895324L788.6653125,248.25534994555775L792.70975,247.37541029337171L796.7541875000001,246.48881533029183L800.798625,245.6029836965244L804.8430625000001,244.71530351753177L808.8875,243.83173710518503L812.9319375,242.94665873680904L816.9763750000001,242.05976085742455L821.0208125,241.17491589037877L825.06525,240.28680114741144L829.1096875,239.4178832332751L833.1541249999999,238.54023437668695L837.1985625,237.65800460499037L841.2429999999999,236.77937779983813L845.2874375,235.90063653378525L849.331875,235.01544890720388L853.3763124999999,234.13523909484715L857.42075,233.25201681144594L861.4651875,232.36698695573105L865.509625,231.48012372774846L869.5540625,230.59204544933445L873.5985,229.7036383907859L877.6429375,228.81768460468584L881.687375,227.93455869184356L885.7318125,227.0486353880838L889.77625,226.16566782011088L893.8206875,225.2854407250644L897.865125,224.40675525088238L901.9095625,223.52653989610587L905.9540000000001,222.6428179523798L909.9984375,221.76277879816473L914.042875,220.88032250903217L918.0873125,220.0028499151106L922.13175,219.12374557371538L926.1761875000001,218.2367893430475L930.220625,217.34822728517642L934.2650625,216.45985759181005L938.3095000000001,215.57389345932472L942.3539375,214.68942591903104L946.3983750000001,213.79991220665713L950.4428125,212.91476362661635L954.4872499999999,212.02550636012438L958.5316875,211.13874178693953L962.5761249999999,210.25789510472657L966.6205625,209.3737713830688L970.665,208.4903094767732L974.7094374999999,207.60779922217566L978.753875,206.72520822428598L982.7983125,205.84186074951668L986.84275,204.95295802849589L990.8871875,204.0613273501732L994.9316249999999,203.16765405979405L998.9760625,202.27969332444593L1003.0205,201.3922279460602L1007.0649375,200.50503138068663L1011.109375,199.61689235520313L1015.1538125,198.72416369642755L1019.19825,197.82935757033L1023.2426875,196.93730621627225L1027.287125,196.04750337363487L1031.3315625,195.16084253137234L1035.376,194.27473313422482L1039.4204375,193.39665456223696L1043.4648750000001,192.51324275711488L1047.5093125,191.63431596587247L1051.55375,190.74956393286766L1055.5981875,189.8675122001061L1059.642625,188.989327906841L1063.6870625000001,188.1093019984511L1067.7315,187.22861258677614L1071.7759375,186.34867565824777L1075.820375,185.46221223363912L1079.8648125,184.57760490177094L1083.9092500000002,183.69926211603902L1087.9536875000001,182.8125692829878L1091.998125,181.91302168729524L1096.0425625,181.00766880159227L1100.087,180.10198942530542L1104.1314375000002,179.19823399439494L1108.1758750000001,178.29363970769376L1112.2203125,177.38954401430738L1116.26475,176.49053087401535L1120.3091875,175.58794940698496L1124.3536250000002,174.6902509137867L1128.3980625000002,173.78744042744265L1132.4425,172.88810557141707L1136.4869375,171.98961956559384L1140.5313749999998,171.0914707387632L1144.5758125,170.19650001179716L1148.62025,169.30064246372274L1152.6646875,168.40194555720237L1156.7091249999999,167.50517707854658L1160.7535624999998,166.609675894954L1164.798,165.7110239693194L1168.8424375,164.854599752367L1172.886875,164.0075305947876L1176.9313124999999,163.18483829418238L1180.9757499999998,162.39733987910716L1185.0201875,161.6304614095704L1189.064625,160.81246881181312L1193.1090625,160.03309288106627L1197.1535,159.26847718661L1201.1979374999999,158.4175544189493L1205.242375,157.53717241913517L1209.2868125,156.64384401818307L1213.33125,155.74980632012318L1217.3756875,154.85176468967623L1221.4201249999999,153.95119812859048L1225.4645625,153.05437546515188L1229.509,152.15575421265774L1233.5534375,151.26462621515253L1237.597875,150.375873886783L1241.6423125,149.47682842072183L1245.68675,148.57968348231856L1249.7311875,147.68369741100392L1253.775625,146.7893892262702L1257.8200625,145.89488328824442L1261.8645,144.9982470838493L1265.9089375,144.09682511644502L1269.953375,143.19876554691797L1273.9978125,142.3048971010654L1278.04225,141.41019848478305L1282.0866875,140.51601805849796L1286.131125,139.61663370111225L1290.1755625,138.71600005687756L1294.22,137.81879313645504L1298.2644375,136.92355037589255L1302.308875,136.03908294164094L1306.3533125000001,135.2329807883242L1310.39775,134.45568503039726L1314.4421875,133.657841751758L1318.486625,132.88551128707522L1322.5310625,132.12280835245198L1326.5755000000001,131.36327152932506L1330.6199375,130.51504347179022L1334.664375,129.63552509305097L1338.7088125,128.74106307222684L1342.75325,127.84522652210528L1346.7976875000002,126.95097485638259L1350.8421250000001,126.05391273120368L1354.8865625,125.15714228248426L1358.931,124.25470706737724L1362.9754375,123.35153354155788L1367.0198750000002,122.45220827915531L1371.0643125000001,121.55446816925286L1375.10875,120.6582244958794L1379.1531875,119.76280749337097L1383.197625,118.86143854387815L1387.2420625000002,117.96684118811272L1391.2865,117.07103504946376L1395.3309375,116.1763544116437L1399.3753749999998,115.28169137273527L1403.4198124999998,114.38494684335821L1407.46425,113.4861267349144L1411.5086875,112.58823498727082L1415.553125,111.69196662206339L1419.5975624999999,110.79800851148818L1423.6419999999998,109.90371646957466L1427.6864375,109.00626386902601L1431.730875,108.10606678378652L1435.7753125,107.20825814270881L1439.8197499999999,106.31205381901539L1443.8641874999998,105.41568918733785L1447.908625,104.51944340901905L1451.9530625,103.61997983405564L1455.9975,102.72253002794268L1460.0419375,101.82575985837481L1464.0863749999999,100.92626119967997L1468.1308125,100.02878181830043L1472.17525,99.14720475946042L1476.2196875,98.29594606648678L1480.264125,97.42766414214987L1484.3085624999999,96.56981571537548L1488.353,95.77455860045657L1492.3974375,95.00387456391903L1496.441875,94.18441899141139L1500.4863125,93.31416156402138L1504.53075,92.42736015490543L1508.5751875,91.53481084279532L1512.619625,90.63845746174628L1516.6640625,89.74384729777223L1520.7085,88.85041810556682L1524.7529375,87.95660332627034L1528.797375,87.06009787094624L1532.8418125,86.16415776084268L1536.88625,85.27097627533962L1540.9306875,84.37697779770338L1544.975125,83.48762983632655L1549.0195625000001,82.59300860156895L1553.064,81.70198963978595L1557.1084375,80.81195712401765L1561.152875,79.92265638439649L1565.1973125,79.03689497937329L1569.2417500000001,78.14677799081917L1573.2861875,77.25082199236L1577.330625,76.35373554681749L1581.3750625,75.4623883391524L1585.4195,74.57272115492282L1589.4639375000002,73.6801979057126L1593.5083750000001,72.78685608179688L1597.5528125,71.8880986748121L1601.59725,70.99256347541824L1605.6416875,70.09867042451167L1609.6861250000002,69.2037504305101L1613.7305625000001,68.3099757319292L1617.775,67.41511678872277L1621.8194375,66.51630794636043L1625.863875,65.62137322180457L1629.9083125000002,64.72646731556534L1633.9527500000002,63.832273788140846L1637.9971875,62.938610557765415L1642.041625,62.045474051996095L1646.0860624999998,61.14976333339559L1650.1305,60.25446621971106L1654.1749375,59.36120151453292L1658.219375,58.46769361557377L1662.2638124999999,57.573898025972625L1666.3082499999998,56.679667416987286L1670.3526875,55.781813884067674L1674.397125,54.88586992273116L1678.4415625,53.99028887989952L1682.4859999999999,53.10203932495025L1686.5304374999998,52.21820874764371L1690.574875,51.34107313763615L1694.6193125,50.46428220071393L1698.66375,49.590949527896704L1702.7081875,48.71833678873241L1706.7526249999999,47.84581673471227L1710.7970625,46.96599058844448L1714.8415,46.08511566899447L1718.8859375,45.20077735346028L1722.930375,44.31031735746512L1726.9748124999999,43.435749361791466L1731.01925,42.55973321969466L1735.0636875,41.67452346173207L1739.108125,40.78375037411508L1743.1525625,39.890988543201225L1747.197,39.028062997455095L1751.2414375,38.15382120924335L1755.285875,37.27216966709403L1759.3303125,36.388353468982956L1763.37475,35.50228343270414L1767.4191875,34.622229477963934L1771.463625,33.73657012548285L1775.5080625,32.85565996502179L1779.5525,31.968437131956794L1783.5969375,31.07054079168327L1787.641375,30.174694844479514L1791.6858125,29.273897866615012L1795.73025,28.37741225965187L1799.7746875,27.475949336380555L1803.819125,26.5802234462501L1807.8635625,25.687710226075414L1811.9080000000001,24.788809250054705L1815.9524375,23.89202888759211" style="fill: none;" fill="none"></path></g></g></g></g><g opacity="0.2"><g><g><g><path stroke="rgb(255, 112, 67)" stroke-width="2px" d="M202.221875,375.166244279044L206.2663125,374.2825631474086L210.31074999999998,373.38937678745816L214.3551875,372.5035123552595L218.399625,371.6246839076451L222.4440625,370.7473442905971L226.48850000000002,369.8625326538086L230.5329375,368.9894431501116L234.57737500000002,368.10947748674664L238.62181249999998,367.2347524414062L242.66625,366.35146651785715L246.7106875,365.47565794154576L250.755125,364.60061160714287L254.7995625,363.7219712611607L258.844,362.8697372698103L262.8884375,362.0387181919643L266.932875,361.1609499162946L270.97731250000004,360.281363734654L275.02175,359.4075181361607L279.0661875,358.5356281389509L283.110625,357.6601121651786L287.1550625,356.78069646344863L291.1995,355.9086491001674L295.24393749999996,355.0359526018415L299.288375,354.1560320172991L303.3328125,353.27944070870535L307.37725,352.39950701032365L311.4216875,351.5251778390067L315.466125,350.6549041224888L319.5105625,349.76864299665175L323.555,348.8805082310268L327.5994375,348.0017498604911L331.64387500000004,347.1206211635045L335.6883125,346.23331584821426L339.73275,345.34528927176336L343.7771875,344.46334095982144L347.821625,343.58734305245537L351.8660625,342.7049947684152L355.91049999999996,341.82750188337053L359.95493749999997,340.94865499441966L363.999375,340.06536907087053L368.0438125,339.19212506975447L372.08825,338.3177958984375L376.1326875,337.4453813476563L380.177125,336.57081940569196L384.2215625,335.68673025948664L388.266,334.80886363002236L392.31043750000003,333.9346590401786L396.354875,333.0532287248884L400.3993125,332.17645382254466L404.44375,331.2994330357143L408.48818750000004,330.4263726283482L412.532625,329.54061802455357L416.57706249999995,328.66198423549105L420.62149999999997,327.8191708984375L424.6659375,326.94501548549107L428.710375,326.05764132254467L432.7548125,325.17799448939735L436.79925,324.3053996233259L440.8436875,323.44205984933035L444.888125,322.6378831612723L448.9325625,321.7624163643973L452.97700000000003,320.88095326450895L457.0214375,320.00151297433035L461.065875,319.1277509765625L465.1103125,318.25010072544643L469.15475000000004,317.3748896484375L473.19918750000005,316.45779296874997L477.24362499999995,315.56524539620534L481.28806249999997,314.6791760602679L485.3325,313.7890807756696L489.3769375,312.90764718191963L493.421375,312.0252103794643L497.46581249999997,311.1394033203125L501.51025,310.25895326450893L505.5546875,309.37154631696427L509.599125,308.49706961495536L513.6435625,307.6128427734375L517.688,306.73916601562496L521.7324375000001,305.85645382254467L525.776875,304.9805542689732L529.8213125,304.1025433872768L533.86575,303.2179296875L537.9101875,302.33997781808034L541.9546250000001,301.4570361328125L545.9990625,300.5605478515625L550.0435,299.671173828125L554.0879375000001,298.78224567522324L558.132375,297.88999972098213L562.1768125000001,297.00988406808034L566.22125,296.1185888671875L570.2656874999999,295.25740304129465L574.310125,294.3722123325893L578.3545624999999,293.4939326171875L582.399,292.6146628069196L586.4434375,291.73910421316964L590.4878749999999,290.8531070033482L594.5323125,289.9707685546875L598.57675,289.0940493861607L602.6211875,288.2053966238839L606.665625,287.3207566964286L610.7100624999999,286.436083984375L614.7545,285.5549847935268L618.7989375,284.66831222098216L622.843375,283.7868130580357L626.8878125,282.90813337053567L630.93225,282.0266538783482L634.9766875,281.14620382254463L639.021125,280.2614261997768L643.0655625,279.386818359375L647.11,278.5065518973214L651.1544375,277.6257084263393L655.198875,276.75154645647325L659.2433125,275.8707947823661L663.2877500000001,274.9915905412946L667.3321875,274.1075079520089L671.376625,273.2309986049107L675.4210625000001,272.350404296875L679.4655,271.4761111886161L683.5099375000001,270.59507756696433L687.554375,269.71944029017857L691.5988125,268.8347151227679L695.64325,267.9515439453125L699.6876874999999,267.0743526785715L703.732125,266.18539174107144L707.7765625,265.308115234375L711.8209999999999,264.42665541294645L715.8654375,263.54591685267854L719.9098749999999,262.6688895089286L723.9543125,261.788255859375L727.99875,260.9057600446429L732.0431874999999,260.02845731026787L736.087625,259.15245284598217L740.1320625,258.26509179687497L744.1765,257.3917887834821L748.2209375,256.51423688616075L752.265375,255.629236328125L756.3098125,254.75045172991074L760.35425,253.87215234375003L764.3986875,252.99707896205356L768.443125,252.1109375L772.4875625,251.2357592075893L776.532,250.35968917410713L780.5764375,249.48145535714286L784.6208750000001,248.5987628348214L788.6653125,247.72135518973212L792.70975,246.84065597098217L796.7541875000001,245.95001646205358L800.798625,245.0646487165179L804.8430625000001,244.17584514508928L808.8875,243.29477873883928L812.9319375,242.40878152901786L816.9763750000001,241.52077790178572L821.0208125,240.6371805245536L825.06525,239.7470786830357L829.1096875,238.88982700892856L833.1541249999999,238.0068722098214L837.1985625,237.12185853794645L841.2429999999999,236.24542131696433L845.2874375,235.36661049107144L849.331875,234.4775053013393L853.3763124999999,233.60032059151786L857.42075,232.71526757812498L861.4651875,231.82913922991074L865.509625,230.94116183035715L869.5540625,230.0523451450893L873.5985,229.16373828125L877.6429375,228.27927539062503L881.687375,227.3978680245536L885.7318125,226.51024469866073L889.77625,225.6290733816964L893.8206875,224.75051171875L897.865125,223.87276311383928L901.9095625,222.9916180245536L905.9540000000001,222.1057650669643L909.9984375,221.22796400669645L914.042875,220.34403878348215L918.0873125,219.46959486607145L922.13175,218.58949888392857L926.1761875000001,217.69777092633927L930.220625,216.80823297991068L934.2650625,215.91998018973212L938.3095000000001,215.03547795758928L942.3539375,214.15191992187502L946.3983750000001,213.25933956473216L950.4428125,212.37684374999998L954.4872499999999,211.48508956473214L958.5316875,210.59983984375L962.5761249999999,209.72258956473215L966.6205625,208.8364743303571L970.665,207.9534146205357L974.7094374999999,207.07148270089286L978.753875,206.18884263392857L982.7983125,205.30503543526785L986.84275,204.41275669642857L990.8871875,203.51946819196428L994.9316249999999,202.62455357142858L998.9760625,201.740064453125L1003.0205,200.85290011160714L1007.0649375,199.96586690848213L1011.109375,199.07715513392856L1015.1538125,198.1816372767857L1019.19825,197.28556863839287L1023.2426875,196.39519140624998L1027.287125,195.50675502232144L1031.3315625,194.62200362723215L1035.376,193.73622935267858L1039.4204375,192.86303125L1043.4648750000001,191.97637834821433L1047.5093125,191.10017717633932L1051.55375,190.21188504464288L1055.5981875,189.33147433035717L1059.642625,188.45564034598215L1063.6870625000001,187.57449525669645L1067.7315,186.69340262276785L1071.7759375,185.81392299107142L1075.820375,184.92349330357143L1079.8648125,184.04001395089284L1083.9092500000002,183.16547823660716L1087.9536875000001,182.2737109375L1091.998125,181.36635128348215L1096.0425625,180.45747042410716L1100.087,179.55159263392858L1104.1314375000002,178.64900641741073L1108.1758750000001,177.74390234375L1112.2203125,176.84010965401785L1116.26475,175.94418526785714L1120.3091875,175.03943526785716L1124.3536250000002,174.14470424107145L1128.3980625000002,173.238787109375L1132.4425,172.341564453125L1136.4869375,171.4435943080357L1140.5313749999998,170.54565039062498L1144.5758125,169.65261104910712L1148.62025,168.75621456473215L1152.6646875,167.85579213169643L1156.7091249999999,166.96019559151787L1160.7535624999998,166.06546456473217L1164.798,165.16489787946432L1168.8424375,164.33413616071428L1172.886875,163.49275223214286L1176.9313124999999,162.68487416294644L1180.9757499999998,161.91876367187498L1185.0201875,161.16441629464285L1189.064625,160.31536077008928L1193.1090625,159.55945284598212L1197.1535,158.8038071986607L1201.1979374999999,157.90043415178573L1205.242375,157.00214927455357L1209.2868125,156.100953125L1213.33125,155.20648437500003L1217.3756875,154.30600948660714L1221.4201249999999,153.40390848214287L1225.4645625,152.50936104910713L1229.509,151.60964676339287L1233.5534375,150.72307254464283L1237.597875,149.83576395089287L1241.6423125,148.93046316964285L1245.68675,148.03447321428573L1249.7311875,147.13919140625L1253.775625,146.2459029017857L1257.8200625,145.3512767857143L1261.8645,144.45334598214288L1265.9089375,143.549015625L1269.953375,142.65299944196428L1273.9978125,141.76167801339287L1278.04225,140.86647488839287L1282.0866875,139.972609375L1286.131125,139.0700625L1290.1755625,138.16866964285717L1294.22,137.27354520089287L1298.2644375,136.37949609375002L1302.308875,135.50157700892856L1306.3533125000001,134.74309877232142L1310.39775,133.9833091517857L1314.4421875,133.17297879464286L1318.486625,132.41615290178572L1322.5310625,131.65930078125L1326.5755000000001,130.90168805803572L1330.6199375,129.99956082589284L1334.664375,129.10102678571425L1338.7088125,128.19748325892854L1342.75325,127.30081138392859L1346.7976875000002,126.4075228794643L1350.8421250000001,125.50875279017855L1354.8865625,124.6121595982143L1358.931,123.70628180803573L1362.9754375,122.8026595982143L1367.0198750000002,121.90567299107143L1371.0643125000001,121.00889620535713L1375.10875,120.11356194196426L1379.1531875,119.21864732142856L1383.197625,118.31366127232143L1387.2420625000002,117.42317912946427L1391.2865,116.52663839285714L1395.3309375,115.63264174107141L1399.3753749999998,114.73798939732144L1403.4198124999998,113.8399799107143L1407.46425,112.9398984375L1411.5086875,112.04257087053573L1415.553125,111.14728906249998L1419.5975624999999,110.25473493303572L1423.6419999999998,109.36023995535716L1427.6864375,108.46086662946426L1431.730875,107.55900167410714L1435.7753125,106.66264453125L1439.8197499999999,105.76741517857143L1443.8641874999998,104.870953125L1447.908625,103.97477957589285L1451.9530625,103.07336049107143L1455.9975,102.17713448660716L1460.0419375,101.28077734374999L1464.0863749999999,100.3796205357143L1468.1308125,99.48336830357141L1472.17525,98.61145535714286L1476.2196875,97.77862165178573L1480.264125,96.89999441964284L1484.3085624999999,96.04848660714286L1488.353,95.29126729910715L1492.3974375,94.53551674107145L1496.441875,93.68642187499998L1500.4863125,92.78529129464283L1504.53075,91.88843582589284L1508.5751875,90.99239341517857L1512.619625,90.09372823660716L1516.6640625,89.20017745535712L1520.7085,88.30746595982144L1524.7529375,87.41341685267858L1528.797375,86.51527622767858L1532.8418125,85.61967968750001L1536.88625,84.72817466517859L1540.9306875,83.8336796875L1544.975125,82.94715792410713L1549.0195625000001,82.04933203124999L1553.064,81.16050223214285L1557.1084375,80.27106919642858L1561.152875,79.38221316964285L1565.1973125,78.49860267857142L1569.2417500000001,77.60583872767857L1573.2861875,76.70633426339285L1577.330625,75.80856082589287L1581.3750625,74.92070145089286L1585.4195,74.03205524553572L1589.4639375000002,73.13779631696428L1593.5083750000001,72.24395703125L1597.5528125,71.34190848214284L1601.59725,70.4483314732143L1605.6416875,69.55543638392858L1609.6861250000002,68.65989229910714L1613.7305625000001,67.76681361607143L1617.775,66.87129575892857L1621.8194375,65.97008649553571L1625.863875,65.07750613839286L1629.9083125000002,64.18261774553574L1633.9527500000002,63.28885714285716L1637.9971875,62.3955161830357L1642.041625,61.5026997767857L1646.0860624999998,60.60542466517858L1650.1305,59.71037890625L1654.1749375,58.81834933035714L1658.219375,57.92469363839285L1662.2638124999999,57.03072321428571L1666.3082499999998,56.13622823660715L1670.3526875,55.236172991071435L1674.397125,54.34138950892856L1678.4415625,53.44602901785715L1682.4859999999999,52.56223493303572L1686.5304374999998,51.681089843750016L1690.574875,50.80802287946429L1694.6193125,49.931441406250016L1698.66375,49.06021037946429L1702.7081875,48.18803515625L1706.7526249999999,47.315571428571424L1710.7970625,46.43130524553571L1714.8415,45.54979296875002L1718.8859375,44.66334988839286L1722.930375,43.76916964285713L1726.9748124999999,42.90425948660713L1731.01925,42.02736328124999L1735.0636875,41.13656640625002L1739.108125,40.24241238839287L1743.1525625,39.348441964285726L1747.197,38.5036484375L1751.2414375,37.62252957589288L1755.285875,36.736375L1759.3303125,35.85124330357144L1763.37475,34.963803571428585L1767.4191875,34.08740569196427L1771.463625,33.198339843750006L1775.5080625,32.32031584821427L1779.5525,31.429256696428556L1783.5969375,30.524873883928567L1787.641375,29.630273995535724L1791.6858125,28.726468191964265L1795.73025,27.832602678571448L1799.7746875,26.928114955357128L1803.819125,26.03587555803573L1807.8635625,25.145314732142875L1811.9080000000001,24.242531808035725L1815.9524375,23.347040178571444" style="fill: none;" fill="none"></path></g></g></g></g></g></g><g transform="translate(74, 376)" clip-path="url(#clip_1)"><clipPath id="clip_1"><rect width="2022" height="24"></rect></clipPath><g><g><line x1="0" y1="0" x2="0" y2="5" style="visibility: inherit;" fill="rgb(0, 0, 0)" stroke="rgb(204, 204, 204)" stroke-width="1px"></line><line x1="202.221875" y1="0" x2="202.221875" y2="5" style="visibility: inherit;" fill="rgb(0, 0, 0)" stroke="rgb(204, 204, 204)" stroke-width="1px"></line><line x1="404.44375" y1="0" x2="404.44375" y2="5" style="visibility: inherit;" fill="rgb(0, 0, 0)" stroke="rgb(204, 204, 204)" stroke-width="1px"></line><line x1="606.665625" y1="0" x2="606.665625" y2="5" style="visibility: inherit;" fill="rgb(0, 0, 0)" stroke="rgb(204, 204, 204)" stroke-width="1px"></line><line x1="808.8875" y1="0" x2="808.8875" y2="5" style="visibility: inherit;" fill="rgb(0, 0, 0)" stroke="rgb(204, 204, 204)" stroke-width="1px"></line><line x1="1011.109375" y1="0" x2="1011.109375" y2="5" style="visibility: inherit;" fill="rgb(0, 0, 0)" stroke="rgb(204, 204, 204)" stroke-width="1px"></line><line x1="1213.33125" y1="0" x2="1213.33125" y2="5" style="visibility: inherit;" fill="rgb(0, 0, 0)" stroke="rgb(204, 204, 204)" stroke-width="1px"></line><line x1="1415.553125" y1="0" x2="1415.553125" y2="5" style="visibility: inherit;" fill="rgb(0, 0, 0)" stroke="rgb(204, 204, 204)" stroke-width="1px"></line><line x1="1617.775" y1="0" x2="1617.775" y2="5" style="visibility: inherit;" fill="rgb(0, 0, 0)" stroke="rgb(204, 204, 204)" stroke-width="1px"></line><line x1="1819.996875" y1="0" x2="1819.996875" y2="5" style="visibility: inherit;" fill="rgb(0, 0, 0)" stroke="rgb(204, 204, 204)" stroke-width="1px"></line><line x1="2022.21875" y1="0" x2="2022.21875" y2="5" style="visibility: inherit;" fill="rgb(0, 0, 0)" stroke="rgb(204, 204, 204)" stroke-width="1px"></line></g><g transform="translate(0, 8)"><text x="0" y="0" dx="0em" dy="0.95em" style="text-anchor: middle; visibility: hidden; font-family: Roboto, sans-serif; font-size: 12px; font-weight: 200;" fill="rgb(33, 33, 33)" stroke="none" stroke-width="1px">-50</text><text x="202.221875" y="0" dx="0em" dy="0.95em" style="text-anchor: middle; visibility: inherit; font-family: Roboto, sans-serif; font-size: 12px; font-weight: 200;" fill="rgb(33, 33, 33)" stroke="none" stroke-width="1px">0</text><text x="404.44375" y="0" dx="0em" dy="0.95em" style="text-anchor: middle; visibility: inherit; font-family: Roboto, sans-serif; font-size: 12px; font-weight: 200;" fill="rgb(33, 33, 33)" stroke="none" stroke-width="1px">50</text><text x="606.665625" y="0" dx="0em" dy="0.95em" style="text-anchor: middle; visibility: inherit; font-family: Roboto, sans-serif; font-size: 12px; font-weight: 200;" fill="rgb(33, 33, 33)" stroke="none" stroke-width="1px">100</text><text x="808.8875" y="0" dx="0em" dy="0.95em" style="text-anchor: middle; visibility: inherit; font-family: Roboto, sans-serif; font-size: 12px; font-weight: 200;" fill="rgb(33, 33, 33)" stroke="none" stroke-width="1px">150</text><text x="1011.109375" y="0" dx="0em" dy="0.95em" style="text-anchor: middle; visibility: inherit; font-family: Roboto, sans-serif; font-size: 12px; font-weight: 200;" fill="rgb(33, 33, 33)" stroke="none" stroke-width="1px">200</text><text x="1213.33125" y="0" dx="0em" dy="0.95em" style="text-anchor: middle; visibility: inherit; font-family: Roboto, sans-serif; font-size: 12px; font-weight: 200;" fill="rgb(33, 33, 33)" stroke="none" stroke-width="1px">250</text><text x="1415.553125" y="0" dx="0em" dy="0.95em" style="text-anchor: middle; visibility: inherit; font-family: Roboto, sans-serif; font-size: 12px; font-weight: 200;" fill="rgb(33, 33, 33)" stroke="none" stroke-width="1px">300</text><text x="1617.775" y="0" dx="0em" dy="0.95em" style="text-anchor: middle; visibility: inherit; font-family: Roboto, sans-serif; font-size: 12px; font-weight: 200;" fill="rgb(33, 33, 33)" stroke="none" stroke-width="1px">350</text><text x="1819.996875" y="0" dx="0em" dy="0.95em" style="text-anchor: middle; visibility: inherit; font-family: Roboto, sans-serif; font-size: 12px; font-weight: 200;" fill="rgb(33, 33, 33)" stroke="none" stroke-width="1px">400</text><text x="2022.21875" y="0" dx="0em" dy="0.95em" style="text-anchor: middle; visibility: hidden; font-family: Roboto, sans-serif; font-size: 12px; font-weight: 200;" fill="rgb(33, 33, 33)" stroke="none" stroke-width="1px">450</text></g><line x1="0" y1="0" x2="2022.21875" y2="0" fill="rgb(0, 0, 0)" stroke="rgb(204, 204, 204)" stroke-width="1px"></line></g></g></g></g></svg>