<svg viewBox="0 0 2097 400" xmlns="http://www.w3.org/2000/svg"><g><g><g><g><g><line x1="53.1875" y1="376" x2="48.1875" y2="376" style="visibility: inherit;" fill="rgb(0, 0, 0)" stroke="rgb(204, 204, 204)" stroke-width="1px"></line><line x1="53.1875" y1="341.81818181818176" x2="48.1875" y2="341.81818181818176" style="visibility: inherit;" fill="rgb(0, 0, 0)" stroke="rgb(204, 204, 204)" stroke-width="1px"></line><line x1="53.1875" y1="307.63636363636357" x2="48.1875" y2="307.63636363636357" style="visibility: inherit;" fill="rgb(0, 0, 0)" stroke="rgb(204, 204, 204)" stroke-width="1px"></line><line x1="53.1875" y1="273.4545454545454" x2="48.1875" y2="273.4545454545454" style="visibility: inherit;" fill="rgb(0, 0, 0)" stroke="rgb(204, 204, 204)" stroke-width="1px"></line><line x1="53.1875" y1="239.27272727272714" x2="48.1875" y2="239.27272727272714" style="visibility: inherit;" fill="rgb(0, 0, 0)" stroke="rgb(204, 204, 204)" stroke-width="1px"></line><line x1="53.1875" y1="205.0909090909089" x2="48.1875" y2="205.0909090909089" style="visibility: inherit;" fill="rgb(0, 0, 0)" stroke="rgb(204, 204, 204)" stroke-width="1px"></line><line x1="53.1875" y1="170.9090909090907" x2="48.1875" y2="170.9090909090907" style="visibility: inherit;" fill="rgb(0, 0, 0)" stroke="rgb(204, 204, 204)" stroke-width="1px"></line><line x1="53.1875" y1="136.7272727272725" x2="48.1875" y2="136.7272727272725" style="visibility: inherit;" fill="rgb(0, 0, 0)" stroke="rgb(204, 204, 204)" stroke-width="1px"></line><line x1="53.1875" y1="102.54545454545429" x2="48.1875" y2="102.54545454545429" style="visibility: inherit;" fill="rgb(0, 0, 0)" stroke="rgb(204, 204, 204)" stroke-width="1px"></line><line x1="53.1875" y1="68.36363636363605" x2="48.1875" y2="68.36363636363605" style="visibility: inherit;" fill="rgb(0, 0, 0)" stroke="rgb(204, 204, 204)" stroke-width="1px"></line><line x1="53.1875" y1="34.18181818181782" x2="48.1875" y2="34.18181818181782" style="visibility: inherit;" fill="rgb(0, 0, 0)" stroke="rgb(204, 204, 204)" stroke-width="1px"></line><line x1="53.1875" y1="0" x2="48.1875" y2="0" style="visibility: inherit;" fill="rgb(0, 0, 0)" stroke="rgb(204, 204, 204)" stroke-width="1px"></line></g><g transform="translate(43.1875, 0)"><text x="0" y="376" dx="0em" dy="0.3em" style="text-anchor: end; visibility: hidden; font-family: Roboto, sans-serif; font-size: 12px; font-weight: 200;" fill="rgb(33, 33, 33)" stroke="none" stroke-width="1px">0.83</text><text x="0" y="341.81818181818176" dx="0em" dy="0.3em" style="text-anchor: end; visibility: inherit; font-family: Roboto, sans-serif; font-size: 12px; font-weight: 200;" fill="rgb(33, 33, 33)" stroke="none" stroke-width="1px">0.84</text><text x="0" y="307.63636363636357" dx="0em" dy="0.3em" style="text-anchor: end; visibility: inherit; font-family: Roboto, sans-serif; font-size: 12px; font-weight: 200;" fill="rgb(33, 33, 33)" stroke="none" stroke-width="1px">0.85</text><text x="0" y="273.4545454545454" dx="0em" dy="0.3em" style="text-anchor: end; visibility: inherit; font-family: Roboto, sans-serif; font-size: 12px; font-weight: 200;" fill="rgb(33, 33, 33)" stroke="none" stroke-width="1px">0.86</text><text x="0" y="239.27272727272714" dx="0em" dy="0.3em" style="text-anchor: end; visibility: inherit; font-family: Roboto, sans-serif; font-size: 12px; font-weight: 200;" fill="rgb(33, 33, 33)" stroke="none" stroke-width="1px">0.87</text><text x="0" y="205.0909090909089" dx="0em" dy="0.3em" style="text-anchor: end; visibility: inherit; font-family: Roboto, sans-serif; font-size: 12px; font-weight: 200;" fill="rgb(33, 33, 33)" stroke="none" stroke-width="1px">0.88</text><text x="0" y="170.9090909090907" dx="0em" dy="0.3em" style="text-anchor: end; visibility: inherit; font-family: Roboto, sans-serif; font-size: 12px; font-weight: 200;" fill="rgb(33, 33, 33)" stroke="none" stroke-width="1px">0.89</text><text x="0" y="136.7272727272725" dx="0em" dy="0.3em" style="text-anchor: end; visibility: inherit; font-family: Roboto, sans-serif; font-size: 12px; font-weight: 200;" fill="rgb(33, 33, 33)" stroke="none" stroke-width="1px">0.9</text><text x="0" y="102.54545454545429" dx="0em" dy="0.3em" style="text-anchor: end; visibility: inherit; font-family: Roboto, sans-serif; font-size: 12px; font-weight: 200;" fill="rgb(33, 33, 33)" stroke="none" stroke-width="1px">0.91</text><text x="0" y="68.36363636363605" dx="0em" dy="0.3em" style="text-anchor: end; visibility: inherit; font-family: Roboto, sans-serif; font-size: 12px; font-weight: 200;" fill="rgb(33, 33, 33)" stroke="none" stroke-width="1px">0.92</text><text x="0" y="34.18181818181782" dx="0em" dy="0.3em" style="text-anchor: end; visibility: inherit; font-family: Roboto, sans-serif; font-size: 12px; font-weight: 200;" fill="rgb(33, 33, 33)" stroke="none" stroke-width="1px">0.93</text><text x="0" y="0" dx="0em" dy="0.3em" style="text-anchor: end; visibility: hidden; font-family: Roboto, sans-serif; font-size: 12px; font-weight: 200;" fill="rgb(33, 33, 33)" stroke="none" stroke-width="1px">0.94</text></g><line x1="53.1875" y1="0" x2="53.1875" y2="376" fill="rgb(0, 0, 0)" stroke="rgb(204, 204, 204)" stroke-width="1px"></line></g></g><g transform="translate(53, 0)" clip-path="url(#clip_0)"><clipPath id="clip_0"><rect width="2043" height="376"></rect></clipPath><g><g><g><line x1="0" y1="0" x2="0" y2="376" fill="rgb(0, 0, 0)" stroke="rgb(66, 66, 66)" stroke-width="1px" opacity="0.25"></line><line x1="204.38125000000002" y1="0" x2="204.38125000000002" y2="376" fill="rgb(0, 0, 0)" stroke="rgb(66, 66, 66)" stroke-width="1px" opacity="0.25"></line><line x1="408.76250000000005" y1="0" x2="408.76250000000005" y2="376" fill="rgb(0, 0, 0)" stroke="rgb(66, 66, 66)" stroke-width="1px" opacity="0.25"></line><line x1="613.14375" y1="0" x2="613.14375" y2="376" fill="rgb(0, 0, 0)" stroke="rgb(66, 66, 66)" stroke-width="1px" opacity="0.25"></line><line x1="817.5250000000001" y1="0" x2="817.5250000000001" y2="376" fill="rgb(0, 0, 0)" stroke="rgb(66, 66, 66)" stroke-width="1px" opacity="0.25"></line><line x1="1021.90625" y1="0" x2="1021.90625" y2="376" fill="rgb(0, 0, 0)" stroke="rgb(66, 66, 66)" stroke-width="1px" opacity="0.25"></line><line x1="1226.2875" y1="0" x2="1226.2875" y2="376" fill="rgb(0, 0, 0)" stroke="rgb(66, 66, 66)" stroke-width="1px" opacity="0.25"></line><line x1="1430.6687499999998" y1="0" x2="1430.6687499999998" y2="376" fill="rgb(0, 0, 0)" stroke="rgb(66, 66, 66)" stroke-width="1px" opacity="0.25"></line><line x1="1635.0500000000002" y1="0" x2="1635.0500000000002" y2="376" fill="rgb(0, 0, 0)" stroke="rgb(66, 66, 66)" stroke-width="1px" opacity="0.25"></line><line x1="1839.43125" y1="0" x2="1839.43125" y2="376" fill="rgb(0, 0, 0)" stroke="rgb(66, 66, 66)" stroke-width="1px" opacity="0.25"></line><line x1="2043.8125" y1="0" x2="2043.8125" y2="376" fill="rgb(0, 0, 0)" stroke="rgb(66, 66, 66)" stroke-width="1px" opacity="0.25"></line></g><g><line x1="0" y1="376" x2="2043.8125" y2="376" fill="rgb(0, 0, 0)" stroke="rgb(66, 66, 66)" stroke-width="1px" opacity="0.25"></line><line x1="0" y1="341.81818181818176" x2="2043.8125" y2="341.81818181818176" fill="rgb(0, 0, 0)" stroke="rgb(66, 66, 66)" stroke-width="1px" opacity="0.25"></line><line x1="0" y1="307.63636363636357" x2="2043.8125" y2="307.63636363636357" fill="rgb(0, 0, 0)" stroke="rgb(66, 66, 66)" stroke-width="1px" opacity="0.25"></line><line x1="0" y1="273.4545454545454" x2="2043.8125" y2="273.4545454545454" fill="rgb(0, 0, 0)" stroke="rgb(66, 66, 66)" stroke-width="1px" opacity="0.25"></line><line x1="0" y1="239.27272727272714" x2="2043.8125" y2="239.27272727272714" fill="rgb(0, 0, 0)" stroke="rgb(66, 66, 66)" stroke-width="1px" opacity="0.25"></line><line x1="0" y1="205.0909090909089" x2="2043.8125" y2="205.0909090909089" fill="rgb(0, 0, 0)" stroke="rgb(66, 66, 66)" stroke-width="1px" opacity="0.25"></line><line x1="0" y1="170.9090909090907" x2="2043.8125" y2="170.9090909090907" fill="rgb(0, 0, 0)" stroke="rgb(66, 66, 66)" stroke-width="1px" opacity="0.25"></line><line x1="0" y1="136.7272727272725" x2="2043.8125" y2="136.7272727272725" fill="rgb(0, 0, 0)" stroke="rgb(66, 66, 66)" stroke-width="1px" opacity="0.25"></line><line x1="0" y1="102.54545454545429" x2="2043.8125" y2="102.54545454545429" fill="rgb(0, 0, 0)" stroke="rgb(66, 66, 66)" stroke-width="1px" opacity="0.25"></line><line x1="0" y1="68.36363636363605" x2="2043.8125" y2="68.36363636363605" fill="rgb(0, 0, 0)" stroke="rgb(66, 66, 66)" stroke-width="1px" opacity="0.25"></line><line x1="0" y1="34.18181818181782" x2="2043.8125" y2="34.18181818181782" fill="rgb(0, 0, 0)" stroke="rgb(66, 66, 66)" stroke-width="1px" opacity="0.25"></line><line x1="0" y1="0" x2="2043.8125" y2="0" fill="rgb(0, 0, 0)" stroke="rgb(66, 66, 66)" stroke-width="1px" opacity="0.25"></line></g></g></g><g><g><line x1="0" y1="3213.0909090909095" x2="2043.8125" y2="3213.0909090909095" fill="rgb(0, 0, 0)" stroke="rgb(153, 153, 153)" stroke-width="1.5px"></line></g></g><g><g><line x1="204.38125000000002" y1="0" x2="204.38125000000002" y2="376" fill="rgb(0, 0, 0)" stroke="rgb(153, 153, 153)" stroke-width="1.5px"></line></g></g><g><g><g><g><g><path stroke="rgb(255, 112, 67)" stroke-width="2px" d="M269.78325,376.59775805662275L273.870875,364.0725863342791L277.9585,354.09719213087914L282.046125,346.5019031992521L286.13375,341.8084377268193L290.22137499999997,336.96044248111565L294.30899999999997,330.02388482498975L298.396625,322.6425452351484L302.48425,321.42937692993775L306.571875,313.47293014839295L310.6595,311.3152176675927L314.747125,304.1584879068489L318.83475,298.51168067644744L322.922375,294.85216713472715L327.01,293.3649557147215L331.097625,288.77531151919214L335.18525,285.2273574586643L339.272875,282.7341649658106L343.3605,279.8321744193461L347.448125,278.05064826439457L351.53574999999995,273.12772918714626L355.62337499999995,272.4662004233848L359.71099999999996,269.7278779899841L363.79862499999996,264.6180450419266L367.88624999999996,265.6422848778466L371.97387499999996,261.96876705105217L376.06149999999997,258.18632360477676L380.14912499999997,254.44305054383017L384.23675000000003,252.64094546669875L388.32437500000003,248.62622291947108L392.41200000000003,246.46653727056528L396.49962500000004,243.61521035472836L400.58725000000004,240.78567559884831L404.67487500000004,238.92762243150182L408.76250000000005,235.94940651119387L412.85012500000005,233.70933937652453L416.93775,229.746402222303L421.025375,225.93946467492933L425.113,224.31162057611712L429.200625,220.9955114824409L433.28825,219.99230604983825L437.375875,218.77733657722496L441.4635,216.27360792774286L445.551125,213.533012114211L449.63875,212.4876891743893L453.726375,211.49757864057054L457.814,210.20734149618264L461.901625,209.97460452156437L465.98925,208.64953095653868L470.07687500000003,206.20340940020785L474.16450000000003,205.12290250006038L478.25212500000004,203.4208521173903L482.33975,202.106969927813L486.427375,200.93981531522482L490.515,199.07739903829548L494.602625,197.56603448540167L498.69025,196.7539593278845L502.777875,195.24766027090436L506.8655,194.79169897688624L510.953125,194.23207102167655L515.04075,196.14534611293377L519.128375,193.65314588003028L523.216,192.65913654137472L527.303625,193.487424519955L531.39125,193.29994976624437L535.478875,193.7296519189556L539.5665,192.89575970058357L543.654125,191.10748568402707L547.74175,192.87720273815663L551.829375,191.22314189807878L555.917,190.94729041944208L560.004625,191.40961040420905L564.09225,190.29074858403732L568.179875,188.6354086885458L572.2675,188.51494667881707L576.3551249999999,188.47410090029297L580.4427499999999,185.82402813174082L584.5303749999999,186.27660793862722L588.6179999999999,186.28243243146875L592.7056249999999,184.8727799786987L596.79325,186.88965801115313L600.880875,184.56410602300167L604.9685,184.21856373514456L609.056125,183.5544323866708L613.14375,182.0380318554309L617.231375,182.21555714306515L621.319,181.89538711572015L625.406625,181.30699744177502L629.49425,179.93720914820275L633.581875,179.94356781459032L637.6695,178.24150699825594L641.757125,177.68772327550352L645.84475,178.68241653689523L649.932375,178.3407613812858L654.02,177.23899385808951L658.107625,177.18610256267132L662.19525,178.13873152737878L666.282875,177.49312792163462L670.3705,175.16685522864805L674.458125,175.75120918640508L678.54575,176.33567181078652L682.633375,174.13917394331216L686.721,172.81314572692355L690.808625,172.85961673422966L694.89625,172.7166209619841L698.983875,172.0393302046119L703.0714999999999,172.08074016661965L707.1591249999999,171.08119132957128L711.2467499999999,169.94794831957054L715.3343749999999,168.92460399922408L719.4219999999999,169.46325965702152L723.5096249999999,169.24664815554755L727.5972499999999,167.7152772817219L731.6848749999999,167.1128480596721L735.7724999999999,167.00780055958688L739.8601249999999,166.90206837047631L743.9477499999999,165.55416279316444L748.0353749999999,165.2005274367947L752.1229999999999,164.39634612715926L756.2106249999999,162.47280760455698L760.2982499999999,163.426603403498L764.3858749999999,162.53128378226455L768.4735000000001,161.29563304744724L772.5611250000001,162.67951669146234L776.6487500000001,160.3885476610322L780.7363750000001,160.53763644423998L784.8240000000001,158.03019876123096L788.9116250000001,156.88875002401798L792.9992500000001,156.7122550673119L797.0868750000001,156.85337057614933L801.1745000000001,155.86325054290566L805.2621250000001,155.15366823488705L809.3497500000001,153.67673375271048L813.4373750000001,153.24593885142795L817.5250000000001,152.7761680621648L821.6126250000001,152.03200286013134L825.7002500000001,152.30792253514792L829.7878750000001,151.36394288958942L833.8755,149.36880515139464L837.963125,148.65240742753824L842.05075,149.19848473641886L846.138375,147.66254649978944L850.226,146.13772659084214L854.313625,145.41497616168957L858.40125,144.0274749826766L862.488875,143.3613198945922L866.5765,141.291629129548L870.664125,139.76337691904828L874.75175,139.48781231292733L878.839375,139.66700817664795L882.927,138.42211654215274L887.014625,136.69087748395006L891.10225,137.21679487082065L895.189875,136.6743714028981L899.2775,135.39748701756488L903.365125,134.62208771276775L907.45275,132.8794950492857L911.540375,132.31989473659576L915.628,131.41910322885738L919.715625,130.28529942217736L923.80325,129.14845009714367L927.890875,129.71504068437744L931.9785,129.19268054734587L936.066125,127.98002661286078L940.1537500000001,125.72276818044455L944.2413750000001,125.36527651547395L948.3290000000001,123.40757166321347L952.4166250000001,121.91214567946236L956.5042500000001,122.02207066368551L960.591875,120.91624531090152L964.6795,120.56426756162718L968.767125,118.44821188246885L972.85475,118.002415215813L976.942375,118.35804271717441L981.03,115.27236283413708L985.117625,114.28541982194687L989.20525,111.69313005206016L993.292875,112.22419834421278L997.3805,110.70159559582748L1001.468125,110.54627509705924L1005.55575,109.19381844813336L1009.643375,108.14425788404523L1013.731,107.87032146264643L1017.818625,106.94989784685926L1021.90625,106.74834622366218L1025.9938750000001,103.21127327501831L1030.0815,102.32274293344909L1034.1691250000001,102.6715789187015L1038.25675,102.04320978439948L1042.3443750000001,101.7537286010156L1046.432,100.9361599535646L1050.5196250000001,99.30498688556219L1054.60725,97.64494177027305L1058.6948750000001,98.36314786770295L1062.7825,98.39385041600852L1066.8701250000001,96.94177094356256L1070.95775,96.09064344755271L1075.0453750000001,95.40065156455839L1079.133,93.78944262062403L1083.2206250000002,92.80263550202977L1087.30825,92.75074603721657L1091.3958750000002,92.3344795111398L1095.4835,91.28954202055263L1099.5711250000002,89.29387983214139L1103.65875,89.03058268625168L1107.7463750000002,87.95374562957593L1111.834,87.21607314785358L1115.9216250000002,86.12048402724119L1120.00925,84.36064818864025L1124.0968750000002,84.70581645720588L1128.1845,84.42088230973305L1132.2721250000002,84.02981791715429L1136.35975,82.76769405996612L1140.4473750000002,82.99419386690465L1144.535,82.98058435384435L1148.6226250000002,81.38895745037519L1152.7102499999999,80.55604757262508L1156.797875,80.46310482476775L1160.8854999999999,79.87075834469273L1164.973125,79.66104468466146L1169.0607499999999,77.80646870773248L1173.148375,76.12812825292427L1177.2359999999999,76.04142523410785L1181.323625,75.80082089052263L1185.4112499999999,75.9270807734267L1189.498875,75.73871651379487L1193.5865,75.0395876070377L1197.674125,73.64213319289976L1201.76175,72.77857848890329L1205.849375,71.87149638364065L1209.937,72.07632902095271L1214.024625,72.51733258620652L1218.11225,71.52246162761418L1222.199875,70.49477543092908L1226.2875,69.67670898615447L1230.375125,67.90379483432409L1234.46275,67.93708918391059L1238.550375,66.68431556653742L1242.638,67.82082067844652L1246.725625,67.03220279271908L1250.81325,66.32807520122988L1254.900875,66.43499624828041L1258.9885,65.06355829300114L1263.076125,65.38091256499466L1267.16375,65.90690251049249L1271.251375,65.23702013675084L1275.339,64.45497709696535L1279.426625,63.965727534891194L1283.51425,61.69386780925819L1287.601875,62.180807983978696L1291.6895,61.17973003202144L1295.777125,61.44813195338822L1299.86475,59.203002961382936L1303.952375,58.45825950364101L1308.04,59.385458846360144L1312.127625,58.692478502323524L1316.21525,58.42571634514736L1320.302875,59.14644475938659L1324.3905,58.93263252576946L1328.478125,57.874374039956216L1332.56575,57.63491414532645L1336.653375,56.958924290874364L1340.741,56.882844109489334L1344.828625,57.250611383326195L1348.91625,55.897682484233506L1353.003875,55.37208205093947L1357.0915,55.14032960712686L1361.179125,54.88278764805103L1365.26675,54.37940675683658L1369.3543750000001,53.36274868317489L1373.442,54.49409461765485L1377.5296250000001,53.53358702754454L1381.61725,52.16963339121004L1385.7048750000001,52.07428225679636L1389.7925,51.47633654544981L1393.8801250000001,50.66015019112498L1397.96775,50.12023011497397L1402.0553750000001,50.987988640647664L1406.1429999999998,50.31499287010228L1410.230625,50.424177297186006L1414.3182499999998,49.89885716693163L1418.405875,49.50664886466051L1422.4934999999998,48.72096246150167L1426.581125,48.75928993655998L1430.6687499999998,48.46215854440064L1434.756375,46.92392218363989L1438.8439999999998,46.57843260866481L1442.931625,46.551752850560376L1447.0192499999998,46.76356508792948L1451.106875,46.14955193698311L1455.1944999999998,46.111092258960674L1459.282125,45.010512876772175L1463.3697499999998,44.731484651568806L1467.457375,44.95651333076407L1471.5449999999998,44.0831456065612L1475.632625,44.24394904216536L1479.7202499999999,43.742956484262194L1483.807875,44.09647538334574L1487.8954999999999,43.80519332592473L1491.983125,43.709282017656896L1496.0707499999999,42.74285887109038L1500.158375,42.59475924646744L1504.2459999999999,42.48681993774158L1508.333625,41.615076647084265L1512.4212499999999,41.40353956791262L1516.508875,40.195083725755325L1520.5964999999999,40.073604352872664L1524.684125,40.24489347470198L1528.7717499999999,39.85152635547412L1532.859375,39.768984544461446L1536.9470000000001,38.736775246648314L1541.034625,37.51096903896316L1545.1222500000001,38.08626040091214L1549.209875,37.51054264495135L1553.2975000000001,37.49593634854013L1557.385125,36.18260308464546L1561.4727500000001,36.75788469937488L1565.560375,36.68729300375507L1569.6480000000001,35.50854348483659L1573.735625,34.98744748432361L1577.8232500000001,34.90858180680316L1581.910875,34.92591264418787L1585.9985000000001,34.95134587130977L1590.086125,33.8183982214716L1594.1737500000002,33.38545514867969L1598.261375,33.17922273885275L1602.3490000000002,34.50830541187213L1606.436625,33.603660138339364L1610.5242500000002,32.74238117071731L1614.611875,32.558497363373434L1618.6995000000002,32.25758764998088L1622.787125,32.51210946782171L1626.8747500000002,32.811333730307325L1630.962375,31.69215710003792L1635.0500000000002,30.84419613252129L1639.137625,30.18366109019427L1643.2252500000002,30.977440539779156L1647.312875,30.706208466876884L1651.4005000000002,30.089048550246183L1655.488125,30.70089764315546L1659.5757500000002,30.51664212130771L1663.6633749999999,29.46017835023589L1667.751,28.753904728192644L1671.8386249999999,28.79386361563848L1675.92625,28.384055873818753L1680.0138749999999,29.1686949417589L1684.1015,28.077132156096404L1688.1891249999999,28.14620686213957L1692.27675,27.20438408780111L1696.3643749999999,27.008810166131457L1700.452,26.26919166594317L1704.539625,26.853633584858514L1708.62725,26.19165274763169L1712.714875,25.95561730059711L1716.8025,26.41410557471912L1720.890125,25.510876966725146L1724.97775,25.202532032931273L1729.065375,25.789433546935413L1733.153,25.728049760371736L1737.240625,25.435680713653504L1741.32825,25.117461337498785L1745.415875,24.378624919002107L1749.5035,23.664928103252123L1753.591125,23.626552341115207L1757.67875,23.640306195924307L1761.766375,23.385843625928835L1765.854,23.700375666307753L1769.941625,22.90810900209751L1774.02925,23.024039956016267L1778.116875,21.273675472570293L1782.2045,21.853825547600803L1786.292125,20.231667102469537L1790.37975,18.93860634297538L1794.467375,18.237309912260535L1798.555,19.33211632189727L1802.642625,18.81578447269817L1806.73025,18.8802725608144L1810.817875,19.452358731223512L1814.9055,18.596885715156763L1818.993125,18.19317264559109L1823.08075,18.663807460758715L1827.168375,17.20808284987206L1831.256,18.107310673225093L1835.343625,17.351799444250286" style="fill: none;" fill="none"></path></g></g></g></g><g opacity="0.2"><g><g><g><path stroke="rgb(255, 112, 67)" stroke-width="2px" d="M265.695625,380.32707682522846L269.78325,367.9841296456076L273.870875,356.4608265269885L277.9585,348.03497522527505L282.046125,341.88611672141326L286.13375,338.956138784235L290.22137499999997,334.0142331556839L294.30899999999997,325.8084205280649L298.396625,318.15677937594313L302.48425,320.6921138763426L306.571875,308.6376618472011L310.6595,310.00393902171726L314.747125,299.8092212677L318.83475,295.0800196907736L322.922375,292.6282183907248L327.01,292.4611519900234L331.097625,285.9861065257678L335.18525,283.0712053125553L339.272875,281.2190093994139L343.3605,278.0685853091152L347.448125,276.9679844596168L351.53574999999995,270.13598736849684L355.62337499999995,272.0641781200061L359.71099999999996,268.063752781261L363.79862499999996,261.5127124786375L367.88624999999996,266.2647328810257L371.97387499999996,259.7363076643509L376.06149999999997,255.88766826282833L380.14912499999997,252.16819971257974L384.23675000000003,251.54577550021065L388.32437500000003,246.1864076094192L392.41200000000003,245.15405949679268L396.49962500000004,241.882410396229L400.58725000000004,239.06611910733295L404.67487500000004,237.7984518571332L408.76250000000005,234.13949394226057L412.85012500000005,232.3480124040082L416.93775,227.33805777809823L421.025375,223.62592385031945L425.113,223.32235197587428L429.200625,218.98025547374365L433.28825,219.3826410120182L437.375875,218.03897892345068L441.4635,214.75204935940815L445.551125,211.86750533364022L449.63875,211.85242860967446L453.726375,210.89587159590272L457.814,209.42324239557425L461.901625,209.8331662958317L465.98925,207.84426116943342L470.07687500000003,204.7168596441094L474.16450000000003,204.46626004305733L478.25212500000004,202.38648709383858L482.33975,201.30850133028878L486.427375,200.23051556673897L490.515,197.9455769278785L494.602625,196.6475524902342L498.69025,196.26044741543842L502.777875,194.3322566639292L506.8655,194.51460352810932L510.953125,193.8919755762272L515.04075,197.30807599154366L519.128375,192.1385933269152L523.216,192.05506012656457L527.303625,193.99078924005667L531.39125,193.18601816350747L535.478875,193.99078924005667L539.5665,192.38898918845422L543.654125,190.02072108875603L547.74175,193.95268995111624L551.829375,190.21794093738885L555.917,190.77965077486886L560.004625,191.69057013771737L564.09225,189.61079718849862L568.179875,187.6294304240832L572.2675,188.44173986261526L576.3551249999999,188.44927822459815L580.4427499999999,184.2135337482798L584.5303749999999,186.55164840004645L588.6179999999999,186.2859720750287L592.7056249999999,184.0161101601339L596.79325,188.1153491627085L600.880875,183.15082844820876L604.9685,184.00857179815102L609.056125,183.15082844820876L613.14375,181.11648941040022L617.231375,182.32344228571094L621.319,181.70081433382887L625.406625,180.94942300969888L629.49425,179.1047654585403L633.581875,179.94743208451686L637.6695,177.20713563398866L641.757125,177.35117946971533L645.84475,179.2869085832074L649.932375,178.13313172080285L654.02,176.56943095814083L658.107625,177.15395962108252L662.19525,178.71766038374452L666.282875,177.10078360817633L670.3705,173.75313966924477L674.458125,176.1063310449772L678.54575,176.6908597079189L682.633375,172.80432475696895L686.721,172.00729578191567L690.808625,172.8878579573196L694.89625,172.62971999428473L698.983875,171.62772906910274L703.0714999999999,172.10590570623208L707.1591249999999,170.47374846718512L711.2467499999999,169.25925722989155L715.3343749999999,168.30270021611977L719.4219999999999,169.79060987992702L723.5096249999999,169.11500965465186L727.5972499999999,166.78463710438106L731.6848749999999,166.74674155495367L735.7724999999999,166.94396140358648L739.8601249999999,166.83781311728723L743.9477499999999,164.73501760309375L748.0353749999999,164.98561720414577L752.1229999999999,163.90763144059596L756.2106249999999,161.30384046381153L760.2982499999999,164.00624136491237L764.3858749999999,161.98718279058266L768.4735000000001,160.54470703818566L772.5611250000001,163.52052636580018L776.6487500000001,158.99628673900244L780.7363750000001,160.62824023853634L784.8240000000001,156.50638615001318L788.9116250000001,156.1950721740721L792.9992500000001,156.6049960743296L797.0868750000001,156.93912887573225L801.1745000000001,155.26153772527505L805.2621250000001,154.72244297374365L809.3497500000001,152.77917549826867L813.4373750000001,152.9841374483974L817.5250000000001,152.49068034778927L821.6126250000001,151.5797609849408L825.7002500000001,152.4756036238235L829.7878750000001,150.79027037187038L833.8755,148.1563259471545L837.963125,148.21704032204352L842.05075,149.53034522316656L846.138375,146.72913065823627L850.226,145.21106754649756L854.313625,144.97574840892432L858.40125,143.18426687067188L862.488875,142.95648609508154L866.5765,140.03384278037316L870.664125,138.8346320065583L874.75175,139.32034700567056L878.839375,139.77590855685128L882.927,137.665574680675L887.014625,135.63877400484932L891.10225,137.53640382940102L895.189875,136.34473141756905L899.2775,134.6215026161886L903.365125,134.1508643410421L907.45275,131.8204917907713L911.540375,131.97981608997677L915.628,130.8716768784955L919.715625,129.5962675267998L923.80325,128.45756738836099L927.890875,130.05936743996344L931.9785,128.87523339011437L936.066125,127.24307615106738L940.1537500000001,124.35099376331661L944.2413750000001,125.14802273836985L948.3290000000001,122.21784106167866L952.4166250000001,121.00334982438504L956.5042500000001,122.0888739499177L960.591875,120.24421639875916L964.6795,120.35036468505842L968.767125,117.16224878484537L972.85475,117.73149698430827L976.942375,118.57416361028483L981.03,113.3971425836735L985.117625,113.68563773415288L989.20525,110.11775138161381L993.292875,112.54693759571407L997.3805,109.77628395774131L1001.468125,110.45188418301655L1005.55575,108.37190749428471L1009.643375,107.50642204284651L1013.731,107.70384563099235L1017.818625,106.3905407298693L1021.90625,106.62585986744254L1025.9938750000001,101.06173376603543L1030.0815,101.78276790272086L1034.1691250000001,102.88357249173237L1038.25675,101.66133915294282L1042.3443750000001,101.57780595259217L1046.432,100.43930955366639L1050.5196250000001,98.31369521401128L1054.60725,96.63610406355409L1058.6948750000001,98.79961395263655L1062.7825,98.41250887784076L1066.8701250000001,96.05931750210834L1070.95775,95.57339876348307L1075.0453750000001,94.98133173855854L1079.133,92.81028348749317L1083.2206250000002,92.20293599908985L1087.30825,92.71921192515961L1091.3958750000002,92.0815072493118L1095.4835,90.65451569990663L1099.5711250000002,88.08108191056668L1103.65875,88.8705725236371L1107.7463750000002,87.29933339899219L1111.834,86.76777700944363L1115.9216250000002,85.45467584783366L1120.00925,83.29116595875114L1124.0968750000002,84.91558109630219L1128.1845,84.2477229725229L1132.2721250000002,83.79216142134217L1136.35975,82.00067988308979L1140.4473750000002,83.13184165954573L1144.535,82.97231362082725L1148.6226250000002,80.42169865694895L1152.7102499999999,80.04987404563194L1156.797875,80.40662193298323L1160.8854999999999,79.51077929410053L1164.973125,79.53359811956217L1169.0607499999999,76.67941128123871L1173.148375,75.10817215659385L1177.2359999999999,75.98873433199778L1181.323625,75.6546015305951L1185.4112499999999,76.00381105596354L1189.498875,75.62424434315055L1193.5865,74.61471505598573L1197.674125,72.79287633028879L1201.76175,72.25378157875737L1205.849375,71.32024712996034L1209.937,72.20080930536426L1214.024625,72.78533796830594L1218.11225,70.9178615916857L1222.199875,69.87023301558045L1226.2875,69.17955606633952L1230.375125,66.8263646906071L1234.46275,67.95732272754996L1238.550375,65.92298368974149L1242.638,68.51149420304715L1246.725625,66.55294626409342L1250.81325,65.90016486427983L1254.900875,66.4999739907003L1258.9885,64.2301120758055L1263.076125,65.57377416437305L1267.16375,66.22655556418663L1271.251375,64.82992120222596L1275.339,63.979716214266496L1279.426625,63.66840223832546L1283.51425,60.31321993741103L1287.601875,62.47672982649354L1291.6895,60.57135790044595L1295.777125,61.61124437505533L1299.86475,57.83859981190056L1303.952375,58.00566621260194L1308.04,59.94893368807688L1312.127625,58.27134253761968L1316.21525,58.26360043612375L1320.302875,59.58444369922966L1324.3905,58.80269518765517L1328.478125,57.23125232349724L1332.56575,57.48939028653212L1336.653375,56.54811373623915L1340.741,56.83660888671858L1344.828625,57.474109823053375L1348.91625,55.0754845359107L1353.003875,55.05266571044905L1357.0915,54.99948969754286L1361.179125,54.72627501054226L1365.26675,54.07349361072868L1369.3543750000001,52.74490824612685L1373.442,55.18163282220996L1377.5296250000001,52.94987019625559L1381.61725,51.34073552218332L1385.7048750000001,52.01633574745855L1389.7925,51.11295474659294L1393.8801250000001,50.16413983431711L1397.96775,49.792111483487034L1402.0553750000001,51.51534028486756L1406.1429999999998,49.90600187128223L1410.230625,50.4905305342239L1414.3182499999998,49.57961117137543L1418.405875,49.2682971954344L1422.4934999999998,48.243487444790745L1426.581125,48.78258219632216L1430.6687499999998,48.281586733731174L1434.756375,45.9891097328878L1438.8439999999998,46.36847270618767L1442.931625,46.53553910688905L1447.0192499999998,46.89228699424034L1451.106875,45.77640568126313L1455.1944999999998,46.087719657204204L1459.282125,44.341672030362034L1463.3697499999998,44.561914443969556L1467.457375,45.09326709400505L1471.5449999999998,43.55238515680469L1475.632625,44.341672030362034L1479.7202499999999,43.438494769009495L1483.807875,44.31131484291753L1487.8954999999999,43.62817625565945L1491.983125,43.650995081121096L1496.0707499999999,42.15554705533095L1500.158375,42.504756580699386L1504.2459999999999,42.421223380348735L1508.333625,41.08530339327707L1512.4212499999999,41.274984879927025L1516.508875,39.46068451621299L1520.5964999999999,39.99977926774441L1524.684125,40.348988793112845L1528.7717499999999,39.61247045343555L1532.859375,39.718822479247876L1536.9470000000001,38.10948406566254L1541.034625,36.76602571660803L1545.1222500000001,38.43587476556934L1549.209875,37.16066915338672L1553.2975000000001,37.48705985329351L1557.385125,35.38446807861311L1561.4727500000001,37.10749314048057L1565.560375,36.64439322731695L1569.6480000000001,34.79219731417551L1573.735625,34.67076856439746L1577.8232500000001,34.86065379056044L1581.910875,34.936444889415206L1585.9985000000001,34.96680207685975L1590.086125,33.129886627197095L1594.1737500000002,33.12234826521424L1598.261375,33.05389178882927L1602.3490000000002,35.316011602228144L1606.436625,33.05389178882927L1610.5242500000002,32.218967264348635L1614.611875,32.44674803993902L1618.6995000000002,32.07471968910894L1622.787125,32.66678671403347L1626.8747500000002,32.99317741394026L1630.962375,31.01201438903792L1635.0500000000002,30.328875801779837L1639.137625,29.78224268826552L1643.2252500000002,31.45983383872276L1647.312875,30.541376113891435L1651.4005000000002,29.713989951393657L1655.488125,31.072728763926925L1659.5757500000002,30.4046669006346L1663.6633749999999,28.81814731251091L1667.751,28.32469021190278L1671.8386249999999,28.81814731251091L1675.92625,28.135008725252824L1680.0138749999999,29.645533475008683L1684.1015,27.413770849054313L1688.1891249999999,28.188184738159013L1692.27675,26.632022337479867L1696.3643749999999,26.889956561001682L1700.452,25.819712898947806L1704.539625,27.208808898925614L1708.62725,25.789355711503305L1712.714875,25.812174536964946L1716.8025,26.69273671236887L1720.890125,24.961969549005484L1724.97775,25.015145561911673L1729.065375,26.146103598854594L1733.153,25.6907457871869L1737.240625,25.25800306146777L1741.32825,24.924073999578123L1745.415875,23.92962143637901L1749.5035,23.231202385642142L1753.591125,23.60323073647222L1757.67875,23.648664647882438L1761.766375,23.231202385642142L1765.854,23.89152214743858L1769.941625,22.42663504860601L1774.02925,23.094493172385306L1778.116875,20.209949146617355L1782.2045,22.206392634998483L1786.292125,19.24585377086274L1790.37975,18.15279128334722L1794.467375,17.811120119961643L1798.555,19.997448834505754L1802.642625,18.502000808715653L1806.73025,18.91946307095595L1810.817875,19.800025246359915L1814.9055,18.077000184492455L1818.993125,17.94782933321848L1823.08075,18.949820258400493L1827.168375,16.32341419566743L1831.256,18.653786745938206L1835.343625,16.89266239513032" style="fill: none;" fill="none"></path></g></g></g></g></g></g><g transform="translate(53, 376)" clip-path="url(#clip_1)"><clipPath id="clip_1"><rect width="2043" height="24"></rect></clipPath><g><g><line x1="0" y1="0" x2="0" y2="5" style="visibility: inherit;" fill="rgb(0, 0, 0)" stroke="rgb(204, 204, 204)" stroke-width="1px"></line><line x1="204.38125000000002" y1="0" x2="204.38125000000002" y2="5" style="visibility: inherit;" fill="rgb(0, 0, 0)" stroke="rgb(204, 204, 204)" stroke-width="1px"></line><line x1="408.76250000000005" y1="0" x2="408.76250000000005" y2="5" style="visibility: inherit;" fill="rgb(0, 0, 0)" stroke="rgb(204, 204, 204)" stroke-width="1px"></line><line x1="613.14375" y1="0" x2="613.14375" y2="5" style="visibility: inherit;" fill="rgb(0, 0, 0)" stroke="rgb(204, 204, 204)" stroke-width="1px"></line><line x1="817.5250000000001" y1="0" x2="817.5250000000001" y2="5" style="visibility: inherit;" fill="rgb(0, 0, 0)" stroke="rgb(204, 204, 204)" stroke-width="1px"></line><line x1="1021.90625" y1="0" x2="1021.90625" y2="5" style="visibility: inherit;" fill="rgb(0, 0, 0)" stroke="rgb(204, 204, 204)" stroke-width="1px"></line><line x1="1226.2875" y1="0" x2="1226.2875" y2="5" style="visibility: inherit;" fill="rgb(0, 0, 0)" stroke="rgb(204, 204, 204)" stroke-width="1px"></line><line x1="1430.6687499999998" y1="0" x2="1430.6687499999998" y2="5" style="visibility: inherit;" fill="rgb(0, 0, 0)" stroke="rgb(204, 204, 204)" stroke-width="1px"></line><line x1="1635.0500000000002" y1="0" x2="1635.0500000000002" y2="5" style="visibility: inherit;" fill="rgb(0, 0, 0)" stroke="rgb(204, 204, 204)" stroke-width="1px"></line><line x1="1839.43125" y1="0" x2="1839.43125" y2="5" style="visibility: inherit;" fill="rgb(0, 0, 0)" stroke="rgb(204, 204, 204)" stroke-width="1px"></line><line x1="2043.8125" y1="0" x2="2043.8125" y2="5" style="visibility: inherit;" fill="rgb(0, 0, 0)" stroke="rgb(204, 204, 204)" stroke-width="1px"></line></g><g transform="translate(0, 8)"><text x="0" y="0" dx="0em" dy="0.95em" style="text-anchor: middle; visibility: hidden; font-family: Roboto, sans-serif; font-size: 12px; font-weight: 200;" fill="rgb(33, 33, 33)" stroke="none" stroke-width="1px">-50</text><text x="204.38125000000002" y="0" dx="0em" dy="0.95em" style="text-anchor: middle; visibility: inherit; font-family: Roboto, sans-serif; font-size: 12px; font-weight: 200;" fill="rgb(33, 33, 33)" stroke="none" stroke-width="1px">0</text><text x="408.76250000000005" y="0" dx="0em" dy="0.95em" style="text-anchor: middle; visibility: inherit; font-family: Roboto, sans-serif; font-size: 12px; font-weight: 200;" fill="rgb(33, 33, 33)" stroke="none" stroke-width="1px">50</text><text x="613.14375" y="0" dx="0em" dy="0.95em" style="text-anchor: middle; visibility: inherit; font-family: Roboto, sans-serif; font-size: 12px; font-weight: 200;" fill="rgb(33, 33, 33)" stroke="none" stroke-width="1px">100</text><text x="817.5250000000001" y="0" dx="0em" dy="0.95em" style="text-anchor: middle; visibility: inherit; font-family: Roboto, sans-serif; font-size: 12px; font-weight: 200;" fill="rgb(33, 33, 33)" stroke="none" stroke-width="1px">150</text><text x="1021.90625" y="0" dx="0em" dy="0.95em" style="text-anchor: middle; visibility: inherit; font-family: Roboto, sans-serif; font-size: 12px; font-weight: 200;" fill="rgb(33, 33, 33)" stroke="none" stroke-width="1px">200</text><text x="1226.2875" y="0" dx="0em" dy="0.95em" style="text-anchor: middle; visibility: inherit; font-family: Roboto, sans-serif; font-size: 12px; font-weight: 200;" fill="rgb(33, 33, 33)" stroke="none" stroke-width="1px">250</text><text x="1430.6687499999998" y="0" dx="0em" dy="0.95em" style="text-anchor: middle; visibility: inherit; font-family: Roboto, sans-serif; font-size: 12px; font-weight: 200;" fill="rgb(33, 33, 33)" stroke="none" stroke-width="1px">300</text><text x="1635.0500000000002" y="0" dx="0em" dy="0.95em" style="text-anchor: middle; visibility: inherit; font-family: Roboto, sans-serif; font-size: 12px; font-weight: 200;" fill="rgb(33, 33, 33)" stroke="none" stroke-width="1px">350</text><text x="1839.43125" y="0" dx="0em" dy="0.95em" style="text-anchor: middle; visibility: inherit; font-family: Roboto, sans-serif; font-size: 12px; font-weight: 200;" fill="rgb(33, 33, 33)" stroke="none" stroke-width="1px">400</text><text x="2043.8125" y="0" dx="0em" dy="0.95em" style="text-anchor: middle; visibility: hidden; font-family: Roboto, sans-serif; font-size: 12px; font-weight: 200;" fill="rgb(33, 33, 33)" stroke="none" stroke-width="1px">450</text></g><line x1="0" y1="0" x2="2043.8125" y2="0" fill="rgb(0, 0, 0)" stroke="rgb(204, 204, 204)" stroke-width="1px"></line></g></g></g></g></svg>